<svg width="130" height="109" viewBox="0 0 130 109" fill="none" xmlns="http://www.w3.org/2000/svg">
<circle cx="4.36" cy="4.36" r="4.36" fill="#01115F"/>
<circle cx="4.36" cy="44.4721" r="4.36" fill="#01115F"/>
<circle cx="4.36" cy="84.584" r="4.36" fill="#01115F"/>
<circle cx="4.36" cy="24.416" r="4.36" fill="#01115F"/>
<circle cx="4.36" cy="64.528" r="4.36" fill="#01115F"/>
<circle cx="4.36" cy="104.64" r="4.36" fill="#01115F"/>
<circle cx="24.416" cy="4.36" r="4.36" fill="#01115F"/>
<circle cx="24.416" cy="44.4721" r="4.36" fill="#01115F"/>
<circle cx="24.416" cy="84.584" r="4.36" fill="#01115F"/>
<circle cx="24.416" cy="24.416" r="4.36" fill="#01115F"/>
<circle cx="24.416" cy="64.528" r="4.36" fill="#01115F"/>
<circle cx="24.416" cy="104.64" r="4.36" fill="#01115F"/>
<circle cx="44.472" cy="4.36" r="4.36" fill="#01115F"/>
<circle cx="44.472" cy="44.4721" r="4.36" fill="#01115F"/>
<circle cx="44.472" cy="84.584" r="4.36" fill="#01115F"/>
<circle cx="44.472" cy="24.416" r="4.36" fill="#01115F"/>
<circle cx="44.472" cy="64.528" r="4.36" fill="#01115F"/>
<circle cx="44.472" cy="104.64" r="4.36" fill="#01115F"/>
<circle cx="64.528" cy="4.36" r="4.36" fill="#01115F"/>
<circle cx="64.528" cy="44.4721" r="4.36" fill="#01115F"/>
<circle cx="64.528" cy="84.584" r="4.36" fill="#01115F"/>
<circle cx="64.528" cy="24.416" r="4.36" fill="#01115F"/>
<circle cx="64.528" cy="64.528" r="4.36" fill="#01115F"/>
<circle cx="64.528" cy="104.64" r="4.36" fill="#01115F"/>
<circle cx="84.584" cy="4.36" r="4.36" fill="#01115F"/>
<circle cx="84.584" cy="44.4721" r="4.36" fill="#01115F"/>
<circle cx="84.584" cy="84.584" r="4.36" fill="#01115F"/>
<circle cx="84.584" cy="24.416" r="4.36" fill="#01115F"/>
<circle cx="84.584" cy="64.528" r="4.36" fill="#01115F"/>
<circle cx="84.584" cy="104.64" r="4.36" fill="#01115F"/>
<circle cx="104.64" cy="4.36" r="4.36" fill="#01115F"/>
<circle cx="104.64" cy="44.4721" r="4.36" fill="#01115F"/>
<circle cx="104.64" cy="84.584" r="4.36" fill="#01115F"/>
<circle cx="104.64" cy="24.416" r="4.36" fill="#01115F"/>
<circle cx="104.64" cy="64.528" r="4.36" fill="#01115F"/>
<circle cx="104.64" cy="104.64" r="4.36" fill="#01115F"/>
<circle cx="124.696" cy="4.36" r="4.36" fill="#01115F"/>
<circle cx="124.696" cy="44.4721" r="4.36" fill="#01115F"/>
<circle cx="124.696" cy="84.584" r="4.36" fill="#01115F"/>
<circle cx="124.696" cy="24.416" r="4.36" fill="#01115F"/>
<circle cx="124.696" cy="64.528" r="4.36" fill="#01115F"/>
<circle cx="124.696" cy="104.64" r="4.36" fill="#01115F"/>
</svg>
