<svg width="137" height="241" viewBox="0 0 137 241" fill="none" xmlns="http://www.w3.org/2000/svg">
<circle cx="6.53734" cy="4.53734" r="4.53734" fill="#608B52"/>
<circle cx="6.53734" cy="46.2809" r="4.53734" fill="#608B52"/>
<circle cx="6.53734" cy="88.0244" r="4.53734" fill="#608B52"/>
<circle cx="6.53734" cy="25.4091" r="4.53734" fill="#608B52"/>
<circle cx="6.53734" cy="67.1526" r="4.53734" fill="#608B52"/>
<circle cx="6.53734" cy="108.896" r="4.53734" fill="#608B52"/>
<circle cx="27.4091" cy="4.53734" r="4.53734" fill="#608B52"/>
<circle cx="27.4091" cy="46.2809" r="4.53734" fill="#608B52"/>
<circle cx="27.4091" cy="88.0244" r="4.53734" fill="#608B52"/>
<circle cx="27.4091" cy="25.4091" r="4.53734" fill="#608B52"/>
<circle cx="27.4091" cy="67.1526" r="4.53734" fill="#608B52"/>
<circle cx="27.4091" cy="108.896" r="4.53734" fill="#608B52"/>
<circle cx="48.2809" cy="4.53734" r="4.53734" fill="#608B52"/>
<circle cx="48.2809" cy="46.2809" r="4.53734" fill="#608B52"/>
<circle cx="48.2809" cy="88.0244" r="4.53734" fill="#608B52"/>
<circle cx="48.2809" cy="25.4091" r="4.53734" fill="#608B52"/>
<circle cx="48.2809" cy="67.1526" r="4.53734" fill="#608B52"/>
<circle cx="48.2809" cy="108.896" r="4.53734" fill="#608B52"/>
<circle cx="69.1527" cy="4.53734" r="4.53734" fill="#608B52"/>
<circle cx="69.1527" cy="46.2809" r="4.53734" fill="#608B52"/>
<circle cx="69.1527" cy="88.0244" r="4.53734" fill="#608B52"/>
<circle cx="69.1527" cy="25.4091" r="4.53734" fill="#608B52"/>
<circle cx="69.1527" cy="67.1526" r="4.53734" fill="#608B52"/>
<circle cx="69.1527" cy="108.896" r="4.53734" fill="#608B52"/>
<circle cx="90.0244" cy="4.53734" r="4.53734" fill="#608B52"/>
<circle cx="90.0244" cy="46.2809" r="4.53734" fill="#608B52"/>
<circle cx="90.0244" cy="88.0244" r="4.53734" fill="#608B52"/>
<circle cx="90.0244" cy="25.4091" r="4.53734" fill="#608B52"/>
<circle cx="90.0244" cy="67.1526" r="4.53734" fill="#608B52"/>
<circle cx="90.0244" cy="108.896" r="4.53734" fill="#608B52"/>
<circle cx="110.896" cy="4.53734" r="4.53734" fill="#608B52"/>
<circle cx="110.896" cy="46.2809" r="4.53734" fill="#608B52"/>
<circle cx="110.896" cy="88.0244" r="4.53734" fill="#608B52"/>
<circle cx="110.896" cy="25.4091" r="4.53734" fill="#608B52"/>
<circle cx="110.896" cy="67.1526" r="4.53734" fill="#608B52"/>
<circle cx="110.896" cy="108.896" r="4.53734" fill="#608B52"/>
<circle cx="131.768" cy="4.53734" r="4.53734" fill="#608B52"/>
<circle cx="131.768" cy="46.2809" r="4.53734" fill="#608B52"/>
<circle cx="131.768" cy="88.0244" r="4.53734" fill="#608B52"/>
<circle cx="131.768" cy="25.4091" r="4.53734" fill="#608B52"/>
<circle cx="131.768" cy="67.1526" r="4.53734" fill="#608B52"/>
<circle cx="131.768" cy="108.896" r="4.53734" fill="#608B52"/>
<circle cx="4.53734" cy="131.537" r="4.53734" fill="#608B52"/>
<circle cx="4.53734" cy="173.281" r="4.53734" fill="#608B52"/>
<circle cx="4.53734" cy="215.024" r="4.53734" fill="#608B52"/>
<circle cx="4.53734" cy="152.409" r="4.53734" fill="#608B52"/>
<circle cx="4.53734" cy="194.153" r="4.53734" fill="#608B52"/>
<circle cx="4.53734" cy="235.896" r="4.53734" fill="#608B52"/>
<circle cx="25.4091" cy="131.537" r="4.53734" fill="#608B52"/>
<circle cx="25.4091" cy="173.281" r="4.53734" fill="#608B52"/>
<circle cx="25.4091" cy="215.024" r="4.53734" fill="#608B52"/>
<circle cx="25.4091" cy="152.409" r="4.53734" fill="#608B52"/>
<circle cx="25.4091" cy="194.153" r="4.53734" fill="#608B52"/>
<circle cx="25.4091" cy="235.896" r="4.53734" fill="#608B52"/>
<circle cx="46.2809" cy="131.537" r="4.53734" fill="#608B52"/>
<circle cx="46.2809" cy="173.281" r="4.53734" fill="#608B52"/>
<circle cx="46.2809" cy="215.024" r="4.53734" fill="#608B52"/>
<circle cx="46.2809" cy="152.409" r="4.53734" fill="#608B52"/>
<circle cx="46.2809" cy="194.153" r="4.53734" fill="#608B52"/>
<circle cx="46.2809" cy="235.896" r="4.53734" fill="#608B52"/>
<circle cx="67.1527" cy="131.537" r="4.53734" fill="#608B52"/>
<circle cx="67.1527" cy="173.281" r="4.53734" fill="#608B52"/>
<circle cx="67.1527" cy="215.024" r="4.53734" fill="#608B52"/>
<circle cx="67.1527" cy="152.409" r="4.53734" fill="#608B52"/>
<circle cx="67.1527" cy="194.153" r="4.53734" fill="#608B52"/>
<circle cx="67.1527" cy="235.896" r="4.53734" fill="#608B52"/>
<circle cx="88.0244" cy="131.537" r="4.53734" fill="#608B52"/>
<circle cx="88.0244" cy="173.281" r="4.53734" fill="#608B52"/>
<circle cx="88.0244" cy="215.024" r="4.53734" fill="#608B52"/>
<circle cx="88.0244" cy="152.409" r="4.53734" fill="#608B52"/>
<circle cx="88.0244" cy="194.153" r="4.53734" fill="#608B52"/>
<circle cx="88.0244" cy="235.896" r="4.53734" fill="#608B52"/>
<circle cx="108.896" cy="131.537" r="4.53734" fill="#608B52"/>
<circle cx="108.896" cy="173.281" r="4.53734" fill="#608B52"/>
<circle cx="108.896" cy="215.024" r="4.53734" fill="#608B52"/>
<circle cx="108.896" cy="152.409" r="4.53734" fill="#608B52"/>
<circle cx="108.896" cy="194.153" r="4.53734" fill="#608B52"/>
<circle cx="108.896" cy="235.896" r="4.53734" fill="#608B52"/>
<circle cx="129.768" cy="131.537" r="4.53734" fill="#608B52"/>
<circle cx="129.768" cy="173.281" r="4.53734" fill="#608B52"/>
<circle cx="129.768" cy="215.024" r="4.53734" fill="#608B52"/>
<circle cx="129.768" cy="152.409" r="4.53734" fill="#608B52"/>
<circle cx="129.768" cy="194.153" r="4.53734" fill="#608B52"/>
<circle cx="129.768" cy="235.896" r="4.53734" fill="#608B52"/>
</svg>
