<svg xmlns="http://www.w3.org/2000/svg" xmlns:xlink="http://www.w3.org/1999/xlink" viewBox="0 0 2957.29 1080.6"><defs><style>.cls-1{fill:#d7f0f7;}.cls-10,.cls-11,.cls-12,.cls-13,.cls-14,.cls-2,.cls-3,.cls-4,.cls-5,.cls-6,.cls-7,.cls-8,.cls-9{opacity:0.7;}.cls-2{fill:url(#linear-gradient);}.cls-3{fill:url(#linear-gradient-2);}.cls-4{fill:url(#linear-gradient-3);}.cls-5{fill:url(#linear-gradient-4);}.cls-6{fill:url(#linear-gradient-5);}.cls-7{fill:url(#linear-gradient-6);}.cls-8{fill:url(#linear-gradient-7);}.cls-9{fill:url(#linear-gradient-8);}.cls-10{fill:url(#linear-gradient-9);}.cls-11{fill:url(#linear-gradient-10);}.cls-12{fill:url(#linear-gradient-11);}.cls-13{fill:url(#linear-gradient-12);}.cls-14{fill:url(#linear-gradient-13);}.cls-15{fill:#a6dff2;}.cls-16{fill:#fff;}.cls-17,.cls-19,.cls-24,.cls-27,.cls-28,.cls-29{fill:none;}.cls-18{fill:#1a79db;}.cls-19,.cls-27,.cls-28,.cls-29{stroke:#fff;stroke-miterlimit:10;}.cls-19{stroke-width:3.46px;}.cls-20{fill:#0e4e90;}.cls-21{fill:#6e6e6f;}.cls-22{fill:#f0f3f4;}.cls-23{fill:#3eb5e1;}.cls-24{stroke:#d7f0f7;stroke-linecap:round;stroke-linejoin:round;}.cls-24,.cls-27{stroke-width:3.29px;}.cls-25{fill:#4d7888;}.cls-26{fill:#aaaaad;}.cls-28{stroke-width:2.88px;}.cls-29{stroke-width:3.03px;}.cls-30{fill:#589fe0;}</style><linearGradient id="linear-gradient" x1="1677.81" y1="-16216.88" x2="1677.81" y2="-16109.57" gradientTransform="matrix(1, 0, 0, -1, 0, -15302)" gradientUnits="userSpaceOnUse"><stop offset="0.52" stop-color="#f6e8cc" stop-opacity="0"/><stop offset="0.82" stop-color="#fff"/></linearGradient><linearGradient id="linear-gradient-2" x1="1947.95" y1="-16180.77" x2="1947.95" y2="-16073.46" xlink:href="#linear-gradient"/><linearGradient id="linear-gradient-3" x1="1049.1" y1="-16208.2" x2="1049.1" y2="-16046.03" xlink:href="#linear-gradient"/><linearGradient id="linear-gradient-4" x1="1951.73" y1="-16301.87" x2="1951.73" y2="-16066.18" gradientTransform="matrix(1, 0, 0, -1, 0, -15302)" gradientUnits="userSpaceOnUse"><stop offset="0.19" stop-color="#fff" stop-opacity="0"/><stop offset="0.82" stop-color="#fff"/></linearGradient><linearGradient id="linear-gradient-5" x1="1306.68" y1="-16281.07" x2="1306.68" y2="-16045.38" xlink:href="#linear-gradient-4"/><linearGradient id="linear-gradient-6" x1="6146.62" y1="-16248.77" x2="6146.62" y2="-16013.08" gradientTransform="translate(6788.14 -15302) rotate(180)" xlink:href="#linear-gradient-4"/><linearGradient id="linear-gradient-7" x1="1199.42" y1="-15683.53" x2="1199.42" y2="-15718.5" gradientTransform="matrix(1, 0, 0, -1, 0, -15302)" gradientUnits="userSpaceOnUse"><stop offset="0" stop-color="#fff"/><stop offset="0.09" stop-color="#fff" stop-opacity="0.97"/><stop offset="0.22" stop-color="#fff" stop-opacity="0.89"/><stop offset="0.38" stop-color="#fff" stop-opacity="0.75"/><stop offset="0.56" stop-color="#fff" stop-opacity="0.57"/><stop offset="0.76" stop-color="#fff" stop-opacity="0.33"/><stop offset="0.97" stop-color="#fff" stop-opacity="0.04"/><stop offset="1" stop-color="#fff" stop-opacity="0"/></linearGradient><linearGradient id="linear-gradient-8" x1="603.64" y1="-15491.77" x2="603.64" y2="-15512.38" xlink:href="#linear-gradient-7"/><linearGradient id="linear-gradient-9" x1="2105.94" y1="-15459.42" x2="2105.94" y2="-15490.47" xlink:href="#linear-gradient-7"/><linearGradient id="linear-gradient-10" x1="691.76" y1="607.57" x2="691.76" y2="699.44" gradientTransform="matrix(-1, 0, 0, 1, 2594.47, 0)" gradientUnits="userSpaceOnUse"><stop offset="0" stop-color="#fff"/><stop offset="0.18" stop-color="#fff" stop-opacity="0.99"/><stop offset="0.32" stop-color="#fff" stop-opacity="0.95"/><stop offset="0.43" stop-color="#fff" stop-opacity="0.89"/><stop offset="0.54" stop-color="#fff" stop-opacity="0.8"/><stop offset="0.64" stop-color="#fff" stop-opacity="0.69"/><stop offset="0.74" stop-color="#fff" stop-opacity="0.55"/><stop offset="0.83" stop-color="#fff" stop-opacity="0.38"/><stop offset="0.92" stop-color="#fff" stop-opacity="0.2"/><stop offset="1" stop-color="#fff" stop-opacity="0"/></linearGradient><linearGradient id="linear-gradient-11" x1="1841.76" y1="609.52" x2="1841.76" y2="701.39" gradientTransform="translate(764)" xlink:href="#linear-gradient-10"/><linearGradient id="linear-gradient-12" x1="430.16" y1="450.84" x2="430.16" y2="501.05" gradientTransform="translate(100.19)" xlink:href="#linear-gradient-10"/><linearGradient id="linear-gradient-13" x1="1238.4" y1="450.72" x2="1238.4" y2="500.93" gradientTransform="matrix(-1, 0, 0, 1, 1430.51, 0)" xlink:href="#linear-gradient-10"/></defs><g id="Layer_2" data-name="Layer 2"><g id="Layer_1-2" data-name="Layer 1"><g id="sky"><polyline id="sky-2" data-name="sky" class="cls-1" points="336.8 116.2 336.8 0 2256.23 0 2256.23 1075.6 336.8 1075.6 336.8 116.2"/></g><g id="clouds"><g id="cloud10"><path class="cls-2" d="M1770.05,858a10.73,10.73,0,0,0,.5-3.26c0-7.14-7-12.93-15.66-12.93a17.58,17.58,0,0,0-2.31.14c-1.77-11.2-13-19.92-26.91-20.48-4.47-8.21-14.46-13.93-26.07-13.93-15.77,0-28.56,10.56-28.56,23.6,0,.32,0,.63,0,1a27.85,27.85,0,0,0-4.22-.32c-12.17,0-22.14,7.77-23,17.64h-.12l.08,10.74c-.29,0-.56-.07-.85-.07a11.94,11.94,0,0,0-1.35.08c-1-6.49-7.56-11.55-15.61-11.88-2.59-4.76-8.38-8.08-15.12-8.08-9.15,0-16.57,6.13-16.57,13.69a5,5,0,0,0,0,.55,16.56,16.56,0,0,0-2.46-.18c-7.06,0-12.84,4.51-13.35,10.23h-.07l.26,38h65.39l.09,12.38h133V864.47C1777.2,861.09,1774.05,858.31,1770.05,858Z"/></g><g id="clooud9"><path class="cls-3" d="M2040.19,821.91a10.73,10.73,0,0,0,.5-3.26c0-7.14-7-12.93-15.66-12.93a19.49,19.49,0,0,0-2.31.14c-1.77-11.19-13-19.92-26.91-20.48-4.46-8.21-14.46-13.92-26.06-13.92-15.77,0-28.57,10.56-28.57,23.6,0,.31,0,.63,0,.94a27.65,27.65,0,0,0-4.22-.32c-12.17,0-22.13,7.78-23,17.64h-.11l.07,10.75a7.9,7.9,0,0,0-.85-.07,9.84,9.84,0,0,0-1.34.08c-1-6.5-7.57-11.56-15.61-11.89-2.6-4.76-8.39-8.07-15.13-8.07-9.15,0-16.57,6.13-16.57,13.69,0,.18,0,.37,0,.55a16.42,16.42,0,0,0-2.45-.19c-7.06,0-12.85,4.52-13.36,10.23h-.06l.25,38h65.39l.09,12.38h133V828.35C2047.34,825,2044.19,822.2,2040.19,821.91Z"/></g><path class="cls-4" d="M1139.18,820.28a16.57,16.57,0,0,0,.75-4.92c0-10.8-10.6-19.55-23.67-19.55a28.53,28.53,0,0,0-3.48.21c-2.69-16.92-19.71-30.1-40.67-30.94-6.75-12.41-21.85-21.05-39.39-21.05-23.84,0-43.18,16-43.18,35.66,0,.48,0,.95,0,1.43a41.73,41.73,0,0,0-6.38-.49c-18.38,0-33.45,11.76-34.79,26.66l-.17,0,.68,98.89H1150V830C1150,824.9,1145.23,820.71,1139.18,820.28Z"/><g id="cloud8"><path class="cls-5" d="M2240.54,875a23.65,23.65,0,0,0,1.1-7.15c0-15.69-15.4-28.4-34.4-28.4a42.06,42.06,0,0,0-5.06.3c-3.9-24.58-28.65-43.74-59.1-45-9.83-18-31.76-30.59-57.26-30.59-34.65,0-62.74,23.21-62.74,51.83,0,.7,0,1.39.05,2.08a61.18,61.18,0,0,0-9.27-.7c-26.72,0-48.61,17.07-50.57,38.74l-.24,0v2.29a46,46,0,0,0-23.43-6.24,49.54,49.54,0,0,0-7.37.56c0-.55,0-1.1,0-1.65,0-22.78-22.36-41.25-49.94-41.25-20.28,0-37.74,10-45.56,24.34-24.24,1-43.94,16.23-47,35.79a35.6,35.6,0,0,0-4-.24c-11.26,0-20.93,5.62-25.13,13.65-1.95-11.57-13.63-20.56-28-21.14-4.66-8.55-15.06-14.5-27.15-14.5-16.44,0-29.76,11-29.76,24.58,0,.33,0,.66,0,1a30.27,30.27,0,0,0-4.4-.33c-12.67,0-23.06,8.1-24,18.37l-.11,0,.47,68.15h99v37.9H1964l0,2.44h292.19V889.14C2256.23,881.72,2249.33,875.62,2240.54,875Z"/></g><g id="cloud7"><path class="cls-6" d="M1595.49,854.2a23.69,23.69,0,0,0,1.1-7.15c0-15.69-15.4-28.41-34.4-28.41a40.09,40.09,0,0,0-5.06.31c-3.91-24.59-28.65-43.75-59.1-45-9.83-18-31.77-30.59-57.26-30.59-34.65,0-62.74,23.21-62.74,51.84,0,.69,0,1.38,0,2.07a61.18,61.18,0,0,0-9.27-.7c-26.72,0-48.61,17.08-50.57,38.74l-.24,0v2.28a46,46,0,0,0-23.43-6.23,49.55,49.55,0,0,0-7.37.55c0-.55,0-1.09,0-1.65,0-22.78-22.36-41.25-49.94-41.25-20.28,0-37.75,10-45.56,24.35-24.24,1-43.94,16.22-47,35.79a33.41,33.41,0,0,0-4-.25c-11.27,0-20.93,5.62-25.13,13.66-2-11.57-13.63-20.56-28-21.14-4.66-8.56-15.06-14.51-27.15-14.51-16.44,0-29.76,11-29.76,24.58q0,.5,0,1a28.93,28.93,0,0,0-4.4-.33c-12.67,0-23.06,8.09-24,18.37h-.11l.47,68.16h99v37.9H1319l0,2.43h292.19V868.35C1611.18,860.92,1604.28,854.83,1595.49,854.2Z"/></g><g id="cloud6"><path class="cls-7" d="M352.71,821.89a23.65,23.65,0,0,1-1.1-7.15c0-15.69,15.4-28.4,34.39-28.4a42.11,42.11,0,0,1,5.07.3c3.9-24.58,28.65-43.74,59.1-45,9.82-18,31.76-30.59,57.25-30.59,34.66,0,62.75,23.21,62.75,51.83,0,.7,0,1.39-.06,2.08a61.41,61.41,0,0,1,9.28-.7c26.72,0,48.61,17.07,50.57,38.74l.24,0,0,2.29a46.06,46.06,0,0,1,23.43-6.24,49.57,49.57,0,0,1,7.38.56c0-.55,0-1.1,0-1.65,0-22.78,22.35-41.25,49.93-41.25,20.29,0,37.75,10,45.57,24.34,24.24,1,43.93,16.23,47,35.79a35.46,35.46,0,0,1,4-.24c11.26,0,20.93,5.62,25.12,13.65,2-11.57,13.63-20.56,28-21.14,4.65-8.55,15.06-14.5,27.15-14.5,16.43,0,29.76,11,29.76,24.58,0,.33,0,.66,0,1a30.17,30.17,0,0,1,4.4-.33c12.67,0,23.05,8.1,24,18.37l.12,0-.47,68.15h-99v37.9H629.22v2.44H337V836C337,828.62,343.91,822.52,352.71,821.89Z"/></g><g id="cloud3"><path class="cls-8" d="M1297.52,409.08s.15-27.55-24.62-27.55-23.79,22.68-23.79,22.68-3.71-12.94-19.51-11.46c-18.12,1.7-16.79,16.33-16.79,16.33s-3.78-11.49-21.91-8.17a16.49,16.49,0,0,0-13.17,12.25s-6.19-14.82-19.76-15.3c-18.94-.69-27.17,16.32-27.17,16.32l-63,6.12L1331,416.22Z"/></g><g id="cloud1"><path class="cls-9" d="M661.46,206s.09-16.24-14.51-16.24-14,13.37-14,13.37-2.18-7.63-11.5-6.75c-10.67,1-9.89,9.62-9.89,9.62s-2.23-6.78-12.92-4.82a9.72,9.72,0,0,0-7.76,7.22s-3.65-8.73-11.65-9c-11.16-.4-16,9.62-16,9.62l-37.12,3.61,155.16-2.4Z"/></g><g id="cloud2"><path class="cls-10" d="M2193,181.87s.14-24.45-21.86-24.45-21.13,20.13-21.13,20.13-3.29-11.49-17.32-10.17c-16.08,1.51-14.9,14.49-14.9,14.49s-3.36-10.2-19.46-7.25a14.65,14.65,0,0,0-11.7,10.88s-5.49-13.16-17.54-13.59c-16.82-.61-24.13,14.49-24.13,14.49l-55.92,5.44,233.71-3.63Z"/></g><g id="cloud5"><path class="cls-11" d="M2254.23,597.64l-1.27-2.89c-12.25-33-89.88-10.44-110.84,4.39-15.35,10.87-32,26.88-51.26,21.89-6.78-1.75-12.14-5.93-18-9.25-22.34-12.62-54.51-11.84-75.92,1.85-13.38,8.56-24.47,22.11-41.38,22.77-9.37.37-18.29-3.55-27.66-3.85-22.23-.72-37.3,17.68-56,27.66-20.77,11.08-39.13,7.55-61.53,4.59-19.88-2.64-40.83-.29-60.92,1.41-28.12,2.38-58.29,11.16-86.38,11.19-5.28,0-111.89,14.55-111.89,14.55s83.7,11.64,127.75,8,22.27-3.92,62.38,0,85.2,13.83,103,12.37-9.28.29,55.38.15,69.18,8,133,7.5,70.12-14.93,109.25-20,112.24,2,112.24,2V597.64Z"/><path class="cls-12" d="M2254.23,599.59s1.28-2.88,1.28-2.89c12.25-33,89.88-10.44,110.84,4.39,15.35,10.87,32,26.88,51.26,21.89,6.78-1.75,12.14-5.93,18-9.25,22.34-12.62,54.51-11.84,75.92,1.85,13.38,8.56,24.47,22.11,41.38,22.78,9.37.36,18.29-3.56,27.66-3.86,22.23-.72,37.3,17.68,56,27.66,20.77,11.08,39.13,7.56,61.53,4.59,19.88-2.64,40.83-.29,60.92,1.41,28.12,2.38,58.29,11.16,86.38,11.19,5.28,0,111.89,14.56,111.89,14.56s-83.7,11.63-127.75,8-22.27-3.92-62.38,0-85.2,13.83-103,12.37,9.28.29-55.38.15-69.18,8-133,7.5-70.12-14.93-109.25-20-112.25,2-112.25,2V599.59Z"/></g><g id="cloud4"><path class="cls-13" d="M338.23,445.42s.7-1.57.7-1.58c6.7-18,49.12-5.71,60.58,2.4,8.39,5.94,17.47,14.69,28,12,3.7-1,6.63-3.24,9.83-5.05,12.22-6.9,29.8-6.47,41.5,1,7.31,4.68,13.37,12.08,22.61,12.44,5.12.2,10-1.94,15.12-2.1,12.15-.4,20.39,9.66,30.6,15.11,11.35,6.06,21.39,4.13,33.63,2.51,10.86-1.44,22.31-.16,33.29.77,15.37,1.3,31.86,6.1,47.21,6.12,2.89,0,61.15,7.95,61.15,7.95s-45.74,6.36-69.82,4.38-12.17-2.15-34.09,0S572,508.9,562.25,508.1s5.07.16-30.27.08-37.81,4.35-72.69,4.1-38.33-8.16-59.71-10.94-61.35,1.07-61.35,1.07v-57Z"/><path class="cls-14" d="M384.23,445.29l-.69-1.57c-6.7-18.05-49.12-5.71-60.58,2.39-8.39,5.94-17.47,14.7-28,12-3.7-1-6.63-3.25-9.83-5.06-12.22-6.9-29.8-6.47-41.5,1-7.31,4.68-13.37,12.09-22.61,12.45-5.12.2-10-1.94-15.12-2.11-12.15-.39-20.39,9.67-30.6,15.12-11.35,6.05-21.39,4.13-33.63,2.51-10.86-1.44-22.31-.16-33.29.77-15.37,1.3-31.86,6.1-47.21,6.11-2.89,0-61.15,8-61.15,8s45.74,6.36,69.82,4.37,12.17-2.14,34.09,0,46.56,7.56,56.31,6.77-5.07.16,30.27.08,37.81,4.35,72.69,4.09,38.33-8.15,59.71-10.94,61.34,1.07,61.34,1.07v-57Z"/></g></g><g id="buildings"><path id="buildings-2" data-name="buildings" class="cls-15" d="M336.8,917.16l14.47,1.37v20.58l1.35-1.83,6-5.89,1.52-.63,1.87-7,1.1,7.2,3.64-.06v8.41l7.55,9.48v12.35l6.95,5.37v19.54H394l9.66,3.09V962h20.17v8.8h5.26v9.6h26.78v64.81H472v4.8h22.71v9.44h7.12v-58.14h25.93v4h26.62v6.85h11.86V994.66l15.09,7.42v-7.42l19.15,8v-29l13.05,10h35.6V934.84h7.17v-13h47.69v14.63h6.78v23.31h7.91v49.68h8.59V971.57h195v31.73h105.12s15-9.34,29.06-9.62c0,0,15.42,19,11.44,37.21H1088l7.76-13.16h7.14V968.49h34v2.22h-5.81v5.1h7.42v49h11V993.63h3.77V980.52h5.18v-3.39h6.43v-2.08h5.74v2.08h4.41V938.36h5.87v-66.5h10V750.32H1195v-30h1.68v-30h1.12l1.4-39.29,1,39.24h2V701.9h3v59.25h3.46V789.7h5.14v24.06h3.92v80.17h3.85V959h6.71v42.58h18V954.35h17.21V901.43h7.13V889.69h47.84v12h9.86v77.4h32.46V940.34l7.83-5.28v-7.74h19.86v10.94h11.75V989s14.55,10.38,14.55,23.39h18.18v-6.22H1456v-8.3h4.76v-8.12h20.42v8.4h4.06v14.05h3.92V991.37h4v-5.94h11.47V970.81h26.58v14.24H1683l163.24,58.29V945.43l16.78-19v-6.22h2.1v6.22l19.1,19.25v94.6h19.37V962.41h52.59v77.25l18.68,4.39v-8.21h22v-8.35h39V1033h6.93V1025h8.39l7.76-5.24h14.69V1024H2089v8.77h15.11v-20.8h18v23.63h24.76V1023h22.87v10.33h25.81v-9.77h12.17v-9.48h48.44v61.55H336.8Z"/></g><path class="cls-16" d="M772,1054.13c-2.58,14-13.79,21-14.5,21.47Z"/><line class="cls-17" x1="757.49" y1="1075.57" x2="757.46" y2="1075.6"/><g id="bridge"><path class="cls-1" d="M1678.7,853.88v1.82h-23.2l4.64-1.82Z"/><path class="cls-1" d="M1678.7,861v1.82h-40.23c1.4-.63,2.81-1.23,4.18-1.82Z"/><path class="cls-1" d="M1678.7,868.14V870H1623c1.29-.6,2.55-1.22,3.8-1.82Z"/><path class="cls-1" d="M1678.7,875.27v1.82h-69.93c1.18-.63,2.36-1.22,3.53-1.82Z"/><path class="cls-1" d="M1678.7,882.4v1.82h-83.17c1.11-.63,2.21-1.22,3.31-1.82Z"/><path class="cls-1" d="M1678.7,889.53v1.82h-95.49l3-1.82Z"/><path class="cls-1" d="M1678.7,896.66v1.82H1571.62c1-.62,1.9-1.22,2.85-1.82Z"/><path class="cls-1" d="M1678.7,903.76v1.86h-118c.92-.63,1.83-1.26,2.78-1.86Z"/><path class="cls-1" d="M1678.7,910.89v1.86H1550.32c.88-.63,1.75-1.26,2.62-1.86Z"/><path class="cls-1" d="M1678.7,918v1.86H1540.51c.84-.63,1.67-1.26,2.51-1.86Z"/><path class="cls-1" d="M1678.7,925.15V927H1531.27c.76-.63,1.56-1.26,2.36-1.86Z"/><path class="cls-1" d="M1678.7,932.29v1.85H1522.45c.76-.63,1.52-1.26,2.28-1.85Z"/><path class="cls-1" d="M1678.7,939.42v1.85H1514l2.13-1.85Z"/><path class="cls-1" d="M1678.7,946.55v1.85H1506.06c.68-.63,1.37-1.22,2-1.85Z"/><path class="cls-1" d="M1678.7,953.68v1.82H1498.49c.65-.63,1.25-1.22,1.9-1.82Z"/><path class="cls-1" d="M1678.7,960.81v1.82H1491.23c.61-.63,1.21-1.22,1.82-1.82Z"/><path class="cls-1" d="M1678.7,967.94v1.82H1484.27c.61-.59,1.18-1.22,1.78-1.82Z"/><path class="cls-1" d="M1678.7,975.07v1.82h-201c.53-.59,1.06-1.22,1.67-1.82Z"/><path class="cls-1" d="M1678.7,982.2V984H1471.41c.54-.59,1-1.22,1.56-1.82Z"/><path class="cls-1" d="M1678.7,989.33v1.83H1465.41c.49-.6,1-1.23,1.52-1.83Z"/><path class="cls-1" d="M1678.7,996.46v1.83h-219c.46-.63.95-1.23,1.45-1.83Z"/><path class="cls-1" d="M1678.7,1003.6v1.82H1454.23a22.21,22.21,0,0,1,1.37-1.82Z"/><path class="cls-1" d="M1678.7,1010.73v1.82H1449a21.16,21.16,0,0,1,1.33-1.82Z"/><path class="cls-1" d="M1678.7,1017.86v1.82H1444c.38-.6.8-1.23,1.25-1.82Z"/><path class="cls-1" d="M1678.7,1025v1.82H1439.24c.38-.6.76-1.22,1.18-1.82Z"/><path class="cls-1" d="M1678.7,1032.12v1.82h-244c.38-.59.76-1.22,1.18-1.82Z"/><path class="cls-1" d="M1678.7,1039.25v1.82H1430.38c.35-.59.73-1.22,1.11-1.82Z"/><path class="cls-1" d="M1678.7,1046.35v1.85H1426.31c.31-.62.65-1.22,1-1.85Z"/><path class="cls-1" d="M1678.7,1053.48v1.85H1422.4c.3-.62.61-1.22,1-1.85Z"/><path class="cls-1" d="M1678.7,1060.61v1.86h-260c.31-.63.61-1.26.95-1.86Z"/><path class="cls-18" d="M1678.7,848.57v5.31h-18.56c5.48-2.11,10.42-3.87,14.6-5.31Z"/><path class="cls-18" d="M1678.7,855.7V861h-36c4.53-2,8.82-3.74,12.85-5.31Z"/><path class="cls-18" d="M1678.7,862.83v5.31h-51.91c4-1.89,8-3.68,11.68-5.31Z"/><path class="cls-18" d="M1678.7,870v5.31h-66.4c3.66-1.85,7.23-3.61,10.69-5.31Z"/><path class="cls-18" d="M1678.7,877.09v5.31h-79.86c3.35-1.85,6.7-3.61,9.93-5.31Z"/><path class="cls-18" d="M1678.7,884.22v5.31h-92.44c3.11-1.82,6.23-3.61,9.27-5.31Z"/><path class="cls-18" d="M1678.7,891.35v5.31H1574.47c3-1.82,5.85-3.61,8.74-5.31Z"/><path class="cls-18" d="M1678.7,898.48v5.28H1563.44c2.74-1.82,5.48-3.58,8.18-5.28Z"/><path class="cls-18" d="M1678.7,905.62v5.27H1552.94c2.59-1.82,5.18-3.58,7.72-5.27Z"/><path class="cls-18" d="M1678.7,912.75V918H1543q3.64-2.73,7.3-5.27Z"/><path class="cls-18" d="M1678.7,919.88v5.27H1533.63c2.28-1.79,4.6-3.54,6.88-5.27Z"/><path class="cls-18" d="M1678.7,927v5.28h-154c2.17-1.83,4.33-3.59,6.54-5.28Z"/><path class="cls-18" d="M1678.7,934.14v5.28H1516.17c2.09-1.79,4.19-3.55,6.28-5.28Z"/><path class="cls-18" d="M1678.7,941.27v5.28H1508.11c1.94-1.79,4-3.55,5.93-5.28Z"/><path class="cls-18" d="M1678.7,948.4v5.28H1500.39c1.86-1.79,3.77-3.55,5.67-5.28Z"/><path class="cls-18" d="M1678.7,955.5v5.31H1493.05c1.79-1.79,3.61-3.58,5.44-5.31Z"/><path class="cls-18" d="M1678.7,962.63v5.31H1486.05c1.72-1.79,3.43-3.58,5.18-5.31Z"/><path class="cls-18" d="M1678.7,969.76v5.31H1479.4c1.6-1.79,3.23-3.55,4.87-5.31Z"/><path class="cls-18" d="M1678.7,976.89v5.31H1473c1.56-1.79,3.16-3.55,4.76-5.31Z"/><path class="cls-18" d="M1678.7,984v5.31H1466.93c1.44-1.79,3-3.55,4.48-5.31Z"/><path class="cls-18" d="M1678.7,991.16v5.3H1461.11c1.41-1.79,2.85-3.54,4.3-5.3Z"/><path class="cls-18" d="M1678.7,998.29v5.31H1455.6c1.33-1.79,2.66-3.55,4.06-5.31Z"/><path class="cls-18" d="M1678.7,1005.42v5.31H1450.31c1.25-1.79,2.55-3.55,3.92-5.31Z"/><path class="cls-18" d="M1678.7,1012.55v5.31H1445.25c1.22-1.79,2.44-3.58,3.73-5.31Z"/><path class="cls-18" d="M1678.7,1019.68V1025H1440.42c1.18-1.79,2.36-3.55,3.58-5.31Z"/><path class="cls-18" d="M1678.7,1026.81v5.31H1435.86c1.06-1.79,2.21-3.55,3.38-5.31Z"/><path class="cls-18" d="M1678.7,1033.94v5.31H1431.49c1-1.79,2.13-3.55,3.19-5.31Z"/><path class="cls-18" d="M1678.7,1041.07v5.28H1427.34c1-1.76,2-3.52,3-5.28Z"/><path class="cls-18" d="M1678.7,1048.2v5.28H1423.39c.91-1.76,1.9-3.52,2.92-5.28Z"/><path class="cls-18" d="M1678.7,1055.33v5.28H1419.62c.88-1.76,1.79-3.52,2.78-5.28Z"/><path class="cls-18" d="M1678.7,1062.47v5.27H1416c.87-1.79,1.75-3.55,2.66-5.27Z"/><path class="cls-18" d="M1695.67,859.15h-13.42v-5.31h12.85C1695.25,855.45,1695.44,857.24,1695.67,859.15Z"/><path class="cls-18" d="M1696.85,866.28h-14.6V861h13.69C1696.2,862.64,1696.47,864.43,1696.85,866.28Z"/><path class="cls-18" d="M1698.33,873.42h-16.08v-5.31h14.94C1697.5,869.8,1697.88,871.56,1698.33,873.42Z"/><path class="cls-18" d="M1700.12,880.55h-17.87v-5.31h16.5C1699.17,877,1699.62,878.72,1700.12,880.55Z"/><path class="cls-18" d="M1702.29,887.68h-20v-5.31h18.4C1701.15,884.1,1701.68,885.86,1702.29,887.68Z"/><path class="cls-18" d="M1704.76,894.81h-22.51V889.5h20.65C1703.47,891.23,1704.07,893,1704.76,894.81Z"/><path class="cls-18" d="M1707.61,901.94h-25.36v-5.31h23.19C1706.13,898.39,1706.81,900.15,1707.61,901.94Z"/><path class="cls-18" d="M1710.77,909h-28.52v-5.28h26.12Q1709.51,906.36,1710.77,909Z"/><path class="cls-18" d="M1714.34,916.17h-32.09v-5.28h29.43C1712.48,912.62,1713.35,914.38,1714.34,916.17Z"/><path class="cls-18" d="M1718.22,923.3h-36V918h33C1716.24,919.78,1717.19,921.54,1718.22,923.3Z"/><path class="cls-18" d="M1722.59,930.43h-40.34v-5.28h37.11C1720.35,926.88,1721.45,928.67,1722.59,930.43Z"/><path class="cls-18" d="M1727.35,937.56h-45.1v-5.27h41.52C1724.91,934.05,1726.09,935.8,1727.35,937.56Z"/><path class="cls-18" d="M1732.59,944.69h-50.34v-5.27h46.43C1729.89,941.18,1731.23,942.94,1732.59,944.69Z"/><path class="cls-18" d="M1738.3,951.83h-56v-5.28H1734C1735.41,948.31,1736.82,950.07,1738.3,951.83Z"/><path class="cls-18" d="M1744.57,959h-62.32v-5.28h57.65C1741.38,955.44,1742.94,957.23,1744.57,959Z"/><path class="cls-18" d="M1751.38,966.09h-69.13v-5.31h64C1747.88,962.54,1749.59,964.33,1751.38,966.09Z"/><path class="cls-18" d="M1758.83,973.22h-76.58v-5.31h71C1755,969.67,1756.89,971.46,1758.83,973.22Z"/><path class="cls-18" d="M1767,980.35h-84.72V975h78.6C1762.83,976.83,1764.88,978.59,1767,980.35Z"/><path class="cls-18" d="M1776,987.48h-93.7v-5.31h86.93C1771.38,984,1773.63,985.72,1776,987.48Z"/><path class="cls-18" d="M1785.76,994.61H1682.25V989.3h96.09C1780.74,991.09,1783.21,992.85,1785.76,994.61Z"/><path class="cls-18" d="M1796.56,1001.74H1682.25v-5.31h106.17C1791.08,998.22,1793.78,1000,1796.56,1001.74Z"/><path class="cls-18" d="M1808.57,1008.87H1682.25v-5.31h117.27C1802.45,1005.36,1805.45,1007.15,1808.57,1008.87Z"/><path class="cls-18" d="M1821.84,1016H1682.25v-5.3h129.59C1815.07,1012.49,1818.42,1014.25,1821.84,1016Z"/><path class="cls-18" d="M1836.86,1023.14H1682.25v-5.31h143.32C1829.22,1019.65,1833,1021.41,1836.86,1023.14Z"/><path class="cls-18" d="M1853.86,1030.27H1682.25V1025H1841C1845.15,1026.78,1849.45,1028.54,1853.86,1030.27Z"/><path class="cls-18" d="M1873.48,1037.4H1682.25v-5.31h176.37C1863.45,1033.91,1868.39,1035.7,1873.48,1037.4Z"/><path class="cls-18" d="M1896.68,1044.53H1682.25v-5.31H1879Q1887.55,1042,1896.68,1044.53Z"/><path class="cls-18" d="M1924.93,1051.63H1682.25v-5.28h221Q1913.74,1049.13,1924.93,1051.63Z"/><path class="cls-18" d="M1962.24,1058.76h-280v-5.28h251.28Q1947.33,1056.36,1962.24,1058.76Z"/><path class="cls-18" d="M2022.06,1065.89H1682.25v-5.28h292.23C1989.54,1062.78,2005.36,1064.54,2022.06,1065.89Z"/><path class="cls-1" d="M1695.94,861h-13.69v-1.83h13.42C1695.78,859.75,1695.86,860.35,1695.94,861Z"/><path class="cls-1" d="M1697.19,868.11h-14.94v-1.83h14.6A15.79,15.79,0,0,0,1697.19,868.11Z"/><path class="cls-1" d="M1698.75,875.24h-16.5v-1.82h16.08C1698.45,874,1698.6,874.61,1698.75,875.24Z"/><path class="cls-1" d="M1700.65,882.37h-18.4v-1.82h17.87C1700.31,881.14,1700.46,881.74,1700.65,882.37Z"/><path class="cls-1" d="M1702.9,889.5h-20.65v-1.82h20C1702.48,888.27,1702.67,888.87,1702.9,889.5Z"/><path class="cls-1" d="M1705.44,896.63h-23.19v-1.82h22.51C1705,895.41,1705.21,896,1705.44,896.63Z"/><path class="cls-1" d="M1708.37,903.76h-26.12v-1.82h25.36C1707.84,902.54,1708.1,903.13,1708.37,903.76Z"/><path class="cls-1" d="M1711.68,910.89h-29.43V909h28.52C1711,909.64,1711.34,910.26,1711.68,910.89Z"/><path class="cls-1" d="M1715.29,918h-33v-1.85h32.09C1714.61,916.77,1715,917.4,1715.29,918Z"/><path class="cls-1" d="M1719.36,925.15h-37.11V923.3h36C1718.6,923.93,1718.94,924.53,1719.36,925.15Z"/><path class="cls-1" d="M1723.77,932.29h-41.52v-1.86h40.34C1723,931.06,1723.35,931.66,1723.77,932.29Z"/><path class="cls-1" d="M1728.68,939.42h-46.43v-1.86h45.1C1727.76,938.16,1728.22,938.79,1728.68,939.42Z"/><path class="cls-1" d="M1734,946.55h-51.75v-1.86h50.34C1733.05,945.32,1733.54,946,1734,946.55Z"/><path class="cls-1" d="M1739.9,953.68h-57.65v-1.85h56C1738.79,952.45,1739.33,953.05,1739.9,953.68Z"/><path class="cls-1" d="M1746.21,960.78h-64V959h62.32C1745.11,959.58,1745.68,960.18,1746.21,960.78Z"/><path class="cls-1" d="M1753.2,967.91h-71v-1.82h69.13C1752,966.68,1752.6,967.28,1753.2,967.91Z"/><path class="cls-1" d="M1760.85,975h-78.6v-1.82h76.58C1759.48,973.82,1760.16,974.44,1760.85,975Z"/><path class="cls-1" d="M1769.18,982.17h-86.93v-1.82H1767C1767.69,981,1768.45,981.54,1769.18,982.17Z"/><path class="cls-1" d="M1778.34,989.3h-96.09v-1.82H1776Z"/><path class="cls-1" d="M1788.42,996.43H1682.25v-1.82h103.51C1786.63,995.24,1787.54,995.84,1788.42,996.43Z"/><path class="cls-1" d="M1799.52,1003.56H1682.25v-1.82h114.31C1797.54,1002.34,1798.5,1003,1799.52,1003.56Z"/><path class="cls-1" d="M1811.84,1010.7H1682.25v-1.83h126.32C1809.64,1009.5,1810.74,1010.1,1811.84,1010.7Z"/><path class="cls-1" d="M1825.57,1017.83H1682.25V1016h139.59C1823.06,1016.6,1824.32,1017.23,1825.57,1017.83Z"/><path class="cls-1" d="M1841,1025H1682.25v-1.82h154.61C1838.23,1023.76,1839.6,1024.36,1841,1025Z"/><path class="cls-1" d="M1858.62,1032.09H1682.25v-1.82h171.61C1855.42,1030.89,1857,1031.49,1858.62,1032.09Z"/><path class="cls-1" d="M1879,1039.22H1682.25v-1.82h191.23C1875.31,1038,1877.14,1038.62,1879,1039.22Z"/><path class="cls-1" d="M1903.3,1046.35h-221v-1.82h214.43C1898.85,1045.16,1901.05,1045.75,1903.3,1046.35Z"/><path class="cls-1" d="M1933.53,1053.48H1682.25v-1.85h242.68C1927.75,1052.26,1930.64,1052.88,1933.53,1053.48Z"/><path class="cls-1" d="M1974.48,1060.61H1682.25v-1.85h280C1966.27,1059.42,1970.34,1060,1974.48,1060.61Z"/><rect class="cls-1" x="1682.25" y="1065.89" width="364.11" height="1.85"/><path class="cls-16" d="M1723.6,856.48h-24.15s4.53,157.45,264.79,203.13c-280.68-42.85-273-216.19-273-216.19l-1.83-22.15h44.3s-14.56,224.61,331.48,233.28C2065.23,1054.55,1771.78,1081.09,1723.6,856.48Z"/><path class="cls-15" d="M1510.65,1067.75c49.27-69,173.65-92.41,173.65-92.41s29.79,64.81,143.24,92.41Z"/><path class="cls-15" d="M1692.73,862.2v.06h-8.59V845.49c4.6-1.41,7.11-2.07,7.11-2.07A106.72,106.72,0,0,0,1692.73,862.2Z"/><rect class="cls-15" x="1674.6" y="831.89" width="8.2" height="11.52"/><path class="cls-19" d="M1416,1067.75c85.6-175.28,275.24-224.34,275.24-224.34s-9.17,205.63,355.1,224.34"/><path class="cls-18" d="M1728.13,874.39h-25.86c-.45-1.92-.79-3.68-1.14-5.31h25.52C1727.11,870.87,1727.6,872.63,1728.13,874.39Z"/><path class="cls-18" d="M1730.3,881.52h-26.12c-.57-1.85-1-3.64-1.45-5.31h25.94C1729.2,878,1729.73,879.79,1730.3,881.52Z"/><path class="cls-18" d="M1732.73,888.65h-26.35c-.61-1.82-1.18-3.61-1.67-5.31h26.2C1731.48,885.13,1732.09,886.89,1732.73,888.65Z"/><path class="cls-18" d="M1735.43,895.78H1709c-.73-1.82-1.37-3.61-2-5.31h26.39C1734,892.26,1734.71,894,1735.43,895.78Z"/><path class="cls-18" d="M1738.36,902.91H1712c-.84-1.82-1.56-3.58-2.24-5.31h26.43C1736.88,899.4,1737.6,901.15,1738.36,902.91Z"/><path class="cls-18" d="M1741.63,910h-26.35c-.91-1.79-1.71-3.58-2.51-5.3h26.43C1740,906.53,1740.8,908.29,1741.63,910Z"/><path class="cls-18" d="M1745.21,917.18H1719c-1-1.79-1.94-3.55-2.86-5.31h26.36C1743.38,913.66,1744.26,915.42,1745.21,917.18Z"/><path class="cls-18" d="M1749.09,924.28h-26c-1.11-1.76-2.13-3.55-3.08-5.28h26.2C1747.11,920.79,1748.06,922.55,1749.09,924.28Z"/><path class="cls-18" d="M1753.31,931.41h-25.75c-1.18-1.76-2.32-3.52-3.34-5.28h25.93C1751.18,927.92,1752.24,929.68,1753.31,931.41Z"/><path class="cls-18" d="M1758,938.54h-25.44c-1.33-1.76-2.54-3.52-3.72-5.28h25.7C1755.63,935.05,1756.77,936.81,1758,938.54Z"/><path class="cls-18" d="M1763,945.67h-25.13c-1.41-1.79-2.74-3.55-4-5.28h25.36C1760.46,942.18,1761.71,943.94,1763,945.67Z"/><path class="cls-18" d="M1768.56,952.8H1743.8c-1.52-1.76-3-3.52-4.41-5.28h25C1765.78,949.31,1767.15,951.07,1768.56,952.8Z"/><path class="cls-18" d="M1774.56,959.93h-24.33c-1.64-1.76-3.27-3.52-4.79-5.28h24.64C1771.52,956.44,1773,958.2,1774.56,959.93Z"/><path class="cls-18" d="M1781.18,967.06h-23.92q-2.73-2.64-5.25-5.28h24.23C1777.87,963.57,1779.51,965.33,1781.18,967.06Z"/><path class="cls-18" d="M1788.37,974.19h-23.46c-2-1.76-3.92-3.52-5.75-5.28H1783C1784.76,970.71,1786.58,972.46,1788.37,974.19Z"/><path class="cls-18" d="M1796.32,981.32H1773.2c-2.13-1.76-4.23-3.52-6.24-5.31h23.42C1792.28,977.84,1794.3,979.6,1796.32,981.32Z"/><path class="cls-18" d="M1805,988.45h-22.74c-2.35-1.79-4.64-3.55-6.84-5.3h23C1800.61,985,1802.82,986.73,1805,988.45Z"/><path class="cls-18" d="M1814.64,995.59h-22.39c-2.59-1.8-5.1-3.55-7.53-5.31h22.7C1809.78,992.1,1812.21,993.86,1814.64,995.59Z"/><path class="cls-18" d="M1825.41,1002.72h-22.25c-2.81-1.76-5.55-3.52-8.18-5.31h22.36C1820,999.23,1822.67,1001,1825.41,1002.72Z"/><path class="cls-18" d="M1837.42,1009.85h-22.13c-3.16-1.76-6.16-3.52-9.13-5.31h22.25C1831.38,1006.39,1834.38,1008.15,1837.42,1009.85Z"/><path class="cls-18" d="M1851.11,1017h-22.43c-3.5-1.73-6.85-3.52-10.12-5.31h22.21C1844.19,1013.52,1847.61,1015.28,1851.11,1017Z"/><path class="cls-18" d="M1866.7,1024.11h-23.12c-3.88-1.76-7.64-3.52-11.29-5.31h22.55C1858.76,1020.65,1862.71,1022.41,1866.7,1024.11Z"/><path class="cls-18" d="M1885.15,1031.24h-24.64c-4.38-1.73-8.64-3.49-12.74-5.31h23.38C1875.79,1027.82,1880.47,1029.58,1885.15,1031.24Z"/><path class="cls-18" d="M1907.58,1038.37H1879.9q-7.53-2.59-14.64-5.31h25.13Q1899,1036,1907.58,1038.37Z"/><path class="cls-18" d="M1936.75,1045.5h-34.23c-5.89-1.69-11.59-3.48-17.15-5.31h28.83C1921.8,1042.24,1929.33,1044,1936.75,1045.5Z"/><path class="cls-18" d="M1982.65,1052.63H1930c-7.19-1.66-14.18-3.45-20.91-5.31h37C1958.8,1049.71,1971.09,1051.41,1982.65,1052.63Z"/><path class="cls-1" d="M1728.67,876.21h-25.94c-.15-.63-.3-1.22-.46-1.82h25.86C1728.29,875,1728.48,875.61,1728.67,876.21Z"/><path class="cls-1" d="M1730.91,883.34h-26.2c-.19-.63-.38-1.22-.53-1.82h26.12C1730.49,882.15,1730.68,882.75,1730.91,883.34Z"/><path class="cls-1" d="M1733.42,890.47H1707c-.23-.62-.42-1.22-.65-1.82h26.35C1733,889.28,1733.15,889.88,1733.42,890.47Z"/><path class="cls-1" d="M1736.16,897.6h-26.43c-.27-.62-.5-1.22-.72-1.82h26.42C1735.66,896.38,1735.89,897,1736.16,897.6Z"/><path class="cls-1" d="M1739.2,904.74h-26.43c-.3-.63-.57-1.23-.8-1.83h26.39C1738.63,903.51,1738.89,904.14,1739.2,904.74Z"/><path class="cls-1" d="M1742.51,911.87h-26.36c-.26-.6-.57-1.23-.87-1.83h26.35C1741.9,910.67,1742.2,911.27,1742.51,911.87Z"/><path class="cls-1" d="M1746.2,919H1720c-.35-.63-.69-1.23-1-1.82h26.2C1745.51,917.77,1745.82,918.4,1746.2,919Z"/><path class="cls-1" d="M1750.15,926.13h-25.93c-.42-.63-.8-1.23-1.14-1.85h26C1749.43,924.9,1749.77,925.5,1750.15,926.13Z"/><path class="cls-1" d="M1754.52,933.26h-25.7c-.42-.63-.84-1.23-1.26-1.85h25.75C1753.69,932,1754.07,932.63,1754.52,933.26Z"/><path class="cls-1" d="M1759.24,940.39h-25.36c-.5-.63-.92-1.22-1.34-1.85H1758C1758.36,939.17,1758.78,939.76,1759.24,940.39Z"/><path class="cls-1" d="M1764.41,947.52h-25c-.5-.63-1-1.22-1.48-1.85H1763C1763.46,946.3,1764,946.92,1764.41,947.52Z"/><path class="cls-1" d="M1770.08,954.65h-24.64c-.58-.59-1.11-1.22-1.64-1.85h24.76C1769.05,953.43,1769.54,954,1770.08,954.65Z"/><path class="cls-1" d="M1776.24,961.78H1752c-.6-.62-1.21-1.22-1.78-1.85h24.33C1775.13,960.56,1775.67,961.19,1776.24,961.78Z"/><path class="cls-1" d="M1783,968.91h-23.81c-.64-.62-1.29-1.22-1.9-1.85h23.92C1781.75,967.69,1782.36,968.32,1783,968.91Z"/><path class="cls-1" d="M1790.38,976H1767c-.72-.59-1.41-1.19-2-1.82h23.46C1789.05,974.82,1789.7,975.42,1790.38,976Z"/><path class="cls-1" d="M1798.44,983.15h-23c-.76-.63-1.52-1.23-2.24-1.83h23.12C1797,982,1797.72,982.55,1798.44,983.15Z"/><path class="cls-1" d="M1807.42,990.28h-22.7l-2.44-1.83H1805C1805.82,989.05,1806.62,989.68,1807.42,990.28Z"/><path class="cls-1" d="M1817.34,997.41H1795c-1-.6-1.86-1.23-2.73-1.82h22.39C1815.52,996.18,1816.43,996.81,1817.34,997.41Z"/><path class="cls-1" d="M1828.41,1004.54h-22.25c-1-.63-2-1.23-3-1.82h22.25C1826.39,1003.34,1827.38,1004,1828.41,1004.54Z"/><path class="cls-1" d="M1840.77,1011.67h-22.21c-1.1-.6-2.2-1.19-3.27-1.82h22.13C1838.53,1010.48,1839.67,1011.07,1840.77,1011.67Z"/><path class="cls-1" d="M1854.84,1018.8h-22.55c-1.22-.63-2.43-1.22-3.61-1.82h22.43C1852.33,1017.61,1853.58,1018.2,1854.84,1018.8Z"/><path class="cls-1" d="M1871.15,1025.93h-23.38c-1.41-.6-2.82-1.22-4.19-1.82h23.12C1868.19,1024.74,1869.67,1025.33,1871.15,1025.93Z"/><path class="cls-1" d="M1890.39,1033.06h-25.13c-1.6-.59-3.2-1.19-4.75-1.82h24.64C1886.9,1031.87,1888.65,1032.47,1890.39,1033.06Z"/><path class="cls-1" d="M1914.2,1040.19h-28.83c-1.86-.59-3.68-1.19-5.47-1.82h27.68C1909.79,1039,1912,1039.63,1914.2,1040.19Z"/><path class="cls-1" d="M1946.07,1047.32h-37c-2.21-.59-4.38-1.22-6.55-1.82h34.23C1939.91,1046.16,1943,1046.76,1946.07,1047.32Z"/><path class="cls-1" d="M2004,1054.46h-66c-2.74-.6-5.4-1.2-8.06-1.83h52.67C1990.1,1053.42,1997.29,1054,2004,1054.46Z"/><rect class="cls-20" x="1673.53" y="843.41" width="10.62" height="224.35"/></g><g id="hotel"><rect class="cls-20" x="883.01" y="590.31" width="7.41" height="470.12"/><rect class="cls-18" x="888.1" y="585.17" width="35.12" height="475.26"/><path class="cls-16" d="M912.14,239V546.09h-5.37v-295A28.68,28.68,0,0,0,912.14,239Z"/><polygon class="cls-15" points="906.77 397.02 906.77 546.09 895.06 546.09 896.99 399.73 906.77 397.02"/><path class="cls-16" d="M906.77,251.13V397L897,399.73l1.87-141.1,0,0A29.83,29.83,0,0,0,906.77,251.13Z"/><path class="cls-15" d="M1100.63,576.94H933.79V564.1h158.26Q1096,569.76,1100.63,576.94Z"/><path class="cls-15" d="M1122.06,613.79H933.79V601H1115Q1118.53,607.07,1122.06,613.79Z"/><path class="cls-15" d="M1139.91,650.62H933.79V637.8h200.26C1136,642,1137.94,646.21,1139.91,650.62Z"/><path class="cls-15" d="M1154.65,687.47H933.79V674.63h216C1151.43,678.81,1153.06,683.09,1154.65,687.47Z"/><path class="cls-15" d="M1166.64,724.32H933.79V711.48h229C1164.1,715.68,1165.38,720,1166.64,724.32Z"/><path class="cls-15" d="M1176.14,761.17H933.79V748.33h239.32C1174.15,752.53,1175.16,756.84,1176.14,761.17Z"/><path class="cls-15" d="M1183.23,798H933.79V785.18h247.26Q1182.21,791.53,1183.23,798Z"/><path class="cls-15" d="M1188.07,834.85H933.79V822h252.84C1187.18,826.26,1187.67,830.54,1188.07,834.85Z"/><path class="cls-15" d="M1190.74,871.7h-257V858.88h256.27C1190.34,863.11,1190.58,867.39,1190.74,871.7Z"/><path class="cls-15" d="M1191.35,895.71c.06,4.23,0,8.51,0,12.84H933.79V895.71Z"/><path class="cls-15" d="M1190.55,932.56q-.27,6.38-.73,12.84h-256V932.56Z"/><path class="cls-15" d="M1187.76,969.41c-.39,4.25-.88,8.53-1.41,12.84H933.79V969.41Z"/><path class="cls-15" d="M1183,1006.26c-.67,4.25-1.38,8.51-2.11,12.82H933.79v-12.82Z"/><path class="cls-15" d="M1176.27,1043.11c-.86,4.26-1.81,8.51-2.79,12.82H933.79v-12.82Z"/><path class="cls-1" d="M1092.05,564.1H933.79v-6h154Q1089.8,560.83,1092.05,564.1Z"/><path class="cls-1" d="M1104.4,582.94H933.79v-6h166.84C1101.86,578.86,1103.12,580.87,1104.4,582.94Z"/><path class="cls-1" d="M1115,601H933.79v-6h177.82C1112.74,596.9,1113.91,598.9,1115,601Z"/><path class="cls-1" d="M1125.19,619.79H933.79v-6h188.27Q1123.68,616.72,1125.19,619.79Z"/><path class="cls-1" d="M1134.05,637.8H933.79v-6H1131.2Q1132.63,634.76,1134.05,637.8Z"/><path class="cls-1" d="M1142.48,656.62H933.79v-6h206.12Q1141.19,653.58,1142.48,656.62Z"/><path class="cls-1" d="M1149.84,674.63h-216v-6h213.69Q1148.64,671.59,1149.84,674.63Z"/><path class="cls-1" d="M1156.77,693.47h-223v-6h220.86C1155.36,689.44,1156.06,691.44,1156.77,693.47Z"/><path class="cls-1" d="M1162.75,711.48h-229v-6h227Q1161.83,708.44,1162.75,711.48Z"/><path class="cls-1" d="M1168.36,730.32H933.79v-6h232.85C1167.22,726.29,1167.81,728.29,1168.36,730.32Z"/><path class="cls-1" d="M1173.11,748.33H933.79v-6h237.79C1172.1,744.3,1172.62,746.3,1173.11,748.33Z"/><path class="cls-1" d="M1177.46,767.17H933.79v-6h242.35C1176.6,763.17,1177,765.17,1177.46,767.17Z"/><path class="cls-1" d="M1181.05,785.18H933.79v-6h246.1C1180.28,781.15,1180.68,783.15,1181.05,785.18Z"/><path class="cls-1" d="M1184.18,804H933.79v-6h249.44C1183.56,800,1183.9,802,1184.18,804Z"/><path class="cls-1" d="M1186.63,822H933.79v-6h252.1Q1186.31,819,1186.63,822Z"/><path class="cls-1" d="M1188.65,840.85H933.79v-6h254.28C1188.29,836.85,1188.5,838.82,1188.65,840.85Z"/><path class="cls-1" d="M1191,877.7H933.79v-6h257C1190.86,873.7,1190.92,875.67,1191,877.7Z"/><path class="cls-1" d="M1191.35,895.71H933.79v-6h257.5C1191.32,891.71,1191.35,893.71,1191.35,895.71Z"/><path class="cls-1" d="M1191.32,908.55c0,2-.06,4-.12,6H933.79v-6Z"/><path class="cls-1" d="M1190.83,926.56q-.09,3-.28,6H933.79v-6Z"/><path class="cls-1" d="M1189.82,945.4q-.18,3-.4,6H933.79v-6Z"/><path class="cls-1" d="M1188.38,963.41c-.19,2-.37,4-.62,6h-254v-6Z"/><path class="cls-1" d="M1186.35,982.25c-.24,2-.49,4-.76,6H933.79v-6Z"/><path class="cls-1" d="M1183.9,1000.26c-.27,2-.58,4-.89,6H933.79v-6Z"/><path class="cls-1" d="M1180.9,1019.08c-.34,2-.71,4-1.08,6h-246v-6Z"/><path class="cls-1" d="M1177.49,1037.11c-.36,2-.79,4-1.22,6H933.79v-6Z"/><path class="cls-1" d="M1173.48,1055.93q-.64,3-1.38,6H933.79v-6Z"/><path class="cls-1" d="M1190.06,858.88H933.79v-6h255.84C1189.82,854.85,1189.94,856.86,1190.06,858.88Z"/><path class="cls-18" d="M1189.63,852.85H933.79v-12h254.86C1189.05,844.8,1189.36,848.8,1189.63,852.85Z"/><path class="cls-18" d="M1087.82,558.1h-154v-12h144.89C1080.58,548.45,1083.74,552.47,1087.82,558.1Z"/><path class="cls-18" d="M1111.61,595H933.79v-12H1104.4C1106.73,586.69,1109.16,590.69,1111.61,595Z"/><path class="cls-18" d="M1131.2,631.8H933.79v-12h191.4Q1128.22,625.61,1131.2,631.8Z"/><path class="cls-18" d="M1147.48,668.62H933.79v-12h208.69C1144.17,660.52,1145.82,664.52,1147.48,668.62Z"/><path class="cls-18" d="M1160.82,705.47h-227v-12h223Q1158.84,699.37,1160.82,705.47Z"/><path class="cls-18" d="M1171.58,742.33H933.79v-12h234.57Q1170,736.21,1171.58,742.33Z"/><path class="cls-18" d="M1179.89,779.18H933.79v-12h243.67C1178.32,771.12,1179.12,775.12,1179.89,779.18Z"/><path class="cls-18" d="M1185.89,816H933.79V804h250.39C1184.79,808,1185.37,812,1185.89,816Z"/><path class="cls-18" d="M1191.29,889.7H933.79v-12H1191C1191.14,881.68,1191.23,885.68,1191.29,889.7Z"/><path class="cls-18" d="M1191.2,914.55q-.09,6-.37,12h-257v-12Z"/><path class="cls-18" d="M1189.42,951.4c-.31,4-.64,8-1,12H933.79v-12Z"/><path class="cls-18" d="M1185.59,988.25q-.78,6-1.69,12H933.79v-12Z"/><path class="cls-18" d="M1179.82,1025.08c-.73,4-1.5,8-2.33,12H933.79v-12Z"/><path class="cls-18" d="M1172.1,1061.93c-.92,4-1.9,8-2.91,12H933.79v-12Z"/><rect class="cls-16" x="804.32" y="1060.43" width="123.4" height="5.91"/><rect class="cls-21" x="804.32" y="1066.34" width="126.47" height="7.6"/><rect class="cls-18" x="883.78" y="546.09" width="19.93" height="16.19"/><path class="cls-16" d="M982.65,1073.94s-21.08-19.2-21.08-46.75S933.21,401.3,933.21,401.3s316.17,250.1,203.24,672.64h24.38c118.7-466-257.13-712.22-257.13-712.22V969.2A220.66,220.66,0,0,0,916.81,1045c3.75,10.3,8.39,20.54,14,28.91Z"/><path class="cls-16" d="M1024.68,546.09H1006c-22.1-53.41-52.91-97.76-71.77-122.23l-.89-18.76S990.68,464,1024.68,546.09Z"/><path class="cls-15" d="M1006,546.09h-6.77c-19.47-47-45.68-87.05-64.54-112.63l-.46-9.6C953.13,448.33,983.94,492.68,1006,546.09Z"/><path class="cls-22" d="M1150.12,545.16c0,1.85-16.48.42-36.81.42s-36.81,1.43-36.81-.42,16.48-6.28,36.81-6.28S1150.12,543.31,1150.12,545.16Z"/><path class="cls-23" d="M1150.12,545.16c0,1.85-16.48,3.35-36.81,3.35s-36.81-1.5-36.81-3.35,16.48-3.35,36.81-3.35S1150.12,543.31,1150.12,545.16Z"/><path class="cls-18" d="M1095.49,548.09a60.08,60.08,0,0,0,10.27,19.39,3.36,3.36,0,0,0,4.68.31,63.38,63.38,0,0,0,14.49-19.7Z"/><polyline class="cls-24" points="1094.94 569.96 1108.83 558.1 1100.49 578.74"/><polygon class="cls-25" points="909.38 563.31 909.35 563.34 908.95 563.34 909.38 563.31"/><path class="cls-25" d="M909,563.34l-5.77.38C905,563.54,906.92,563.42,909,563.34Z"/><path class="cls-1" d="M948.16,571.09c0,7.77-16.89,14.08-37.74,14.08H888.1v5.14H874c-20.12-.33-30.49-3.64-30.51-4.81,0-.91,1.29-1.27,1.29-1.27l29.28-9.34.06,0a6.38,6.38,0,0,1-1.47-3.82,6,6,0,0,1,.73-2.76L844.78,578s-2.79-.23-2.79-1.9,5.06-3.09,5.06-3.09l39.24-12.74v0A82.71,82.71,0,0,1,910.42,557C931.27,557,948.16,563.29,948.16,571.09Z"/><path class="cls-23" d="M942.7,569.65c0,3.54-12.81,6.4-28.6,6.4-12.36,0-22.9-1.74-26.89-4.23h-3.49l-38.94,12.41V578l38.32-12.89L903,563.74a.65.65,0,0,1,.21,0l5.77-.38h.4c1.53-.08,3.12-.1,4.75-.1C929.89,563.24,942.7,566.1,942.7,569.65Z"/><polygon class="cls-26" points="936.3 581.33 903.7 607.37 903.7 585.17 936.3 581.33"/><path class="cls-27" d="M1145.54,755.76S1018.9,843.47,957.08,916.49C957.08,916.49,1088.68,837.85,1145.54,755.76Z"/><line class="cls-27" x1="1102.41" y1="787.21" x2="1112.67" y2="795.3"/><line class="cls-27" x1="1079.91" y1="804.49" x2="1093.23" y2="814.45"/><line class="cls-27" x1="1058.83" y1="821.26" x2="1072.9" y2="832.64"/><line class="cls-27" x1="1036.62" y1="839.64" x2="1050.6" y2="851.03"/><line class="cls-27" x1="1015.79" y1="857.72" x2="1028.16" y2="868.27"/><line class="cls-27" x1="995.51" y1="876.36" x2="1005.67" y2="884.52"/><path class="cls-28" d="M1084,591.74s-93.89,90.57-134.47,160.82C949.57,752.56,1049.3,669.2,1084,591.74Z"/><line class="cls-28" x1="1052.33" y1="623.95" x2="1062.59" y2="629.69"/><line class="cls-28" x1="1035.95" y1="641.5" x2="1049.16" y2="648.5"/><line class="cls-28" x1="1020.7" y1="658.44" x2="1034.8" y2="666.59"/><line class="cls-28" x1="1004.76" y1="676.92" x2="1018.78" y2="685.07"/><line class="cls-28" x1="989.95" y1="694.96" x2="1002.44" y2="702.59"/><line class="cls-28" x1="975.71" y1="713.42" x2="985.89" y2="719.25"/><path class="cls-29" d="M1160.83,919.17s-130.3,64.92-199.1,124.1C961.73,1043.27,1095,987.17,1160.83,919.17Z"/><line class="cls-29" x1="1116.18" y1="942.72" x2="1124.13" y2="951.28"/><line class="cls-29" x1="1092.74" y1="955.79" x2="1103.15" y2="966.42"/><line class="cls-29" x1="1070.68" y1="968.58" x2="1081.52" y2="980.58"/><line class="cls-29" x1="1047.31" y1="982.69" x2="1058.07" y2="994.69"/><line class="cls-29" x1="1025.25" y1="996.7" x2="1034.69" y2="1007.75"/><line class="cls-29" x1="1003.6" y1="1011.27" x2="1011.44" y2="1019.89"/><polygon class="cls-16" points="957.09 916.49 1160.83 905.62 1160.83 919.17 957.09 931.27 957.09 916.49"/><polygon class="cls-16" points="945.43 752.8 1149.17 741.93 1149.17 755.48 945.43 767.57 945.43 752.8"/><polygon class="cls-16" points="930.62 586.99 1090.98 578.4 1090.98 591.95 930.62 601.77 930.62 586.99"/></g><rect class="cls-30" x="336.8" y="1058.31" width="1919.44" height="22.29"/><polygon class="cls-18" points="579.8 1080.6 638.97 1058.31 1206.74 1058.31 1257.1 1080.6 579.8 1080.6"/></g></g></svg>