<svg xmlns="http://www.w3.org/2000/svg" xmlns:xlink="http://www.w3.org/1999/xlink" viewBox="0 0 532.23 419.55"><defs><style>.cls-1{fill:#408029;}.cls-2{fill:#1665a8;}.cls-3{fill:#fff;}</style></defs><g id="Layer_2" data-name="Layer 2"><g id="Layer_1-2" data-name="Layer 1"><g id="lines"><rect x="170.79" y="61.98" width="1" height="78.43" transform="translate(36.07 247.12) rotate(-77.75)"/><rect x="126.09" y="136.93" width="1" height="61.87" transform="translate(-82.06 141.98) rotate(-45.91)"/><rect x="62.35" y="158.65" width="1" height="100.24" transform="translate(-23.16 8.43) rotate(-6.48)"/><rect x="188.24" y="204.23" width="117.42" height="1" transform="translate(-45.99 74.01) rotate(-15.61)"/><rect x="179.8" y="168.7" width="55.21" height="1" transform="translate(-58.63 198.73) rotate(-45.54)"/><rect x="107.12" y="254.33" width="63.5" height="1" transform="translate(-150.73 236.04) rotate(-57.7)"/><rect x="291.37" y="347.98" width="81.22" height="1" transform="translate(-138.86 248.71) rotate(-34.43)"/><rect x="168.46" y="315.97" width="1" height="92.82" transform="translate(-230.87 360.37) rotate(-64.71)"/></g><g id="svg-gmail"><circle class="cls-1" cx="67" cy="91.73" r="67"/><image id="gmail-icon" width="74" height="74" transform="translate(30 54.73)" xlink:href="envelope.png"/></g><g id="svg-glob"><circle class="cls-2" cx="76" cy="316.73" r="58"/><image id="glob-icon" width="90" height="90" transform="translate(32 271.73)" xlink:href="globe.png"/></g><g id="svg-chart"><circle class="cls-1" cx="254" cy="371.73" r="45"/><image id="chart-icon" width="48" height="48" transform="translate(230 347.73)" xlink:href="chart.png"/></g><g id="svg-chat"><circle id="svg-chat-2" data-name="svg-chat" class="cls-2" cx="254" cy="113.73" r="45"/><rect class="cls-3" x="235" y="101.73" width="37" height="24" rx="3"/><path class="cls-3" d="M267.85,131.47a.5.5,0,0,1-.87.34l-6.7-7.24a.5.5,0,0,1,.36-.84h6.71a.5.5,0,0,1,.5.5Z"/></g><g id="svg-setup"><circle class="cls-2" cx="169" cy="205.73" r="26"/><image id="setup-icon" width="26" height="26" transform="translate(155.96 191.73)" xlink:href="setup.png"/></g><image id="man" width="341" height="498" transform="translate(244.95) scale(0.84)" xlink:href="man.png"/></g></g></svg>