<svg xmlns="http://www.w3.org/2000/svg" viewBox="0 0 1 1"><defs><style>.cls-1{fill:#fff;}</style></defs><g id="Layer_2" data-name="Layer 2"><g id="Layer_1-2" data-name="Layer 1"><path class="cls-1" d="M0,.29A.26.26,0,0,1,.22,0H.83C.92,0,1,.11,1,.24V.42C1,.75.8,1,.56,1H.38C.17,1,0,.77,0,.49Z"/></g></g></svg>



<svg width="552" height="414" viewBox="0 0 552 414" fill="none" xmlns="http://www.w3.org/2000/svg">
<path d="M1.25086 121.996C1.77624 54.6196 56.8217 0.425905 124.198 0.951285L457.024 3.54655C509.49 3.95566 551.69 46.819 551.281 99.2844L550.682 176.095C549.653 308.012 441.879 414.119 309.962 413.09L207.994 412.295C92.5696 411.395 -0.270453 317.095 0.629584 201.671L1.25086 121.996Z" fill="#C4C4C4"/>
</svg>
