<svg xmlns="http://www.w3.org/2000/svg" xmlns:xlink="http://www.w3.org/1999/xlink" viewBox="0 0 992.35 658.11"><defs><style>.cls-1{isolation:isolate;}.cls-2{fill:url(#Áåçûìÿííûé_ãðàäèåíò_20);}.cls-10,.cls-11,.cls-12,.cls-22,.cls-25,.cls-29,.cls-3,.cls-4,.cls-45,.cls-47,.cls-48,.cls-49,.cls-50,.cls-51,.cls-53,.cls-55,.cls-61,.cls-62,.cls-64,.cls-66,.cls-67,.cls-69,.cls-7,.cls-71,.cls-8{mix-blend-mode:multiply;}.cls-3{fill:url(#Áåçûìÿííûé_ãðàäèåíò_20-2);}.cls-4{fill:url(#Áåçûìÿííûé_ãðàäèåíò_20-3);}.cls-5{fill:#d9dbdf;}.cls-6{fill:url(#Áåçûìÿííûé_ãðàäèåíò_20-4);}.cls-7{fill:url(#Áåçûìÿííûé_ãðàäèåíò_20-5);}.cls-8{fill:url(#Áåçûìÿííûé_ãðàäèåíò_20-6);}.cls-9{fill:url(#Áåçûìÿííûé_ãðàäèåíò_20-7);}.cls-10{fill:url(#Áåçûìÿííûé_ãðàäèåíò_20-8);}.cls-11{fill:url(#Áåçûìÿííûé_ãðàäèåíò_20-9);}.cls-12{fill:url(#Áåçûìÿííûé_ãðàäèåíò_20-10);}.cls-13{fill:url(#Áåçûìÿííûé_ãðàäèåíò_20-11);}.cls-14{fill:url(#Áåçûìÿííûé_ãðàäèåíò_20-12);}.cls-15{fill:url(#Áåçûìÿííûé_ãðàäèåíò_20-13);}.cls-16{fill:url(#Áåçûìÿííûé_ãðàäèåíò_20-14);}.cls-17{fill:url(#Áåçûìÿííûé_ãðàäèåíò_20-15);}.cls-18{fill:url(#Áåçûìÿííûé_ãðàäèåíò_20-16);}.cls-19{fill:#3c4456;}.cls-20{fill:#0078ef;}.cls-21{fill:#fff;}.cls-22{fill:url(#Áåçûìÿííûé_ãðàäèåíò_13);}.cls-23,.cls-33,.cls-52,.cls-65,.cls-70{mix-blend-mode:screen;}.cls-23,.cls-33,.cls-52{opacity:0.5;}.cls-23{fill:url(#Áåçûìÿííûé_ãðàäèåíò_17);}.cls-24{fill:#f17e59;}.cls-26{fill:url(#Áåçûìÿííûé_ãðàäèåíò_10);}.cls-27{fill:#49a3fe;}.cls-28{fill:url(#Áåçûìÿííûé_ãðàäèåíò_14);}.cls-29{fill:url(#Áåçûìÿííûé_ãðàäèåíò_54);}.cls-30{fill:url(#Áåçûìÿííûé_ãðàäèåíò_10-2);}.cls-31{fill:url(#Áåçûìÿííûé_ãðàäèåíò_10-3);}.cls-32{fill:#202735;}.cls-33{fill:url(#Áåçûìÿííûé_ãðàäèåíò_17-2);}.cls-34{fill:url(#Áåçûìÿííûé_ãðàäèåíò_54-2);}.cls-35{fill:url(#Áåçûìÿííûé_ãðàäèåíò_10-4);}.cls-36{fill:url(#Áåçûìÿííûé_ãðàäèåíò_54-3);}.cls-37{fill:url(#Áåçûìÿííûé_ãðàäèåíò_10-5);}.cls-38{fill:url(#Áåçûìÿííûé_ãðàäèåíò_19);}.cls-39{fill:url(#Áåçûìÿííûé_ãðàäèåíò_54-4);}.cls-40{fill:url(#Áåçûìÿííûé_ãðàäèåíò_67);}.cls-41{fill:url(#Áåçûìÿííûé_ãðàäèåíò_10-6);}.cls-42{fill:url(#Áåçûìÿííûé_ãðàäèåíò_10-7);}.cls-43{fill:#697082;}.cls-44{fill:#46495f;}.cls-45{fill:url(#Áåçûìÿííûé_ãðàäèåíò_67-2);}.cls-46{fill:#697182;}.cls-47{fill:url(#Áåçûìÿííûé_ãðàäèåíò_67-3);}.cls-48{fill:url(#Áåçûìÿííûé_ãðàäèåíò_67-4);}.cls-49{fill:url(#Áåçûìÿííûé_ãðàäèåíò_67-5);}.cls-50{fill:url(#Áåçûìÿííûé_ãðàäèåíò_10-8);}.cls-51{fill:url(#Áåçûìÿííûé_ãðàäèåíò_10-9);}.cls-52{fill:url(#Áåçûìÿííûé_ãðàäèåíò_17-3);}.cls-53{fill:url(#Áåçûìÿííûé_ãðàäèåíò_10-10);}.cls-54{fill:url(#Áåçûìÿííûé_ãðàäèåíò_19-2);}.cls-55{fill:url(#Áåçûìÿííûé_ãðàäèåíò_20-17);}.cls-56{fill:#0053a8;}.cls-57{fill:url(#Áåçûìÿííûé_ãðàäèåíò_20-18);}.cls-58{fill:url(#Áåçûìÿííûé_ãðàäèåíò_20-19);}.cls-59{fill:#c4c8cd;}.cls-60{fill:url(#Áåçûìÿííûé_ãðàäèåíò_13-2);}.cls-61{fill:url(#Áåçûìÿííûé_ãðàäèåíò_20-20);}.cls-62{fill:url(#Áåçûìÿííûé_ãðàäèåíò_20-21);}.cls-63{fill:#414a5c;}.cls-64{fill:url(#Áåçûìÿííûé_ãðàäèåíò_13-3);}.cls-65,.cls-70{opacity:0.15;}.cls-65{fill:url(#Áåçûìÿííûé_ãðàäèåíò_13-4);}.cls-66{fill:url(#Áåçûìÿííûé_ãðàäèåíò_10-11);}.cls-67{fill:url(#Áåçûìÿííûé_ãðàäèåíò_10-12);}.cls-68{fill:url(#Áåçûìÿííûé_ãðàäèåíò_14-2);}.cls-69{fill:url(#Áåçûìÿííûé_ãðàäèåíò_13-5);}.cls-70{fill:url(#Áåçûìÿííûé_ãðàäèåíò_13-6);}.cls-71{fill:url(#Áåçûìÿííûé_ãðàäèåíò_10-13);}</style><linearGradient id="Áåçûìÿííûé_ãðàäèåíò_20" x1="702.47" y1="102.31" x2="702.47" y2="432.33" gradientTransform="matrix(-1, 0, 0, 1, 1130.38, 0)" gradientUnits="userSpaceOnUse"><stop offset="0" stop-color="#fff"/><stop offset="1" stop-color="#d8dcdf"/></linearGradient><linearGradient id="Áåçûìÿííûé_ãðàäèåíò_20-2" x1="702.8" y1="106.46" x2="702.8" y2="423.41" xlink:href="#Áåçûìÿííûé_ãðàäèåíò_20"/><linearGradient id="Áåçûìÿííûé_ãðàäèåíò_20-3" x1="702.8" y1="114.87" x2="702.8" y2="419.52" xlink:href="#Áåçûìÿííûé_ãðàäèåíò_20"/><linearGradient id="Áåçûìÿííûé_ãðàäèåíò_20-4" x1="828.47" y1="84.54" x2="828.47" y2="418.32" xlink:href="#Áåçûìÿííûé_ãðàäèåíò_20"/><linearGradient id="Áåçûìÿííûé_ãðàäèåíò_20-5" x1="828.81" y1="88.75" x2="828.81" y2="409.3" xlink:href="#Áåçûìÿííûé_ãðàäèåíò_20"/><linearGradient id="Áåçûìÿííûé_ãðàäèåíò_20-6" x1="828.81" y1="97.25" x2="828.81" y2="405.36" xlink:href="#Áåçûìÿííûé_ãðàäèåíò_20"/><linearGradient id="Áåçûìÿííûé_ãðàäèåíò_20-7" x1="1371.13" y1="66.94" x2="1371.13" y2="427.46" gradientTransform="matrix(-1, 0, 0, 1, 1544.01, 0)" xlink:href="#Áåçûìÿííûé_ãðàäèåíò_20"/><linearGradient id="Áåçûìÿííûé_ãðàäèåíò_20-8" x1="1343.73" y1="80.67" x2="1343.73" y2="418.92" gradientTransform="matrix(-1, 0, 0, 1, 1544.01, 0)" xlink:href="#Áåçûìÿííûé_ãðàäèåíò_20"/><linearGradient id="Áåçûìÿííûé_ãðàäèåíò_20-9" x1="1399.18" y1="80.67" x2="1399.18" y2="418.92" gradientTransform="matrix(-1, 0, 0, 1, 1544.01, 0)" xlink:href="#Áåçûìÿííûé_ãðàäèåíò_20"/><linearGradient id="Áåçûìÿííûé_ãðàäèåíò_20-10" x1="1371.37" y1="80.7" x2="1371.37" y2="419.63" gradientTransform="matrix(-1, 0, 0, 1, 1544.01, 0)" xlink:href="#Áåçûìÿííûé_ãðàäèåíò_20"/><linearGradient id="Áåçûìÿííûé_ãðàäèåíò_20-11" x1="894.01" y1="377.06" x2="805.09" y2="118.29" gradientTransform="matrix(1, 0, 0, 1, 0, 0)" xlink:href="#Áåçûìÿííûé_ãðàäèåíò_20"/><linearGradient id="Áåçûìÿííûé_ãðàäèåíò_20-12" x1="963.13" y1="352.54" x2="874.06" y2="93.32" gradientTransform="matrix(1, 0, 0, 1, 0, 0)" xlink:href="#Áåçûìÿííûé_ãðàäèåíò_20"/><linearGradient id="Áåçûìÿííûé_ãðàäèåíò_20-13" x1="852.85" y1="391.6" x2="759.17" y2="118.97" gradientTransform="matrix(1, 0, 0, 1, 0, 0)" xlink:href="#Áåçûìÿííûé_ãðàäèåíò_20"/><linearGradient id="Áåçûìÿííûé_ãðàäèåíò_20-14" x1="780.04" y1="417.67" x2="686.35" y2="145.02" gradientTransform="matrix(1, 0, 0, 1, 0, 0)" xlink:href="#Áåçûìÿííûé_ãðàäèåíò_20"/><linearGradient id="Áåçûìÿííûé_ãðàäèåíò_20-15" x1="730.13" y1="434.88" x2="631.37" y2="147.48" gradientTransform="matrix(1, 0, 0, 1, 0, 0)" xlink:href="#Áåçûìÿííûé_ãðàäèåíò_20"/><linearGradient id="Áåçûìÿííûé_ãðàäèåíò_20-16" x1="653.22" y1="462.84" x2="554.26" y2="174.85" gradientTransform="matrix(1, 0, 0, 1, 0, 0)" xlink:href="#Áåçûìÿííûé_ãðàäèåíò_20"/><linearGradient id="Áåçûìÿííûé_ãðàäèåíò_13" x1="328.89" y1="506.73" x2="298.5" y2="495.1" gradientUnits="userSpaceOnUse"><stop offset="0" stop-color="#fff"/><stop offset="1" stop-color="#697182"/></linearGradient><linearGradient id="Áåçûìÿííûé_ãðàäèåíò_17" x1="363.87" y1="464.1" x2="329.88" y2="482.49" gradientUnits="userSpaceOnUse"><stop offset="0" stop-color="#fff"/><stop offset="1"/></linearGradient><linearGradient id="Áåçûìÿííûé_ãðàäèåíò_10" x1="994.97" y1="400.43" x2="994.97" y2="413.43" gradientTransform="matrix(-1, 0, 0, 1, 1116.33, 0)" gradientUnits="userSpaceOnUse"><stop offset="0" stop-color="#fff"/><stop offset="1" stop-color="#ba654b"/></linearGradient><linearGradient id="Áåçûìÿííûé_ãðàäèåíò_14" x1="887.03" y1="396.3" x2="888.79" y2="396.3" gradientTransform="matrix(-1, 0, 0, 1, 1116.33, 0)" gradientUnits="userSpaceOnUse"><stop offset="0" stop-color="#fff"/><stop offset="1" stop-color="#c4c8cd"/></linearGradient><linearGradient id="Áåçûìÿííûé_ãðàäèåíò_54" x1="193.49" y1="355.76" x2="193.49" y2="426.28" gradientUnits="userSpaceOnUse"><stop offset="0" stop-color="#fff"/><stop offset="1" stop-color="#0057a8"/></linearGradient><linearGradient id="Áåçûìÿííûé_ãðàäèåíò_10-2" x1="913.55" y1="328.84" x2="913.26" y2="316.44" xlink:href="#Áåçûìÿííûé_ãðàäèåíò_10"/><linearGradient id="Áåçûìÿííûé_ãðàäèåíò_10-3" x1="866.79" y1="298.58" x2="910.94" y2="298.58" gradientTransform="matrix(-1, 0.05, 0.05, 1, 1084.8, -40.18)" xlink:href="#Áåçûìÿííûé_ãðàäèåíò_10"/><linearGradient id="Áåçûìÿííûé_ãðàäèåíò_17-2" x1="311.24" y1="513.83" x2="235.63" y2="513.83" xlink:href="#Áåçûìÿííûé_ãðàäèåíò_17"/><linearGradient id="Áåçûìÿííûé_ãðàäèåíò_54-2" x1="579.61" y1="372.85" x2="629.3" y2="372.85" xlink:href="#Áåçûìÿííûé_ãðàäèåíò_54"/><linearGradient id="Áåçûìÿííûé_ãðàäèåíò_10-4" x1="631" y1="345.08" x2="631" y2="291.48" gradientTransform="matrix(1, 0, 0, 1, 0, 0)" xlink:href="#Áåçûìÿííûé_ãðàäèåíò_10"/><linearGradient id="Áåçûìÿííûé_ãðàäèåíò_54-3" x1="609.78" y1="354.72" x2="662.63" y2="354.72" xlink:href="#Áåçûìÿííûé_ãðàäèåíò_54"/><linearGradient id="Áåçûìÿííûé_ãðàäèåíò_10-5" x1="600.39" y1="284.6" x2="637.98" y2="263.87" gradientTransform="matrix(1, 0, 0, 1, 0, 0)" xlink:href="#Áåçûìÿííûé_ãðàäèåíò_10"/><radialGradient id="Áåçûìÿííûé_ãðàäèåíò_19" cx="558.99" cy="284.69" r="11.49" gradientTransform="translate(-568.08 -395.95) scale(2.14 2.2)" gradientUnits="userSpaceOnUse"><stop offset="0" stop-color="#c4c8cd"/><stop offset="1" stop-color="#fff"/></radialGradient><linearGradient id="Áåçûìÿííûé_ãðàäèåíò_54-4" x1="663.87" y1="370.77" x2="706.84" y2="370.77" xlink:href="#Áåçûìÿííûé_ãðàäèåíò_54"/><linearGradient id="Áåçûìÿííûé_ãðàäèåíò_67" x1="192.4" y1="286.82" x2="192.4" y2="410.56" gradientTransform="translate(691.33)" gradientUnits="userSpaceOnUse"><stop offset="0" stop-color="#fff"/><stop offset="1" stop-color="#46495f"/></linearGradient><linearGradient id="Áåçûìÿííûé_ãðàäèåíò_10-6" x1="107.38" y1="296.4" x2="119.82" y2="276.78" gradientTransform="translate(691.33)" xlink:href="#Áåçûìÿííûé_ãðàäèåíò_10"/><linearGradient id="Áåçûìÿííûé_ãðàäèåíò_10-7" x1="195.13" y1="-537.9" x2="223.19" y2="-547.25" gradientTransform="translate(774.12 832.69) rotate(-20.36)" xlink:href="#Áåçûìÿííûé_ãðàäèåíò_10"/><linearGradient id="Áåçûìÿííûé_ãðàäèåíò_67-2" x1="826" y1="507.87" x2="810.46" y2="452.46" gradientTransform="matrix(-1, 0, 0, 1, 1258.38, 0)" xlink:href="#Áåçûìÿííûé_ãðàäèåíò_67"/><linearGradient id="Áåçûìÿííûé_ãðàäèåíò_67-3" x1="494.73" y1="322.33" x2="494.73" y2="422.51" gradientTransform="matrix(1, 0, 0, 1, 0, 0)" xlink:href="#Áåçûìÿííûé_ãðàäèåíò_67"/><linearGradient id="Áåçûìÿííûé_ãðàäèåíò_67-4" x1="889.02" y1="294.64" x2="826.77" y2="249.74" gradientTransform="matrix(-1, 0, 0, 1, 1258.38, 0)" xlink:href="#Áåçûìÿííûé_ãðàäèåíò_67"/><linearGradient id="Áåçûìÿííûé_ãðàäèåíò_67-5" x1="832.28" y1="332.21" x2="880.12" y2="380.37" gradientTransform="matrix(-1, 0, 0, 1, 1258.38, 0)" xlink:href="#Áåçûìÿííûé_ãðàäèåíò_67"/><linearGradient id="Áåçûìÿííûé_ãðàäèåíò_10-8" x1="798.97" y1="256.88" x2="807.49" y2="242.34" gradientTransform="matrix(-1, 0, 0, 1, 1258.38, 0)" xlink:href="#Áåçûìÿííûé_ãðàäèåíò_10"/><linearGradient id="Áåçûìÿííûé_ãðàäèåíò_10-9" x1="799.83" y1="236.26" x2="813.43" y2="210.42" gradientTransform="matrix(-1, 0, 0, 1, 1258.38, 0)" xlink:href="#Áåçûìÿííûé_ãðàäèåíò_10"/><linearGradient id="Áåçûìÿííûé_ãðàäèåíò_17-3" x1="781.3" y1="221.76" x2="794.21" y2="189.67" gradientTransform="matrix(-1, 0, 0, 1, 1258.38, 0)" xlink:href="#Áåçûìÿííûé_ãðàäèåíò_17"/><linearGradient id="Áåçûìÿííûé_ãðàäèåíò_10-10" x1="875.84" y1="295.16" x2="916.63" y2="295.16" gradientTransform="matrix(-1, 0, 0, 1, 1258.38, 0)" xlink:href="#Áåçûìÿííûé_ãðàäèåíò_10"/><radialGradient id="Áåçûìÿííûé_ãðàäèåíò_19-2" cx="491.35" cy="15978.6" r="234.13" gradientTransform="translate(-568.08 -11717.48) scale(2.14 0.76)" xlink:href="#Áåçûìÿííûé_ãðàäèåíò_19"/><linearGradient id="Áåçûìÿííûé_ãðàäèåíò_20-17" x1="363.27" y1="579.69" x2="400.13" y2="519.83" gradientTransform="matrix(1, 0, 0, 1, 0, 0)" xlink:href="#Áåçûìÿííûé_ãðàäèåíò_20"/><linearGradient id="Áåçûìÿííûé_ãðàäèåíò_20-18" x1="512.1" y1="528.66" x2="470.06" y2="528.66" gradientTransform="matrix(1, 0, 0, 1, 0, 0)" xlink:href="#Áåçûìÿííûé_ãðàäèåíò_20"/><linearGradient id="Áåçûìÿííûé_ãðàäèåíò_20-19" x1="512.1" y1="511.62" x2="470.06" y2="511.62" gradientTransform="matrix(1, 0, 0, 1, 0, 0)" xlink:href="#Áåçûìÿííûé_ãðàäèåíò_20"/><linearGradient id="Áåçûìÿííûé_ãðàäèåíò_13-2" x1="2859.73" y1="521.31" x2="2958.28" y2="521.31" gradientTransform="translate(-2109.23 -938.64) rotate(19.07)" xlink:href="#Áåçûìÿííûé_ãðàäèåíò_13"/><linearGradient id="Áåçûìÿííûé_ãðàäèåíò_20-20" x1="655.03" y1="577.02" x2="664.6" y2="535.4" gradientTransform="matrix(1, 0, 0, 1, 0, 0)" xlink:href="#Áåçûìÿííûé_ãðàäèåíò_20"/><linearGradient id="Áåçûìÿííûé_ãðàäèåíò_20-21" x1="104.12" y1="520.06" x2="219.46" y2="478.7" gradientTransform="matrix(1, 0, 0, 1, 0, 0)" xlink:href="#Áåçûìÿííûé_ãðàäèåíò_20"/><linearGradient id="Áåçûìÿííûé_ãðàäèåíò_13-3" x1="195.87" y1="471.61" x2="211.04" y2="557.85" gradientTransform="matrix(0.85, 0.17, -0.32, 0.9, 302, -59.69)" xlink:href="#Áåçûìÿííûé_ãðàäèåíò_13"/><linearGradient id="Áåçûìÿííûé_ãðàäèåíò_13-4" x1="195.35" y1="481.82" x2="214.42" y2="559.75" gradientTransform="matrix(0.85, 0.17, -0.32, 0.9, 302, -59.69)" xlink:href="#Áåçûìÿííûé_ãðàäèåíò_13"/><linearGradient id="Áåçûìÿííûé_ãðàäèåíò_10-11" x1="462.4" y1="544.05" x2="520.71" y2="500.02" gradientTransform="matrix(-0.57, -0.82, -0.82, 0.57, 1235.5, 525.86)" xlink:href="#Áåçûìÿííûé_ãðàäèåíò_10"/><linearGradient id="Áåçûìÿííûé_ãðàäèåíò_10-12" x1="2945.01" y1="443.98" x2="2838.77" y2="453.64" gradientTransform="matrix(-0.99, 0.16, 0.16, 0.99, 3548.46, -448.04)" xlink:href="#Áåçûìÿííûé_ãðàäèåíò_10"/><linearGradient id="Áåçûìÿííûé_ãðàäèåíò_14-2" x1="305.07" y1="1188.35" x2="342.22" y2="1055.75" gradientTransform="translate(717.6 -762.43) rotate(9.69)" xlink:href="#Áåçûìÿííûé_ãðàäèåíò_14"/><linearGradient id="Áåçûìÿííûé_ãðàäèåíò_13-5" x1="708.28" y1="409.12" x2="727.18" y2="516.64" gradientTransform="matrix(-0.81, 0.11, 0.49, 0.94, 1008.27, -48.56)" xlink:href="#Áåçûìÿííûé_ãðàäèåíò_13"/><linearGradient id="Áåçûìÿííûé_ãðàäèåíò_13-6" x1="705.84" y1="420" x2="730.43" y2="520.53" gradientTransform="matrix(-0.81, 0.11, 0.49, 0.94, 1008.27, -48.56)" xlink:href="#Áåçûìÿííûé_ãðàäèåíò_13"/><linearGradient id="Áåçûìÿííûé_ãðàäèåíò_10-13" x1="221.97" y1="454.13" x2="170.25" y2="438.69" gradientTransform="matrix(1, 0, 0, 1, 0, 0)" xlink:href="#Áåçûìÿííûé_ãðàäèåíò_10"/></defs><g class="cls-1"><g id="Layer_2" data-name="Layer 2"><g id="Layer_1-2" data-name="Layer 1"><polygon class="cls-2" points="371.55 512.16 484.27 508.72 484.27 105.78 371.55 88.48 371.55 512.16"/><polygon class="cls-3" points="472.59 293.28 472.59 497.02 382.56 500.08 382.56 291.5 472.59 293.28"/><polygon class="cls-4" points="382.56 278.86 382.56 102.11 472.59 116.24 472.59 280.3 382.56 278.86"/><polygon class="cls-5" points="382.56 125.81 382.56 102.11 472.59 116.24 382.56 125.81"/><polygon class="cls-5" points="371.55 512.65 322.07 504.62 322.07 120.82 371.55 88.48 371.55 512.65"/><polygon class="cls-6" points="244.9 499.06 358.9 495.57 358.9 88.06 244.9 70.56 244.9 499.06"/><polygon class="cls-7" points="347.09 277.69 347.09 483.74 256.04 486.84 256.04 275.89 347.09 277.69"/><polygon class="cls-8" points="256.04 263.1 256.04 84.35 347.09 98.64 347.09 264.56 256.04 263.1"/><polygon class="cls-5" points="256.04 114.92 256.04 84.35 347.09 98.64 256.04 114.92"/><polygon class="cls-5" points="244.9 499.55 194.86 491.42 194.86 103.27 244.9 70.56 244.9 499.55"/><polygon class="cls-9" points="111.31 514.67 234.44 503.46 234.44 68.37 111.31 51.84 111.31 514.67"/><polygon class="cls-10" points="178.75 278.5 221.82 278.77 221.82 491.58 178.75 495.6 178.75 278.5"/><polygon class="cls-11" points="166.21 278.42 166.21 496.76 123.47 500.75 123.47 278.14 166.21 278.42"/><polygon class="cls-12" points="123.47 264.35 123.47 66.5 221.82 79.92 221.82 264.75 123.47 264.35"/><polygon class="cls-5" points="123.47 104.24 123.47 66.5 221.82 79.92 123.47 104.24"/><polygon class="cls-5" points="111.31 514.62 56.35 504.45 56.35 81.66 111.31 51.84 111.31 514.62"/><polygon class="cls-13" points="836.56 290.44 836.56 422.13 937.17 437.63 937.17 290.44 836.56 290.44"/><polygon class="cls-14" points="937.17 261.18 937.17 0 836.56 27.38 836.56 261.18 937.17 261.18"/><polygon class="cls-15" points="824.55 261.18 824.55 32.54 712.96 63 712.96 261.18 824.55 261.18"/><polygon class="cls-16" points="712.96 290.44 712.96 479.23 824.55 492.89 824.55 290.44 712.96 290.44"/><polygon class="cls-17" points="699.6 261.18 699.6 68.64 575.12 102.72 575.12 261.18 699.6 261.18"/><polygon class="cls-18" points="575.12 290.44 575.12 542.92 699.6 554.19 699.6 290.44 575.12 290.44"/><path class="cls-19" d="M319.58,386.59c2.88,5.69,9.38,57.63,9.38,57.63l-2.45,1.24c-2.64-36-4.32-45.47-7.38-58.49C319.09,386.76,316.7,380.9,319.58,386.59Z"/><path class="cls-20" d="M315,301c17.42,44.61,4.6,86.19,4.6,86.19-19.66-8.07-21.43-32.41-21.43-32.41,21.73,12.6-1.06-8.06-1.06-8.06C288,313.11,315,301,315,301Z"/><path class="cls-19" d="M328.35,351.7s-20.84,20.87-.05,6.69c0,0,2.27,22-8.73,28.77,0,0-18.19-41-3.93-86.76C315.64,300.4,335.11,317.53,328.35,351.7Z"/><path class="cls-19" d="M299.66,375.41s3.36,4.38-2.93,9.62,6.46,3.09,7.23-6.28,12.4,3.14,5.92,16.3c-6,12.17,13.25,26.19,21.1,51.76a28.12,28.12,0,0,0-3.3-1c-4.31-11.65-12.84-32.12-24.47-47.47C286,375.62,255,376.11,255,376.11S281.82,364.39,299.66,375.41Z"/><path class="cls-19" d="M330.71,431.29c-.56,2.58-2.91,9.35-4.61,14.11-.48-.09-1-.15-1.46-.21,1.42-4,3.3-7.72,4.16-10.9,7.15-26.23-4-36.21-7.27-55.78C365,424.28,331.6,427.15,330.71,431.29Z"/><path class="cls-20" d="M292.39,390.79c1.67,5.7-2.05,12,1.9,12.58S291,391.73,296,392.54s8.79,7.32,8.79,7.32c-.25,21.49,2.33,2.52,2.33,2.52,8.1,15.5,1.95,23.31,1.95,23.31,8.79,5,15.33,13.69,19.37,20.27-.66-.19-1.32-.35-2-.49-4.44-7.56-12.39-17.48-25.38-23-22.91-9.7-32.12-31.44-32.12-31.44S290.73,385.09,292.39,390.79Z"/><path class="cls-19" d="M293.23,405.2c15.62,3.65,15.84,20.49,15.84,20.49,9.23,5.59,15.63,14,19.5,20.3-.7-.2-1.4-.37-2.12-.52-4.44-7.56-12.39-17.48-25.38-23-22.91-9.7-32.12-31.44-32.12-31.44A47.75,47.75,0,0,0,293.23,405.2Z"/><path class="cls-20" d="M340,402.24c-1.13,12.81-10,35.05-13.39,43.28a27.78,27.78,0,0,0-3.43-.5c3.47-5.84,13.44-23.79,16-41.44,3.08-21.48-10.65-31.31,8.06-57.5,0,0,17.34,30.33,3.92-5,0,0,8-6.45,10.81-10.45a16.24,16.24,0,0,0,3.65,9.41s-2.09-17,18.67-14.13c0,0,9.93,15.48-8.21,28,0,0-9.56,5.56-12.88,9.4,0,0,8.85-5,15.1-1.9,0,0-2.64,13.68-8.69,14.95s-6.69,2-6.69,2-.8,3.23-4.82,2.82-4.13,2.76-4.13,2.76,6.8-3,12.06-1.05c0,0,.21,8.4-9.3,10.25S341.44,386.31,340,402.24Z"/><path class="cls-19" d="M340,402.24c-1.13,12.81-10,35-13.39,43.28a26,26,0,0,0-3.43-.49c3.47-5.85,13.44-23.8,16-41.45a52,52,0,0,0-.1-14.69c-1.34-10.08-4.09-18.64,1.4-31.18h0a64.8,64.8,0,0,1,6.77-11.62s17.34,30.33,3.92-5c0,0,8-6.45,10.8-10.45a16.3,16.3,0,0,0,3.66,9.41s-2.09-17,18.67-14.13c0,0,1.6,13-16.54,25.61,0,0-27.5,34.1-22.25,36.07,0,0,20.74,3.7,11.23,5.55S341.44,386.31,340,402.24Z"/><path class="cls-20" d="M343.21,376.4a17.07,17.07,0,0,1-4.13,12.49c-1.34-10.08-4.09-18.64,1.4-31.18C338.24,368.83,342.58,368.82,343.21,376.4Z"/><path class="cls-20" d="M333,447.7c2.13-7.05,7.15-20.3,16.7-28.7,0,0-7.54-6.4-2.59-23.25,0,0,6.19,18.07,1.79-2.95,0,0,2.48-7.16,7.21-9s0,11.66,3.77,10.27-1.1-6.79-.57-12.71,23-4.54,23-4.54S377.48,400,356.9,414.22c-15.25,10.52-20.59,26.67-22.34,34.32C334,448.25,333.52,448,333,447.7Z"/><path class="cls-19" d="M332.91,447.67c2-6.81,6.78-19.44,16.77-28.67,0,0-3-16.56,11.57-23.32a48.52,48.52,0,0,0,21.06-18.83S377.48,400,356.9,414.22c-15.25,10.52-20.59,26.67-22.34,34.32Q333.75,448.08,332.91,447.67Z"/><path class="cls-19" d="M334.11,445.68c9.24-11.1,24.24-14.83,22.66-21.31-1.66-6.82,7.65-10.89,6.48-6.55s6.25,7.05,3.32,3.82-.11-4.74-.11-4.74c12.84-2.54,27.2,6.41,27.2,6.41s-18.88-4.45-33.37,3.44c-10.92,5.95-20.6,15.3-24.71,19.55C335.1,446.08,334.61,445.88,334.11,445.68Z"/><path class="cls-19" d="M738.64,414.58c2.88,5.69,9.38,57.64,9.38,57.64l-2.44,1.23c-2.65-36-4.33-45.47-7.38-58.49C738.15,414.76,735.76,408.89,738.64,414.58Z"/><path class="cls-20" d="M734,329c17.41,44.62,4.59,86.2,4.59,86.2-19.66-8.07-21.42-32.42-21.42-32.42,21.72,12.61-1.07-8.06-1.07-8.06C707,341.1,734,329,734,329Z"/><path class="cls-19" d="M747.41,379.69s-20.84,20.87,0,6.7c0,0,2.27,22-8.73,28.77,0,0-18.18-41-3.93-86.77C734.7,328.39,754.17,345.52,747.41,379.69Z"/><path class="cls-19" d="M718.72,403.41s3.36,4.37-2.93,9.61,6.47,3.09,7.23-6.28,12.4,3.15,5.92,16.3c-6,12.17,13.25,26.2,21.11,51.77a26.51,26.51,0,0,0-3.31-1c-4.3-11.65-12.84-32.13-24.47-47.47-17.2-22.69-48.2-22.19-48.2-22.19S700.88,392.38,718.72,403.41Z"/><path class="cls-19" d="M749.77,459.29c-.56,2.58-2.9,9.34-4.61,14.11-.48-.09-1-.15-1.46-.22,1.42-4,3.3-7.71,4.16-10.89,7.15-26.24-4-36.22-7.27-55.79C784,452.27,750.66,455.14,749.77,459.29Z"/><path class="cls-20" d="M711.45,418.79c1.67,5.7-2.05,12,1.9,12.57s-3.27-11.63,1.71-10.83,8.8,7.32,8.8,7.32c-.25,21.49,2.32,2.53,2.32,2.53,8.1,15.5,2,23.31,2,23.31,8.78,5,15.33,13.68,19.36,20.26-.65-.18-1.32-.35-2-.48-4.44-7.56-12.38-17.49-25.38-23-22.9-9.7-32.11-31.43-32.11-31.43S709.79,413.09,711.45,418.79Z"/><path class="cls-19" d="M712.29,433.19c15.63,3.65,15.85,20.5,15.85,20.5,9.22,5.58,15.62,13.95,19.49,20.3-.69-.2-1.4-.38-2.12-.52-4.44-7.56-12.38-17.49-25.38-23-22.9-9.7-32.11-31.43-32.11-31.43A47.64,47.64,0,0,0,712.29,433.19Z"/><path class="cls-20" d="M759.09,430.24c-1.13,12.81-10,35-13.38,43.27a27.93,27.93,0,0,0-3.44-.49c3.48-5.84,13.44-23.8,16-41.45,3.09-21.47-10.65-31.31,8.07-57.49,0,0,17.33,30.33,3.91-5,0,0,8-6.46,10.81-10.45A16.32,16.32,0,0,0,784.7,368s-2.1-17,18.67-14.13c0,0,9.92,15.47-8.22,28,0,0-9.56,5.56-12.88,9.41,0,0,8.86-5,15.1-1.9,0,0-2.64,13.67-8.69,14.95s-6.68,1.95-6.68,1.95-.81,3.24-4.83,2.82-4.13,2.76-4.13,2.76,6.8-3,12.06-1.05c0,0,.21,8.4-9.3,10.25S760.5,414.3,759.09,430.24Z"/><path class="cls-19" d="M759.09,430.24c-1.13,12.8-10,35-13.38,43.27a28,28,0,0,0-3.43-.49c3.47-5.84,13.43-23.8,16-41.44a52.39,52.39,0,0,0-.11-14.7c-1.34-10.07-4.09-18.64,1.4-31.17h0a64.91,64.91,0,0,1,6.78-11.62s17.33,30.32,3.91-5c0,0,8-6.46,10.81-10.45A16.32,16.32,0,0,0,784.7,368s-2.1-17,18.67-14.13c0,0,1.59,13-16.55,25.6,0,0-27.5,34.11-22.24,36.08,0,0,20.73,3.69,11.22,5.54S760.5,414.3,759.09,430.24Z"/><path class="cls-20" d="M762.27,404.4a17,17,0,0,1-4.13,12.48c-1.34-10.07-4.09-18.64,1.4-31.17C757.3,396.82,761.64,396.82,762.27,404.4Z"/><path class="cls-20" d="M752,475.69c2.13-7.05,7.15-20.3,16.7-28.7,0,0-7.53-6.4-2.59-23.24,0,0,6.19,18.06,1.79-2.95,0,0,2.49-7.16,7.21-9s0,11.65,3.77,10.26-1.1-6.78-.57-12.71,23-4.53,23-4.53S796.54,428,776,442.21c-15.26,10.52-20.6,26.67-22.35,34.33C753.1,476.24,752.58,476,752,475.69Z"/><path class="cls-19" d="M752,475.66c2-6.81,6.78-19.44,16.77-28.67,0,0-3-16.55,11.57-23.32a48.47,48.47,0,0,0,21.06-18.82S796.54,428,776,442.21c-15.26,10.52-20.6,26.67-22.35,34.33C753.08,476.23,752.54,475.93,752,475.66Z"/><path class="cls-19" d="M753.17,473.68c9.24-11.11,24.24-14.84,22.67-21.31-1.67-6.83,7.64-10.89,6.47-6.56s6.25,7.05,3.32,3.83-.11-4.74-.11-4.74c12.85-2.55,27.2,6.41,27.2,6.41s-18.88-4.46-33.37,3.44c-10.92,5.95-20.59,15.29-24.71,19.55C754.16,474.08,753.67,473.88,753.17,473.68Z"/><g id="svg-blue-man"><path d="M354.45,464.33c-21.34-12.53-104.46-31.15-137-19.78-13.87,4.84-30.6,27.11-17.27,54.12,12.57,25.48,109.74,8.44,140.16,6.48C370.6,503.21,382.58,480.83,354.45,464.33Z"/><path class="cls-21" d="M299,518.22s13,0,21-1.13,11.4,2.36,21.7,1.13,5.08,3,16.47-.86c12.45-4.17-7-13.85-13-13.75s-20-6.52-23.5-8.74c-8.07-5.13-9.31,3.7-20.51,2.68Z"/><path class="cls-22" d="M345.23,503.61c-6,.11-20-6.52-23.5-8.74-8.07-5.13-9.31,3.7-20.51,2.68l-.9,8.51c3.52-.48,13.19,1.18,14.42,1.2,2,0,4.08,0,6.12,0a45.65,45.65,0,0,1,13.25,1.89A23.32,23.32,0,0,1,346.16,518c4.47.29,2.83,2.44,12-.65C370.65,513.19,351.23,503.51,345.23,503.61Z"/><path d="M369.82,481.48s10.36,46.68,17.16,68.9c0,0-10.8,9.25-33.8,6.78,0,0-18.65-36-18.85-59.45S368.14,474,369.82,481.48Z"/><path class="cls-23" d="M370.28,483.52c-.62-6.33-5.53-13.15-15.83-19.19-21.34-12.53-104.46-31.15-137-19.78-8.67,3-18.46,12.86-21.32,26.41a22.3,22.3,0,0,1,12.21-4c11.57-.3,22.78,3.11,33.9,5.91,9.13,2.29,19.72,3.05,29.82,4.85,10.27,1.82,72.6-14.27,88.46,21.82h0c1.31,3,11.6,28.84,13,31.85,3,6.44,3.38,12.49,4.26,19.43a25.84,25.84,0,0,0,.83,3.9,28.62,28.62,0,0,0,8.38-4.35C381,530.93,372.35,492.74,370.28,483.52Z"/><path d="M136.21,479.52s.79,11.62,8.6,17.79S168.29,504,174.72,512c10.55,13.17,39.58-39.89,39.58-39.89L196.17,456Z"/><path class="cls-24" d="M108.24,396.24c-2.73,8.08-12.12,32.94.59,37.93s21.5-12.54,28.66-28.05S115.52,374.7,108.24,396.24Z"/><g class="cls-25"><path class="cls-26" d="M114.12,387.92c3.5,1.13,6.48,4.53,6.24,8.42-.14,2.24-.62,4.49-.68,6.7a27,27,0,0,1-.64,6.72c-1.16,4.06-3.77,7.71-6.22,11A51.35,51.35,0,0,1,104.1,430a9,9,0,0,0,4.73,4.17c12.7,5,21.5-12.54,28.66-28.05C143.34,393.47,125,380.55,114.12,387.92Z"/></g><path class="cls-24" d="M256.37,380.51c2.73,8.08,12.9,34.47.2,39.46s-22.32-12.16-29-30.78C221.74,373.09,249.09,359,256.37,380.51Z"/><path class="cls-21" d="M228.61,396.41a13.19,13.19,0,0,0-1.07-1.91Z"/><path class="cls-27" d="M263.35,383.08s-16.33,15-32,17.49c0,0-2-2.28-2-2.27.14.44,3.24,5,2.32,10.25-.05.31-.1.58-.16.87-2,8.85,6.82,14.13,3.88,19.7s-2.13,6.95,1.41,12.14c0,0-24.65,2.57-32,16.43s-31,16.13-52.59,21.29c-12.17,2.93-16,11.66-16,11.66l0,0a37.56,37.56,0,0,1-5.08-20.83h0c.07-.93.13-1.91.21-3,1.28-17.56-3.68-33.51,3.4-54.62,0,0,0,0,0-.06.19-.58.39-1.16.61-1.76,0,0-25.43-3.56-29.54-15.87,0,0,10.54-22.1,13.23-31.4,3.29-11.33,1.6-22.46,30.35-35.51s19.9-4.35,38.32-10.34,30.38,15.83,45.19,16.77C247.92,335,263.35,383.08,263.35,383.08Z"/><path class="cls-28" d="M229.3,398.1a15.89,15.89,0,0,0-1.76-3.6Z"/><path class="cls-29" d="M263.28,383.14c-.12.1-.3.29-.6.55A86.06,86.06,0,0,1,242.12,397l-.83.35q-.72.31-1.47.6a48.34,48.34,0,0,1-8.48,2.59l-2-2.48s3.4,5.43,2.38,10.46c-.06.3-.1.58-.16.87-2,8.85,6.82,14.13,3.88,19.7s-2.13,6.95,1.41,12.14c0,0-24.65,2.57-32,16.43s-31,16.13-52.59,21.29c-12,2.88-16,11.66-16,11.66l0,0a34.43,34.43,0,0,1-5.08-20.83h0c5.72.2,8.57-13.28,29.8-8.73,2.36.51-2.25-18.5,4.38-11.09,3.71,4.16,20.46,12.18,22.37,8.37s-37.23-25.06-30.41-29.89,40.5.59,37.81-7.69c-2.82-8.58-21.83-9.87-22.69-10.41-21.26-13.24,48.52-17.9,48.07-26.18-.52-9.58-41.62-7.33-45.42.13-13.49,26.36-20.2,1.95-31.59,10.51-1.27.95-5.86,11.06-8.68,17.35.19-.58.39-1.16.61-1.76a86.39,86.39,0,0,1-11.66-2.75c3.8-6.82,10.7-21.64,12.46-29.08,2.24-9.53-2.16-19.81,13.4-15.92,4.46,1.11,44,.87,56.76-3,9.17-2.78,7.8-20.84,16.94-23.73,5.36-1.69,14,13.13,19.54,14.29,5,1.05-4,17.64,5.81,17.63,5.52,0-2.1,5.83-2.88,11.45C243.41,396.08,261.87,384.08,263.28,383.14Z"/><path class="cls-24" d="M192.1,304.69a22.91,22.91,0,0,1-5.22,13.42c-5.22,6.67,12.2,30.25,23.18,27.47s-.47-16.88,7.57-20.47C229.57,319.78,192.1,304.69,192.1,304.69Z"/><g class="cls-25"><path class="cls-30" d="M217.63,325.11a4.89,4.89,0,0,0-2.21,1.84c-6.32,3-16-5.67-20.75-4.22-1.91.58-5.3,4.09-6.91,5.33-1.93-4.09-2.52-7.86-.88-9.95a22.91,22.91,0,0,0,5.22-13.42S229.57,319.78,217.63,325.11Z"/></g><path class="cls-24" d="M234,286.74a85.7,85.7,0,0,0-2.39-13.26s-20.8.67-28.7,1.2S188.48,290,189.05,300.06c.49,8.66,10.81,10.43,10.81,10.43a31.31,31.31,0,0,0,23.87,15.62c11.73,1.06,10.13-8.55,11.27-12.93s1.95-13.68,1.39-17.28S234.39,292.68,234,286.74Z"/><g class="cls-25"><path class="cls-31" d="M202.87,274.68c7.9-.53,28.7-1.2,28.7-1.2s.21.8.51,2.07a27,27,0,0,0-4-.12c-30.54,1.5-27.59,48.55,1.1,50.17a12.82,12.82,0,0,1-5.5.51,31.31,31.31,0,0,1-23.87-15.62s-10.32-1.77-10.81-10.43C188.48,290,195,275.2,202.87,274.68Z"/></g><path class="cls-32" d="M212.27,258.14c-11.06,4-20.49-3.72-27.94,9.27s-6.63,16.3-2,24.89,2.26,22.37,13.28,16.84a18.14,18.14,0,0,1-6-11.45c-.59-7,6.14-3.53,6.61-2.35s6.26,6,6.51-12.78c.09-6.78,4.67-10.25,13.34-6.24,7.63,3.53,15.53-1.9,15.53-1.9s1.4,6.36,2.15,10.44c0,0,.67-7.75,1.63-12.85S234.82,250,212.27,258.14Z"/><path d="M210.21,471.12c-5.77.41-11.8-4.73-23-2.88s-20.8,18.51-18.6,24.47.6,16.05,9.6,22.63,15.2,15,44.61,14.4S277.29,521,284,521.85s10.13-1.64,13.73-.41,5.47.41,5.47.41,11.2-11.38-2.67-28.93c0,0-11.07-4.53-16.53-7.68s-5.21,4-8.81,3.84-32.13-10.15-44.93-10.7S225.55,470,210.21,471.12Z"/><path class="cls-33" d="M303.87,497.9a16.25,16.25,0,0,1-2.52,5.66s-1.77,1-5.48.23-6.88,2-13.6,2-30.73,10.93-59.87,15-36.24-3.61-45.91-9.1a18.3,18.3,0,0,1-3.87-2.94,17.94,17.94,0,0,0,5.59,6.61c9,6.58,15.2,15,44.61,14.4S277.29,521,284,521.85s10.13-1.64,13.73-.41,5.47.41,5.47.41S312.26,512.59,303.87,497.9Z"/><path class="cls-24" d="M262.81,408.43c0-5.39-3.53-8.74-12.4-7.36s-14.09,5-9.71,14.51c.29.63,3.94,6.15,1,7.12s-3.24,5.48-3.64,11.57-1.49,12.79-1.57,14.67c-.16,3.64,3.7,3.94,4.45.45s3.27-16.47,4.29-16.42c.57,0,.44,1.23.14,3.42s-3.85,14.77-.05,16.6c2.91,1.41,3.53-4.42,4.44-8.56s2.84-9.91,2.84-9.91a41.4,41.4,0,0,1-.78,8.68c-1,5.79-.81,8.58,2.27,7.72,2.43-.67,4.45-15,4.45-15s1.91.52.11,5.19,0,7.08,1.69,6.39c2.63-1.07,2.15-5.07,4.32-9s-1.33-8.42-3-13.68C260.21,420.16,262.81,413.34,262.81,408.43Z"/></g><g id="svg-blue-girl"><path class="cls-32" d="M673.28,263.39c8.13-6.33-6.25-5.5,2.25-14.7s-1.42-13.31-1.42-13.31c3.56-12-6.59-3.27-7.41-10.65s-7.34-4.92-7.34-4.92c-.34-13.52-9.3-7.77-15.64-14.05s-7.61-.4-11.57,0-5.67-11.11-11.48-.15-3.36-.42-11.52,2.87-1.45,10.57-7.21,10.24-4.47,5.89-4.47,5.89c-9.78,4.2-3.66,10-3.66,10-3.32,8.43,8.32,4.94,3.15,11.67s4,8.39,4,8.39c1.82,8.68,11.42,1.78,11.42,1.78s26.22,8.25,28.57,18.85,11.88,2.58,11.88,2.58c5,5.25,10.36-4.34,10.36-4.34C674,275.25,665.16,269.73,673.28,263.39Z"/><path d="M673.28,263.39c.35-.27.64-.52.91-.76a14.12,14.12,0,0,1-1.74-.87c-5.07-3.11-6.59-9.43-5-14.84-5.89-3.73-6.89-11.87-3.61-17.67a11,11,0,0,1,3-3.43,5.24,5.24,0,0,1-.22-1.09,8.76,8.76,0,0,0-.65-2.54l0,0a11.88,11.88,0,0,1-12,5.66,14.12,14.12,0,0,1,.09,14.13c-3.49,6.15-11.67,7.28-17.28,3.85-6-3.69-7.06-11.92-3.75-17.77a12,12,0,0,1,.67-1,4,4,0,0,1-1.41-.54c-4.35-2.66-.08-9.45,4.25-6.79a3.55,3.55,0,0,1,1.79,3.63,13,13,0,0,1,6.67-.93,13,13,0,0,1-1.87-5.69,3.65,3.65,0,0,1-4.18.11l-.29-.2a3.82,3.82,0,0,1-5.39,1.41c-4.36-2.67-.09-9.45,4.25-6.79l.3.2a3.82,3.82,0,0,1,5.39-1.41,5.24,5.24,0,0,1,.68.51,14.45,14.45,0,0,1,1-2.27c.21-.36.43-.7.66-1a11.11,11.11,0,0,1-1.94-1.53c-.36-.36-.71-.68-1-1-.81,2.15-3.29,3.77-5.8,2.24a3.59,3.59,0,0,1-1.78-2.57,6.42,6.42,0,0,1-3,1.3c-2.68.28-4.33-4.91-6.92-4.88a4.22,4.22,0,0,1,.87.4c4.35,2.67.08,9.45-4.25,6.8a3.66,3.66,0,0,1-1.56-1.76c-4.19,7.67-3.74,2.58-7.29,1.67,2.28,3-1.52,8.14-5.38,5.78a3.55,3.55,0,0,1-1.82-2.91c-2.61,3.54.74,8.12-3.86,7.86-5.75-.33-4.47,5.89-4.47,5.89-9.78,4.2-3.66,10-3.66,10-3.32,8.43,8.32,4.94,3.15,11.67s4,8.39,4,8.39c1.82,8.68,11.42,1.78,11.42,1.78s26.22,8.25,28.57,18.85,11.88,2.58,11.88,2.58c5,5.25,10.36-4.34,10.36-4.34C674,275.25,665.16,269.73,673.28,263.39Zm-50.11-41.83a4.29,4.29,0,0,1-1.25-1.17,3.72,3.72,0,0,1-4.85.71c-4.35-2.67-.08-9.45,4.25-6.8a4,4,0,0,1,1.25,1.18,3.71,3.71,0,0,1,4.85-.72C631.78,217.43,627.51,224.21,623.17,221.56Z"/><path class="cls-24" d="M605.37,320.76c-12.49,8-25.23,65-27.93,81.28-1.61,9.72,3.77,33,18.69,21.94s31.93-69.35,33.82-86.15S617.87,312.78,605.37,320.76Z"/><path class="cls-27" d="M625.81,318.33c-5-3.92-11.77-4.71-18.16-2.1a23.89,23.89,0,0,0-3.81,2c-10,6.42-19,37.26-24.23,59.55,6.7,6.5,27.93,13.75,38.83,12.29,7.63-20.26,13.37-42.76,14.4-51.88C633.79,329.83,631.22,322.6,625.81,318.33Z"/><g class="cls-25"><path class="cls-34" d="M579.61,377.77c6.7,6.5,27.93,13.75,38.83,12.29a340.8,340.8,0,0,0,10.86-34.61c-1.85.7-18.81,14.75-20.69,15.26C601.55,372.65,581.77,368.65,579.61,377.77Z"/></g><path class="cls-24" d="M665.56,305.9c-17.71-2.34-15-37.79-15-37.79-2.12,1.39-20.41,9.39-20.41,9.39S634.24,306,623,311.41c-3,1.47-15.83,4.59-15.83,4.59s13,32.37,31,32.37C652,348.37,689,309,665.56,305.9Z"/><g class="cls-25"><path class="cls-35" d="M638.49,326.17c-17.32-17.59,7.71-39.58,7.71-52.14-5.58,2.53-16.07,3.47-16.07,3.47S634.24,306,623,311.41c-3,1.47-15.83,4.59-15.83,4.59s13,32.37,31,32.37c4.18,0,10.47-3.62,16.57-8.73C651.64,338.1,641.14,328.87,638.49,326.17Z"/></g><path class="cls-27" d="M665.84,306c-3.86,7.43-9.6,40.62-32.8,37.69-12.1-1.53-17.74-21.84-15.94-30.38-4.27,1.2-9.89,2.74-9.89,2.74l-1.49,46.63s70.48,39.65,89.84,24.84c7.61-5.83,9.84-23.75,9.84-42.65C705.4,315.56,688.87,310.4,665.84,306Z"/><g class="cls-25"><path class="cls-36" d="M658.38,338.93c-6.94,4.63-18.54,5.29-25.33,10.15-7.07,5.07-7.95,8.09-16.34,10.62a55.76,55.76,0,0,1-6.79,1.61l-.14,4.52s39.9,5.45,40.76,4.94c12.13-7.2,9.39-23.06,11.26-27C664.81,337.29,658.71,338.71,658.38,338.93Z"/></g><path class="cls-24" d="M632,234.06c-8.85,2.1-24.48.18-27,16.4,0,0,.25,6.06.44,9.76s-4,5.84-1.9,12.26c2.75,8.15,8,21.48,8.89,23.87,2,5,10.18,7.07,22.17-3.66,6.88-6.16,9.56-16.79,9.56-16.79s2.21,2.2,6.42-2.39c2.54-2.76,4.5-9.88,4.53-12.39S640.87,232,632,234.06Z"/><g class="cls-25"><path class="cls-37" d="M637.74,235.78a27.19,27.19,0,0,1,.73,6.09v30.75c0,14.29-12.57,24.47-25.64,24.63,2.57,4.33,10.49,5.5,21.74-4.56,6.88-6.16,9.56-16.79,9.56-16.79s2.21,2.2,6.42-2.39c2.54-2.76,4.5-9.88,4.53-12.39C655.09,259.11,645.94,241.56,637.74,235.78Z"/></g><path class="cls-32" d="M606.55,256.22c11,6.72,27-17.72,27-17.72C623.56,227.57,597.47,250.66,606.55,256.22Z"/><path class="cls-32" d="M633.58,238.5s3.14,27,15.78,21.12c0,0,3.86-2.44,5.22,4.18S654,242.48,633.58,238.5Z"/><path class="cls-21" d="M637.35,231.14l-8.93,4.79s22.72,8.41,26.33,27.28C657.68,278.5,671.92,245.46,637.35,231.14Z"/><path class="cls-38" d="M637.35,231.14l-8.93,4.79a44.27,44.27,0,0,1,4.17,1.89,25.2,25.2,0,0,1,18.43,1.9A44.17,44.17,0,0,0,637.35,231.14Z"/><path class="cls-32" d="M585.09,493.65H710.61c-5.92-26.82-11.75-50.77-12.52-62-1.07-15.54-2-33.95-2.53-44.18-2.1.78-12.71-.79-21.37-4.5-25-10.69,2.2-74.15,2.2-74.15l-7.42-2c-6.37,17.6-10.56,31.58-13.2,41.39a22.06,22.06,0,0,1-21.1,16.57l-7.39,0a15.22,15.22,0,0,1-15-14.95,176.82,176.82,0,0,1,2.8-36L607.2,316s-4.82,14.65-3.52,35.66-21.72,23-9.28,48.93,2.41,30.11-3.94,61.61C589.12,468.86,587.23,480.09,585.09,493.65Z"/><path class="cls-21" d="M609.62,230.76c-9.31,10.4-7.25,17.59-4.85,21.05a23.74,23.74,0,0,1,13.62-13.11c10.51-4,21.53-1.44,19.94-8.41S618.94,220.35,609.62,230.76Z"/><path class="cls-24" d="M675.47,323.75c-10.25,10.85-9.22,69.31-8,85.8.72,9.84,11.4,31.07,23.29,16.66s14.69-75.23,12.59-92S685.72,312.9,675.47,323.75Z"/><path class="cls-24" d="M668.25,411.42c-11.63,5-41.43,39.7-45.93,42.62s-30,10.54-31.48,11-3.93,2.35-5.23,6.41-3.15,5.85-3.85,11.9,5.37,3.5,5.37,3.5C588,494.34,595,489,595,489c.25,8,7,2.67,7,2.67a2.37,2.37,0,0,0,1.65,3.44c2.89.8,11.26-9.08,13.87-14.35s7.41-8.22,10.56-10c40.44-22.58,49-30,62-43.47C701.25,415.63,679.87,406.45,668.25,411.42Z"/><path class="cls-27" d="M678.05,317.18c-10.55,5.5-14.3,45.34-14.18,68.29,8,4.64,30.33,6.41,40.56,2.28,2.65-21.55,2.93-44.82,1.79-53.92-1-8.34-5.23-14.72-11.48-17.51C689,313.74,683.31,314.44,678.05,317.18Z"/><g class="cls-25"><path class="cls-39" d="M663.87,385.47c8,4.64,30.33,6.41,40.56,2.28a345.06,345.06,0,0,0,2.41-36.28c-1.63,1.14-14.79,19-16.49,19.95C684,375.06,663.82,376.08,663.87,385.47Z"/></g></g><g id="svg-gray-man"><path class="cls-19" d="M836.39,268.87c8.81,4.51,74.83,43.82,83.05,88.81s48.86,58.42,43.93,120-18.09,48.71-18.09,48.71-126.15-17.82-152.14-50.29c0,0-9.27-107.25-9.27-132.72C783.87,315.21,807.13,253.89,836.39,268.87Z"/><g class="cls-25"><path class="cls-40" d="M919.44,357.68c-8.22-45-83.2-89.61-86.1-90,17.55,26.92,7.73,127.36,1,137.89-5.24,8.25-23.25,55.41-30.69,61,4,5,65,2,74-2.68,32.89-17.05,24.6-54.31,33.13-54.4,10.17-.1,1.12,42.63,8.16,49.76,6.79,6.87,18.92,3.66,18.59,13.28-.3,9.14-37,23.89-41.42,26.56a407.33,407.33,0,0,0,49.16,27.26s13.15,12.86,18.09-48.71S927.66,402.67,919.44,357.68Z"/></g><path class="cls-24" d="M779.65,286.24s22.82-3.68,18.17,31.2c0,0,33.51-15.53,34.25-44.67,0,0-23-1.34-25.92-10.71S779.65,286.24,779.65,286.24Z"/><g class="cls-25"><path class="cls-41" d="M787.13,286.53l.39,0c12.14-1.09,23.1,4.23,34.91,3.81,2-.07,4-.19,5.87-.35a50.14,50.14,0,0,0,3.77-17.17s-23-1.34-25.92-10.71-26.5,24.18-26.5,24.18A20.81,20.81,0,0,1,787.13,286.53Z"/></g><path class="cls-24" d="M767.36,215.59s-13.66,8.82-9.63,25.24-4.75,12.13-4,20.59,10.15,20.08,9.92,26.35,5.14,17.73,22.49,6.38,17.82-21.31,18.29-26.43c0,0,27.27.59,26.7-18.21S803.27,184.49,767.36,215.59Z"/><g class="cls-25"><path class="cls-42" d="M767.36,215.59a25.63,25.63,0,0,0-7.66,8.66c-2.52,18,19.22,16,22.78,32.64,2,9.56,9.54,21.27,4.15,29.15a38.25,38.25,0,0,1-15.06,12.77c3.45.58,8.19-.51,14.54-4.66,17.34-11.36,17.82-21.31,18.29-26.43,0,0,27.27.59,26.7-18.21S803.27,184.49,767.36,215.59Z"/></g><path class="cls-32" d="M781.38,237s8.32,1.67,7.38,9.81,2.09,13.88,8.15,2.82,13.72-3.07,11,3.88-4.6,21,11.8,20.83,15.74-13.06,12.75-18.28S826.86,207.36,781.38,237Z"/><path class="cls-43" d="M841.79,217.43s4.21-8.89-14-14.09-14.7-18.2-31.53-9.77-23.95-5.17-35.85,7.68,2.32,25.79,12.66,24.9S841.79,217.43,841.79,217.43Z"/><path class="cls-44" d="M756.15,213.7s14.25,15.46,32.44,6,60.18-14.58,56.27,9.24-11.83,14.4-8.81,26.28-22.75-.75-24.34-15.12-11.18-5.65-28.55-3.28S756.34,223.49,756.15,213.7Z"/></g><g id="svg-gray-women"><path class="cls-32" d="M474.12,391.87c0,24.67,1.07,49.95-7.32,99.43-9.85,58.14-44.31,30-48.93-8.36s-2.11-90.08-2.11-90.08Z"/><path class="cls-45" d="M474.12,391.87l-39.83.68V519.21c11.87,10.77,26.61,6.93,32.51-27.91C475.19,441.82,474.12,416.54,474.12,391.87Z"/><path class="cls-32" d="M511.71,394.83c0,24.67,1.07,49.95-7.32,99.43-9.85,58.14-44.31,30-48.93-8.36s-2.11-90.08-2.11-90.08Z"/><path class="cls-46" d="M462.78,235.3c-10.26.17-38.6-1.49-54.64,21.25-12.17,17.25-20.3,6.79-27.89,30-1.07,3.27-14.82,13.27-16.7,20.69s-10.27,19.11,0,34.5c10.13,15.22,25.74,8.54,35.71-5.72S411,311,411,311l-2.31,103.72s34.42,17.63,107.42,8.4c0,0,5.62-65.77,2.47-95.21-5.07-47.51,1.56-68.64-16.64-80.52S475.36,235.09,462.78,235.3Z"/><path class="cls-47" d="M518.6,327.94c-4.19-39.28-9.24-60.59-12.24-54.6-6.4,12.77-11.84,25.81-15.16,39.74-9,37.74,15,66.66-2.19,86.85-1,1.28,7.3,15.81,7.16,16.19-1,3.12-24.47,7.14-26.26,9.64a315.46,315.46,0,0,0,46.22-2.61S521.75,357.38,518.6,327.94Z"/><path class="cls-48" d="M363.55,307.27c1.88-7.42,15.63-17.42,16.7-20.69,7.59-23.24,15.72-12.78,27.89-30,9.46-13.42,23.21-18.34,35-20.15v15.15c-7.7-4.12-16.76,6.35-24.53,8.51-17.69,4.9-57,53.68-57.3,53.6A65.41,65.41,0,0,0,363.55,307.27Z"/><path class="cls-49" d="M381.32,329.22c5.07-5.88,5-13.82,8.75-20.22,3.61-6.09,15.89-4.07,21.77-7,4.55-2.27,8.08,45.36,7.12,59.54-.94,13.83-10.25,53.22-10.25,53.22L411,311s-1.82,10.76-11.79,25-25.58,20.94-35.71,5.72a31,31,0,0,1-3.79-7.78C367.45,336.4,375.55,335.93,381.32,329.22Z"/><polygon class="cls-32" points="420.98 217.06 428.08 214.69 428.08 215.88 420.81 218.47 420.98 217.06"/><path class="cls-24" d="M469.86,235.27c6.9,10.4,3.24,24.39-21.31,46.38,0,0,4.77-35.95-11.7-30.45S459.34,219.38,469.86,235.27Z"/><path class="cls-50" d="M436.85,251.2c2.83-.95,5-.67,6.74.44,4.94.41,10.12,4,13.18,7.65a16.41,16.41,0,0,1,3.84,10c12.58-15.24,14.77-25.72,9.25-34C459.34,219.38,420.38,256.69,436.85,251.2Z"/><path class="cls-24" d="M459.34,238.77c-.26.4-.54.81-.84,1.2-6.3,8.43-20.56,14.8-27,11.67-6.73-3.27-9.87-23.88-9.34-29s2.41-3.67,2-10.6c-.09-1.67-.11-3.14-.06-4.45a20.75,20.75,0,0,1,2.18-9.11c4.47-8.88,24.56-6.05,31.1,0S465.12,229.76,459.34,238.77Z"/><path class="cls-51" d="M459.34,238.77c-.26.4-.54.81-.84,1.2a7.55,7.55,0,0,1-2.6-2.45c-8.29,0-5.32-7.64-5.32-7.64-6.94-3.71-2.32-9.43-2.32-9.43-2.31,2.38-5.2-2.38-5.2-2.38-4.83,2.3-4.48-5.42-4.48-5.42-3,.08-1.87-3.27-1.87-3.27-7.73,2.68-7.08-5.42-7.08-5.42-1.92,3-3.93,3.72-5.5,3.62a20.75,20.75,0,0,1,2.18-9.11c4.47-8.88,24.56-6.05,31.1,0S465.12,229.76,459.34,238.77Z"/><path class="cls-43" d="M438.84,236.38a6.85,6.85,0,0,1-2.12-.38c-7.28-2.39-7.91-11.26-8-12.51a.79.79,0,0,0-.63-.49c-.27,1.13-1.17,4.33-3.19,5.35a3.25,3.25,0,0,1-3.09-.14c-3.64-1.9-5.67-9.65-4.09-12.93.73-1.51,2.13-1.89,3.84-1,4.66,2.31,6.1,5.74,6.51,7.14a2,2,0,0,1,1.48.75c6.8-2.9,12.11,3.42,13.24,4.91l15.69-2.82a.56.56,0,0,1,.63.38l.34,1a.6.6,0,0,1,0,.49.56.56,0,0,1-.39.28l-15.68,2.82c0,1.33-.07,4.73-2,6.35A3.87,3.87,0,0,1,438.84,236.38Zm-8.95-13.11v.06c0,.09.15,9.26,7.17,11.56,1.54.51,2.75.41,3.58-.28,1.94-1.6,1.59-5.83,1.58-5.87a2.22,2.22,0,0,0-.1-.73C441.9,227.69,436.75,220.21,429.89,223.27ZM419.94,215a1.27,1.27,0,0,0-1.17.84c-1.32,2.75.54,9.78,3.59,11.37a2.17,2.17,0,0,0,2.08.14c1.59-.81,2.46-3.83,2.66-4.92l0-.21c0-.17-.74-4.27-6-6.89A2.58,2.58,0,0,0,419.94,215Z"/><path d="M424.57,203.53s4.41,4,8.45-2.39c0,0-.65,8.09,7.08,5.42,0,0-1.15,3.34,1.88,3.27,0,0-.36,7.72,4.48,5.42,0,0,2.89,4.75,5.2,2.38,0,0-4.63,5.71,2.31,9.43,0,0-3,7.64,5.32,7.64,0,0,3.9,6.25,7.94.21,0,0,7.42,7.92,15.41-3.17,0,0,7.73,0,4-7.73,0,0,14-6.31,1-14.85,0,0,10.59.52,3.44-6.17,0,0,9.9-9-3.54-13.44,0,0,5.93-7.8-5-11,0,0,1.37-7.58-7.73-5.57,0,0-3.68-11.37-17.76-3.2,0,0-2.24-6.68-7.73-.81,0,0-11-7.8-16.26,6.16,0,0-9.48-2.28-8.52,8.57,0,0-6.64-2-5.15,4.06,0,0-11.6,5.25-1.3,11.83,0,0-5.49,6.74,2,6.54,0,0-.81,6.75,4.05,4.91A40.36,40.36,0,0,1,424.57,203.53Z"/><path d="M424.57,203.53s4.41,4,8.45-2.39c0,0-.65,8.09,7.08,5.42,0,0-1.15,3.34,1.88,3.27,0,0-.36,7.72,4.48,5.42,0,0,2.89,4.75,5.2,2.38,0,0-4.63,5.71,2.31,9.43,0,0-3,7.64,5.32,7.64,0,0,3.9,6.25,7.94.21,0,0,7.42,7.92,15.41-3.17,0,0,7.73,0,4-7.73,0,0,14-6.31,1-14.85,0,0,10.59.52,3.44-6.17,0,0,9.9-9-3.54-13.44,0,0,5.93-7.8-5-11,0,0,1.37-7.58-7.73-5.57,0,0-3.68-11.37-17.76-3.2,0,0-2.24-6.68-7.73-.81,0,0-11-7.8-16.26,6.16,0,0-9.48-2.28-8.52,8.57,0,0-6.64-2-5.15,4.06,0,0-11.6,5.25-1.3,11.83,0,0-5.49,6.74,2,6.54,0,0-.81,6.75,4.05,4.91A40.36,40.36,0,0,1,424.57,203.53Z"/><path class="cls-52" d="M451.76,197.34s.42,5.43,4.54,3.78c0,0-.34,2.22,1.38,2.23,0,0,.54,5.19,3.06,3.73,0,0,2.09,3.25,3.17,1.69,0,0-2.06,3.76,2.22,6.39,0,0-.94,5.08,3.76,5.23,0,0,2.81,4.27,4.52.29,0,0,5,5.46,8.42-1.85,0,0,4.38.14,1.51-5.13,0,0,7.35-4-.85-10,0,0,6.05.55,1.36-4.08,0,0,4.73-5.87-3.31-9.11,0,0,2.6-5.13-3.88-7.48,0,0,0-5.07-4.92-3.89,0,0-3.19-7.71-10.38-2.47,0,0-1.91-4.54-4.46-.69,0,0-7-5.45-8.61,3.85,0,0-5.59-1.71-4,5.6C445.29,185.46,441.36,193.51,451.76,197.34Z"/><path class="cls-24" d="M358.92,327.36c10.11,12.07,26.1-2.68,23-7.66s-5.35-12.31-4.29-18.68c1.46-8.69,4.2-8.43,3.3-15s4.61-12.51.4-11.32c-6.62,1.87-5.73,10.39-8.73,14.57,0,0-2.3-.54-5.57-7.08s-.67-25-2.82-25c-1.77,0-5.28,2.64-5.28,14.19,0,12.46-.7,13.89-.7,13.89s-8.51-6.38-8.91,5.86c0,0-5.4.1-4,7.3,0,0-5.7.16-2.65,6.28s9.39,12.65,14.24,12C356.9,316.69,358.4,326.75,358.92,327.36Z"/><path class="cls-53" d="M347.44,306.63c2.24,1.55,4.66,5.25,10.28.83,1.76-1.37,7.45-9.73,7.7-10.13,4.64-7.25-7.16-11.65-7-12.46.82-5.18.79-6.77.52-13.47-.32-7.79,1.8-11.43,3.43-13.06-.18.43-1.05,8.06-1.05,9.56,0,8,5.67,14.18,5.72,14.28,3.27,6.54,5.57,7.08,5.57,7.08,3-4.18,2.11-12.7,8.73-14.57a2.08,2.08,0,0,1,1.23-.08,9.88,9.88,0,0,0-5.44,4.1c-3.59,5.31-1.4,10.57-3.28,16.22-1.43,4.26-4.93,7.21-6.13,11.62-2.43,8.94,2.58,17,9.35,22.28-5,3.64-12.47,5.29-18.13-1.47-.52-.61-2-10.67-2-10.67-4.85.69-11.19-5.84-14.24-12S345,305,347.44,306.63Z"/></g><polygon class="cls-54" points="992.35 484.39 508.76 447.31 0 467.95 0 658.11 992.35 658.11 992.35 484.39"/><path class="cls-5" d="M400.69,494.25c64.25-11.43,129.84,1.61,170.38,11.88,20.78,5.27,116.43,41,219.41,41,79,0,183-64.16,183-64.16L508.76,447.31,154.13,461.69C218.08,546.61,361,501.32,400.69,494.25Z"/><polygon id="book-shadow" class="cls-55" points="380.35 508.33 263.87 532.72 360.37 578.03 523.07 528.59 380.35 508.33"/><g id="blue-book"><path class="cls-56" d="M456.87,543a16.39,16.39,0,0,0,9.83.31c4-1.33,59.54-15.42,59.54-15.42l-74-23.14S431.35,530.16,456.87,543Z"/><path class="cls-57" d="M453.49,538.88c.63,1.68,4.26,4.38,9,2.78,4-1.32,58.24-15,58.24-15s-5.35-3,2.3-11.51C523.07,515.18,446.75,521,453.49,538.88Z"/><path class="cls-27" d="M435.43,487.84,381.16,497s-9.12,5.67-2.84,15.45l78.82,30.66s-9.29-13,11.87-17.36l60.21-11.15Z"/></g><g id="gray-book"><path class="cls-46" d="M456.7,522.12a15.38,15.38,0,0,0,8,.2c3.44-.92,52.51-11.05,52.51-11.05L457,493.55S436.64,513.09,456.7,522.12Z"/><path class="cls-58" d="M454.33,519.29c.35,1.17,3.06,3,7.15,1.93,3.41-.93,51.35-10.8,51.35-10.8s-3.92-2.22,4.68-8.74C517.51,501.68,450.42,506.29,454.33,519.29Z"/><path class="cls-59" d="M443.44,479.45l-49.45,8s-10.69,4.52-5.09,11.43l68,23.35s-8-6.64,12-12.41l54.18-8.6Z"/><g class="cls-25"><path class="cls-60" d="M456.71,483.07c-5.51,14.53-26.06,12.73-29.55,13.12-7,.76-17.63,9.13,4.58,17.36l25.16,8.64s-8-6.64,12-12.41l54.18-8.6Z"/></g></g><polygon id="laptop2-shadow" class="cls-61" points="692.15 478.43 482.21 549.07 742.88 598.06 851.59 501.79 692.15 478.43"/><polygon id="laptop1-shadow" class="cls-62" points="173.24 465.77 60.65 472.56 120.48 529.77 369.28 488.08 173.24 465.77"/><g id="laptop1"><path d="M313,456.52l-138.8,6.71a1.41,1.41,0,0,0-1,2.54l57.44,32.88a5,5,0,0,0,3.35.9l133.31-12.12a3.25,3.25,0,0,0,.91-6.34Z"/><path class="cls-46" d="M314,455.08l-139.81,8.15,57.62,33a7,7,0,0,0,4,.83l131.68-12c2.35-.29,3.47-2.73.85-4Z"/><path class="cls-32" d="M206.63,468.38l-5.7.38c-.46,0-.57.21-.25.39l4.08,2.35a2.91,2.91,0,0,0,1.42.28l5.75-.38c.46,0,.57-.21.25-.4l-4.13-2.35A2.94,2.94,0,0,0,206.63,468.38Z"/><path class="cls-32" d="M197.89,469.09l-5.67.39c-.46,0-.57.2-.26.38l4,2.35a3,3,0,0,0,1.41.28l5.72-.38c.46,0,.57-.21.25-.4l-4.08-2.34A2.87,2.87,0,0,0,197.89,469.09Z"/><path class="cls-32" d="M215.48,467.78l-5.73.39c-.47,0-.58.2-.25.39l4.14,2.35a3,3,0,0,0,1.43.28l5.78-.39c.46,0,.57-.21.24-.39l-4.18-2.36A3,3,0,0,0,215.48,467.78Z"/><path class="cls-32" d="M224,471l-5.8.39c-.46,0-.57.21-.24.4l3.53,2a3.19,3.19,0,0,0,1.45.28l5.83-.38c.47,0,.58-.21.24-.4l-3.57-2A3,3,0,0,0,224,471Z"/><path class="cls-32" d="M233,470.41l-5.82.39c-.47,0-.58.21-.24.4l3.58,2a3.08,3.08,0,0,0,1.46.29l5.86-.39c.47,0,.58-.21.24-.4l-3.62-2A3.1,3.1,0,0,0,233,470.41Z"/><path class="cls-32" d="M242,469.81l-5.85.39c-.47,0-.58.21-.24.4l3.62,2a3.21,3.21,0,0,0,1.48.29l5.89-.39c.47,0,.58-.21.23-.4l-3.66-2A3.3,3.3,0,0,0,242,469.81Z"/><path class="cls-32" d="M251.1,469.2l-5.88.4c-.47,0-.58.21-.24.39l3.68,2a3.19,3.19,0,0,0,1.48.29l5.93-.39c.47,0,.58-.21.23-.4l-3.72-2A3.19,3.19,0,0,0,251.1,469.2Z"/><path class="cls-32" d="M260.22,468.6l-5.91.39c-.48,0-.58.21-.23.4l3.72,2a3.27,3.27,0,0,0,1.5.29l5.95-.4c.48,0,.58-.21.23-.4l-3.77-2A3.25,3.25,0,0,0,260.22,468.6Z"/><path class="cls-32" d="M269.38,468l-5.94.4c-.47,0-.57.21-.22.4l3.77,2a3.32,3.32,0,0,0,1.51.29l6-.39c.48,0,.58-.22.22-.41l-3.81-2A3.32,3.32,0,0,0,269.38,468Z"/><path class="cls-32" d="M278.6,467.37l-6,.4c-.47,0-.57.21-.22.4l3.82,2a3.39,3.39,0,0,0,1.52.29l6-.4c.48,0,.58-.21.22-.4l-3.86-2A3.38,3.38,0,0,0,278.6,467.37Z"/><path class="cls-32" d="M287.86,466.75l-6,.4c-.48,0-.58.21-.22.4l3.87,2a3.47,3.47,0,0,0,1.54.29l6-.4c.49,0,.59-.21.22-.4l-3.91-2A3.6,3.6,0,0,0,287.86,466.75Z"/><path class="cls-32" d="M297.16,466.13l-6,.4c-.48,0-.58.21-.22.4l3.92,2a3.66,3.66,0,0,0,1.55.28l6.08-.4c.49,0,.58-.21.21-.4l-4-2A3.52,3.52,0,0,0,297.16,466.13Z"/><path class="cls-32" d="M306.52,465.51l-6.07.4c-.48,0-.58.21-.21.4l4,2a3.71,3.71,0,0,0,1.56.28l6.11-.4c.49,0,.58-.21.21-.41l-4-2A3.41,3.41,0,0,0,306.52,465.51Z"/><path class="cls-32" d="M234,473.76l-5.86.39c-.47,0-.57.2-.24.39l3.6,2a3.14,3.14,0,0,0,1.47.29l5.9-.38c.47,0,.58-.21.23-.4l-3.64-2A3.1,3.1,0,0,0,234,473.76Z"/><path class="cls-32" d="M224.79,474.36l-5.82.39c-.47,0-.58.2-.25.39l3.56,2a3,3,0,0,0,1.45.29l5.87-.38c.47,0,.58-.21.24-.4l-3.6-2A3,3,0,0,0,224.79,474.36Z"/><path class="cls-32" d="M215.66,475l-12.46.82c-.46,0-.57.21-.25.4l3.47,2a3,3,0,0,0,1.44.29l12.54-.81c.47,0,.58-.22.25-.4l-3.55-2A3,3,0,0,0,215.66,475Z"/><path class="cls-32" d="M218.66,478.19l-10.18.66c-.46,0-.58.21-.25.4l3.52,2.05a3,3,0,0,0,1.45.29l10.25-.65c.47,0,.58-.21.25-.41l-3.58-2A3.1,3.1,0,0,0,218.66,478.19Z"/><path class="cls-32" d="M243,473.16l-5.88.39c-.47,0-.58.21-.24.4l3.65,2a3.19,3.19,0,0,0,1.48.29l5.93-.39c.47,0,.58-.21.23-.4l-3.69-2A3.19,3.19,0,0,0,243,473.16Z"/><path class="cls-32" d="M252.15,472.56l-5.91.39c-.47,0-.58.21-.23.4l3.69,2a3.15,3.15,0,0,0,1.5.29l5.95-.38c.48,0,.59-.22.23-.41l-3.74-2A3.2,3.2,0,0,0,252.15,472.56Z"/><path class="cls-32" d="M261.32,472l-5.94.39c-.48,0-.58.21-.23.4l3.74,2a3.34,3.34,0,0,0,1.51.29l6-.39c.48,0,.58-.22.22-.41l-3.78-2A3.21,3.21,0,0,0,261.32,472Z"/><path class="cls-32" d="M270.54,471.35l-6,.39c-.47,0-.57.21-.22.41l3.79,2a3.14,3.14,0,0,0,1.52.29l6-.39c.48,0,.58-.21.22-.4l-3.84-2A3.32,3.32,0,0,0,270.54,471.35Z"/><path class="cls-32" d="M279.8,470.74l-6,.4c-.48,0-.58.21-.23.4l3.85,2a3.4,3.4,0,0,0,1.53.29l6.05-.39c.48,0,.58-.21.21-.41l-3.88-2A3.43,3.43,0,0,0,279.8,470.74Z"/><path class="cls-32" d="M289.11,470.13l-6,.4c-.49,0-.59.21-.22.4l3.89,2a3.38,3.38,0,0,0,1.55.29l6.07-.39c.49,0,.59-.21.22-.41l-3.94-2A3.31,3.31,0,0,0,289.11,470.13Z"/><path class="cls-32" d="M298.47,469.51l-6.07.4c-.48,0-.58.21-.21.41l3.94,2a3.43,3.43,0,0,0,1.56.29l6.11-.39c.49,0,.59-.22.21-.41l-4-2.05A3.52,3.52,0,0,0,298.47,469.51Z"/><path class="cls-32" d="M307.88,468.89l-6.1.41c-.49,0-.58.21-.21.4l4,2.05a3.64,3.64,0,0,0,1.57.29l6.14-.4c.5,0,.59-.21.21-.41l-4-2.05A3.59,3.59,0,0,0,307.88,468.89Z"/><path class="cls-32" d="M317.33,468.27l-6.13.41c-.49,0-.58.21-.2.4l4,2.05a3.56,3.56,0,0,0,1.59.29l6.17-.4c.49,0,.58-.21.2-.41l-4.09-2.05A3.68,3.68,0,0,0,317.33,468.27Z"/><path class="cls-32" d="M334.26,467.16l-13.47.88c-.49,0-.58.22-.2.41l4.1,2.05a3.45,3.45,0,0,0,1.59.29l13.57-.88c.5,0,.59-.21.2-.41l-4.18-2.06A3.67,3.67,0,0,0,334.26,467.16Z"/><path class="cls-32" d="M347,473.45l-11.57.74c-.5,0-.59.22-.2.42l4.22,2.11a4,4,0,0,0,1.64.3l11.65-.74c.51,0,.59-.22.19-.42l-4.3-2.11A3.79,3.79,0,0,0,347,473.45Z"/><path class="cls-32" d="M255.77,475.78l-6,.39c-.48,0-.58.21-.23.4l3.73,2.07a3.32,3.32,0,0,0,1.51.29l6-.38c.49,0,.59-.22.23-.41l-3.77-2.06A3.32,3.32,0,0,0,255.77,475.78Z"/><path class="cls-32" d="M246.36,476.4l-5.92.38c-.47,0-.58.21-.24.4l3.69,2.06a3.2,3.2,0,0,0,1.49.29l6-.38c.48,0,.59-.21.24-.4l-3.73-2.06A3.08,3.08,0,0,0,246.36,476.4Z"/><path class="cls-32" d="M237,477l-5.89.39c-.48,0-.58.21-.25.4l3.64,2a3.19,3.19,0,0,0,1.48.3l5.93-.38c.48,0,.59-.22.24-.41l-3.67-2.05A3.09,3.09,0,0,0,237,477Z"/><path class="cls-32" d="M227.68,477.61l-5.86.38c-.47,0-.58.21-.24.4l3.58,2.05a3,3,0,0,0,1.47.29l5.9-.37c.48,0,.59-.21.24-.41l-3.62-2.05A3.12,3.12,0,0,0,227.68,477.61Z"/><path class="cls-32" d="M265,475.19l-6,.38c-.48,0-.58.22-.23.41l3.79,2.06a3.21,3.21,0,0,0,1.52.3l6-.39c.49,0,.59-.21.23-.41l-3.83-2.06A3.32,3.32,0,0,0,265,475.19Z"/><path class="cls-32" d="M274.29,474.58l-6,.4c-.48,0-.58.21-.22.4l3.83,2.07a3.4,3.4,0,0,0,1.53.29l6.06-.39c.48,0,.58-.21.22-.41l-3.87-2.06A3.3,3.3,0,0,0,274.29,474.58Z"/><path class="cls-32" d="M283.61,474l-6,.39c-.49,0-.59.21-.22.41l3.88,2.07a3.47,3.47,0,0,0,1.54.29l6.09-.39c.49,0,.59-.21.22-.41l-3.92-2.07A3.52,3.52,0,0,0,283.61,474Z"/><path class="cls-32" d="M293,473.37l-6.08.4c-.48,0-.58.21-.22.4l3.94,2.07a3.38,3.38,0,0,0,1.55.3l6.12-.39c.5,0,.59-.22.22-.41l-4-2.08A3.52,3.52,0,0,0,293,473.37Z"/><path class="cls-32" d="M302.41,472.76l-6.11.4c-.49,0-.58.21-.21.4l4,2.08a3.49,3.49,0,0,0,1.57.29l6.16-.39c.49,0,.59-.22.21-.41l-4-2.08A3.61,3.61,0,0,0,302.41,472.76Z"/><path class="cls-32" d="M311.89,472.15l-6.14.39c-.5,0-.59.22-.21.41l4,2.08a3.54,3.54,0,0,0,1.58.29l6.19-.39c.5,0,.59-.22.21-.41l-4.08-2.08A3.54,3.54,0,0,0,311.89,472.15Z"/><path class="cls-32" d="M321.41,471.53l-6.17.4c-.5,0-.59.21-.21.41l4.09,2.08a3.58,3.58,0,0,0,1.59.29l6.22-.4c.5,0,.59-.21.2-.41L323,471.82A3.73,3.73,0,0,0,321.41,471.53Z"/><path class="cls-32" d="M331,470.91l-6.2.4c-.5,0-.59.22-.21.41l4.14,2.08a3.67,3.67,0,0,0,1.61.3l6.25-.4c.51,0,.59-.22.2-.42l-4.18-2.08A3.67,3.67,0,0,0,331,470.91Z"/><path class="cls-32" d="M340.6,470.28l-6.23.41c-.5,0-.59.21-.2.41l4.19,2.08a3.72,3.72,0,0,0,1.62.3l6.29-.4c.5,0,.59-.22.19-.42l-4.24-2.08A3.72,3.72,0,0,0,340.6,470.28Z"/><path class="cls-32" d="M247.63,479.8l-6,.38c-.47,0-.58.22-.23.41l3.71,2.08a3.12,3.12,0,0,0,1.5.3l6-.38c.48,0,.58-.21.23-.41l-3.75-2.08A3.15,3.15,0,0,0,247.63,479.8Z"/><path class="cls-32" d="M238.49,480.39l-5.93.38c-.47,0-.58.21-.24.4l3.66,2.08a3.23,3.23,0,0,0,1.49.3l6-.38c.48,0,.58-.21.24-.41l-3.7-2.08A3.26,3.26,0,0,0,238.49,480.39Z"/><path class="cls-32" d="M229.39,481l-5.89.37c-.48,0-.59.22-.25.41l3.61,2.08a3.19,3.19,0,0,0,1.48.29l5.94-.37c.48,0,.58-.21.24-.41l-3.65-2.08A3.16,3.16,0,0,0,229.39,481Z"/><path class="cls-32" d="M220.34,481.55l-5.86.37c-.47,0-.59.21-.25.4l3.56,2.08a3.12,3.12,0,0,0,1.47.3l5.9-.38c.48,0,.59-.21.25-.4l-3.61-2.08A3.08,3.08,0,0,0,220.34,481.55Z"/><path class="cls-32" d="M226.09,484.86l-5.91.37c-.48,0-.59.21-.25.41l1.19.69a3,3,0,0,0,1.47.31l5.94-.37c.48,0,.59-.22.24-.42l-1.2-.69A3,3,0,0,0,226.09,484.86Z"/><path class="cls-32" d="M238,484.11l-5.95.38c-.48,0-.59.21-.25.4l1.22.7a3.07,3.07,0,0,0,1.48.3l6-.37c.48,0,.59-.22.24-.41l-1.22-.7A3.15,3.15,0,0,0,238,484.11Z"/><path class="cls-32" d="M247.16,483.53l-6,.38c-.48,0-.59.22-.24.41l1.22.7a3.29,3.29,0,0,0,1.51.3l6-.38c.48,0,.59-.21.24-.41l-1.24-.69A3.19,3.19,0,0,0,247.16,483.53Z"/><path class="cls-32" d="M256.35,483l-6,.37c-.48,0-.59.22-.24.42l1.25.69a3.19,3.19,0,0,0,1.51.31l6-.38c.49,0,.59-.22.23-.41l-1.25-.7A3.27,3.27,0,0,0,256.35,483Z"/><path class="cls-32" d="M265.6,482.38l-6.05.38c-.48,0-.59.21-.23.41l1.26.7a3.4,3.4,0,0,0,1.53.3l6.07-.38c.48,0,.59-.22.22-.41l-1.27-.7A3.3,3.3,0,0,0,265.6,482.38Z"/><path class="cls-32" d="M318.08,479.08l-6.22.39c-.5,0-.59.22-.21.42l1.36.7a3.6,3.6,0,0,0,1.6.3l6.24-.39c.5,0,.6-.22.21-.42l-1.37-.7A3.67,3.67,0,0,0,318.08,479.08Z"/><path class="cls-32" d="M327.65,478.48l-6.26.39c-.5,0-.59.22-.2.42l1.37.7a3.67,3.67,0,0,0,1.61.3l6.28-.39c.51,0,.6-.22.2-.42l-1.38-.7A3.6,3.6,0,0,0,327.65,478.48Z"/><path class="cls-32" d="M337.26,477.87l-6.29.4c-.5,0-.59.22-.2.41l1.39.71a3.6,3.6,0,0,0,1.63.3l6.31-.39c.51,0,.59-.22.2-.42l-1.41-.7A3.74,3.74,0,0,0,337.26,477.87Z"/><path class="cls-32" d="M346.92,477.26l-6.32.4c-.51,0-.59.22-.2.42l1.41.71a3.84,3.84,0,0,0,1.64.3l6.35-.4c.51,0,.59-.22.19-.42l-1.42-.7A3.86,3.86,0,0,0,346.92,477.26Z"/><path class="cls-32" d="M256.86,479.21l-6,.39c-.48,0-.59.21-.23.4l3.75,2.09a3.39,3.39,0,0,0,1.52.3l6-.38c.48,0,.59-.22.23-.41l-3.8-2.09A3.23,3.23,0,0,0,256.86,479.21Z"/><path class="cls-32" d="M266.15,478.62l-6,.38c-.48,0-.58.22-.23.41l3.81,2.09a3.27,3.27,0,0,0,1.53.3l6.06-.38c.48,0,.59-.22.22-.41l-3.85-2.09A3.26,3.26,0,0,0,266.15,478.62Z"/><path class="cls-32" d="M275.48,478l-6.05.39c-.48,0-.58.21-.23.41l3.86,2.09a3.34,3.34,0,0,0,1.54.3l6.1-.38c.48,0,.59-.22.22-.42l-3.9-2.09A3.48,3.48,0,0,0,275.48,478Z"/><path class="cls-32" d="M284.86,477.42l-6.08.39c-.49,0-.59.22-.22.41l3.91,2.1a3.49,3.49,0,0,0,1.55.3l6.12-.39c.49,0,.59-.22.22-.41l-3.95-2.1A3.52,3.52,0,0,0,284.86,477.42Z"/><path class="cls-32" d="M294.29,476.82l-6.11.39c-.49,0-.59.22-.22.41l4,2.1a3.5,3.5,0,0,0,1.57.3l6.16-.39c.49,0,.59-.22.21-.41l-4-2.1A3.43,3.43,0,0,0,294.29,476.82Z"/><path class="cls-32" d="M303.76,476.21l-6.14.4c-.49,0-.59.21-.21.41l4,2.1a3.49,3.49,0,0,0,1.58.3l6.18-.39c.5,0,.6-.22.21-.41l-4.05-2.11A3.65,3.65,0,0,0,303.76,476.21Z"/><path class="cls-32" d="M313.29,475.61l-6.18.39c-.49,0-.58.22-.21.41l4.07,2.11a3.7,3.7,0,0,0,1.59.3l6.22-.4c.5,0,.59-.21.21-.41l-4.11-2.1A3.56,3.56,0,0,0,313.29,475.61Z"/><path class="cls-32" d="M322.87,475l-6.21.4c-.5,0-.59.22-.21.41l4.12,2.11a3.6,3.6,0,0,0,1.6.3l6.26-.39c.5,0,.59-.22.2-.42l-4.16-2.11A3.81,3.81,0,0,0,322.87,475Z"/><path class="cls-32" d="M332.49,474.38l-6.24.4c-.5,0-.59.22-.2.41l4.17,2.11a3.72,3.72,0,0,0,1.62.3l6.28-.39c.51,0,.6-.22.2-.42l-4.21-2.11A3.72,3.72,0,0,0,332.49,474.38Z"/><path class="cls-32" d="M214.91,471.62,198,472.75c-.46,0-.57.21-.25.39l3.43,2a2.89,2.89,0,0,0,1.42.29l17-1.13c.47,0,.58-.21.25-.4l-3.53-2A3.1,3.1,0,0,0,214.91,471.62Z"/><path class="cls-32" d="M327.89,464.08l-18,1.2c-.49,0-.58.21-.21.4l4,2a3.64,3.64,0,0,0,1.57.29l18.14-1.2c.5,0,.58-.22.2-.41l-4.13-2A3.7,3.7,0,0,0,327.89,464.08Z"/><path class="cls-32" d="M293.88,462.46l-6,.4c-.48,0-.57.21-.21.4l4.62,2.38a3.62,3.62,0,0,0,1.54.28l6-.41c.48,0,.58-.21.21-.4l-4.68-2.38A3.43,3.43,0,0,0,293.88,462.46Z"/><path class="cls-32" d="M227.83,466.94l-9.22.62c-.47,0-.57.21-.25.39l4.2,2.36a3.12,3.12,0,0,0,1.44.28l9.3-.62c.46,0,.57-.21.23-.4l-4.26-2.36A3.12,3.12,0,0,0,227.83,466.94Z"/><path class="cls-32" d="M285,463.06l-9.52.65c-.48,0-.58.21-.22.39l4.54,2.37a3.39,3.39,0,0,0,1.52.29l9.6-.65c.48,0,.58-.21.22-.4l-4.62-2.37A3.38,3.38,0,0,0,285,463.06Z"/><path class="cls-32" d="M240.76,466.06l-9.29.63c-.46,0-.57.21-.24.39l4.27,2.36a3.14,3.14,0,0,0,1.47.28l9.36-.62c.47,0,.58-.21.23-.4l-4.34-2.36A3.1,3.1,0,0,0,240.76,466.06Z"/><path class="cls-32" d="M237,469.72,278.1,467c.52,0,.67-.21.33-.38l-4.62-2.42a3.56,3.56,0,0,0-1.53-.25l-40.75,2.77Z"/><path class="cls-32" d="M318.42,462.53l6.8-.46c.41,0,.48-.17.17-.33l-2-1a3,3,0,0,0-1.29-.23l-6.77.46c-.4,0-.48.17-.17.33l2,1A3,3,0,0,0,318.42,462.53Z"/><path class="cls-32" d="M309,463.17l6.76-.46c.41,0,.48-.17.17-.33l-1.95-1a3.11,3.11,0,0,0-1.28-.23l-6.74.46c-.4,0-.47.17-.17.32l1.94,1A3,3,0,0,0,309,463.17Z"/><path class="cls-32" d="M299.62,463.8l6.73-.46c.4,0,.48-.17.17-.33l-1.93-1a2.88,2.88,0,0,0-1.27-.22l-6.7.45c-.4,0-.47.17-.17.32l1.91,1A3,3,0,0,0,299.62,463.8Z"/><path class="cls-32" d="M312.4,464.89l6.8-.45c.4,0,.47-.17.16-.33l-2-1a3,3,0,0,0-1.28-.23l-6.77.46c-.4,0-.47.17-.17.32l1.95,1A2.79,2.79,0,0,0,312.4,464.89Z"/><path class="cls-63" d="M198.15,468.55l-5.67.39c-.46,0-.57.2-.25.38l4,2.34a2.92,2.92,0,0,0,1.4.28l5.71-.39c.46,0,.57-.2.25-.39l-4.07-2.33A2.86,2.86,0,0,0,198.15,468.55Z"/><path class="cls-63" d="M206.93,468l-5.69.39c-.46,0-.57.21-.25.39l4.08,2.34a3,3,0,0,0,1.42.28l5.74-.39c.46,0,.57-.2.24-.39l-4.12-2.34A3.06,3.06,0,0,0,206.93,468Z"/><path class="cls-63" d="M215.76,467.36l-5.72.38c-.46,0-.57.21-.25.39l4.14,2.34a3,3,0,0,0,1.43.28l5.77-.38c.46,0,.57-.21.24-.39l-4.18-2.35A3.1,3.1,0,0,0,215.76,467.36Z"/><path class="cls-63" d="M224.29,470.58l-5.78.39c-.46,0-.57.2-.24.39l3.53,2a3,3,0,0,0,1.44.29l5.83-.39c.46,0,.57-.2.24-.39l-3.57-2A3.19,3.19,0,0,0,224.29,470.58Z"/><path class="cls-63" d="M233.26,470l-5.81.39c-.47,0-.58.21-.24.39l3.57,2a3.1,3.1,0,0,0,1.46.29l5.85-.39c.47,0,.58-.21.24-.4l-3.62-2A3.16,3.16,0,0,0,233.26,470Z"/><path class="cls-63" d="M242.27,469.38l-5.84.39c-.47,0-.58.21-.24.4l3.63,2a3.27,3.27,0,0,0,1.47.28l5.88-.39c.47,0,.58-.21.23-.4l-3.66-2A3.27,3.27,0,0,0,242.27,469.38Z"/><path class="cls-63" d="M251.33,468.78l-5.87.39c-.47,0-.58.21-.24.39l3.67,2a3.36,3.36,0,0,0,1.49.28l5.91-.39c.47,0,.58-.21.23-.4l-3.71-2A3.21,3.21,0,0,0,251.33,468.78Z"/><path class="cls-63" d="M260.43,468.17l-5.9.39c-.47,0-.58.21-.23.4l3.72,2a3.26,3.26,0,0,0,1.49.29l5.95-.39c.47,0,.57-.21.22-.4l-3.76-2A3.25,3.25,0,0,0,260.43,468.17Z"/><path class="cls-63" d="M269.58,467.56l-5.93.4c-.48,0-.58.21-.23.39l3.77,2a3.31,3.31,0,0,0,1.51.28l6-.39c.48,0,.58-.21.22-.4l-3.81-2A3.41,3.41,0,0,0,269.58,467.56Z"/><path class="cls-63" d="M278.77,467l-5.95.4c-.48,0-.58.2-.23.39l3.82,2a3.39,3.39,0,0,0,1.52.29l6-.4c.48,0,.58-.21.22-.4l-3.86-2A3.38,3.38,0,0,0,278.77,467Z"/><path class="cls-63" d="M288,466.33l-6,.4c-.48,0-.58.21-.22.4l3.86,2a3.34,3.34,0,0,0,1.54.28l6-.39c.48,0,.58-.21.21-.4l-3.9-2A3.45,3.45,0,0,0,288,466.33Z"/><path class="cls-63" d="M297.31,465.71l-6,.4c-.49,0-.58.21-.22.4l3.92,2a3.45,3.45,0,0,0,1.54.29l6.07-.4c.48,0,.58-.21.21-.4l-4-2A3.65,3.65,0,0,0,297.31,465.71Z"/><path class="cls-63" d="M306.65,465.09l-6.06.4c-.48,0-.58.21-.21.4l4,2a3.56,3.56,0,0,0,1.56.28l6.09-.4c.49,0,.58-.21.21-.4l-4-2A3.54,3.54,0,0,0,306.65,465.09Z"/><path class="cls-63" d="M234.22,473.31l-5.84.39c-.47,0-.58.21-.24.4l3.6,2a3,3,0,0,0,1.46.28l5.88-.38c.48,0,.58-.21.24-.4l-3.64-2A3.1,3.1,0,0,0,234.22,473.31Z"/><path class="cls-63" d="M225.07,473.92l-5.81.38c-.47,0-.58.21-.25.4l3.56,2A3,3,0,0,0,224,477l5.85-.38c.47,0,.58-.21.24-.4l-3.59-2A3,3,0,0,0,225.07,473.92Z"/><path class="cls-63" d="M216,474.52l-12.43.81c-.46,0-.57.21-.25.4l3.47,2a3,3,0,0,0,1.44.29l12.51-.81c.47,0,.58-.21.25-.4l-3.55-2A2.88,2.88,0,0,0,216,474.52Z"/><path class="cls-63" d="M219,477.73l-10.16.66c-.47,0-.58.21-.25.4l3.51,2a3.06,3.06,0,0,0,1.45.29l10.23-.65c.47,0,.58-.21.25-.41l-3.58-2A3,3,0,0,0,219,477.73Z"/><path class="cls-63" d="M243.28,472.72l-5.87.39c-.47,0-.58.2-.24.39l3.65,2a3.14,3.14,0,0,0,1.47.28l5.92-.38c.47,0,.58-.21.23-.4l-3.69-2A3.27,3.27,0,0,0,243.28,472.72Z"/><path class="cls-63" d="M252.38,472.12l-5.9.39c-.47,0-.58.21-.23.4l3.69,2a3.26,3.26,0,0,0,1.49.29l5.95-.38c.47,0,.58-.22.23-.41l-3.74-2A3.2,3.2,0,0,0,252.38,472.12Z"/><path class="cls-63" d="M261.54,471.52l-5.94.39c-.47,0-.57.21-.22.4l3.74,2a3.15,3.15,0,0,0,1.5.28l6-.38c.49,0,.59-.21.23-.4l-3.78-2A3.3,3.3,0,0,0,261.54,471.52Z"/><path class="cls-63" d="M270.74,470.91l-6,.4c-.48,0-.58.21-.22.4l3.79,2a3.32,3.32,0,0,0,1.51.29l6-.4c.48,0,.58-.21.22-.4l-3.83-2A3.37,3.37,0,0,0,270.74,470.91Z"/><path class="cls-63" d="M280,470.31l-6,.39c-.48,0-.58.21-.22.4l3.84,2a3.27,3.27,0,0,0,1.53.29l6-.39c.49,0,.58-.21.22-.4l-3.88-2A3.3,3.3,0,0,0,280,470.31Z"/><path class="cls-63" d="M289.27,469.7l-6,.39c-.48,0-.58.21-.22.4l3.89,2a3.5,3.5,0,0,0,1.54.29l6.07-.4c.49,0,.59-.21.22-.4l-3.94-2A3.31,3.31,0,0,0,289.27,469.7Z"/><path class="cls-63" d="M298.62,469.08l-6.06.4c-.48,0-.58.21-.21.4l3.94,2a3.52,3.52,0,0,0,1.55.29l6.1-.4c.49,0,.59-.21.21-.4l-4-2A3.55,3.55,0,0,0,298.62,469.08Z"/><path class="cls-63" d="M308,468.46l-6.09.4c-.49,0-.58.22-.21.4l4,2.05a3.61,3.61,0,0,0,1.57.29l6.13-.4c.49,0,.58-.21.2-.41l-4-2A3.56,3.56,0,0,0,308,468.46Z"/><path class="cls-63" d="M317.45,467.84l-6.12.41c-.49,0-.59.21-.21.4l4,2a3.54,3.54,0,0,0,1.58.29l6.17-.4c.49,0,.58-.21.2-.4L319,468.13A3.64,3.64,0,0,0,317.45,467.84Z"/><path class="cls-63" d="M334.35,466.73l-13.45.88c-.49,0-.58.22-.2.41l4.09,2.05a3.77,3.77,0,0,0,1.6.29l13.54-.88c.5,0,.59-.22.19-.41L336,467A3.8,3.8,0,0,0,334.35,466.73Z"/><path class="cls-63" d="M347.09,473l-11.54.74c-.5,0-.59.22-.2.41l4.21,2.1a3.81,3.81,0,0,0,1.64.3l11.63-.73c.5,0,.59-.22.19-.42l-4.29-2.1A3.81,3.81,0,0,0,347.09,473Z"/><path class="cls-63" d="M256,475.33l-5.94.39c-.47,0-.58.21-.23.4l3.73,2.05a3.15,3.15,0,0,0,1.5.29l6-.38c.48,0,.58-.21.23-.4l-3.77-2.06A3.34,3.34,0,0,0,256,475.33Z"/><path class="cls-63" d="M246.61,475.94l-5.91.38c-.48,0-.58.21-.24.4l3.68,2a3.11,3.11,0,0,0,1.49.3l6-.38c.48,0,.59-.22.24-.41l-3.72-2A3.26,3.26,0,0,0,246.61,475.94Z"/><path class="cls-63" d="M237.26,476.55l-5.88.38c-.47,0-.58.21-.24.4l3.63,2a3.19,3.19,0,0,0,1.48.3l5.92-.38c.48,0,.58-.21.24-.41l-3.67-2A3.19,3.19,0,0,0,237.26,476.55Z"/><path class="cls-63" d="M228,477.15l-5.85.38c-.47,0-.58.21-.24.4l3.58,2a3.14,3.14,0,0,0,1.47.29l5.89-.37c.47,0,.58-.21.24-.41l-3.62-2A3.14,3.14,0,0,0,228,477.15Z"/><path class="cls-63" d="M265.22,474.73l-6,.39c-.48,0-.59.21-.23.4l3.78,2.06a3.32,3.32,0,0,0,1.51.29l6-.38c.48,0,.58-.21.22-.41L266.73,475A3.19,3.19,0,0,0,265.22,474.73Z"/><path class="cls-63" d="M274.48,474.13l-6,.39c-.48,0-.58.21-.23.41l3.83,2.05a3.3,3.3,0,0,0,1.53.3l6.05-.39c.48,0,.58-.21.22-.41L276,474.42A3.43,3.43,0,0,0,274.48,474.13Z"/><path class="cls-63" d="M283.79,473.53l-6,.39c-.49,0-.59.21-.22.41l3.87,2.06a3.52,3.52,0,0,0,1.55.29l6.07-.39c.49,0,.59-.21.22-.41l-3.92-2.06A3.45,3.45,0,0,0,283.79,473.53Z"/><path class="cls-63" d="M293.15,472.93l-6.06.39c-.49,0-.59.21-.22.4l3.93,2.06a3.38,3.38,0,0,0,1.55.3l6.11-.39c.49,0,.59-.22.21-.41l-4-2.06A3.26,3.26,0,0,0,293.15,472.93Z"/><path class="cls-63" d="M302.56,472.32l-6.1.39c-.49,0-.58.21-.21.41l4,2.06a3.43,3.43,0,0,0,1.56.3l6.15-.4c.49,0,.58-.21.21-.41l-4-2.06A3.3,3.3,0,0,0,302.56,472.32Z"/><path class="cls-63" d="M312,471.7l-6.13.4c-.49,0-.58.21-.21.41l4,2.07a3.7,3.7,0,0,0,1.59.29l6.17-.4c.5,0,.59-.21.21-.4L313.59,472A3.65,3.65,0,0,0,312,471.7Z"/><path class="cls-63" d="M321.52,471.09l-6.16.4c-.5,0-.59.21-.21.4l4.08,2.07a3.63,3.63,0,0,0,1.6.3l6.2-.4c.5,0,.59-.21.21-.41l-4.13-2.07A3.58,3.58,0,0,0,321.52,471.09Z"/><path class="cls-63" d="M331.07,470.47l-6.19.4c-.5,0-.59.21-.2.41l4.13,2.07a3.82,3.82,0,0,0,1.61.3l6.24-.4c.5,0,.59-.22.2-.42l-4.18-2.07A3.82,3.82,0,0,0,331.07,470.47Z"/><path class="cls-63" d="M340.68,469.85l-6.23.4c-.5,0-.58.21-.2.41l4.19,2.07a3.72,3.72,0,0,0,1.62.3l6.28-.4c.5,0,.59-.22.19-.42l-4.23-2.07A3.6,3.6,0,0,0,340.68,469.85Z"/><path class="cls-63" d="M247.88,479.33l-5.95.38c-.47,0-.58.21-.23.41l3.7,2.07a3.15,3.15,0,0,0,1.5.3l6-.38c.48,0,.59-.21.23-.41l-3.74-2.07A3.27,3.27,0,0,0,247.88,479.33Z"/><path class="cls-63" d="M238.75,479.92l-5.91.37c-.48,0-.58.22-.24.41l3.66,2.07a3.19,3.19,0,0,0,1.48.3l6-.38c.48,0,.58-.21.24-.41l-3.7-2.07A3.23,3.23,0,0,0,238.75,479.92Z"/><path class="cls-63" d="M229.67,480.5l-5.88.37c-.47,0-.58.21-.24.4l3.61,2.07a3,3,0,0,0,1.47.3l5.93-.37c.47,0,.58-.22.24-.41l-3.65-2.07A3,3,0,0,0,229.67,480.5Z"/><path class="cls-63" d="M220.64,481.07l-5.85.38c-.47,0-.58.21-.25.4l3.56,2.06a3,3,0,0,0,1.46.3l5.9-.37c.47,0,.58-.21.24-.41l-3.6-2.06A3,3,0,0,0,220.64,481.07Z"/><path class="cls-63" d="M226.39,484.37l-5.91.37c-.47,0-.58.21-.24.41l1.19.69a3,3,0,0,0,1.47.3l5.92-.37c.48,0,.59-.21.25-.41l-1.21-.69A3.15,3.15,0,0,0,226.39,484.37Z"/><path class="cls-63" d="M238.28,483.63l-5.94.37c-.48,0-.58.21-.24.41l1.21.69a3.2,3.2,0,0,0,1.49.3l6-.37c.48,0,.59-.22.24-.41l-1.23-.7A3.08,3.08,0,0,0,238.28,483.63Z"/><path class="cls-63" d="M247.41,483.05l-6,.38c-.48,0-.58.21-.24.41l1.23.69a3.27,3.27,0,0,0,1.5.3l6-.37c.49,0,.59-.22.24-.42l-1.24-.69A3.32,3.32,0,0,0,247.41,483.05Z"/><path class="cls-63" d="M256.59,482.48l-6,.37c-.48,0-.59.22-.24.41l1.25.69a3.19,3.19,0,0,0,1.51.31l6-.38c.48,0,.58-.21.23-.41l-1.26-.69A3.23,3.23,0,0,0,256.59,482.48Z"/><path class="cls-63" d="M265.82,481.9l-6,.38c-.48,0-.58.21-.23.41l1.26.69a3.27,3.27,0,0,0,1.53.3l6.05-.38c.49,0,.59-.21.23-.41l-1.27-.69A3.3,3.3,0,0,0,265.82,481.9Z"/><path class="cls-63" d="M318.21,478.61,312,479c-.5,0-.6.21-.21.41l1.35.7a3.47,3.47,0,0,0,1.6.3L321,480c.5,0,.6-.22.21-.42l-1.37-.7A3.63,3.63,0,0,0,318.21,478.61Z"/><path class="cls-63" d="M327.75,478l-6.24.39c-.5,0-.59.22-.21.41l1.37.71a3.84,3.84,0,0,0,1.62.3l6.26-.39c.51,0,.6-.22.2-.42l-1.38-.7A3.72,3.72,0,0,0,327.75,478Z"/><path class="cls-63" d="M337.35,477.4l-6.28.4c-.5,0-.59.22-.2.41l1.39.71a3.72,3.72,0,0,0,1.62.3l6.3-.39c.51,0,.6-.22.2-.42l-1.4-.7A3.79,3.79,0,0,0,337.35,477.4Z"/><path class="cls-63" d="M347,476.8l-6.31.4c-.5,0-.59.21-.19.41l1.4.7a3.81,3.81,0,0,0,1.64.31l6.34-.4c.5,0,.59-.22.19-.42l-1.42-.7A3.85,3.85,0,0,0,347,476.8Z"/><path class="cls-63" d="M257.1,478.75l-6,.38c-.48,0-.58.21-.23.4l3.75,2.08a3.36,3.36,0,0,0,1.52.3l6-.38c.49,0,.59-.22.23-.41L258.61,479A3.34,3.34,0,0,0,257.1,478.75Z"/><path class="cls-63" d="M266.36,478.15l-6,.39c-.48,0-.59.21-.23.4l3.8,2.08a3.27,3.27,0,0,0,1.53.3l6.05-.38c.48,0,.58-.21.22-.41l-3.84-2.08A3.27,3.27,0,0,0,266.36,478.15Z"/><path class="cls-63" d="M275.68,477.56l-6,.38c-.48,0-.58.22-.23.41l3.86,2.08a3.3,3.3,0,0,0,1.53.3l6.09-.38c.49,0,.58-.21.22-.41l-3.9-2.09A3.43,3.43,0,0,0,275.68,477.56Z"/><path class="cls-63" d="M285,477l-6.07.39c-.49,0-.58.21-.22.41l3.9,2.08a3.38,3.38,0,0,0,1.55.3l6.11-.38c.5,0,.59-.22.22-.41l-3.94-2.09A3.38,3.38,0,0,0,285,477Z"/><path class="cls-63" d="M294.45,476.36l-6.1.39c-.49,0-.59.21-.22.41l4,2.09a3.56,3.56,0,0,0,1.56.3l6.14-.39c.5,0,.59-.22.22-.41l-4-2.09A3.43,3.43,0,0,0,294.45,476.36Z"/><path class="cls-63" d="M303.91,475.76l-6.13.39c-.49,0-.59.21-.22.41l4,2.09a3.51,3.51,0,0,0,1.58.3l6.17-.39c.5,0,.59-.22.21-.41l-4-2.1A3.61,3.61,0,0,0,303.91,475.76Z"/><path class="cls-63" d="M313.42,475.15l-6.17.39c-.49,0-.58.22-.21.41l4.06,2.1a3.7,3.7,0,0,0,1.59.3l6.21-.39c.5,0,.59-.22.21-.42l-4.1-2.09A3.61,3.61,0,0,0,313.42,475.15Z"/><path class="cls-63" d="M323,474.54l-6.2.4c-.5,0-.59.21-.21.41l4.11,2.09a3.67,3.67,0,0,0,1.61.3l6.24-.39c.5,0,.59-.22.2-.41l-4.15-2.1A3.66,3.66,0,0,0,323,474.54Z"/><path class="cls-63" d="M332.58,473.93l-6.22.4c-.5,0-.59.21-.21.41l4.17,2.1a3.84,3.84,0,0,0,1.62.3l6.27-.4c.5,0,.59-.22.2-.42l-4.21-2.1A3.84,3.84,0,0,0,332.58,473.93Z"/><path class="cls-63" d="M215.2,471.19l-16.89,1.12c-.46,0-.57.21-.25.4l3.43,2a2.91,2.91,0,0,0,1.42.29l17-1.12c.47,0,.58-.21.25-.4l-3.53-2A3,3,0,0,0,215.2,471.19Z"/><path class="cls-63" d="M328,463.66l-18,1.2c-.49,0-.58.21-.21.4l4,2a3.64,3.64,0,0,0,1.57.29l18.11-1.19c.49,0,.58-.22.19-.41l-4.12-2A3.68,3.68,0,0,0,328,463.66Z"/><path class="cls-63" d="M294,462.05l-6,.41c-.48,0-.58.21-.22.39l4.62,2.37a3.5,3.5,0,0,0,1.54.28l6-.4c.48,0,.58-.21.21-.4l-4.67-2.37A3.45,3.45,0,0,0,294,462.05Z"/><path class="cls-63" d="M228.09,466.52l-9.2.63c-.46,0-.57.2-.25.38l4.19,2.35a3.14,3.14,0,0,0,1.44.28l9.28-.62c.47,0,.58-.21.24-.4l-4.26-2.34A3,3,0,0,0,228.09,466.52Z"/><path class="cls-63" d="M285.14,462.66l-9.5.64c-.48,0-.58.21-.22.39l4.54,2.36a3.36,3.36,0,0,0,1.52.29l9.58-.64c.48,0,.57-.22.21-.4l-4.61-2.37A3.38,3.38,0,0,0,285.14,462.66Z"/><path class="cls-63" d="M241,465.65l-9.27.62c-.47,0-.57.21-.24.39l4.27,2.35a3,3,0,0,0,1.46.28l9.35-.62c.47,0,.57-.21.23-.39l-4.34-2.36A3.1,3.1,0,0,0,241,465.65Z"/><path class="cls-63" d="M237.28,469.29l41-2.74c.52,0,.67-.2.33-.38L274,463.76a3.52,3.52,0,0,0-1.52-.25l-40.68,2.76Z"/><path class="cls-63" d="M318.53,462.12l6.79-.46c.4,0,.47-.17.16-.32l-2-1a3,3,0,0,0-1.29-.23l-6.76.46c-.4,0-.47.17-.17.33l2,1A2.79,2.79,0,0,0,318.53,462.12Z"/><path class="cls-63" d="M309.08,462.76l6.76-.46c.4,0,.47-.17.16-.32l-1.95-1a3.09,3.09,0,0,0-1.27-.23l-6.73.46c-.4,0-.47.17-.17.32l1.93,1A3,3,0,0,0,309.08,462.76Z"/><path class="cls-63" d="M299.76,463.38l6.72-.45c.4,0,.47-.17.17-.32l-1.93-1a3,3,0,0,0-1.26-.23l-6.7.46c-.39,0-.47.17-.17.32l1.91,1A2.84,2.84,0,0,0,299.76,463.38Z"/><path class="cls-63" d="M312.52,464.48l6.78-.45c.41,0,.48-.18.17-.33l-2-1a3.11,3.11,0,0,0-1.28-.23l-6.76.46c-.4,0-.47.17-.17.32l1.95,1A3,3,0,0,0,312.52,464.48Z"/><path d="M381.08,388.77l-131.78,1c-2.29,0-4,2.52-4.5,5.31l-15.24,96.61c-.21,1.3-.51,6.35,3.9,5.6L368,485l19.89-92.15C388.62,388.11,382.26,388.77,381.08,388.77Z"/><path class="cls-32" d="M386.35,390.52l-135.58.73a2.44,2.44,0,0,0-2.11,2.12l-16.37,102c-.22,1.3.7,2.27,1.8,1.89l135.09-12.35A2.76,2.76,0,0,0,371,483l16.92-90.15A1.68,1.68,0,0,0,386.35,390.52Z"/><path class="cls-64" d="M238.62,456.56c.47,0,27.12,11.84,52.83-11,28.58-25.38,43.89-.84,57.73,4.64,2.87,1.13,19.36,10.43,27.71,1.58l11-58.95a1.68,1.68,0,0,0-1.57-2.31l-135.58.73a2.44,2.44,0,0,0-2.11,2.12Z"/><polygon class="cls-65" points="252.41 396.3 381.26 396.22 365.94 479.78 237.35 489.74 252.41 396.3"/></g><g id="gray-girl-hand"><path class="cls-46" d="M507.43,253.58c11.68,4,27.43,50,28.48,95.66s-25.43,36.85-34,10.13C491.57,327.41,465.6,239.34,507.43,253.58Z"/><path class="cls-24" d="M531.81,386.56s-.87,39.62-2.28,47.19S541,466.25,545,470.07s-3.07,4.18-4.71,1c0,0,4.35,9,7.31,11.74s-3.76,3.6-7.91-2.17c0,0,1.47,2.77,2.23,3.28s-3.37,4-8.76-5.48c0,0-2.39,3.61-5.44-1.26s-6.88-14.37-6.88-14.37-.71,6.38.81,11.37-4.58.11-5.86-7.25-2.61-15.84-5.74-20.86,3.84-8.35,3-17.94-6.85-30.35-3.1-42.92S537.18,362.57,531.81,386.56Z"/><path class="cls-66" d="M531.81,386.56s-.22,1.72-.59,4.51c-4.66-4-9-3.08-10.18,4.89-1.35,9.13-3.62,18.05-3.47,27.35.07,4.6.89,9.17,1.29,13.75a108.19,108.19,0,0,1,.22,12.27c-.31,16.31,14.43,23.73,22.71,35.14-.83.86-4.33,1.59-8.65-6,0,0-2.39,3.61-5.44-1.26s-6.88-14.37-6.88-14.37-.71,6.38.81,11.37-4.58.11-5.86-7.25-2.61-15.84-5.74-20.86,3.84-8.35,3-17.94-6.85-30.35-3.1-42.92S537.18,362.57,531.81,386.56Z"/><path class="cls-46" d="M501.69,354.68s1.41,42.7,5.33,62c0,0,16.55,6.49,30.58,1.64l-1.63-63Z"/></g><g id="gray-man-hand"><path class="cls-24" d="M658.62,463.9c4.82-4.22,10.23-10,14.24-13.76,1.78-1.66,2.33-4,3.82-4.72,5.38-2.69,20.75,5,30.75,8.93s98.74-38.72,125.33-40.51c7.93-.53,13.26,42.65,7,45.29-15.5,6.54-90.14,8.82-106.61,9.67-3.53.3-12.55,1.34-16,4.43-4.3,3.88-10.74,6.44-16,.65s-15.3-3.79-15.3-3.79-7.32,5.4-10,2.71c-1.68-1.67,0-3.21,1.57-5.33-2.08.06-3.34,4.39-7.55,3.1-5.58-1.72,1.31-8.32,1.31-8.32s-18.61,13.22-19.53,7.22C651.56,468.65,655.37,466.73,658.62,463.9Z"/><path class="cls-67" d="M657.54,468a69.88,69.88,0,0,0,18.06-14,18.82,18.82,0,0,0,5.11,2.28,119.39,119.39,0,0,0,49.69,2.62c69.33-11.25,72.48-36.48,72.46-37.3,12.43-4.27,23.16-7.35,29.9-7.8,7.93-.53,13.26,42.65,7,45.29-15.5,6.54-90.14,8.82-106.61,9.67-3.53.3-12.55,1.34-16,4.43-4.3,3.88-10.74,6.44-16,.65s-15.3-3.79-15.3-3.79-7.32,5.4-10,2.71c-1.68-1.67,0-3.21,1.57-5.33-2.08.06-3.34,4.39-7.55,3.1-5.58-1.72,1.31-8.32,1.31-8.32s-17.38,12.34-19.38,7.76A22,22,0,0,0,657.54,468Z"/><path class="cls-21" d="M833.88,296.53c17.07-9.88,54-1.72,47.63,55.29-6.28,56.07-26.46,102-39.42,109.19-2.29,1.28-49,9.73-49,9.73s5.67-22.84-13.7-44.6l32-13.3s-6.29-4.35,4.25-11.77S803.83,313.92,833.88,296.53Z"/><path class="cls-68" d="M868.27,300.54a48.31,48.31,0,0,1-4,29.94c-4.55,9.06-19,69.28-28.88,84.24-7.18,11.52-14.74,21.22-25.77,29.75-6.23,4.81-8.44,1.84-15.87,4.77,2.3,9.19-.68,21.5-.68,21.5s46.74-8.45,49-9.73c13-7.23,33.14-53.12,39.42-109.19C884.52,324.94,877.9,308.93,868.27,300.54Z"/></g><g id="laptop2"><path class="cls-46" d="M667.46,473.24l185.47,22.82c1.86.06,2.8,3,1,4.26l-80.55,49.47a5.77,5.77,0,0,1-4.58,1.2L591.3,519.71c-5.44-1.17-4.78-8.89-.55-10.55Z"/><path class="cls-59" d="M666.24,470.78l186.69,25.28-80.81,49.7a8,8,0,0,1-5.52,1L591.25,515.84c-3.13-.67-4.36-4.8-.71-6.65Z"/><path class="cls-32" d="M808.9,501.81l7.61,1.12c.61.09.74.39.3.67l-5.74,3.53a3.32,3.32,0,0,1-1.93.35l-7.67-1.12c-.62-.1-.75-.39-.29-.67l5.79-3.54A3.32,3.32,0,0,1,808.9,501.81Z"/><path class="cls-32" d="M820.54,503.73l7.58,1.12c.6.09.74.38.3.66L822.75,509a3.18,3.18,0,0,1-1.91.34l-7.64-1.11c-.61-.09-.74-.39-.29-.67l5.72-3.53A3.27,3.27,0,0,1,820.54,503.73Z"/><path class="cls-32" d="M797.09,500.07l7.65,1.13c.62.09.75.39.29.66l-5.8,3.54a3.4,3.4,0,0,1-2,.34l-7.71-1.12c-.62-.09-.74-.39-.28-.67l5.86-3.54A3.38,3.38,0,0,1,797.09,500.07Z"/><path class="cls-32" d="M785.3,504.7l7.73,1.13c.62.09.74.39.28.67l-4.95,3a3.49,3.49,0,0,1-2,.35l-7.79-1.13c-.62-.09-.75-.39-.28-.67l5-3A3.57,3.57,0,0,1,785.3,504.7Z"/><path class="cls-32" d="M773.31,503l7.77,1.14c.62.09.75.39.28.67l-5,3a3.57,3.57,0,0,1-2,.35L766.54,507c-.63-.09-.76-.39-.28-.68l5.07-3A3.52,3.52,0,0,1,773.31,503Z"/><path class="cls-32" d="M761.27,501.2l7.81,1.13c.62.1.74.4.27.68l-5.08,3a3.59,3.59,0,0,1-2,.34l-7.87-1.14c-.63-.09-.75-.39-.27-.67l5.14-3A3.49,3.49,0,0,1,761.27,501.2Z"/><path class="cls-32" d="M749.16,499.43l7.85,1.14c.63.1.75.4.27.68l-5.14,3a3.69,3.69,0,0,1-2,.34l-7.9-1.14c-.63-.1-.75-.4-.26-.68l5.19-3A3.67,3.67,0,0,1,749.16,499.43Z"/><path class="cls-32" d="M737,497.65l7.89,1.15c.63.1.75.4.27.68l-5.21,3a3.64,3.64,0,0,1-2,.34L730,501.68c-.64-.09-.76-.4-.26-.68l5.26-3A3.71,3.71,0,0,1,737,497.65Z"/><path class="cls-32" d="M724.76,495.87l7.93,1.15c.63.1.75.4.26.68l-5.27,3a3.73,3.73,0,0,1-2.06.34l-8-1.15c-.64-.1-.76-.4-.26-.68l5.33-3A3.8,3.8,0,0,1,724.76,495.87Z"/><path class="cls-32" d="M712.47,494.07l8,1.17c.64.09.75.39.25.67l-5.33,3a3.78,3.78,0,0,1-2.08.35l-8-1.17c-.65-.09-.76-.4-.25-.68l5.39-3A3.85,3.85,0,0,1,712.47,494.07Z"/><path class="cls-32" d="M700.12,492.27l8,1.17c.64.09.75.39.24.68l-5.4,3a3.83,3.83,0,0,1-2.09.35l-8.06-1.17c-.65-.09-.76-.4-.25-.68l5.46-3A3.92,3.92,0,0,1,700.12,492.27Z"/><path class="cls-32" d="M687.7,490.46l8,1.17c.64.1.75.4.24.68l-5.47,3a3.87,3.87,0,0,1-2.1.34l-8.11-1.17c-.65-.1-.76-.4-.24-.69l5.53-3A3.86,3.86,0,0,1,687.7,490.46Z"/><path class="cls-32" d="M675.22,488.64l8.09,1.18c.65.09.75.4.24.68l-5.54,3a4.05,4.05,0,0,1-2.12.34l-8.15-1.18c-.66-.1-.76-.41-.24-.69l5.6-3A4,4,0,0,1,675.22,488.64Z"/><path class="cls-32" d="M771.67,508.4l7.81,1.13c.63.09.76.39.29.68l-5,3a3.51,3.51,0,0,1-2,.36l-7.87-1.13c-.63-.09-.75-.4-.28-.69l5.11-3A3.47,3.47,0,0,1,771.67,508.4Z"/><path class="cls-32" d="M783.9,510.17l7.77,1.12c.63.09.75.4.29.68l-5,3a3.54,3.54,0,0,1-2,.35l-7.82-1.12c-.63-.09-.76-.4-.28-.68l5-3.05A3.44,3.44,0,0,1,783.9,510.17Z"/><path class="cls-32" d="M796.09,511.93l16.62,2.41c.62.09.75.39.3.67l-4.88,3a3.41,3.41,0,0,1-2,.36L789.44,516c-.63-.09-.75-.39-.29-.68l5-3.05A3.44,3.44,0,0,1,796.09,511.93Z"/><path class="cls-32" d="M791.72,517l13.58,2c.62.09.75.4.29.68l-4.93,3.09a3.43,3.43,0,0,1-2,.36l-13.68-2c-.63-.09-.76-.39-.29-.68l5-3.09A3.41,3.41,0,0,1,791.72,517Z"/><path class="cls-32" d="M759.56,506.64l7.85,1.14c.63.09.76.4.28.68l-5.11,3.05a3.66,3.66,0,0,1-2,.35l-7.91-1.13c-.63-.1-.75-.4-.27-.69l5.17-3.05A3.63,3.63,0,0,1,759.56,506.64Z"/><path class="cls-32" d="M747.39,504.88l7.89,1.14c.63.1.75.4.27.68l-5.18,3.05a3.51,3.51,0,0,1-2,.35l-8-1.14c-.64-.09-.75-.4-.26-.68l5.23-3A3.71,3.71,0,0,1,747.39,504.88Z"/><path class="cls-32" d="M735.16,503.11l7.92,1.15c.64.09.76.4.27.68L738.11,508a3.77,3.77,0,0,1-2.05.35l-8-1.15c-.64-.09-.76-.4-.26-.68l5.3-3.05A3.68,3.68,0,0,1,735.16,503.11Z"/><path class="cls-32" d="M722.86,501.33l8,1.15c.64.1.75.4.26.69l-5.31,3a3.75,3.75,0,0,1-2.07.36l-8-1.16c-.65-.09-.76-.4-.26-.69l5.36-3A3.76,3.76,0,0,1,722.86,501.33Z"/><path class="cls-32" d="M710.5,499.54l8,1.16c.64.09.76.4.26.68l-5.38,3.05a3.8,3.8,0,0,1-2.08.35l-8.07-1.16c-.65-.09-.76-.4-.25-.69l5.42-3A3.83,3.83,0,0,1,710.5,499.54Z"/><path class="cls-32" d="M698.07,497.74l8.06,1.17c.64.09.75.4.25.68l-5.44,3.05a3.91,3.91,0,0,1-2.11.35l-8.11-1.17c-.65-.09-.76-.4-.24-.68l5.5-3.05A3.85,3.85,0,0,1,698.07,497.74Z"/><path class="cls-32" d="M685.59,495.93l8.09,1.18c.65.09.76.4.24.68l-5.5,3a4,4,0,0,1-2.12.35L678.14,500c-.65-.1-.76-.41-.23-.69l5.56-3.05A4.05,4.05,0,0,1,685.59,495.93Z"/><path class="cls-32" d="M673,494.12l8.14,1.18c.65.09.76.4.24.68l-5.58,3a4,4,0,0,1-2.13.35l-8.2-1.18c-.66-.09-.76-.4-.23-.69l5.63-3.05A4,4,0,0,1,673,494.12Z"/><path class="cls-32" d="M660.42,492.29l8.17,1.19c.66.09.77.4.24.68l-5.64,3a4.12,4.12,0,0,1-2.16.35l-8.24-1.19c-.66-.09-.76-.4-.23-.69l5.7-3.05A4.22,4.22,0,0,1,660.42,492.29Z"/><path class="cls-32" d="M637.83,489l18,2.6c.66.1.76.41.23.69l-5.72,3.05a4.14,4.14,0,0,1-2.17.34L630,493.1c-.67-.09-.76-.4-.22-.69l5.83-3.05A4.21,4.21,0,0,1,637.83,489Z"/><path class="cls-32" d="M620,498.34l15.44,2.2c.67.09.77.41.22.7l-5.88,3.13a4.28,4.28,0,0,1-2.23.36L612,502.53c-.68-.09-.77-.41-.21-.7l6-3.13A4.3,4.3,0,0,1,620,498.34Z"/><path class="cls-32" d="M742.19,509.9l7.94,1.14c.64.09.76.4.27.69l-5.23,3.09a3.58,3.58,0,0,1-2,.35l-8-1.14c-.64-.09-.76-.4-.26-.69l5.28-3.08A3.68,3.68,0,0,1,742.19,509.9Z"/><path class="cls-32" d="M754.75,511.7l7.9,1.14c.64.09.76.4.28.68l-5.16,3.09a3.65,3.65,0,0,1-2,.36l-8-1.13c-.64-.09-.76-.4-.27-.69l5.22-3.09A3.6,3.6,0,0,1,754.75,511.7Z"/><path class="cls-32" d="M767.25,513.5l7.86,1.13c.63.09.76.39.28.68l-5.1,3.09a3.54,3.54,0,0,1-2,.36l-7.92-1.13c-.64-.09-.76-.4-.28-.69l5.15-3.08A3.56,3.56,0,0,1,767.25,513.5Z"/><path class="cls-32" d="M779.68,515.28l7.82,1.13c.62.09.75.39.29.68l-5,3.09a3.51,3.51,0,0,1-2,.36l-7.88-1.12c-.63-.09-.76-.4-.28-.69l5.08-3.09A3.49,3.49,0,0,1,779.68,515.28Z"/><path class="cls-32" d="M729.87,508.13l8,1.15c.64.09.76.4.27.69l-5.3,3.08a3.63,3.63,0,0,1-2.06.36l-8-1.14c-.64-.09-.76-.4-.26-.69l5.35-3.09A3.77,3.77,0,0,1,729.87,508.13Z"/><path class="cls-32" d="M717.49,506.36l8,1.15c.64.09.76.4.26.69l-5.36,3.08a3.82,3.82,0,0,1-2.09.36l-8.08-1.15c-.65-.09-.76-.4-.25-.69l5.41-3.09A3.74,3.74,0,0,1,717.49,506.36Z"/><path class="cls-32" d="M705,504.57l8.07,1.16c.64.09.76.4.25.69l-5.43,3.08a3.78,3.78,0,0,1-2.1.36l-8.13-1.16c-.65-.09-.76-.4-.25-.69l5.49-3.09A3.78,3.78,0,0,1,705,504.57Z"/><path class="cls-32" d="M692.53,502.77l8.11,1.17c.65.09.76.4.25.69l-5.5,3.09a4,4,0,0,1-2.12.35l-8.17-1.16c-.66-.1-.77-.41-.24-.7l5.55-3.09A4,4,0,0,1,692.53,502.77Z"/><path class="cls-32" d="M680,501l8.15,1.17c.65.09.77.4.25.69l-5.57,3.09a3.92,3.92,0,0,1-2.14.35l-8.21-1.17c-.66-.09-.77-.4-.24-.69l5.63-3.09A3.88,3.88,0,0,1,680,501Z"/><path class="cls-32" d="M667.31,499.15l8.19,1.18c.66.09.77.4.24.69l-5.63,3.09a4,4,0,0,1-2.16.35l-8.25-1.17c-.67-.1-.77-.41-.23-.7l5.69-3.09A4.07,4.07,0,0,1,667.31,499.15Z"/><path class="cls-32" d="M654.6,497.33l8.24,1.18c.66.09.76.4.23.69l-5.7,3.09a4.18,4.18,0,0,1-2.18.36l-8.29-1.19c-.67-.09-.77-.4-.23-.69l5.76-3.09A4.06,4.06,0,0,1,654.6,497.33Z"/><path class="cls-32" d="M641.83,495.49l8.28,1.19c.66.1.76.41.23.7l-5.78,3.08a4.22,4.22,0,0,1-2.19.36L634,499.63c-.67-.1-.77-.41-.22-.7l5.83-3.09A4.21,4.21,0,0,1,641.83,495.49Z"/><path class="cls-32" d="M629,493.65l8.32,1.19c.67.1.77.41.22.7l-5.84,3.09a4.21,4.21,0,0,1-2.21.35l-8.39-1.19c-.67-.1-.77-.41-.21-.7l5.9-3.09A4.21,4.21,0,0,1,629,493.65Z"/><path class="cls-32" d="M752.69,517.23l7.94,1.13c.64.09.77.4.28.69l-5.2,3.12a3.56,3.56,0,0,1-2,.37l-8-1.13c-.64-.09-.76-.4-.27-.7l5.25-3.12A3.6,3.6,0,0,1,752.69,517.23Z"/><path class="cls-32" d="M764.89,519l7.91,1.13c.63.09.76.4.28.69L768,523.9a3.55,3.55,0,0,1-2,.37l-8-1.12c-.64-.09-.76-.41-.28-.7l5.19-3.12A3.52,3.52,0,0,1,764.89,519Z"/><path class="cls-32" d="M777,520.69l7.87,1.12c.63.09.76.4.28.69l-5.07,3.12a3.43,3.43,0,0,1-2,.37l-7.92-1.12c-.64-.09-.77-.4-.28-.69l5.12-3.13A3.53,3.53,0,0,1,777,520.69Z"/><path class="cls-32" d="M789.11,522.41l7.82,1.11c.63.09.76.4.3.69l-5,3.13a3.46,3.46,0,0,1-2,.37l-7.89-1.12c-.63-.09-.76-.4-.29-.69l5.06-3.13A3.49,3.49,0,0,1,789.11,522.41Z"/><path class="cls-32" d="M781,527.4l7.89,1.11c.64.09.77.4.3.7l-1.68,1a3.52,3.52,0,0,1-2,.38l-7.92-1.12c-.64-.09-.76-.4-.28-.7l1.69-1A3.53,3.53,0,0,1,781,527.4Z"/><path class="cls-32" d="M765.13,525.15l8,1.13c.64.09.76.4.28.69l-1.7,1a3.6,3.6,0,0,1-2,.37l-8-1.12c-.64-.09-.77-.41-.28-.7l1.72-1.05A3.6,3.6,0,0,1,765.13,525.15Z"/><path class="cls-32" d="M752.92,523.43l8,1.13c.64.09.76.4.28.7l-1.73,1a3.55,3.55,0,0,1-2,.37l-8-1.12c-.64-.09-.77-.41-.27-.7l1.74-1.05A3.68,3.68,0,0,1,752.92,523.43Z"/><path class="cls-32" d="M740.65,521.7l8,1.13c.65.09.77.4.28.7l-1.74,1.05a3.75,3.75,0,0,1-2.07.37l-8.06-1.13c-.64-.09-.77-.41-.27-.71l1.77-1A3.65,3.65,0,0,1,740.65,521.7Z"/><path class="cls-32" d="M728.31,520l8.07,1.14c.65.09.77.4.27.7l-1.77,1a3.62,3.62,0,0,1-2.08.37l-8.1-1.13c-.65-.09-.77-.41-.26-.71l1.78-1A3.75,3.75,0,0,1,728.31,520Z"/><path class="cls-32" d="M658.26,510.08l8.3,1.17c.67.09.77.41.24.7L664.91,513a4.1,4.1,0,0,1-2.18.37l-8.34-1.18c-.67-.09-.77-.41-.23-.7l1.91-1.05A4.12,4.12,0,0,1,658.26,510.08Z"/><path class="cls-32" d="M645.49,508.28l8.35,1.18c.67.09.77.4.24.7l-1.92,1a4.16,4.16,0,0,1-2.2.36l-8.38-1.17c-.67-.1-.77-.42-.23-.71l1.94-1.05A4.16,4.16,0,0,1,645.49,508.28Z"/><path class="cls-32" d="M632.66,506.47l8.4,1.18c.67.1.77.41.22.71l-1.94,1a4.21,4.21,0,0,1-2.21.37l-8.43-1.18c-.68-.1-.77-.42-.22-.71l2-1.05A4.15,4.15,0,0,1,632.66,506.47Z"/><path class="cls-32" d="M619.77,504.65l8.43,1.19c.68.09.78.41.22.7l-2,1a4.31,4.31,0,0,1-2.24.37l-8.46-1.19c-.69-.1-.78-.42-.22-.71l2-1.05A4.2,4.2,0,0,1,619.77,504.65Z"/><path class="cls-32" d="M740.36,515.47l8,1.14c.64.09.76.4.27.69l-5.26,3.13a3.75,3.75,0,0,1-2.07.37l-8-1.14c-.65-.09-.77-.41-.27-.7l5.32-3.13A3.73,3.73,0,0,1,740.36,515.47Z"/><path class="cls-32" d="M728,513.71l8,1.14c.65.09.76.4.27.69l-5.33,3.13a3.79,3.79,0,0,1-2.08.37l-8.09-1.15c-.65-.09-.77-.4-.26-.69l5.38-3.13A3.73,3.73,0,0,1,728,513.71Z"/><path class="cls-32" d="M715.52,511.93l8.07,1.15c.65.1.76.41.26.7l-5.4,3.12a3.74,3.74,0,0,1-2.09.37l-8.13-1.15c-.66-.09-.77-.4-.26-.7l5.45-3.13A3.87,3.87,0,0,1,715.52,511.93Z"/><path class="cls-32" d="M703,510.15l8.12,1.16c.64.09.76.4.25.69l-5.46,3.13a4,4,0,0,1-2.12.37l-8.17-1.16c-.66-.09-.77-.41-.25-.7l5.52-3.13A3.91,3.91,0,0,1,703,510.15Z"/><path class="cls-32" d="M690.42,508.36l8.15,1.16c.66.1.77.41.26.7l-5.54,3.13a4,4,0,0,1-2.13.36l-8.22-1.16c-.66-.09-.77-.41-.24-.7l5.59-3.13A4,4,0,0,1,690.42,508.36Z"/><path class="cls-32" d="M677.77,506.56l8.2,1.17c.66.09.77.4.24.7l-5.6,3.12a4,4,0,0,1-2.15.37l-8.26-1.17c-.66-.09-.77-.41-.24-.7l5.66-3.13A4.07,4.07,0,0,1,677.77,506.56Z"/><path class="cls-32" d="M665.06,504.75l8.24,1.17c.66.1.77.41.24.7l-5.68,3.13a3.94,3.94,0,0,1-2.17.36l-8.3-1.17c-.66-.09-.77-.41-.23-.7l5.73-3.13A4.14,4.14,0,0,1,665.06,504.75Z"/><path class="cls-32" d="M652.28,502.93l8.28,1.18c.66.1.77.41.24.7l-5.75,3.13a4.12,4.12,0,0,1-2.19.36l-8.34-1.18c-.67-.09-.77-.41-.23-.7l5.8-3.13A4.22,4.22,0,0,1,652.28,502.93Z"/><path class="cls-32" d="M639.43,501.1l8.33,1.19c.67.09.77.41.23.7l-5.82,3.13a4.28,4.28,0,0,1-2.21.36l-8.38-1.19c-.68-.09-.78-.41-.23-.7l5.88-3.13A4.27,4.27,0,0,1,639.43,501.1Z"/><path class="cls-32" d="M797.45,506.48,820,509.77c.61.09.74.39.29.67l-4.81,3a3.35,3.35,0,0,1-1.94.35l-22.73-3.3c-.62-.09-.75-.39-.29-.67l5-3A3.4,3.4,0,0,1,797.45,506.48Z"/><path class="cls-32" d="M646.7,484.47l24,3.51c.65.09.76.4.24.68l-5.61,3a4.14,4.14,0,0,1-2.14.34L639,488.5c-.67-.09-.77-.4-.23-.68l5.75-3A4.26,4.26,0,0,1,646.7,484.47Z"/><path class="cls-32" d="M692.49,484.67l8,1.18c.64.09.75.39.25.67l-6.46,3.53a3.92,3.92,0,0,1-2.09.34l-8.06-1.18c-.64-.09-.75-.4-.24-.68l6.53-3.53A3.81,3.81,0,0,1,692.49,484.67Z"/><path class="cls-32" d="M780.61,497.65l12.31,1.81c.62.09.75.39.29.66l-5.88,3.54a3.44,3.44,0,0,1-2,.34L773,502.19c-.62-.09-.75-.39-.28-.67l6-3.54A3.53,3.53,0,0,1,780.61,497.65Z"/><path class="cls-32" d="M704.37,486.42l12.71,1.87c.63.09.74.39.25.67L711,492.49a3.85,3.85,0,0,1-2.07.34L696.1,491c-.64-.09-.75-.4-.24-.68l6.44-3.53A3.76,3.76,0,0,1,704.37,486.42Z"/><path class="cls-32" d="M763.36,495.11l12.4,1.82c.62.09.74.39.27.67l-6,3.54a3.61,3.61,0,0,1-2,.34l-12.5-1.83c-.63-.09-.75-.39-.27-.67l6.07-3.54A3.48,3.48,0,0,1,763.36,495.11Z"/><path class="cls-32" d="M768,501.46l-54.81-8c-.68-.1-.86-.39-.4-.65l6.47-3.6a3.81,3.81,0,0,1,2.07-.29l54.36,8Z"/><path class="cls-32" d="M659.56,482.71l-9.07-1.33c-.54-.08-.62-.33-.19-.55l2.76-1.44a3.35,3.35,0,0,1,1.76-.27l9,1.33c.53.08.62.33.19.55l-2.73,1.44A3.29,3.29,0,0,1,659.56,482.71Z"/><path class="cls-32" d="M672.19,484.57l-9-1.33c-.53-.08-.61-.32-.19-.55l2.73-1.44a3.27,3.27,0,0,1,1.74-.27l9,1.32c.53.08.61.33.19.55l-2.7,1.44A3.32,3.32,0,0,1,672.19,484.57Z"/><path class="cls-32" d="M684.65,486.39l-9-1.31c-.53-.08-.62-.33-.19-.56l2.69-1.44a3.18,3.18,0,0,1,1.72-.27l9,1.32c.52.08.61.32.2.55l-2.67,1.44A3.18,3.18,0,0,1,684.65,486.39Z"/><path class="cls-32" d="M667.39,487.13l-9.07-1.33c-.54-.07-.62-.32-.19-.55l2.75-1.45a3.29,3.29,0,0,1,1.75-.27l9,1.32c.53.08.62.33.19.55l-2.71,1.46A3.39,3.39,0,0,1,667.39,487.13Z"/><path class="cls-63" d="M820.26,502.82l7.56,1.11c.61.09.74.39.3.66l-5.65,3.52a3.3,3.3,0,0,1-1.92.34l-7.62-1.11c-.61-.09-.74-.39-.29-.67l5.71-3.52A3.35,3.35,0,0,1,820.26,502.82Z"/><path class="cls-63" d="M808.54,501.09l7.6,1.12c.61.09.74.39.29.66l-5.72,3.52a3.37,3.37,0,0,1-1.94.34l-7.65-1.11c-.62-.1-.75-.39-.29-.67l5.79-3.52A3.3,3.3,0,0,1,808.54,501.09Z"/><path class="cls-63" d="M796.76,499.36l7.63,1.12c.62.09.74.39.29.66l-5.79,3.52a3.4,3.4,0,0,1-1.95.34l-7.7-1.12c-.62-.09-.74-.39-.28-.67l5.86-3.52A3.43,3.43,0,0,1,796.76,499.36Z"/><path class="cls-63" d="M785,504l7.72,1.13c.62.09.74.39.28.67l-5,3a3.36,3.36,0,0,1-2,.35L778.29,508c-.63-.09-.76-.4-.28-.68l5-3A3.44,3.44,0,0,1,785,504Z"/><path class="cls-63" d="M773,502.22l7.75,1.13c.62.09.75.39.28.67l-5,3a3.52,3.52,0,0,1-2,.34l-7.81-1.13c-.63-.09-.75-.39-.28-.67l5.07-3A3.52,3.52,0,0,1,773,502.22Z"/><path class="cls-63" d="M761,500.47l7.79,1.13c.62.09.75.39.27.67l-5.07,3a3.59,3.59,0,0,1-2,.35l-7.85-1.14c-.63-.09-.75-.4-.27-.68l5.13-3A3.57,3.57,0,0,1,761,500.47Z"/><path class="cls-63" d="M748.9,498.7l7.83,1.15c.63.09.75.39.27.67l-5.13,3a3.68,3.68,0,0,1-2,.35L742,502.71c-.63-.09-.75-.39-.27-.67l5.2-3A3.62,3.62,0,0,1,748.9,498.7Z"/><path class="cls-63" d="M736.76,496.93l7.87,1.15c.63.09.75.39.26.67l-5.2,3a3.71,3.71,0,0,1-2,.34l-7.93-1.15c-.64-.09-.76-.39-.26-.67l5.25-3A3.73,3.73,0,0,1,736.76,496.93Z"/><path class="cls-63" d="M724.55,495.15l7.91,1.15c.63.1.75.4.26.68l-5.27,3a3.68,3.68,0,0,1-2.05.35l-8-1.16c-.64-.09-.75-.39-.25-.68l5.32-3A3.76,3.76,0,0,1,724.55,495.15Z"/><path class="cls-63" d="M712.28,493.36l8,1.16c.64.09.75.39.26.67l-5.34,3a3.73,3.73,0,0,1-2.06.34l-8-1.16c-.65-.09-.76-.39-.26-.68l5.39-3A3.85,3.85,0,0,1,712.28,493.36Z"/><path class="cls-63" d="M699.94,491.56l8,1.17c.64.09.75.39.25.67l-5.4,3a3.92,3.92,0,0,1-2.09.34l-8.05-1.17c-.64-.09-.75-.39-.24-.68l5.45-3A3.9,3.9,0,0,1,699.94,491.56Z"/><path class="cls-63" d="M687.55,489.75l8,1.18c.65.09.76.39.25.67l-5.47,3a4,4,0,0,1-2.1.34l-8.09-1.17c-.65-.1-.76-.4-.24-.69l5.52-3A4,4,0,0,1,687.55,489.75Z"/><path class="cls-63" d="M675.09,487.94l8.07,1.17c.65.1.76.4.24.68l-5.53,3a4.05,4.05,0,0,1-2.12.34L667.62,492c-.66-.1-.76-.4-.24-.68l5.59-3A4,4,0,0,1,675.09,487.94Z"/><path class="cls-63" d="M771.37,507.64l7.79,1.13c.63.09.75.39.29.68l-5.05,3a3.49,3.49,0,0,1-2,.35l-7.85-1.13c-.63-.09-.75-.39-.27-.68l5.09-3A3.59,3.59,0,0,1,771.37,507.64Z"/><path class="cls-63" d="M783.58,509.41l7.75,1.12c.62.09.75.39.29.68l-5,3a3.52,3.52,0,0,1-2,.35l-7.82-1.12c-.62-.09-.75-.4-.28-.68l5-3A3.49,3.49,0,0,1,783.58,509.41Z"/><path class="cls-63" d="M795.74,511.17l16.59,2.4c.61.09.75.39.29.67l-4.87,3a3.33,3.33,0,0,1-2,.36l-16.7-2.4c-.63-.09-.76-.4-.29-.68l5-3A3.44,3.44,0,0,1,795.74,511.17Z"/><path class="cls-63" d="M791.37,516.23l13.55,1.94c.63.09.76.4.3.68l-4.93,3.07a3.43,3.43,0,0,1-2,.36l-13.65-1.94c-.63-.09-.76-.4-.29-.69l5-3.07A3.49,3.49,0,0,1,791.37,516.23Z"/><path class="cls-63" d="M759.28,505.89l7.83,1.14c.63.09.76.39.28.67l-5.11,3a3.63,3.63,0,0,1-2,.35L752.38,510c-.64-.1-.76-.4-.27-.68l5.16-3A3.63,3.63,0,0,1,759.28,505.89Z"/><path class="cls-63" d="M747.13,504.13l7.87,1.15c.63.09.76.39.27.67l-5.17,3a3.68,3.68,0,0,1-2,.35l-7.93-1.14c-.64-.09-.76-.4-.27-.68l5.23-3A3.7,3.7,0,0,1,747.13,504.13Z"/><path class="cls-63" d="M734.91,502.37l7.92,1.14c.63.1.75.4.27.68l-5.24,3a3.77,3.77,0,0,1-2.05.35l-8-1.15c-.64-.09-.76-.4-.26-.68l5.29-3A3.74,3.74,0,0,1,734.91,502.37Z"/><path class="cls-63" d="M722.64,500.59l8,1.15c.63.09.75.4.26.68l-5.3,3a3.85,3.85,0,0,1-2.07.35l-8-1.15c-.65-.1-.76-.4-.26-.69l5.36-3A3.73,3.73,0,0,1,722.64,500.59Z"/><path class="cls-63" d="M710.3,498.81l8,1.15c.64.1.75.4.25.68l-5.36,3a3.93,3.93,0,0,1-2.09.35l-8.05-1.16c-.65-.09-.76-.4-.25-.68l5.42-3A3.81,3.81,0,0,1,710.3,498.81Z"/><path class="cls-63" d="M697.9,497l8,1.16c.64.1.75.4.25.69l-5.44,3a3.87,3.87,0,0,1-2.1.35l-8.09-1.16c-.65-.1-.76-.41-.25-.69l5.49-3A3.87,3.87,0,0,1,697.9,497Z"/><path class="cls-63" d="M685.43,495.21l8.08,1.17c.65.09.76.4.25.68l-5.5,3a3.87,3.87,0,0,1-2.12.35L678,499.27c-.65-.09-.76-.4-.24-.68l5.56-3A4,4,0,0,1,685.43,495.21Z"/><path class="cls-63" d="M672.9,493.4l8.13,1.17c.65.1.75.4.24.68l-5.57,3a4.13,4.13,0,0,1-2.14.35l-8.18-1.18c-.66-.09-.76-.4-.23-.69l5.62-3A3.91,3.91,0,0,1,672.9,493.4Z"/><path class="cls-63" d="M660.31,491.57l8.16,1.18c.66.1.76.4.24.69l-5.64,3a4.07,4.07,0,0,1-2.15.35l-8.23-1.18c-.66-.1-.76-.4-.22-.69l5.69-3A4.16,4.16,0,0,1,660.31,491.57Z"/><path class="cls-63" d="M637.76,488.31l17.94,2.6c.66.09.76.4.23.68l-5.71,3a4.15,4.15,0,0,1-2.17.34L630,492.38c-.66-.1-.76-.41-.21-.69l5.82-3A4.17,4.17,0,0,1,637.76,488.31Z"/><path class="cls-63" d="M620,497.59l15.41,2.19c.67.1.77.41.22.7l-5.88,3.12a4.33,4.33,0,0,1-2.22.36L612,501.76c-.68-.09-.77-.41-.21-.7l6-3.12A4.3,4.3,0,0,1,620,497.59Z"/><path class="cls-63" d="M741.93,509.14l7.93,1.13c.64.09.76.4.27.69L744.91,514a3.68,3.68,0,0,1-2,.36l-8-1.14c-.64-.09-.76-.4-.26-.69l5.28-3.07A3.56,3.56,0,0,1,741.93,509.14Z"/><path class="cls-63" d="M754.47,510.93l7.89,1.14c.63.09.75.39.27.68l-5.15,3.07a3.63,3.63,0,0,1-2,.36l-8-1.13c-.64-.09-.76-.4-.27-.69l5.21-3.07A3.61,3.61,0,0,1,754.47,510.93Z"/><path class="cls-63" d="M766.94,512.72l7.85,1.13c.63.09.76.39.28.68L770,517.6a3.54,3.54,0,0,1-2,.36l-7.91-1.12c-.63-.09-.76-.4-.27-.69l5.14-3.07A3.54,3.54,0,0,1,766.94,512.72Z"/><path class="cls-63" d="M779.35,514.5l7.81,1.12c.62.09.75.4.28.68l-5,3.08a3.51,3.51,0,0,1-2,.36l-7.86-1.12c-.63-.09-.76-.4-.28-.69l5.08-3.07A3.46,3.46,0,0,1,779.35,514.5Z"/><path class="cls-63" d="M729.63,507.37l8,1.14c.64.1.76.4.27.69l-5.29,3.07a3.75,3.75,0,0,1-2.07.36l-8-1.15c-.65-.09-.77-.4-.26-.68l5.34-3.08A3.82,3.82,0,0,1,729.63,507.37Z"/><path class="cls-63" d="M717.27,505.6l8,1.14c.65.1.76.4.26.69l-5.35,3.07a3.84,3.84,0,0,1-2.09.36L710,509.71c-.65-.09-.77-.4-.26-.69l5.41-3.07A3.73,3.73,0,0,1,717.27,505.6Z"/><path class="cls-63" d="M704.85,503.81l8,1.16c.65.09.76.4.25.68l-5.42,3.08a3.87,3.87,0,0,1-2.1.36l-8.11-1.16c-.65-.09-.76-.4-.25-.69l5.48-3.08A4,4,0,0,1,704.85,503.81Z"/><path class="cls-63" d="M692.36,502l8.09,1.16c.65.1.76.4.25.69l-5.49,3.07a3.93,3.93,0,0,1-2.12.36l-8.15-1.16c-.65-.09-.76-.4-.24-.69l5.54-3.08A4,4,0,0,1,692.36,502Z"/><path class="cls-63" d="M679.81,500.22l8.13,1.17c.65.09.76.4.25.69l-5.56,3.07a4,4,0,0,1-2.14.36l-8.19-1.17c-.66-.1-.77-.41-.24-.7l5.61-3.07A4,4,0,0,1,679.81,500.22Z"/><path class="cls-63" d="M667.19,498.41l8.18,1.17c.65.1.76.4.23.69L670,503.35a4.1,4.1,0,0,1-2.16.35l-8.24-1.17c-.66-.1-.76-.41-.23-.7l5.69-3.07A4,4,0,0,1,667.19,498.41Z"/><path class="cls-63" d="M654.5,496.59l8.22,1.18c.66.09.76.4.24.69l-5.7,3.07a4.16,4.16,0,0,1-2.17.36l-8.28-1.18c-.67-.1-.77-.41-.23-.7l5.75-3.07A4.06,4.06,0,0,1,654.5,496.59Z"/><path class="cls-63" d="M641.75,494.76,650,496c.67.09.77.4.23.69l-5.76,3.07a4.15,4.15,0,0,1-2.19.35L634,498.88c-.67-.1-.77-.41-.22-.7l5.82-3.08A4.25,4.25,0,0,1,641.75,494.76Z"/><path class="cls-63" d="M628.93,492.92l8.31,1.19c.67.1.77.41.22.69l-5.83,3.08a4.21,4.21,0,0,1-2.21.35L621.05,497c-.68-.1-.77-.41-.22-.7l5.9-3.08A4.27,4.27,0,0,1,628.93,492.92Z"/><path class="cls-63" d="M752.4,516.43l7.94,1.13c.63.09.76.4.27.69l-5.19,3.11a3.65,3.65,0,0,1-2,.37l-8-1.13c-.65-.09-.77-.4-.27-.7l5.24-3.11A3.65,3.65,0,0,1,752.4,516.43Z"/><path class="cls-63" d="M764.58,518.16l7.9,1.13c.63.09.75.39.28.68l-5.13,3.11a3.52,3.52,0,0,1-2,.37l-8-1.12c-.64-.09-.76-.4-.27-.69l5.18-3.11A3.5,3.5,0,0,1,764.58,518.16Z"/><path class="cls-63" d="M776.7,519.89l7.85,1.11c.63.09.76.4.29.69l-5.07,3.11a3.5,3.5,0,0,1-2,.37l-7.91-1.12c-.64-.09-.77-.4-.28-.69l5.11-3.11A3.54,3.54,0,0,1,776.7,519.89Z"/><path class="cls-63" d="M788.75,521.6l7.82,1.11c.62.09.75.4.29.69l-5,3.11a3.46,3.46,0,0,1-2,.37L782,525.77c-.64-.09-.76-.4-.29-.7l5-3.1A3.49,3.49,0,0,1,788.75,521.6Z"/><path class="cls-63" d="M780.7,526.57l7.88,1.11c.63.09.76.4.29.69l-1.67,1a3.46,3.46,0,0,1-2,.37l-7.91-1.11c-.63-.09-.76-.4-.28-.69l1.69-1A3.51,3.51,0,0,1,780.7,526.57Z"/><path class="cls-63" d="M764.82,524.33l7.93,1.12c.64.09.76.4.28.69l-1.69,1a3.53,3.53,0,0,1-2,.37l-8-1.12c-.64-.08-.77-.4-.28-.69l1.72-1A3.6,3.6,0,0,1,764.82,524.33Z"/><path class="cls-63" d="M752.63,522.61l8,1.13c.64.08.77.4.28.69l-1.72,1a3.56,3.56,0,0,1-2,.37l-8-1.12c-.65-.09-.77-.4-.28-.7l1.74-1A3.68,3.68,0,0,1,752.63,522.61Z"/><path class="cls-63" d="M740.38,520.88l8,1.13c.65.1.77.41.28.7l-1.75,1a3.7,3.7,0,0,1-2.06.37l-8-1.13c-.65-.09-.76-.4-.27-.7l1.76-1A3.77,3.77,0,0,1,740.38,520.88Z"/><path class="cls-63" d="M728.07,519.15l8,1.13c.65.1.77.41.27.7l-1.77,1a3.68,3.68,0,0,1-2.07.37l-8.09-1.13c-.65-.1-.76-.41-.26-.7l1.78-1A3.84,3.84,0,0,1,728.07,519.15Z"/><path class="cls-63" d="M658.14,509.29l8.29,1.17c.67.09.77.41.24.7l-1.89,1a4.09,4.09,0,0,1-2.18.37l-8.32-1.17c-.67-.1-.77-.41-.23-.71l1.91-1A4.2,4.2,0,0,1,658.14,509.29Z"/><path class="cls-63" d="M645.4,507.49l8.34,1.18c.66.09.77.41.23.7l-1.91,1a4.18,4.18,0,0,1-2.2.37l-8.36-1.18c-.68-.09-.78-.41-.23-.7l1.93-1A4.18,4.18,0,0,1,645.4,507.49Z"/><path class="cls-63" d="M632.6,505.69l8.37,1.18c.67.09.77.41.23.7l-1.94,1a4.21,4.21,0,0,1-2.21.37l-8.41-1.18c-.68-.1-.77-.41-.22-.71l2-1A4.28,4.28,0,0,1,632.6,505.69Z"/><path class="cls-63" d="M619.72,503.87l8.42,1.19c.68.09.78.41.22.71l-2,1a4.37,4.37,0,0,1-2.23.36L615.72,506c-.68-.09-.78-.41-.22-.7l2-1A4.42,4.42,0,0,1,619.72,503.87Z"/><path class="cls-63" d="M740.1,514.68l8,1.13c.64.09.77.4.28.69l-5.26,3.12A3.73,3.73,0,0,1,741,520l-8-1.13c-.65-.09-.77-.4-.27-.7L738,515A3.73,3.73,0,0,1,740.1,514.68Z"/><path class="cls-63" d="M727.74,512.92l8,1.14c.64.09.76.4.27.69l-5.33,3.11a3.7,3.7,0,0,1-2.08.37l-8.07-1.14c-.65-.09-.77-.4-.26-.7l5.38-3.11A3.79,3.79,0,0,1,727.74,512.92Z"/><path class="cls-63" d="M715.3,511.15l8.06,1.15c.65.09.76.4.26.69l-5.39,3.11a3.77,3.77,0,0,1-2.09.37L708,515.32c-.65-.09-.77-.4-.25-.7l5.44-3.11A3.85,3.85,0,0,1,715.3,511.15Z"/><path class="cls-63" d="M702.81,509.37l8.1,1.16c.65.09.76.4.25.69l-5.45,3.11a3.87,3.87,0,0,1-2.12.37l-8.15-1.16c-.66-.09-.77-.4-.26-.69l5.52-3.12A3.91,3.91,0,0,1,702.81,509.37Z"/><path class="cls-63" d="M690.25,507.59l8.14,1.16c.65.09.77.4.25.69l-5.53,3.11a3.89,3.89,0,0,1-2.13.37l-8.2-1.16c-.66-.09-.77-.41-.24-.7l5.58-3.12A3.9,3.9,0,0,1,690.25,507.59Z"/><path class="cls-63" d="M677.63,505.79l8.18,1.17c.66.09.76.4.24.69l-5.59,3.11a4,4,0,0,1-2.15.37L670.07,510c-.67-.09-.77-.41-.24-.7l5.65-3.11A4.07,4.07,0,0,1,677.63,505.79Z"/><path class="cls-63" d="M664.93,504l8.23,1.16c.66.1.77.41.24.7L667.73,509a4.11,4.11,0,0,1-2.16.36l-8.29-1.17c-.66-.1-.77-.41-.23-.7l5.72-3.12A4,4,0,0,1,664.93,504Z"/><path class="cls-63" d="M652.18,502.17l8.27,1.18c.66.09.76.4.23.69l-5.74,3.12a4.16,4.16,0,0,1-2.18.36l-8.33-1.18c-.67-.09-.77-.41-.23-.7l5.8-3.11A4.08,4.08,0,0,1,652.18,502.17Z"/><path class="cls-63" d="M639.35,500.35l8.32,1.18c.66.09.76.41.22.7l-5.8,3.11a4.21,4.21,0,0,1-2.21.36l-8.37-1.18c-.68-.1-.77-.41-.22-.7l5.86-3.12A4.18,4.18,0,0,1,639.35,500.35Z"/><path class="cls-63" d="M797.1,505.74,819.64,509c.61.09.74.39.29.67l-4.81,3a3.24,3.24,0,0,1-1.93.35l-22.69-3.28c-.62-.09-.75-.4-.29-.68l4.94-3A3.42,3.42,0,0,1,797.1,505.74Z"/><path class="cls-63" d="M646.61,483.78l24,3.5c.65.1.75.4.23.68l-5.6,3a3.92,3.92,0,0,1-2.14.34l-24.16-3.49c-.66-.1-.76-.41-.22-.69l5.75-3A4.18,4.18,0,0,1,646.61,483.78Z"/><path class="cls-63" d="M692.34,484l8,1.17c.63.1.74.4.24.67l-6.45,3.52a3.83,3.83,0,0,1-2.09.33l-8-1.17c-.65-.1-.75-.4-.24-.67l6.51-3.53A3.94,3.94,0,0,1,692.34,484Z"/><path class="cls-63" d="M780.31,496.94l12.28,1.8c.61.1.74.39.28.67L787,502.93a3.48,3.48,0,0,1-2,.34l-12.38-1.81c-.62-.09-.75-.39-.28-.67l6-3.52A3.48,3.48,0,0,1,780.31,496.94Z"/><path class="cls-63" d="M704.2,485.73l12.68,1.87c.63.09.75.39.25.67l-6.34,3.52a3.76,3.76,0,0,1-2.07.33l-12.78-1.86c-.65-.1-.76-.4-.25-.68l6.44-3.52A4,4,0,0,1,704.2,485.73Z"/><path class="cls-63" d="M763.08,494.4l12.38,1.82c.62.1.74.39.28.67l-6,3.52a3.54,3.54,0,0,1-2,.34l-12.47-1.83c-.63-.09-.75-.39-.27-.67l6.07-3.52A3.6,3.6,0,0,1,763.08,494.4Z"/><path class="cls-63" d="M767.69,500.73l-54.71-8c-.69-.09-.87-.39-.4-.65L719,488.5a3.88,3.88,0,0,1,2.06-.28l54.27,8Z"/><path class="cls-63" d="M659.46,482l-9.06-1.33c-.53-.07-.61-.32-.18-.55l2.75-1.43a3.32,3.32,0,0,1,1.75-.27l9,1.33c.53.08.61.32.18.55l-2.72,1.43A3.29,3.29,0,0,1,659.46,482Z"/><path class="cls-63" d="M672.07,483.88l-9-1.32c-.54-.08-.62-.33-.19-.55l2.72-1.44a3.35,3.35,0,0,1,1.74-.26l9,1.32c.53.07.62.32.19.54l-2.69,1.44A3.22,3.22,0,0,1,672.07,483.88Z"/><path class="cls-63" d="M684.51,485.7l-9-1.31c-.53-.08-.62-.33-.19-.55L678,482.4a3.28,3.28,0,0,1,1.72-.26l8.93,1.31c.52.08.61.32.19.55l-2.66,1.43A3.15,3.15,0,0,1,684.51,485.7Z"/><path class="cls-63" d="M667.28,486.43l-9.06-1.32c-.53-.08-.62-.33-.19-.55l2.74-1.45a3.32,3.32,0,0,1,1.75-.27l9,1.32c.53.08.62.33.19.55L669,486.16A3.27,3.27,0,0,1,667.28,486.43Z"/><path class="cls-63" d="M554.94,402.2l160.95.84c3.15,0,6.22,3.29,7.56,6.95l46.81,129.58c.66,1.78,2.44,8.65-4.21,7L590.27,515.51,548.43,406.89C546.68,401.46,553.66,402.21,554.94,402.2Z"/><path class="cls-46" d="M549.62,404.23l164.63.76a4.21,4.21,0,0,1,3.43,2.77l49.56,136.37c.66,1.78-.43,3-2.13,2.3L588.94,515.28a4.67,4.67,0,0,1-2.46-2.41l-38.05-106C547.81,405.43,548.34,404.24,549.62,404.23Z"/><path class="cls-69" d="M748,491.5c-.66,0-34.74,13.15-74.35-18.12-41.72-32.93-54.46-3.67-69.47,2.12-3.07,1.19-19.81,11.15-31.06.2l-24.66-68.81c-.62-1.46-.09-2.65,1.19-2.66l164.63.76a4.21,4.21,0,0,1,3.43,2.77Z"/><polygon class="cls-70" points="713.28 411.56 556.34 410.83 591.49 509.54 758.43 535.94 713.28 411.56"/></g><g id="blue-hand"><path class="cls-24" d="M131,410.4c13,5.77,26.32,9.56,48.73,14.16s30.71,6.42,32.68,9.72,8.28,6.4,9.36,8.83,3.66,9.41,5.31,11.41-1.3,3.42-2.31,2.55a6.53,6.53,0,0,0,1.62,4.32c1.75,2-5.82,2.09-6.51-1.79a17.51,17.51,0,0,0,.88,4.32c.68,1.64-4.18,2.83-7.43-3.95s-11.41-11.19-11.41-11.19-1.85-.53-.38,3.25,7.14,7.58,7.08,10.82-10.07-3.87-14.23-9-14.45-4.79-24.84-12.36-21.71,3.7-59.2-6.59C94,430.41,109.8,401,131,410.4Z"/><path class="cls-71" d="M227,454.52c-1.65-2-4.24-9-5.31-11.41-.61-1.38-2.9-3-5.13-4.69-6.89,8-16.74,9.74-26.25,5.66l-.12,0,0,0c-.51.05-1,.1-1.54.13a27.59,27.59,0,0,1-10.37-.86c-4.09-1.12-7.65-3.4-11.54-5a59.88,59.88,0,0,0-18.2-4.25c-6-.3-14.43.8-21.47.29-8.22-.59-16.3-2.35-23.21-7.19l-.27-.21c.21,3.64,2.26,6.74,6.73,8,37.49,10.29,48.81-1,59.2,6.59s20.69,7.22,24.84,12.36,14.16,12.24,14.23,9-5.6-7-7.08-10.82.38-3.25.38-3.25,8.17,4.41,11.41,11.19,8.11,5.59,7.43,3.95a17.51,17.51,0,0,1-.88-4.32c.69,3.88,8.26,3.8,6.51,1.79a6.53,6.53,0,0,1-1.62-4.32C225.74,457.94,228.7,456.51,227,454.52Z"/></g></g></g></g></svg>