<svg xmlns="http://www.w3.org/2000/svg" xmlns:xlink="http://www.w3.org/1999/xlink" viewBox="0 0 1920 1080"><defs><style>.cls-1{isolation:isolate;}.cls-2{fill:#d7f0f7;}.cls-10,.cls-11,.cls-12,.cls-13,.cls-14,.cls-15,.cls-3,.cls-4,.cls-5,.cls-6,.cls-7,.cls-8,.cls-9{opacity:0.7;}.cls-3{fill:url(#linear-gradient);}.cls-4{fill:url(#linear-gradient-2);}.cls-5{fill:url(#linear-gradient-3);}.cls-6{fill:url(#linear-gradient-4);}.cls-7{fill:url(#linear-gradient-5);}.cls-8{fill:url(#linear-gradient-6);}.cls-9{fill:url(#linear-gradient-7);}.cls-10{fill:url(#linear-gradient-8);}.cls-11{fill:url(#linear-gradient-9);}.cls-12{fill:url(#linear-gradient-10);}.cls-13{fill:url(#linear-gradient-11);}.cls-14{fill:url(#linear-gradient-12);}.cls-15{fill:url(#linear-gradient-13);}.cls-16,.cls-21,.cls-22{fill:#a6dff2;}.cls-17{fill:#fff;}.cls-18{fill:none;}.cls-19{fill:#589fe0;}.cls-20{fill:#1a79db;}.cls-21,.cls-24,.cls-25,.cls-26,.cls-27{mix-blend-mode:multiply;}.cls-21{opacity:0.6;}.cls-22,.cls-28,.cls-29{mix-blend-mode:soft-light;opacity:0.5;}.cls-23{fill:#cba872;}.cls-24{fill:url(#linear-gradient-14);}.cls-25{fill:url(#linear-gradient-15);}.cls-26{fill:url(#linear-gradient-16);}.cls-27{fill:url(#linear-gradient-17);}.cls-28{fill:url(#linear-gradient-18);}.cls-29{fill:url(#linear-gradient-19);}</style><linearGradient id="linear-gradient" x1="1341.57" y1="-16216.88" x2="1341.57" y2="-16109.57" gradientTransform="matrix(1, 0, 0, -1, 0, -15302)" gradientUnits="userSpaceOnUse"><stop offset="0.52" stop-color="#f6e8cc" stop-opacity="0"/><stop offset="0.82" stop-color="#fff"/></linearGradient><linearGradient id="linear-gradient-2" x1="1611.72" y1="-16180.77" x2="1611.72" y2="-16073.46" xlink:href="#linear-gradient"/><linearGradient id="linear-gradient-3" x1="712.87" y1="-16208.2" x2="712.87" y2="-16046.03" xlink:href="#linear-gradient"/><linearGradient id="linear-gradient-4" x1="1615.5" y1="-16301.87" x2="1615.5" y2="-16066.18" gradientTransform="matrix(1, 0, 0, -1, 0, -15302)" gradientUnits="userSpaceOnUse"><stop offset="0.19" stop-color="#fff" stop-opacity="0"/><stop offset="0.82" stop-color="#fff"/></linearGradient><linearGradient id="linear-gradient-5" x1="970.45" y1="-16281.07" x2="970.45" y2="-16045.38" xlink:href="#linear-gradient-4"/><linearGradient id="linear-gradient-6" x1="5810.39" y1="-16248.77" x2="5810.39" y2="-16013.08" gradientTransform="translate(6115.67 -15302) rotate(180)" xlink:href="#linear-gradient-4"/><linearGradient id="linear-gradient-7" x1="863.19" y1="-15683.53" x2="863.19" y2="-15718.5" gradientTransform="matrix(1, 0, 0, -1, 0, -15302)" gradientUnits="userSpaceOnUse"><stop offset="0" stop-color="#fff"/><stop offset="0.09" stop-color="#fff" stop-opacity="0.97"/><stop offset="0.22" stop-color="#fff" stop-opacity="0.89"/><stop offset="0.38" stop-color="#fff" stop-opacity="0.75"/><stop offset="0.56" stop-color="#fff" stop-opacity="0.57"/><stop offset="0.76" stop-color="#fff" stop-opacity="0.33"/><stop offset="0.97" stop-color="#fff" stop-opacity="0.04"/><stop offset="1" stop-color="#fff" stop-opacity="0"/></linearGradient><linearGradient id="linear-gradient-8" x1="267.4" y1="-15491.77" x2="267.4" y2="-15512.38" xlink:href="#linear-gradient-7"/><linearGradient id="linear-gradient-9" x1="1769.7" y1="-15459.42" x2="1769.7" y2="-15490.47" xlink:href="#linear-gradient-7"/><linearGradient id="linear-gradient-10" x1="355.53" y1="607.57" x2="355.53" y2="699.44" gradientTransform="matrix(-1, 0, 0, 1, 1922, 0)" gradientUnits="userSpaceOnUse"><stop offset="0" stop-color="#fff"/><stop offset="0.18" stop-color="#fff" stop-opacity="0.99"/><stop offset="0.32" stop-color="#fff" stop-opacity="0.95"/><stop offset="0.43" stop-color="#fff" stop-opacity="0.89"/><stop offset="0.54" stop-color="#fff" stop-opacity="0.8"/><stop offset="0.64" stop-color="#fff" stop-opacity="0.69"/><stop offset="0.74" stop-color="#fff" stop-opacity="0.55"/><stop offset="0.83" stop-color="#fff" stop-opacity="0.38"/><stop offset="0.92" stop-color="#fff" stop-opacity="0.2"/><stop offset="1" stop-color="#fff" stop-opacity="0"/></linearGradient><linearGradient id="linear-gradient-11" x1="1505.53" y1="609.52" x2="1505.53" y2="701.39" gradientTransform="translate(764)" xlink:href="#linear-gradient-10"/><linearGradient id="linear-gradient-12" x1="93.93" y1="450.84" x2="93.93" y2="501.05" gradientTransform="translate(100.19)" xlink:href="#linear-gradient-10"/><linearGradient id="linear-gradient-13" x1="902.16" y1="450.72" x2="902.16" y2="500.93" gradientTransform="matrix(-1, 0, 0, 1, 758.04, 0)" xlink:href="#linear-gradient-10"/><linearGradient id="linear-gradient-14" x1="1272.34" y1="897.76" x2="1210.8" y2="831.12" gradientUnits="userSpaceOnUse"><stop offset="0" stop-color="#fff" stop-opacity="0"/><stop offset="0.12" stop-color="#faf7f5" stop-opacity="0.05"/><stop offset="0.3" stop-color="#eedfd9" stop-opacity="0.17"/><stop offset="0.52" stop-color="#d9b9ac" stop-opacity="0.38"/><stop offset="0.76" stop-color="#bd836d" stop-opacity="0.66"/><stop offset="1" stop-color="#9b4422"/></linearGradient><linearGradient id="linear-gradient-15" x1="1140.91" y1="865.86" x2="1209.32" y2="865.86" xlink:href="#linear-gradient-14"/><linearGradient id="linear-gradient-16" x1="1173.49" y1="857.88" x2="1326.8" y2="826.93" xlink:href="#linear-gradient-14"/><linearGradient id="linear-gradient-17" x1="1347.96" y1="907.75" x2="1251.83" y2="766.82" xlink:href="#linear-gradient-14"/><linearGradient id="linear-gradient-18" x1="1137" y1="915.04" x2="1413" y2="915.04" gradientUnits="userSpaceOnUse"><stop offset="0" stop-color="#ffc44e"/><stop offset="1" stop-color="#af3f84"/></linearGradient><linearGradient id="linear-gradient-19" x1="1178.35" y1="462.31" x2="751.33" y2="1045.36" xlink:href="#linear-gradient-18"/></defs><g class="cls-1"><g id="Layer_1" data-name="Layer 1"><g id="sky"><polyline id="sky-2" data-name="sky" class="cls-2" points="0.57 116.2 0.57 0 1920 0 1920 1075.6 0.57 1075.6 0.57 116.2"/></g><g id="clouds"><g id="cloud10"><path class="cls-3" d="M1433.81,858a10.73,10.73,0,0,0,.5-3.26c0-7.14-7-12.93-15.66-12.93a17.43,17.43,0,0,0-2.3.14c-1.78-11.2-13-19.92-26.91-20.48-4.47-8.21-14.46-13.93-26.07-13.93-15.77,0-28.57,10.56-28.57,23.6,0,.32,0,.63,0,1a27.62,27.62,0,0,0-4.21-.32c-12.17,0-22.14,7.77-23,17.64h-.11l.07,10.74c-.28,0-.56-.07-.85-.07a11.9,11.9,0,0,0-1.34.08c-1-6.49-7.57-11.55-15.61-11.88-2.59-4.76-8.39-8.08-15.12-8.08-9.15,0-16.58,6.13-16.58,13.69,0,.19,0,.37,0,.55a16.43,16.43,0,0,0-2.45-.18c-7.06,0-12.84,4.51-13.36,10.23h-.06l.25,38h65.4l.08,12.38h133V864.47C1441,861.09,1437.81,858.31,1433.81,858Z"/></g><g id="clooud9"><path class="cls-4" d="M1704,821.91a11.05,11.05,0,0,0,.5-3.26c0-7.14-7-12.93-15.66-12.93a19.49,19.49,0,0,0-2.31.14c-1.77-11.19-13-19.92-26.91-20.48-4.47-8.21-14.46-13.92-26.07-13.92-15.77,0-28.57,10.56-28.57,23.6,0,.31,0,.63,0,.94a27.85,27.85,0,0,0-4.22-.32c-12.17,0-22.14,7.78-23,17.64h-.11l.07,10.75a7.93,7.93,0,0,0-.84-.07,10,10,0,0,0-1.35.08c-1-6.5-7.56-11.56-15.61-11.89-2.59-4.76-8.39-8.07-15.12-8.07-9.15,0-16.57,6.13-16.57,13.69,0,.18,0,.37,0,.55a16.32,16.32,0,0,0-2.45-.19c-7.06,0-12.84,4.52-13.36,10.23h-.06l.26,38H1578l.08,12.38h133V828.35C1711.1,825,1708,822.2,1704,821.91Z"/></g><path class="cls-5" d="M802.94,820.28a16.57,16.57,0,0,0,.75-4.92c0-10.8-10.59-19.55-23.66-19.55a28.69,28.69,0,0,0-3.49.21c-2.68-16.92-19.71-30.1-40.66-30.94C729.12,752.67,714,744,696.48,744c-23.84,0-43.17,16-43.17,35.66,0,.48,0,.95,0,1.43a41.6,41.6,0,0,0-6.37-.49c-18.39,0-33.46,11.76-34.8,26.66l-.17,0,.68,98.89H813.73V830C813.73,824.9,809,820.71,802.94,820.28Z"/><g id="cloud8"><path class="cls-6" d="M1904.3,875a23.65,23.65,0,0,0,1.1-7.15c0-15.69-15.39-28.4-34.39-28.4a42.23,42.23,0,0,0-5.07.3c-3.9-24.58-28.65-43.74-59.1-45-9.82-18-31.76-30.59-57.25-30.59-34.66,0-62.74,23.21-62.74,51.83,0,.7,0,1.39.05,2.08a61.28,61.28,0,0,0-9.27-.7c-26.73,0-48.62,17.07-50.57,38.74l-.25,0,0,2.29a46,46,0,0,0-23.43-6.24,49.57,49.57,0,0,0-7.38.56c0-.55,0-1.1,0-1.65,0-22.78-22.36-41.25-49.94-41.25-20.29,0-37.75,10-45.57,24.34-24.23,1-43.93,16.23-47,35.79a35.78,35.78,0,0,0-4-.24c-11.26,0-20.92,5.62-25.12,13.65-1.95-11.57-13.63-20.56-28-21.14-4.65-8.55-15.06-14.5-27.15-14.5-16.43,0-29.75,11-29.75,24.58,0,.33,0,.66,0,1a30.06,30.06,0,0,0-4.4-.33c-12.67,0-23,8.1-24,18.37l-.12,0,.48,68.15h99v37.9h217.29v2.44H1920V889.14C1920,881.72,1913.1,875.62,1904.3,875Z"/></g><g id="cloud7"><path class="cls-7" d="M1259.25,854.2a23.69,23.69,0,0,0,1.1-7.15c0-15.69-15.39-28.41-34.39-28.41a40.25,40.25,0,0,0-5.07.31c-3.9-24.59-28.65-43.75-59.1-45-9.82-18-31.76-30.59-57.25-30.59-34.66,0-62.74,23.21-62.74,51.84,0,.69,0,1.38,0,2.07a61.28,61.28,0,0,0-9.27-.7c-26.73,0-48.62,17.08-50.57,38.74l-.25,0,0,2.28a46,46,0,0,0-23.43-6.23A49.58,49.58,0,0,0,951,832c0-.55,0-1.09,0-1.65,0-22.78-22.35-41.25-49.93-41.25-20.29,0-37.75,10-45.57,24.35-24.24,1-43.93,16.22-47,35.79a33.58,33.58,0,0,0-4-.25c-11.26,0-20.93,5.62-25.12,13.66-2-11.57-13.63-20.56-28-21.14-4.65-8.56-15.06-14.51-27.15-14.51-16.43,0-29.75,11-29.75,24.58,0,.33,0,.66,0,1a28.74,28.74,0,0,0-4.4-.33c-12.67,0-23,8.09-24,18.37h-.12l.48,68.16h99v37.9H982.74v2.43H1275V868.35C1275,860.92,1268.05,854.83,1259.25,854.2Z"/></g><g id="cloud6"><path class="cls-8" d="M16.47,821.89a24,24,0,0,1-1.09-7.15c0-15.69,15.39-28.4,34.39-28.4a42.35,42.35,0,0,1,5.07.3c3.9-24.58,28.64-43.74,59.1-45,9.82-18,31.76-30.59,57.25-30.59,34.65,0,62.74,23.21,62.74,51.83,0,.7,0,1.39-.05,2.08a61.18,61.18,0,0,1,9.27-.7c26.73,0,48.62,17.07,50.57,38.74l.25,0,0,2.29a46,46,0,0,1,23.43-6.24,49.68,49.68,0,0,1,7.38.56c0-.55-.05-1.1-.05-1.65,0-22.78,22.36-41.25,49.94-41.25,20.29,0,37.75,10,45.56,24.34,24.24,1,43.94,16.23,47,35.79a35.6,35.6,0,0,1,4-.24c11.27,0,20.93,5.62,25.13,13.65,1.95-11.57,13.63-20.56,28-21.14,4.66-8.55,15.06-14.5,27.15-14.5,16.44,0,29.76,11,29.76,24.58,0,.33,0,.66,0,1a30,30,0,0,1,4.39-.33c12.68,0,23.06,8.1,24,18.37l.11,0-.47,68.15h-99v37.9H293l0,2.44H.78V836C.78,828.62,7.68,822.52,16.47,821.89Z"/></g><g id="cloud3"><path class="cls-9" d="M961.28,409.08s.16-27.55-24.62-27.55-23.79,22.68-23.79,22.68-3.7-12.94-19.51-11.46c-18.11,1.7-16.78,16.33-16.78,16.33s-3.78-11.49-21.92-8.17a16.47,16.47,0,0,0-13.16,12.25s-6.19-14.82-19.77-15.3c-18.93-.69-27.17,16.32-27.17,16.32l-63,6.12,263.21-4.08Z"/></g><g id="cloud1"><path class="cls-10" d="M325.23,206s.09-16.24-14.52-16.24-14,13.37-14,13.37-2.19-7.63-11.5-6.75c-10.68,1-9.9,9.62-9.9,9.62s-2.22-6.78-12.91-4.82a9.72,9.72,0,0,0-7.77,7.22s-3.65-8.73-11.65-9C231.8,199,227,209,227,209l-37.13,3.61L345,210.22Z"/></g><g id="cloud2"><path class="cls-11" d="M1856.8,181.87s.14-24.45-21.86-24.45-21.12,20.13-21.12,20.13-3.29-11.49-17.33-10.17c-16.08,1.51-14.9,14.49-14.9,14.49s-3.36-10.2-19.46-7.25a14.63,14.63,0,0,0-11.69,10.88s-5.5-13.16-17.55-13.59c-16.81-.61-24.12,14.49-24.12,14.49l-55.93,5.44,233.72-3.63Z"/></g><g id="cloud5"><path class="cls-12" d="M1918,597.64s-1.27-2.88-1.28-2.89c-12.24-33-89.87-10.44-110.83,4.39-15.36,10.87-32,26.88-51.27,21.89-6.77-1.75-12.14-5.93-18-9.25-22.35-12.62-54.52-11.84-75.92,1.85-13.39,8.56-24.48,22.11-41.38,22.77-9.37.37-18.29-3.55-27.66-3.85-22.24-.72-37.3,17.68-56,27.66-20.77,11.08-39.13,7.55-61.53,4.59-19.87-2.64-40.83-.29-60.92,1.41-28.12,2.38-58.28,11.16-86.37,11.19C1321.55,677.4,1215,692,1215,692s83.69,11.64,127.75,8,22.26-3.92,62.37,0,85.21,13.83,103,12.37-9.27.29,55.38.15,69.18,8,133,7.5,70.13-14.93,109.25-20,112.25,2,112.25,2V597.64Z"/><path class="cls-13" d="M1918,599.59s1.27-2.88,1.28-2.89c12.24-33,89.87-10.44,110.83,4.39,15.36,10.87,32,26.88,51.27,21.89,6.77-1.75,12.14-5.93,18-9.25,22.35-12.62,54.52-11.84,75.92,1.85,13.39,8.56,24.48,22.11,41.38,22.78,9.37.36,18.29-3.56,27.66-3.86,22.24-.72,37.3,17.68,56,27.66,20.77,11.08,39.13,7.56,61.53,4.59,19.87-2.64,40.83-.29,60.92,1.41,28.12,2.38,58.28,11.16,86.37,11.19,5.29,0,111.89,14.56,111.89,14.56s-83.69,11.63-127.75,8-22.26-3.92-62.37,0-85.21,13.83-103,12.37,9.27.29-55.38.15-69.18,8-133,7.5-70.13-14.93-109.25-20-112.25,2-112.25,2V599.59Z"/></g><g id="cloud4"><path class="cls-14" d="M2,445.42s.7-1.57.7-1.58c6.69-18,49.12-5.71,60.57,2.4,8.4,5.94,17.47,14.69,28,12,3.7-1,6.64-3.24,9.84-5.05,12.21-6.9,29.79-6.47,41.49,1,7.32,4.68,13.38,12.08,22.62,12.44,5.12.2,10-1.94,15.12-2.1,12.15-.4,20.38,9.66,30.6,15.11,11.35,6.06,21.38,4.13,33.62,2.51,10.87-1.44,22.32-.16,33.3.77,15.37,1.3,31.85,6.1,47.2,6.12,2.89,0,61.15,7.95,61.15,7.95s-45.74,6.36-69.81,4.38-12.17-2.15-34.09,0S235.76,508.9,226,508.1s5.07.16-30.26.08-37.81,4.35-72.7,4.1-38.32-8.16-59.7-10.94S2,502.41,2,502.41v-57Z"/><path class="cls-15" d="M48,445.29l-.7-1.57c-6.69-18.05-49.12-5.71-60.57,2.39-8.4,5.94-17.47,14.7-28,12-3.7-1-6.64-3.25-9.84-5.06-12.21-6.9-29.79-6.47-41.49,1-7.32,4.68-13.38,12.09-22.62,12.45-5.12.2-10-1.94-15.12-2.11-12.15-.39-20.38,9.67-30.6,15.12-11.35,6.05-21.38,4.13-33.62,2.51-10.87-1.44-22.32-.16-33.3.77-15.37,1.3-31.85,6.1-47.2,6.11-2.89,0-61.15,8-61.15,8s45.74,6.36,69.81,4.37,12.17-2.14,34.09,0,46.57,7.56,56.32,6.77-5.07.16,30.26.08,37.81,4.35,72.7,4.09,38.32-8.15,59.7-10.94S48,502.28,48,502.28v-57Z"/></g></g><g id="buildings"><path id="buildings-2" data-name="buildings" class="cls-16" d="M.56,917.16,15,918.53v20.58l1.36-1.83,6-5.89,1.53-.63,1.86-7L26.9,931l3.64-.06v8.41l7.54,9.48v12.35l7,5.37v19.54H57.74l9.67,3.09V962H87.58v8.8h5.25v9.6h26.78v64.81h16.1v4.8h22.72v9.44h7.12v-58.14h25.93v4h26.61v6.85H230V994.66l15.08,7.42v-7.42l19.15,8v-29l13.06,10h35.59V934.84H320v-13H367.7v14.63h6.78v23.31h7.91v49.68H391V971.57H586v31.73H691.11s15-9.34,29.06-9.62c0,0,15.42,19,11.43,37.21h20.15l7.76-13.16h7.13V968.49h34v2.22h-5.8v5.1h7.41v49h11V993.63h3.78V980.52h5.18v-3.39h6.43v-2.08h5.73v2.08h4.41V938.36h5.88v-66.5h10V750.32h4v-30h1.68v-30h1.12L863,651l1,39.24h2V701.9h3v59.25h3.47V789.7h5.14v24.06h3.91v80.17h3.85V959h6.72v42.58h18V954.35h17.2V901.43h7.14V889.69h47.84v12h9.86v77.4h32.45V940.34l7.83-5.28v-7.74h19.87v10.94h11.75V989s14.54,10.38,14.54,23.39h18.19v-6.22h22.94v-8.3h4.75v-8.12H1145v8.4h4v14.05h3.92V991.37H1157v-5.94h11.47V970.81H1195v14.24h151.77L1510,1043.34V945.43l16.79-19v-6.22h2.1v6.22L1548,945.72v94.6h19.37V962.41H1620v77.25l18.67,4.39v-8.21h22v-8.35h39V1033h6.92V1025h8.4l7.76-5.24h14.69V1024h15.31v8.77h15.11v-20.8h18v23.63h24.75V1023h22.87v10.33h25.81v-9.77h12.17v-9.48H1920v61.55H.56Z"/></g><path class="cls-17" d="M435.76,1054.13c-2.59,14-13.8,21-14.51,21.47Z"/><line class="cls-18" x1="421.26" y1="1075.57" x2="421.22" y2="1075.6"/><rect class="cls-19" x="0.56" y="1058.31" width="1919.44" height="22.29"/><polygon class="cls-20" points="243.56 1080.6 302.73 1058.31 870.5 1058.31 920.86 1080.6 243.56 1080.6"/><g id="svg-oman-tower"><polygon class="cls-16" points="734.61 562.84 734.61 605.82 724.37 605.82 716.22 605.82 704.35 605.82 696.19 605.82 684.35 605.82 675.1 605.82 663.23 605.82 654 605.82 654 562.84 665.24 562.84 677.15 562.84 677.15 562.87 699.64 562.87 699.64 562.84 706.82 562.84 734.61 562.84"/><path class="cls-16" d="M699.64,1031.28h16.57V697.86c0-6-3.7-10.77-8.27-10.77s-8.3,4.81-8.3,10.77Zm24.73,8.2H654V605.82h9.23v32.67H675.1V605.82h9.25v32.67h11.84V605.82h8.16v32.67h11.86V605.82h8.16Zm-61.74-8.2h22.82V701.9c0-8.17-5.09-14.81-11.41-14.81s-11.41,6.64-11.41,14.81Z"/><path class="cls-16" d="M716.21,697.86v333.42H699.64V697.86c0-6,3.71-10.77,8.3-10.77S716.21,691.9,716.21,697.86Z"/><rect class="cls-16" x="704.35" y="605.82" width="11.86" height="32.67"/><polygon class="cls-16" points="714.68 332.02 714.68 371.12 706.82 371.12 706.82 371.08 654 371.08 654 332.02 700 332.02 714.68 332.02"/><path class="cls-16" d="M706.81,371.12V562.84h-7.17V481.57c0-8.07-5-14.59-11.24-14.59s-11.25,6.52-11.25,14.59v81.27H665.24V481.57c0-8.07-5-14.59-11.24-14.59V395.8h4.62V371.12h8.25V395.8h11.6V371.12h9.93V395.8H700V371.12Z"/><rect class="cls-16" x="688.4" y="371.12" width="11.6" height="24.69"/><polygon class="cls-16" points="700 318.01 700 332.02 654 332.02 654 318.01 688.4 318.01 700 318.01"/><rect class="cls-16" x="677.15" y="562.84" width="22.48" height="0.03"/><path class="cls-16" d="M699.64,481.57v81.27H677.15V481.57c0-8.07,5.05-14.59,11.25-14.59S699.64,473.5,699.64,481.57Z"/><ellipse class="cls-16" cx="654.01" cy="172.16" rx="5.58" ry="7.25"/><rect class="cls-16" x="684.35" y="605.82" width="11.84" height="32.67"/><rect class="cls-16" x="654" y="309.2" width="34.4" height="8.82"/><polygon class="cls-16" points="688.4 229.57 688.4 240.01 681.82 240.01 654 240.01 654 229.57 688.4 229.57"/><path class="cls-16" d="M685.45,701.9v329.38H662.63V701.9c0-8.17,5.12-14.81,11.41-14.81S685.45,693.73,685.45,701.9Z"/><path class="cls-16" d="M684.35,229.54H654V172.16S684.35,177.13,684.35,229.54Z"/><rect class="cls-16" x="666.87" y="371.12" width="11.6" height="24.69"/><rect class="cls-16" x="663.23" y="605.82" width="11.86" height="32.67"/><path class="cls-16" d="M672.68,252.52v44c0,2.52-1.58,4.54-3.51,4.54s-3.52-2-3.52-4.54v-44c0-2.51,1.58-4.56,3.52-4.56S672.68,250,672.68,252.52Z"/><polygon class="cls-16" points="654 371.08 706.82 371.08 706.82 371.12 700 371.12 688.4 371.12 678.47 371.12 666.87 371.12 658.62 371.12 654 371.12 654 371.08"/><rect class="cls-16" x="654" y="371.12" width="4.62" height="24.69"/><path class="cls-16" d="M654,467c6.22,0,11.24,6.52,11.24,14.59v81.27H654Z"/><path class="cls-16" d="M669.17,301c1.93,0,3.51-2,3.51-4.54v-44c0-2.51-1.58-4.56-3.51-4.56s-3.52,2-3.52,4.56v44C665.65,299,667.23,301,669.17,301ZM654,240h27.82v69.15H654V301c1.94,0,3.52-2,3.52-4.57V252.52c0-2.51-1.58-4.56-3.52-4.56Z"/><path class="cls-16" d="M654,1039.48H583.6V605.82h8.16v32.67h11.87V605.82h8.15v32.67h11.87V605.82h9.23v32.67h11.86V605.82H654Zm-62.24-8.2h16.58V697.86c0-6-3.71-10.77-8.28-10.77s-8.3,4.81-8.3,10.77Zm30.76,0h22.82V701.9c0-8.17-5.12-14.81-11.41-14.81s-11.41,6.64-11.41,14.81Z"/><polygon class="cls-16" points="654 562.84 654 605.82 644.74 605.82 632.88 605.82 623.65 605.82 611.78 605.82 603.63 605.82 591.76 605.82 583.61 605.82 573.39 605.82 573.39 562.84 601.18 562.84 608.34 562.84 608.34 562.87 630.82 562.87 630.82 562.84 642.76 562.84 654 562.84"/><polygon class="cls-16" points="617.71 562.84 617.71 605.82 612.62 605.82 606.1 605.82 601.02 605.82 594.5 605.82 590.01 605.82 583.49 605.82 579.01 605.82 573.39 605.82 573.39 562.84 588.67 562.84 592.61 562.84 592.61 562.87 604.97 562.87 604.97 562.84 611.53 562.84 617.71 562.84"/><path class="cls-16" d="M653.52,172.32c-3.09,1.19-20,9.59-20,57.23h-9.91C623.64,181.06,649.62,173.17,653.52,172.32Z"/><path class="cls-16" d="M654.48,172.32c3.09,1.19,20,9.59,20,57.23h9.91C684.36,181.06,658.38,173.17,654.48,172.32Z"/><path class="cls-16" d="M654,172.17v57.38H633.55c0-47.64,16.88-56,20-57.23a1.65,1.65,0,0,0,.26-.08Z"/><path class="cls-16" d="M650.48,252.52c0-2.51,1.58-4.56,3.52-4.56s3.52,2,3.52,4.56v43.94c0,2.52-1.58,4.57-3.52,4.57s-3.52-2-3.52-4.57Z"/><path class="cls-16" d="M642.76,481.57c0-8.07,5-14.59,11.24-14.59v95.86H642.76Z"/><rect class="cls-16" x="649.36" y="371.12" width="4.62" height="24.69"/><polygon class="cls-16" points="653.98 332.02 653.98 371.08 601.18 371.08 601.18 371.12 593.29 371.12 593.29 332.02 607.98 332.02 653.98 332.02"/><polygon class="cls-16" points="617.71 332.02 617.71 371.08 596.47 371.08 596.47 371.12 593.29 371.12 593.29 332.02 599.2 332.02 617.71 332.02"/><polygon class="cls-16" points="653.98 318.01 653.98 332.02 607.98 332.02 607.98 318.01 619.58 318.01 653.98 318.01"/><rect class="cls-16" x="619.58" y="309.2" width="34.4" height="8.82"/><polygon class="cls-16" points="653.98 229.57 653.98 240.01 626.18 240.01 619.58 240.01 619.58 229.57 653.98 229.57"/><path class="cls-16" d="M645.34,701.9v329.38H622.52V701.9c0-8.17,5.12-14.81,11.41-14.81S645.34,693.73,645.34,701.9Z"/><rect class="cls-16" x="632.88" y="605.82" width="11.86" height="32.67"/><path class="cls-16" d="M642.33,252.52v44c0,2.52-1.58,4.54-3.52,4.54s-3.52-2-3.52-4.54v-44c0-2.51,1.58-4.56,3.52-4.56S642.33,250,642.33,252.52Z"/><rect class="cls-16" x="629.51" y="371.12" width="11.6" height="24.69"/><path class="cls-16" d="M654,309.16H626.18V240H654v8c-1.94,0-3.52,2-3.52,4.56v43.94c0,2.52,1.58,4.57,3.52,4.57ZM638.81,248c-1.94,0-3.52,2-3.52,4.56v44c0,2.52,1.58,4.54,3.52,4.54s3.52-2,3.52-4.54v-44C642.33,250,640.75,248,638.81,248Z"/><rect class="cls-16" x="608.34" y="562.84" width="22.48" height="0.03"/><path class="cls-16" d="M630.82,481.57v81.27H608.34V481.57c0-8.07,5-14.59,11.24-14.59S630.82,473.5,630.82,481.57Z"/><rect class="cls-16" x="611.78" y="605.82" width="11.86" height="32.67"/><rect class="cls-16" x="607.98" y="371.12" width="11.6" height="24.69"/><path class="cls-16" d="M608.34,697.86v333.42H591.76V697.86c0-6,3.71-10.77,8.3-10.77S608.34,691.9,608.34,697.86Z"/><polygon class="cls-16" points="601.18 371.08 653.98 371.08 653.98 371.12 649.36 371.12 641.11 371.12 629.51 371.12 619.58 371.12 607.98 371.12 601.18 371.12 601.18 371.08"/><path class="cls-16" d="M608,371.12V395.8h11.6V371.12h9.93V395.8h11.6V371.12h8.25V395.8H654V371.09h0V467c-6.22,0-11.24,6.52-11.24,14.59v81.27H630.82V481.57c0-8.07-5.05-14.59-11.24-14.59s-11.24,6.52-11.24,14.59v81.27h-7.15V371.12Z"/><rect class="cls-16" x="591.76" y="605.82" width="11.86" height="32.67"/><rect class="cls-16" x="570" y="1039.49" width="168" height="18.61"/><rect class="cls-16" x="626.18" y="240.01" width="55.64" height="3.22"/><rect class="cls-21" x="601.19" y="371.12" width="105.63" height="7.83"/><rect class="cls-21" x="583.24" y="606.37" width="141.13" height="9.19"/><rect class="cls-21" x="583.91" y="605.82" width="34.89" height="432.82"/><rect class="cls-21" x="601.19" y="371.12" width="37.4" height="191.72"/><rect class="cls-21" x="626.18" y="240.01" width="20" height="69.16"/><rect class="cls-16" x="652.87" y="131" width="2.27" height="36.07"/><path class="cls-22" d="M579,605.82h-5.62v-43h27.8V371.12h-7.9V332H608V318h11.6V309.2H654v61.89h0V309.2h34.4V318H700v14h14.68v39.1h-7.87V562.84h27.8v43H724.37v433.66H583.6V615.56h-.36v-9.19h.36v-.55H579Zm75-376.27h30.35c0-1.63,0-3.2-.09-4.73,0-.15,0-.29,0-.43-.06-1.34-.13-2.65-.23-3.93,0-.36-.06-.7-.09-1.06-.09-1-.18-2.06-.29-3.05,0-.43-.11-.83-.16-1.25-.12-.89-.23-1.77-.37-2.62-.07-.45-.14-.88-.22-1.32-.13-.79-.28-1.57-.43-2.33l-.27-1.3c-.16-.72-.32-1.43-.49-2.12l-.33-1.27c-.17-.66-.36-1.31-.54-1.94-.13-.41-.25-.82-.37-1.21-.2-.61-.4-1.2-.6-1.79-.14-.39-.27-.77-.41-1.15-.21-.56-.42-1.1-.64-1.64-.15-.37-.3-.74-.45-1.09-.22-.52-.45-1-.68-1.51l-.48-1c-.23-.47-.47-.92-.71-1.37s-.34-.66-.51-1-.47-.82-.71-1.22a45.1,45.1,0,0,0-2.8-4.17l-.32-.43c-.33-.44-.68-.85-1-1.25l-.3-.37c-.36-.42-.72-.81-1.08-1.2-.08-.08-.16-.18-.25-.26-.38-.41-.76-.79-1.15-1.16l-.15-.15c-.42-.4-.83-.78-1.25-1.14l0,0a33.59,33.59,0,0,0-7.56-5,9,9,0,0,0,.22-1.89c0-3.5-1.91-6.42-4.45-7.1V131h-2.27v34.06c-2.54.68-4.45,3.6-4.45,7.1a9.16,9.16,0,0,0,.23,1.91c-8.72,4.15-25,17.07-25,55.48H654Zm-84,809.94v18.61H738v-18.61Zm56.18-796.26v65.93h55.64V240h6.58V229.57H654V240h0V229.57h-34.4V240h6.6Z"/></g><g id="svg-oman-door"><path class="cls-19" d="M1273.31,894.73v168.64h-29.77V909c0-14.1,1.18-32.12-4.31-42.3s-34.08-20.37-34.08-20.37-28.59,10.18-34.07,20.37c-1.93,3.55-3,8.07-3.66,13-1.15,9.26-.65,20.09-.65,29.26v154.33H1137V894.73a70.39,70.39,0,0,1,4.77-25.84c3.22-8.18,8.52-17,17.16-22.13,19.2-11.36,46.22-22.72,46.22-22.72s27,11.36,46.23,22.72c8.64,5.11,13.94,14,17.16,22.13A70.39,70.39,0,0,1,1273.31,894.73Z"/><path class="cls-19" d="M1281.63,894.73v168.64h-29.76V909c0-14.1,1.17-32.12-4.32-42.3s-34.07-20.37-34.07-20.37-28.59,10.18-34.08,20.37a37.8,37.8,0,0,0-3.65,13c-1.16,9.26-.66,20.09-.66,29.26v154.33h-29.77V894.73a70.6,70.6,0,0,1,4.77-25.84c3.22-8.18,8.53-17,17.17-22.13,19.19-11.36,46.22-22.72,46.22-22.72s27,11.36,46.22,22.72c8.64,5.11,13.94,14,17.16,22.13A70.39,70.39,0,0,1,1281.63,894.73Z"/><path class="cls-2" d="M1255.2,1060V909c0-2,0-4.19,0-6.37.15-13.16.33-28.06-4.76-37.51-5.93-11-32.85-20.84-35.9-21.92l-1.11-.4-1.12.4c-3,1.08-30,10.92-35.89,21.92-2,3.61-3.27,8.25-4,14.2-.92,7.39-.82,15.46-.73,23.27,0,2.19,0,4.34,0,6.41v151h-23.11V894.73a66.85,66.85,0,0,1,4.54-24.62c3.8-9.66,9.11-16.55,15.76-20.48,16.41-9.72,38.94-19.57,44.53-22,5.59,2.4,28.11,12.25,44.52,22,6.66,3.93,12,10.82,15.77,20.48a66.85,66.85,0,0,1,4.53,24.62V1060Z"/><path class="cls-20" d="M1251.87,909v154.33H1241.5V919.64c0-13.12,1.06-29.9-3.93-39.38s-31-19-31-19-25.19,9.16-30.78,18.49a37.8,37.8,0,0,1,3.65-13c5.49-10.19,34.08-20.37,34.08-20.37s28.59,10.18,34.07,20.37S1251.87,894.94,1251.87,909Z"/><path class="cls-16" d="M1167.49,914.33v29.38h-14.34V914.33a7.17,7.17,0,0,1,14.34,0Z"/><rect class="cls-16" x="1153.15" y="947.13" width="14.34" height="39.87"/><path class="cls-16" d="M1153.15,990.43h14.34V1027a7.17,7.17,0,0,1-14.34,0Z"/><path class="cls-16" d="M1274.14,914.33v29.38H1259.8V914.33a7.17,7.17,0,0,1,14.34,0Z"/><rect class="cls-16" x="1259.8" y="947.13" width="14.34" height="39.87"/><path class="cls-16" d="M1259.8,990.43h14.34V1027a7.17,7.17,0,1,1-14.34,0Z"/><polygon class="cls-23" points="1205.15 824.04 1213.48 824.04 1209.32 825.83 1205.15 824.04"/><path class="cls-24" d="M1237.57,880.26c3.1,5.89,3.86,14.59,4,23.49l2.09-1.37c4.85-3.07,9.81-6,14.71-9,5.53-3.37,11.11-6.68,16.75-9.87,1.71-1,3.43-1.92,5.16-2.87a67.37,67.37,0,0,0-3.42-11.79c-3.22-8.18-8.52-17-17.16-22.13-19.2-11.36-46.22-22.72-46.22-22.72h-3.15c-.06,1.17-.1,2.33-.17,3.5-.63,10.92-1.52,21.83-2.46,32.73,0,.47-.08.94-.13,1.41C1212.47,863.56,1233.17,871.9,1237.57,880.26Z"/><path class="cls-25" d="M1208.1,841.86q.7-8.91,1.22-17.82h-4.17s-27,11.36-46.22,22.72c-8.64,5.11-13.94,14-17.16,22.13-.31.77-.58,1.56-.86,2.34.81.76,1.63,1.51,2.43,2.28,8.48,8.11,16.48,16.7,24.23,25.51,2.53,2.87,5,5.76,7.51,8.66,0-8.88-.43-19.09.67-27.9,5.38-9,28.91-17.8,30.66-18.45C1207,854.84,1207.58,848.35,1208.1,841.86Zm-31.43,32.55c.26-1.14.56-2.24.9-3.29C1177.23,872.17,1176.93,873.27,1176.67,874.41Zm1.69-5.44a22.9,22.9,0,0,1,1-2.23c0-.08.1-.16.15-.25,0,.09-.11.17-.15.25A22.9,22.9,0,0,0,1178.36,869Z"/><path class="cls-23" d="M1191.15,856.65c.95-.56,1.93-1.11,2.91-1.64C1193.08,855.54,1192.1,856.09,1191.15,856.65Z"/><path class="cls-19" d="M1337.68,870v193.39h-34.14v-177c0-16.17,1.35-36.83-4.94-48.51s-39.08-23.35-39.08-23.35-32.79,11.67-39.08,23.35c-2.2,4.08-3.46,9.26-4.19,15-1.32,10.62-.75,23-.75,33.55v177h-34.13V870a80.85,80.85,0,0,1,5.46-29.63c3.7-9.38,9.78-19.51,19.69-25.37,22-13,53-26.06,53-26.06s31,13,53,26.06c9.9,5.86,16,16,19.68,25.37A80.86,80.86,0,0,1,1337.68,870Z"/><path class="cls-19" d="M1347.22,870v193.39h-34.13v-177c0-16.17,1.34-36.83-4.95-48.51s-39.07-23.35-39.07-23.35-32.79,11.67-39.08,23.35c-2.21,4.08-3.47,9.26-4.19,15-1.33,10.62-.76,23-.76,33.55v177h-34.13V870a80.86,80.86,0,0,1,5.47-29.63c3.69-9.38,9.77-19.51,19.68-25.37,22-13,53-26.06,53-26.06s31,13,53,26.06c9.91,5.86,16,16,19.68,25.37A80.66,80.66,0,0,1,1347.22,870Z"/><path class="cls-2" d="M1316.91,1059.55V886.39c0-2.35,0-4.8.06-7.31.17-15.08.37-32.18-5.46-43-6.79-12.61-37.67-23.89-41.16-25.14l-1.28-.46-1.28.46c-3.5,1.25-34.37,12.53-41.16,25.14-2.24,4.14-3.75,9.47-4.62,16.29-1.06,8.47-1,17.73-.84,26.68,0,2.52.06,5,.06,7.35v173.16h-26.5V870a76.7,76.7,0,0,1,5.2-28.23c4.36-11.07,10.45-19,18.08-23.49,18.82-11.14,44.65-22.44,51.06-25.19,6.4,2.75,32.24,14,51.06,25.19,7.63,4.51,13.71,12.42,18.07,23.49a76.7,76.7,0,0,1,5.2,28.23v189.57Z"/><path class="cls-20" d="M1313.09,886.39v177H1301.2V898.55c0-15,1.22-34.29-4.51-45.16s-35.59-21.76-35.59-21.76-28.89,10.51-35.3,21.21c.72-5.7,2-10.88,4.19-15,6.29-11.68,39.08-23.35,39.08-23.35s32.78,11.67,39.07,23.35S1313.09,870.22,1313.09,886.39Z"/><path class="cls-16" d="M1216.33,892.46v33.69h-16.45V892.46a8.23,8.23,0,0,1,16.45,0Z"/><rect class="cls-16" x="1199.88" y="930.07" width="16.45" height="45.72"/><path class="cls-16" d="M1199.88,979.73h16.45v41.88a8.23,8.23,0,0,1-16.45,0Z"/><path class="cls-16" d="M1338.63,892.46v33.69h-16.44V892.46a8.22,8.22,0,1,1,16.44,0Z"/><rect class="cls-16" x="1322.19" y="930.07" width="16.45" height="45.72"/><path class="cls-16" d="M1322.19,979.73h16.44v41.88a8.22,8.22,0,1,1-16.44,0Z"/><polygon class="cls-23" points="1259.52 788.92 1269.07 788.92 1264.29 790.98 1259.52 788.92"/><path class="cls-26" d="M1264.11,825.92c3.25-11.56,8.71-22.42,15-32.62-6.06-2.72-10-4.38-10-4.38h-9.55s-31,13-53,26.06c-9.91,5.86-16,16-19.69,25.37a80.33,80.33,0,0,0-5.42,27.81c1.18.93,2.36,1.87,3.55,2.79,2.94,2.28,5.91,4.52,8.86,6.78,2.63,2,5.2,4.14,7.89,6.07,5.37,3.86,11.24,7,16.77,10.57a79.53,79.53,0,0,1,6.56,4.7V886.39c0-10.52-.57-22.93.76-33.55.18-1.42.39-2.82.65-4.17-.26,1.35-.47,2.75-.65,4.17,6.41-10.7,35.3-21.21,35.3-21.21l1.5.57C1263,830.09,1263.52,828,1264.11,825.92Z"/><path class="cls-27" d="M1341.75,840.35c-3.69-9.38-9.77-19.51-19.68-25.37-13.78-8.16-31.07-16.31-42.08-21.27a156.73,156.73,0,0,0-9.59,17.71,102.35,102.35,0,0,0-7.12,21.05c7,2.73,28.62,11.82,33.41,20.92,5.73,10.87,4.51,30.11,4.51,45.16v2c4.13-2.85,8.2-5.81,12.28-8.74,3.6-2.58,7.21-5.16,10.87-7.65s7.47-4.8,11.23-7.18,7.73-4.78,11.64-7.09A80.61,80.61,0,0,0,1341.75,840.35Z"/><path class="cls-23" d="M1264.29,791l0,0,0,0,0,0Z"/><polygon class="cls-23" points="1318.2 766.71 1328.52 766.71 1323.36 768.93 1318.2 766.71"/><path class="cls-19" d="M1402.68,854.34v209h-36.89V872.07c0-17.48,1.45-39.81-5.35-52.43s-42.24-25.25-42.24-25.25S1282.76,807,1276,819.64c-2.38,4.4-3.74,10-4.53,16.17-1.43,11.47-.81,24.89-.81,36.26v191.3h-36.9v-209a87.42,87.42,0,0,1,5.91-32c4-10.13,10.57-21.09,21.28-27.42,23.79-14.09,57.29-28.17,57.29-28.17s33.5,14.08,57.3,28.17c10.71,6.33,17.28,17.29,21.27,27.42A87.42,87.42,0,0,1,1402.68,854.34Z"/><path class="cls-19" d="M1413,854.34v209h-36.9V872.07c0-17.48,1.46-39.81-5.34-52.43s-42.24-25.25-42.24-25.25-35.44,12.62-42.24,25.25c-2.38,4.4-3.74,10-4.53,16.17-1.43,11.47-.81,24.89-.81,36.26v191.3H1244v-209a87.42,87.42,0,0,1,5.91-32c4-10.13,10.57-21.09,21.28-27.42,23.79-14.09,57.29-28.17,57.29-28.17s33.5,14.08,57.29,28.17c10.71,6.33,17.29,17.29,21.28,27.42A87.42,87.42,0,0,1,1413,854.34Z"/><path class="cls-2" d="M1380.23,1059.24V872.07c0-2.54,0-5.19.06-7.9.2-16.3.41-34.78-5.9-46.49-7.34-13.63-40.7-25.83-44.49-27.18l-1.38-.49-1.38.49c-3.78,1.35-37.15,13.55-44.49,27.18-2.42,4.47-4.05,10.23-5,17.61-1.15,9.16-1,19.16-.92,28.83,0,2.73.07,5.39.07,8v187.17h-28.64V854.34a82.92,82.92,0,0,1,5.62-30.53c4.72-12,11.29-20.5,19.54-25.38,20.34-12,48.26-24.26,55.19-27.23,6.93,3,34.85,15.19,55.19,27.23,8.25,4.88,14.82,13.42,19.54,25.38a82.92,82.92,0,0,1,5.62,30.53v204.9Z"/><path class="cls-20" d="M1376.1,872.07v191.3h-12.85V885.22c0-16.27,1.32-37.07-4.87-48.83s-38.47-23.51-38.47-23.51-31.23,11.36-38.16,22.93c.79-6.16,2.15-11.77,4.53-16.17,6.8-12.63,42.24-25.25,42.24-25.25S1364,807,1370.76,819.64,1376.1,854.59,1376.1,872.07Z"/><path class="cls-16" d="M1271.52,878.63v36.42h-17.78V878.63a8.89,8.89,0,0,1,17.78,0Z"/><rect class="cls-16" x="1253.74" y="919.29" width="17.78" height="49.42"/><path class="cls-16" d="M1253.74,973h17.78v45.27a8.89,8.89,0,0,1-17.78,0Z"/><path class="cls-16" d="M1403.71,878.63v36.42h-17.77V878.63a8.89,8.89,0,0,1,17.77,0Z"/><rect class="cls-16" x="1385.94" y="919.29" width="17.78" height="49.42"/><path class="cls-16" d="M1385.94,973h17.77v45.27a8.89,8.89,0,0,1-17.77,0Z"/><path class="cls-28" d="M1407.09,822.3c-4-10.13-10.57-21.09-21.28-27.42-23.79-14.09-57.29-28.17-57.29-28.17H1318.2s-25.47,10.71-47.77,22.79l-1.16-.49,0,0-.16-.06h-9.55s-31,13-53,26.06A42.88,42.88,0,0,0,1192,829.87c-9.5,4.36-22.47,10.62-33.07,16.89-8.64,5.11-13.94,14-17.16,22.13a70.39,70.39,0,0,0-4.77,25.84v168.64h38.09V909c0-.44,0-.91,0-1.36h0c0-4-.1-8.38-.09-12.73,0-.21,0-.41,0-.61,0-.94,0-1.87,0-2.8,0-.33,0-.66,0-1,0-.85,0-1.7.08-2.54,0-.38,0-.77,0-1.15,0-.85.1-1.69.16-2.53,0-.35,0-.71.07-1.06.1-1.18.21-2.33.36-3.47.17-.28.36-.57.57-.86.06-.09.14-.18.22-.28s.29-.38.45-.57l.29-.33c.16-.18.31-.35.48-.52s.23-.24.35-.35.33-.34.51-.5l.38-.35.55-.49.42-.35.59-.49.45-.34.36-.27v189.29H1225v-177c0-5.23-.14-10.94-.12-16.66l.47.26.4.24.86.5.42.25.82.51.41.26.83.54.36.23c.32.21.62.43.93.64l.22.15,1.11.81.12.1c.31.23.61.47.9.7l.31.26c.22.18.44.36.64.55v187.64h47.91V894.73a74.82,74.82,0,0,0-.69-10.15V872.07c0-9.76-.45-21,.33-31.27l.32.18,1.07.6.39.22,1.16.69.26.15q1.42.86,2.76,1.74l.34.23,1,.66.4.29.86.62.39.29.86.68.3.24c.38.31.75.62,1.1.94h0c.34.31.67.61,1,.92l.29.29.63.65.3.34c.18.2.36.41.52.61l.28.35.47.64.21.31c.2.31.39.63.56.95,5.73,10.87,4.51,30.11,4.51,45.16v164.82h46V869.86h0a84.92,84.92,0,0,0-1.35-15c0-.07,0-.15,0-.22-.21-1.16-.45-2.32-.71-3.46-.07-.28-.15-.55-.22-.83-.23-1-.46-1.89-.72-2.83-.14-.48-.3-1-.45-1.44-.22-.72-.43-1.45-.67-2.16-.4-1.19-.83-2.38-1.3-3.55-3.69-9.38-9.77-19.51-19.68-25.37l-2.4-1.41-.64-.36.88-.33s32.28,11.75,38.47,23.51,4.87,32.56,4.87,48.83v178.15H1413v-209A87.42,87.42,0,0,0,1407.09,822.3Zm-228.25,45.58Zm.55-1.13h0Zm144-97.82.06,0-.06,0-.06,0ZM1177.57,871.12c-.34,1-.64,2.15-.9,3.29C1176.93,873.27,1177.23,872.17,1177.57,871.12Z"/></g><g id="svg-oman-masjid"><polygon class="cls-16" points="941.97 1029.36 941.97 1036.81 856.74 1036.81 864.07 1029.36 941.97 1029.36"/><polygon class="cls-16" points="941.97 1036.81 941.97 1049.04 827.66 1049.04 839.89 1036.81 941.97 1036.81"/><polygon class="cls-16" points="941.97 982.98 941.97 1029.36 871.55 1029.36 895.86 982.98 941.97 982.98"/><polygon class="cls-16" points="932.01 982.98 907.69 1029.36 871.55 1029.36 895.86 982.98 932.01 982.98"/><path class="cls-16" d="M942,969.89V983H895.86a5.88,5.88,0,0,1-4.29-1.94,6.92,6.92,0,0,1-1.75-4.62,6.3,6.3,0,0,1,6-6.53Z"/><path class="cls-16" d="M942,911.38v58.51H892.75a26,26,0,0,1-19.1-8.57,30.51,30.51,0,0,1-7.92-20.69c0-16.16,12.1-29.25,27-29.25Z"/><path class="cls-16" d="M942,911.38v58.51H904.19c-5.72,0-10.9-3.28-14.66-8.57a36.09,36.09,0,0,1-6.08-20.69c0-16.16,9.29-29.25,20.74-29.25H942Z"/><path class="cls-16" d="M942,911.38v58.51H908.77c-5,0-9.58-3.28-12.88-8.57s-5.34-12.62-5.34-20.69c0-16.16,8.16-29.25,18.22-29.25H942Z"/><path class="cls-16" d="M942,911.38v58.51H925.27c-2.53,0-4.83-3.28-6.49-8.57a72.16,72.16,0,0,1-2.69-20.69c0-16.16,4.11-29.25,9.18-29.25H942Z"/><path class="cls-16" d="M942,911.38v58.51H929.16c-1.94,0-3.7-3.28-5-8.57a93.07,93.07,0,0,1-2.06-20.69c0-16.16,3.15-29.25,7-29.25H942Z"/><path class="cls-16" d="M942,898.29v13.09H895.86a5.85,5.85,0,0,1-4.29-1.94,6.8,6.8,0,0,1-1.75-4.59,6.32,6.32,0,0,1,6-6.56Z"/><path class="cls-16" d="M942,882.49v15.8H902.15A7.07,7.07,0,0,1,897,896a8,8,0,0,1-2.15-5.55c0-4.36,3.27-7.92,7.32-7.92Z"/><path class="cls-16" d="M942,827.4v55.09H898.23c-1-11.08-17.09-26.53-34.89-39.3v0S867.83,827.4,942,827.4Z"/><path class="cls-16" d="M942,814.57V827.4c-74.14,0-78.63,15.77-78.63,15.77v0c-3.88-2.8-7.84-5.44-11.73-7.91a5.17,5.17,0,0,1,.43-.72,2.76,2.76,0,0,1,.27-.39,12.48,12.48,0,0,1,.94-1.1l.31-.33.72-.69c.28-.25.56-.5.87-.76s.33-.27.51-.41.34-.27.52-.41c.56-.41,1.18-.84,1.87-1.29a6.86,6.86,0,0,1,.7-.45c1.23-.76,2.66-1.55,4.3-2.35l.47-.23.57-.26c.7-.33,1.42-.64,2.2-1s1.61-.66,2.48-1l.16-.06,1.12-.41c.91-.34,1.85-.65,2.84-1s2-.63,3.09-.94c.75-.24,1.52-.43,2.32-.65.34-.09.7-.19,1.07-.27.58-.16,1.17-.29,1.79-.43l.48-.12c.91-.21,1.85-.43,2.81-.62s1.68-.36,2.55-.53c.65-.14,1.32-.26,2-.39a.23.23,0,0,0,.11,0c.72-.14,1.44-.26,2.18-.37,1.16-.22,2.35-.4,3.6-.59l.42-.06c.49-.08,1-.16,1.48-.22l1.54-.21c.81-.12,1.66-.22,2.51-.33,1.63-.2,3.31-.39,5-.57l.25,0c.49-.06,1-.1,1.47-.14l3.85-.35,1-.08c1.52-.11,3.07-.23,4.66-.33l2.43-.14c2.44-.13,5-.25,7.59-.33l1,0c1,0,1.92-.06,2.88-.08l1.52,0,2.69,0c1.19,0,2.41,0,3.64,0C939.88,814.57,940.92,814.57,942,814.57Z"/><path class="cls-16" d="M939.62,760.73c-1.48,0-3.67,0-6.38,0-1.45,0-3.06,0-4.81,0l-2.24,0c-4.63.08-10.09.19-16.1.41l-3.47.14c-2.42.09-4.92.21-7.49.33l-3.83.19c-.49,0-1,.08-1.47.1a.65.65,0,0,1-.2,0c-1.44.08-2.92.18-4.41.28-2.38.15-4.81.33-7.27.5l-1.73.14-3.48.29c-.36,0-.72.06-1.08.1-2.26.2-4.5.41-6.76.63l-.11,0c-2.3.23-4.6.49-6.87.76-.29,0-.58.06-.87.1-.87.1-1.74.19-2.61.31l-1.06.14c-.71.08-1.45.19-2.16.29l-3.52.49c-2.93.43-5.79.88-8.59,1.39-1.21.2-2.43.43-3.6.65l-1.09.21-3.32.68-1.36.3c-.92.19-1.83.41-2.73.62-2.15.51-4.23,1-6.24,1.61-.16.06-.32.1-.49.15l-1.21.36c-2.57.76-5,1.58-7.27,2.46-1.36.51-2.66,1.06-3.89,1.65-.29.11-.56.27-.85.39a36,36,0,0,0-7.41,4.57c-5,4.13-8.18,8-9.86,11.43-7.29,14.89,12.15,23.94,27.78,27.86,6.8,1.72,18.12,7.35,30,14.86a5.17,5.17,0,0,1,.43-.72,2.76,2.76,0,0,1,.27-.39,12.48,12.48,0,0,1,.94-1.1l.31-.33a6.77,6.77,0,0,1,.72-.69c.28-.25.56-.5.87-.76s.33-.27.51-.41.34-.27.52-.41a21.62,21.62,0,0,1,1.87-1.29,6.86,6.86,0,0,1,.7-.45c.65-.41,1.36-.84,2.12-1.25s1.41-.73,2.18-1.1l.47-.23.57-.26c.7-.33,1.42-.64,2.2-1s1.61-.66,2.48-1l.16-.06a8.29,8.29,0,0,1,1.12-.41c.91-.34,1.85-.65,2.84-1s2-.65,3.09-.94c.75-.24,1.52-.43,2.32-.65.34-.09.7-.19,1.07-.27.58-.16,1.17-.29,1.79-.43l.48-.12c.91-.21,1.85-.43,2.81-.62s1.68-.36,2.55-.53c.65-.14,1.32-.26,2-.39a.23.23,0,0,0,.11,0c.72-.14,1.44-.26,2.18-.37,1.16-.22,2.37-.42,3.6-.59l.42-.06c.49-.08,1-.16,1.48-.22l1.54-.21c.81-.12,1.66-.24,2.51-.33,1.63-.2,3.31-.39,5-.57l.25,0c.49-.06,1-.1,1.47-.14s1-.11,1.5-.15l2.35-.2,1-.08c1.52-.11,3.07-.23,4.66-.33l2.43-.14c2.44-.13,5-.25,7.59-.33l1,0c.94,0,1.9-.06,2.88-.08l1.52,0,2.69,0c1.19,0,2.41,0,3.64,0,1,0,2.07,0,3.12,0v-53.8S941.14,760.73,939.62,760.73Zm-91.39,25.51,7.5,12.42-8.54,2.39-6.32-10.84Zm-17.53,25-10.18-11.8,4.14-4.14,10.74,11.46Zm45.09-13.87-5.16-13.71,11.77-1.12,4.29,13.23Zm36.85-3.19-2.22-14.65,13.42-1.14.88,15.15Z"/><path class="cls-16" d="M942,744.28v16.49s-.83,0-2.35,0-3.67,0-6.38,0c-1.45,0-3.06,0-4.81,0l-2.24,0c-4.63.08-10.09.19-16.1.41l-3.47.14c-2.42.09-4.92.21-7.49.33-1.26.08-2.53.14-3.83.21l-1.47.08a.65.65,0,0,1-.2,0c-1.46.08-2.92.18-4.41.28-2.4.15-4.83.31-7.27.5l-1.73.14-3.48.29c-.36,0-.72.06-1.08.1l-6.76.63-.11,0c-2.3.23-4.6.49-6.87.76-.29,0-.58.06-.87.1-.87.1-1.74.19-2.61.31l-1.06.14c-.71.08-1.45.19-2.16.29-1.17.16-2.36.31-3.52.49-2.93.43-5.79.88-8.59,1.39-1.21.2-2.43.41-3.6.65l-1.09.21-3.32.68-1.36.3c-.92.19-1.83.41-2.73.62-2.15.51-4.23,1-6.24,1.61-.16.06-.32.1-.49.15-3,.87-5.88,1.8-8.48,2.82-1.36.51-2.66,1.06-3.89,1.65a8.19,8.19,0,0,0-.85.39,36,36,0,0,0-7.41,4.57c-5,4.13-8.18,8-9.86,11.43h0c-9.15.66-10.29-11.43-10.29-11.43S780.83,744.28,942,744.28Z"/><path class="cls-16" d="M942,714.21v30.07c-161.14,0-158.49,36.85-158.49,36.85s-32.11-9.76-25.6-28.77c1.26-3.8,4.1-7.94,9-12.44.34-.32.71-.63,1.09-.94.18-.16.38-.3.58-.45.47-.37.95-.73,1.46-1.08s1-.68,1.57-1,1.12-.68,1.7-1,1.2-.67,1.81-1,1.56-.8,2.39-1.16c.52-.25,1-.48,1.57-.7.71-.31,1.41-.61,2.15-.9s1.83-.72,2.77-1.06c2-.72,4.09-1.4,6.28-2.07,1.84-.57,3.76-1.1,5.75-1.62,1.79-.45,3.61-.9,5.49-1.33,19.41-4.48,43.39-7.22,66-8.87l3.38-.23,4.94-.33c1.68-.12,3.36-.22,5-.32l3.24-.17c2.15-.12,4.28-.22,6.36-.31l1.2-.06c1-.06,2-.1,3-.14,4.1-.18,8-.31,11.79-.45l4.43-.12c3.11-.1,6.06-.15,8.8-.21,1.87,0,3.62-.08,5.28-.1C935.48,714.15,942,714.21,942,714.21Z"/><path class="cls-16" d="M942,699.19v15s-6.49-.06-17,.08l-5.28.1c-2.74.06-5.69.11-8.8.21l-4.43.12c-3.75.14-7.69.27-11.79.45-1,0-2,.08-3,.14l-1.2.06c-2.08.09-4.21.19-6.36.31l-3.24.17c-1.66.1-3.33.2-5,.32l-4.94.33-3.38.23c-22.62,1.65-46.6,4.39-66,8.87-1.88.43-3.7.88-5.49,1.33-2,.52-3.91,1.05-5.75,1.62-2.19.67-4.29,1.35-6.28,2.07-.94.34-1.88.69-2.77,1.06s-1.46.59-2.15.9-1.07.45-1.57.7c-.83.36-1.63.75-2.39,1.16s-1.23.62-1.81,1-1.15.64-1.7,1-1.06.67-1.57,1-1,.71-1.46,1.08c-.2.15-.4.29-.58.45-.38.31-.75.62-1.09.94-4.92,4.5-7.76,8.64-9,12.44-6.64-2.92-6.68-10.51-6.68-10.51S781.75,699.19,942,699.19Z"/><path class="cls-16" d="M942,667.65v31.54c-160.22,0-190.77,42.66-190.77,42.66a48.71,48.71,0,0,1-13.7-15.67,19.47,19.47,0,0,1,3.18-23.43,69.57,69.57,0,0,1,7.69-6.32,102.81,102.81,0,0,1,17.77-10.15,166.29,166.29,0,0,1,22.5-8.18c3.22-.92,6.49-1.8,9.85-2.58,17.87-4.29,37.15-6.77,55.56-8.12,11.66-.9,23-1.31,33.42-1.43,2.22,0,4.41-.06,6.53-.06C921.92,665.83,942,667.65,942,667.65Z"/><path class="cls-16" d="M942,618.4v49.26s-20.05-1.83-48-1.75C894,665.91,894.88,618.4,942,618.4Z"/><path class="cls-16" d="M942,500.53v91.65s-32.22-9.64-55.53,21.74L864.88,615s-.09-.14-.27-.37-.22-.29-.34-.47c-.51-.63-1.27-1.54-2.3-2.64q-.27-.3-.6-.63c-3.51-3.6-9.49-8.53-17.23-10.29a26.55,26.55,0,0,0-6.69-.62c-.31,0-.62,0-.92,0s-.64,0-1,.09-.64.08-1,.12c-.47.06-1,.14-1.45.24s-1,.19-1.48.33c-19.84,5.11-38.92,32.45-38.92,32.45l-12,3.43c20.07-52.82,63.94-129.72,150.26-135.75h0C934.69,500.67,938.28,500.53,942,500.53Z"/><path class="cls-16" d="M942,479.5v21c-3.69,0-7.28.14-10.85.37h0l0-.37s-4.21-3.32-3.44-12.42c.46-5.16,2.28-7.22,5.34-8.08C935.28,479.42,938.3,479.5,942,479.5Z"/><path class="cls-16" d="M942,470.88v8.62c-3.67,0-6.69-.08-9,.53a4.8,4.8,0,0,1,0-6.47,7.69,7.69,0,0,1,3.87-2.23A15.27,15.27,0,0,1,942,470.88Z"/><path class="cls-16" d="M942,365V470.88a15.27,15.27,0,0,0-5.15.45v0Z"/><polygon class="cls-16" points="923.83 778.41 924.71 793.56 912.63 794.2 910.41 779.54 923.83 778.41"/><path class="cls-16" d="M942,618.4c-47.1,0-48,47.51-48,47.51-2.13,0-4.3,0-6.53.05v-.05c0-60.28,54.51-54.6,54.51-54.6Z"/><polygon class="cls-16" points="882.41 782.56 886.69 795.79 875.78 797.4 870.62 783.67 882.41 782.56"/><polygon class="cls-16" points="848.23 786.24 855.73 798.67 847.2 801.05 840.87 790.21 848.23 786.24"/><path class="cls-16" d="M942,592.18v19.13s-54.5-5.69-54.5,54.6V666c-10.44.12-21.76.53-33.42,1.43v0c1.37-20.35-8-42.08-25.63-43.6a27.49,27.49,0,0,0-13.54,2.42c-26.17,11.09-26.24,51.92-26.24,51.92a166.29,166.29,0,0,0-22.5,8.18s3.94-21.37,14.67-49.63l12-3.43s19.08-27.34,38.92-32.45c.51-.14,1-.24,1.48-.33s1-.18,1.45-.24c.32,0,.63-.1,1-.12s.63-.07,1-.09.61,0,.92,0a24.82,24.82,0,0,1,6.69.62c7.74,1.76,13.72,6.69,17.23,10.29q.33.33.6.63c1,1.1,1.79,2,2.3,2.64.12.18.25.33.34.47s.27.37.27.37l21.56-1.05C909.75,582.54,942,592.18,942,592.18Z"/><path class="cls-16" d="M828.42,623.75c17.58,1.53,27,23.27,25.63,43.61v0c-18.42,1.35-37.69,3.84-55.56,8.12C796.17,643.37,825.73,625.33,828.42,623.75Z"/><polygon class="cls-16" points="835.41 806.79 830.69 811.26 820.52 799.46 824.65 795.31 835.41 806.79"/><path class="cls-16" d="M828.42,623.75c-2.69,1.58-32.25,19.62-29.93,51.76q-5,1.2-9.85,2.59s.07-40.84,26.23-51.92A27.78,27.78,0,0,1,828.42,623.75Z"/><ellipse class="cls-16" cx="846.59" cy="712.62" rx="3.95" ry="4.27"/><ellipse class="cls-16" cx="832.45" cy="714.4" rx="3.95" ry="4.27"/><ellipse class="cls-16" cx="818.42" cy="716.74" rx="3.95" ry="4.27"/><path class="cls-16" d="M807.92,719.86a3.28,3.28,0,1,1-3.27-3.54A3.4,3.4,0,0,1,807.92,719.86Z"/><path class="cls-16" d="M794.23,723.69a2.83,2.83,0,1,1-2.82-3.05A2.95,2.95,0,0,1,794.23,723.69Z"/><path class="cls-16" d="M782.09,728.46a2.83,2.83,0,1,1-2.82-3.06A2.94,2.94,0,0,1,782.09,728.46Z"/><ellipse class="cls-16" cx="768.08" cy="734.5" rx="2.82" ry="3.05"/><ellipse class="cls-16" cx="758.37" cy="742.53" rx="2.82" ry="3.05"/><ellipse class="cls-16" cx="792.72" cy="780.11" rx="4.22" ry="4.57"/><path class="cls-16" d="M807.34,772.24a4.23,4.23,0,1,1-4.22-4.57A4.4,4.4,0,0,1,807.34,772.24Z"/><path class="cls-16" d="M819.36,767.07a4.23,4.23,0,1,1-4.22-4.56A4.4,4.4,0,0,1,819.36,767.07Z"/><path class="cls-16" d="M831.85,763.16a4.23,4.23,0,1,1-4.22-4.57A4.41,4.41,0,0,1,831.85,763.16Z"/><path class="cls-16" d="M845.66,759.78a4.23,4.23,0,1,1-4.22-4.56A4.41,4.41,0,0,1,845.66,759.78Z"/><ellipse class="cls-16" cx="855.63" cy="757.25" rx="4.22" ry="4.57"/><path class="cls-16" d="M873.5,755.12a4.23,4.23,0,1,1-4.22-4.57A4.41,4.41,0,0,1,873.5,755.12Z"/><path class="cls-16" d="M889.09,754.25a4.23,4.23,0,1,1-4.22-4.56A4.41,4.41,0,0,1,889.09,754.25Z"/><path class="cls-16" d="M906.26,753.15a4.23,4.23,0,1,1-4.22-4.57A4.4,4.4,0,0,1,906.26,753.15Z"/><ellipse class="cls-16" cx="918.09" cy="752.55" rx="4.22" ry="4.57"/><ellipse class="cls-16" cx="933.54" cy="752.06" rx="4.22" ry="4.57"/><ellipse class="cls-16" cx="859.68" cy="710.85" rx="3.95" ry="4.27"/><ellipse class="cls-16" cx="872.84" cy="710.11" rx="3.95" ry="4.27"/><ellipse class="cls-16" cx="885.78" cy="709.27" rx="3.95" ry="4.27"/><path class="cls-16" d="M903.05,708.08a4,4,0,1,1-3.94-4.27A4.11,4.11,0,0,1,903.05,708.08Z"/><ellipse class="cls-16" cx="912.46" cy="707.58" rx="3.95" ry="4.27"/><ellipse class="cls-16" cx="924.68" cy="707.16" rx="3.95" ry="4.27"/><path class="cls-16" d="M939.64,707.16a4,4,0,1,1-3.95-4.27A4.12,4.12,0,0,1,939.64,707.16Z"/><path class="cls-16" d="M902.9,832.3c8,13.88,10.23,30.78,10.64,47.14l-10.1-.94a2.06,2.06,0,0,1-1-.24,2.52,2.52,0,0,1-.8-1.39A65.43,65.43,0,0,0,883,847.74c-1.25-1.11-5.86-3.62-5.9-5.56-.05-2.39,5.14-3.7,6.91-4.44A85.38,85.38,0,0,1,902.9,832.3Z"/><path class="cls-16" d="M911.07,834.47a143.32,143.32,0,0,1,5.64,42.8q10.11-.27,20.22.16c-.37-15.17-.09-31.3-2.45-46.27C932.18,831.12,911.52,836.05,911.07,834.47Z"/><path class="cls-16" d="M863.53,826.15c-.95.45-1.86.9-2.66,1.32a30.17,30.17,0,0,0-5.43-8.3c-7.65-8.44-18.41-12.83-25.24-22.3a38.25,38.25,0,0,1-6.48-14.79,37,37,0,0,1-.66-10c.57-.19,1.13-.34,1.72-.5a45.65,45.65,0,0,0,2.22,13.3,36.3,36.3,0,0,0,8.71,14.34c4.06,4.1,8.82,7.19,13.37,10.58C854.39,813.77,860.7,819.33,863.53,826.15Z"/><path class="cls-16" d="M881.65,820.12c-1.17.27-2.27.53-3.35.82a39.11,39.11,0,0,0-3.71-8c-5-8.26-12-15.08-15.73-24.21a51,51,0,0,1-3.3-14.31c-.24-2.54-.37-5.1-.37-7.64,0-.4,0-.77,0-1.16.71-.11,1.44-.22,2.15-.3,0,.88.07,1.75.15,2.62.22,2.94.44,5.85.9,8.73a44.29,44.29,0,0,0,4.67,14.26,98.73,98.73,0,0,0,8.1,11.72C875.1,807.77,879.48,813.61,881.65,820.12Z"/><path class="cls-16" d="M912.49,815.62c-1.18.08-2.3.19-3.4.27-.05-.29-.12-.61-.2-.9a35.85,35.85,0,0,0-2.91-7.78c-4-7.72-10.12-14.15-12.61-22.75a38,38,0,0,1-1.1-14.49,72.32,72.32,0,0,1,1.36-7.94c.57,0,1.1-.08,1.67-.1a74,74,0,0,0-.69,13.12A34.24,34.24,0,0,0,900,791.69c2.86,4.65,6.23,8.88,8.8,13.75a41.78,41.78,0,0,1,3.28,8.31C912.22,814.38,912.37,815,912.49,815.62Z"/><path class="cls-16" d="M942,760.76v53.81c-1.05,0-2.11,0-3.13,0,0-1.37,0-2.77.07-4.15.07-6.14.17-12.3.25-18.44s.19-12.51.31-18.75c0-3.07.13-6.14.17-9.23,0-1.06,0-2.14,0-3.28C941.15,760.74,942,760.76,942,760.76Z"/><path class="cls-16" d="M942,696.72v2.47c-160.22,0-190.77,42.66-190.77,42.66a48.71,48.71,0,0,1-13.7-15.67,19.47,19.47,0,0,1,3.18-23.43,69.57,69.57,0,0,1,7.69-6.32,66.6,66.6,0,0,0-4.92,27,5.68,5.68,0,0,0,.74,3.1c1.39,2,4.25,1.15,6.35.13A333.34,333.34,0,0,1,942,696.72Z"/><path class="cls-16" d="M942,736.57v7.71c-161.14,0-158.49,36.85-158.49,36.85s-32.11-9.76-25.6-28.77c1.26-3.8,4.1-7.94,9-12.44.34-.32.71-.63,1.09-.94.18-.16.38-.3.58-.45a36.22,36.22,0,0,0-1.78,17.74c.53,3.4,1.65,6.93,4.14,9.12,4.27,3.73,10.57,2.09,15.77.19,25.57-9.33,50.6-21,77-27.09A192.53,192.53,0,0,1,942,736.57Z"/><path class="cls-16" d="M931.12,500.9c-24.59,9.78-47.61,24.36-65.8,44.63a143.24,143.24,0,0,0-30.71,54.67c-.47.06-1,.14-1.45.24s-1,.19-1.48.33c-19.84,5.11-38.92,32.45-38.92,32.45l-12,3.43c20.07-52.82,63.94-129.72,150.26-135.75Z"/><polygon class="cls-16" points="941.98 1036.81 1027.22 1036.81 1019.88 1029.35 1005.07 1029.35 941.98 1029.35 941.98 1036.81"/><polygon class="cls-16" points="941.98 1036.81 941.98 1049.03 1056.29 1049.03 1044.07 1036.81 1027.22 1036.81 941.98 1036.81"/><polygon class="cls-16" points="941.98 982.98 941.98 1029.35 1012.4 1029.35 988.1 982.98 941.98 982.98"/><path class="cls-16" d="M942,969.89V983h46.11a5.82,5.82,0,0,0,4.28-1.93,6.89,6.89,0,0,0,1.76-4.63,6.29,6.29,0,0,0-6-6.53Z"/><path class="cls-16" d="M942,911.38v58.51H991.2a26,26,0,0,0,19.1-8.57,30.44,30.44,0,0,0,7.92-20.69c0-16.16-12.1-29.25-27-29.25H942Z"/><path class="cls-16" d="M942,911.38v58.51h37.78c5.73,0,10.91-3.28,14.66-8.57s6.08-12.62,6.08-20.69c0-16.16-9.29-29.25-20.74-29.25H942Z"/><path class="cls-16" d="M942,911.38v58.51h33.2c5,0,9.58-3.28,12.88-8.57s5.35-12.62,5.35-20.69c0-16.16-8.17-29.25-18.23-29.25H942Z"/><path class="cls-16" d="M942,911.38v58.51h16.71c2.53,0,4.82-3.28,6.48-8.57a72.16,72.16,0,0,0,2.69-20.69c0-16.16-4.11-29.25-9.17-29.25H942Z"/><path class="cls-16" d="M942,911.38v58.51h12.81c1.94,0,3.7-3.28,5-8.57a92.41,92.41,0,0,0,2.07-20.69c0-16.16-3.15-29.25-7-29.25H942Z"/><path class="cls-16" d="M942,898.28v13.1h46.11a5.82,5.82,0,0,0,4.28-1.93,6.8,6.8,0,0,0,1.76-4.61,6.32,6.32,0,0,0-6-6.56H942Z"/><path class="cls-16" d="M942,882.49v15.79h39.83A7,7,0,0,0,987,896a8.09,8.09,0,0,0,2.15-5.56c0-4.36-3.28-7.91-7.31-7.91Z"/><path class="cls-16" d="M942,827.4v55.09h43.74c1-11.08,17.1-26.53,34.9-39.3v0S1016.12,827.4,942,827.4Z"/><path class="cls-16" d="M942,814.57V827.4c74.14,0,78.64,15.76,78.64,15.76v0c3.88-2.81,7.85-5.45,11.73-7.91C1032.35,835.28,1023.31,814.57,942,814.57Z"/><path class="cls-16" d="M1090.16,792.56c-1.69-3.48-4.83-7.3-9.86-11.43a35.83,35.83,0,0,0-7.42-4.57c-.28-.12-.56-.28-.85-.39-1.22-.59-2.53-1.14-3.88-1.65q-2.55-1-5.36-1.88l-1.89-.58c-.57-.18-1.13-.34-1.72-.51-3.29-.94-6.82-1.78-10.51-2.56-1-.24-2.08-.45-3.15-.65-.32-.08-.67-.14-1-.2-1.21-.23-2.42-.45-3.65-.66-.64-.12-1.27-.24-1.9-.33l-1.68-.3c-1.67-.25-3.33-.52-5-.76l-3.51-.49c-.72-.1-1.45-.21-2.15-.29-1.5-.2-3-.37-4.54-.55-2.3-.27-4.57-.53-6.87-.76l-.11,0q-3.39-.33-6.78-.63c-.36,0-.73-.08-1.09-.1l-3.47-.29c-3-.23-6-.45-9-.64-1.49-.1-3-.2-4.42-.28a9,9,0,0,1-.83-.06l-.83-.06-3.83-.19c-2.55-.12-5.07-.24-7.49-.33-1.18-.06-2.33-.1-3.46-.14-8.89-.31-16.6-.45-22.2-.49-3.17,0-5.66,0-7.35,0-1.51,0-2.35,0-2.35,0v53.8c1,0,2.1,0,3.13,0,1.23,0,2.44,0,3.64,0l2.64,0,1.57,0c.94,0,1.86,0,2.77.08.34,0,.7,0,1,0,2.62.08,5.15.2,7.61.33l2.42.14c1.59.1,3.15.22,4.67.33.4,0,.78.06,1.16.1l2.24.18q.76.06,1.5.15c.49,0,1,.08,1.46.14,1.83.18,3.59.37,5.29.59.85.09,1.7.21,2.51.33l1.54.21c.5.06,1,.14,1.48.22l.41.06c1.25.17,2.45.37,3.6.59.75.11,1.47.23,2.19.37a.22.22,0,0,0,.11,0c.67.13,1.34.25,2,.39.87.17,1.72.35,2.55.53s1.9.41,2.8.62l.49.12c.62.14,1.21.27,1.79.43.36.08.72.18,1.07.27.79.22,1.57.41,2.31.65,1.09.29,2.12.61,3.1.94a15.11,15.11,0,0,1,1.44.47c.47.15.94.31,1.39.49s.89.31,1.31.47c.86.31,1.68.64,2.46,1s1.48.63,2.17.94l.59.28c.17.08.33.15.47.23.31.16.62.3.93.43s.86.45,1.26.67a3.92,3.92,0,0,1,.56.33c.54.29,1.07.61,1.56.92.34.21.65.41,1,.63s.7.45,1,.68l1.12.84c.34.27.65.53.94.8l.41.37c.22.18.42.38.6.55.38.39.71.73,1,1.06l.21.25a7.46,7.46,0,0,1,.78,1.14s0,.08.06.1l.07.13c11.9-7.51,23.22-13.14,30-14.86C1078,816.5,1097.44,807.45,1090.16,792.56ZM971.32,794.2l-12.08-.64.87-15.15,13.44,1.14Zm64.4-8,7.36,4-6.33,10.84-8.53-2.39Zm-38.46,9.55,4.28-13.23,11.79,1.12-5.17,13.71Zm56,15.47-4.72-4.48,10.76-11.46,4.13,4.14Z"/><path class="cls-16" d="M942,744.29v16.47s111.89-1.45,138.33,20.37c5,4.13,8.16,7.94,9.85,11.43h0c9.15.66,10.3-11.43,10.3-11.43S1103.12,744.29,942,744.29Z"/><path class="cls-16" d="M942,714.21v30.08c161.14,0,158.5,36.84,158.5,36.84s32.1-9.76,25.6-28.78c-1.27-3.78-4.11-7.93-9-12.43-.52-.48-1.08-.95-1.67-1.4C1082.41,712.81,942,714.21,942,714.21Z"/><path class="cls-16" d="M942,699.19v15s145.49-1.45,175.08,25.71c4.91,4.5,7.75,8.65,9,12.43,6.63-2.91,6.68-10.5,6.68-10.5S1102.21,699.19,942,699.19Z"/><path class="cls-16" d="M942,667.66v31.53c160.23,0,190.78,42.66,190.78,42.66a48.78,48.78,0,0,0,13.69-15.66,19.43,19.43,0,0,0-3.18-23.43,67.34,67.34,0,0,0-7.68-6.33,103.56,103.56,0,0,0-17.77-10.15,165.93,165.93,0,0,0-22.5-8.18q-4.85-1.38-9.86-2.59c-17.87-4.28-37.14-6.77-55.55-8.12-11.67-.9-23-1.29-33.43-1.43-2.22,0-4.4-.05-6.53-.05C962,665.83,942,667.66,942,667.66Z"/><path class="cls-16" d="M942,618.4v49.26s20-1.83,48-1.75C990,665.91,989.07,618.4,942,618.4Z"/><path class="cls-16" d="M942,500.54v91.65s32.23-9.65,55.53,21.72l21.57,1.05s12.05-17.4,30.27-14.76a25.09,25.09,0,0,1,2.93.56c19.83,5.11,38.91,32.46,38.91,32.46l12,3.43c-20.07-52.82-63.94-129.71-150.26-135.74h0C949.29,500.67,945.67,500.54,942,500.54Z"/><path class="cls-16" d="M942,479.51v21c3.71,0,7.33.13,10.9.37l0-.37s4.2-3.34,3.42-12.44c-.44-5.15-2.27-7.22-5.33-8.06C948.68,479.43,945.65,479.51,942,479.51Z"/><path class="cls-16" d="M942,470.88v8.63c3.67,0,6.7-.08,9,.53a4.82,4.82,0,0,0,0-6.48,7.67,7.67,0,0,0-3.86-2.23A15,15,0,0,0,942,470.88Z"/><path class="cls-16" d="M947.14,471.31,942,365V470.88a15,15,0,0,1,5.16.45Z"/><polygon class="cls-16" points="960.12 778.41 959.24 793.56 971.32 794.2 973.54 779.54 960.12 778.41"/><path class="cls-16" d="M942,618.4c47.09,0,48,47.51,48,47.51,2.13,0,4.31,0,6.53.05v-.05c0-60.28-54.5-54.6-54.5-54.6Z"/><polygon class="cls-16" points="1001.54 782.56 997.26 795.79 1008.17 797.4 1013.33 783.67 1001.54 782.56"/><polygon class="cls-16" points="1035.73 786.24 1028.22 798.67 1036.76 801.05 1043.09 790.21 1035.73 786.24"/><path class="cls-16" d="M996.48,666c10.44.14,21.76.53,33.43,1.43v0c-1.37-20.34,8-42.08,25.62-43.61a27.76,27.76,0,0,1,13.55,2.43c26.17,11.08,26.24,51.92,26.24,51.92a165.93,165.93,0,0,1,22.5,8.18s-3.94-21.38-14.68-49.63l-12-3.43s-19.08-27.35-38.91-32.46-33.2,14.2-33.2,14.2l-21.57-1.05C974.21,582.54,942,592.19,942,592.19v19.12s54.5-5.68,54.5,54.6Z"/><path class="cls-16" d="M1055.53,623.75c-17.58,1.53-27,23.27-25.62,43.61v0c18.41,1.35,37.68,3.84,55.55,8.12C1087.79,643.37,1058.22,625.33,1055.53,623.75Z"/><polygon class="cls-16" points="1048.54 806.79 1053.26 811.26 1063.43 799.46 1059.3 795.31 1048.54 806.79"/><path class="cls-16" d="M1055.53,623.75c2.69,1.58,32.26,19.62,29.93,51.76q5,1.2,9.86,2.59s-.07-40.84-26.24-51.92A27.76,27.76,0,0,0,1055.53,623.75Z"/><ellipse class="cls-16" cx="1037.37" cy="712.62" rx="3.95" ry="4.27"/><ellipse class="cls-16" cx="1051.5" cy="714.4" rx="3.95" ry="4.27"/><ellipse class="cls-16" cx="1065.53" cy="716.74" rx="3.95" ry="4.27"/><path class="cls-16" d="M1076,719.86a3.28,3.28,0,1,0,3.26-3.54A3.4,3.4,0,0,0,1076,719.86Z"/><ellipse class="cls-16" cx="1092.55" cy="723.69" rx="2.82" ry="3.05"/><path class="cls-16" d="M1101.87,728.46a2.83,2.83,0,1,0,2.82-3.06A2.94,2.94,0,0,0,1101.87,728.46Z"/><ellipse class="cls-16" cx="1115.87" cy="734.5" rx="2.82" ry="3.05"/><path class="cls-16" d="M1122.76,742.53a2.83,2.83,0,1,0,2.82-3A2.94,2.94,0,0,0,1122.76,742.53Z"/><path class="cls-16" d="M1087,780.11a4.23,4.23,0,1,0,4.22-4.57A4.4,4.4,0,0,0,1087,780.11Z"/><path class="cls-16" d="M1076.61,772.24a4.24,4.24,0,1,0,4.23-4.57A4.4,4.4,0,0,0,1076.61,772.24Z"/><path class="cls-16" d="M1064.59,767.07a4.24,4.24,0,1,0,4.22-4.56A4.4,4.4,0,0,0,1064.59,767.07Z"/><path class="cls-16" d="M1052.1,763.16a4.23,4.23,0,1,0,4.22-4.57A4.41,4.41,0,0,0,1052.1,763.16Z"/><path class="cls-16" d="M1038.29,759.78a4.23,4.23,0,1,0,4.22-4.56A4.41,4.41,0,0,0,1038.29,759.78Z"/><path class="cls-16" d="M1024.1,757.25a4.23,4.23,0,1,0,4.22-4.56A4.4,4.4,0,0,0,1024.1,757.25Z"/><path class="cls-16" d="M1010.46,755.12a4.23,4.23,0,1,0,4.22-4.57A4.41,4.41,0,0,0,1010.46,755.12Z"/><path class="cls-16" d="M994.86,754.25a4.23,4.23,0,1,0,4.22-4.56A4.41,4.41,0,0,0,994.86,754.25Z"/><ellipse class="cls-16" cx="981.91" cy="753.15" rx="4.22" ry="4.57"/><path class="cls-16" d="M961.64,752.55a4.23,4.23,0,1,0,4.22-4.57A4.41,4.41,0,0,0,961.64,752.55Z"/><path class="cls-16" d="M946.19,752.06a4.23,4.23,0,1,0,4.22-4.57A4.4,4.4,0,0,0,946.19,752.06Z"/><ellipse class="cls-16" cx="1024.28" cy="710.85" rx="3.95" ry="4.27"/><ellipse class="cls-16" cx="1011.11" cy="710.11" rx="3.95" ry="4.27"/><ellipse class="cls-16" cx="998.17" cy="709.27" rx="3.95" ry="4.27"/><ellipse class="cls-16" cx="984.85" cy="708.08" rx="3.95" ry="4.27"/><ellipse class="cls-16" cx="971.49" cy="707.58" rx="3.95" ry="4.27"/><ellipse class="cls-16" cx="959.28" cy="707.16" rx="3.95" ry="4.27"/><ellipse class="cls-16" cx="948.26" cy="707.16" rx="3.95" ry="4.27"/><path class="cls-16" d="M981.05,832.3c-8,13.88-10.23,30.78-10.63,47.14l10.09-.94a2.06,2.06,0,0,0,1-.24,2.52,2.52,0,0,0,.8-1.39A65.36,65.36,0,0,1,1001,847.74c1.24-1.11,5.86-3.62,5.9-5.56,0-2.39-5.14-3.7-6.92-4.44A85.38,85.38,0,0,0,981.05,832.3Z"/><path class="cls-16" d="M972.89,834.47a142.68,142.68,0,0,0-5.64,42.8q-10.11-.27-20.23.16c.37-15.17.1-31.3,2.46-46.27C951.78,831.12,972.43,836.05,972.89,834.47Z"/><path class="cls-16" d="M1020.42,826.15c1,.45,1.86.9,2.67,1.32a30.13,30.13,0,0,1,5.42-8.3c7.66-8.44,18.42-12.83,25.24-22.3a38,38,0,0,0,6.48-14.79,37,37,0,0,0,.66-10c-.56-.19-1.12-.34-1.71-.5a46,46,0,0,1-2.23,13.3,36.28,36.28,0,0,1-8.7,14.34c-4.06,4.1-8.83,7.19-13.38,10.58C1029.57,813.77,1023.26,819.33,1020.42,826.15Z"/><path class="cls-16" d="M1002.3,820.12c1.18.27,2.28.53,3.35.82a39.16,39.16,0,0,1,3.72-8c5-8.26,12-15.08,15.72-24.21a51,51,0,0,0,3.3-14.31c.25-2.54.37-5.1.37-7.64,0-.4,0-.77,0-1.16-.7-.11-1.44-.22-2.15-.3,0,.88-.07,1.75-.14,2.62-.22,2.94-.44,5.85-.91,8.73a44,44,0,0,1-4.67,14.26,97.49,97.49,0,0,1-8.09,11.72C1008.85,807.77,1004.48,813.61,1002.3,820.12Z"/><path class="cls-16" d="M971.47,815.62c1.17.08,2.3.19,3.4.27,0-.29.12-.61.19-.9a35.85,35.85,0,0,1,2.91-7.78c4-7.72,10.12-14.15,12.62-22.75a38,38,0,0,0,1.1-14.49,70,70,0,0,0-1.37-7.94c-.56,0-1.1-.08-1.66-.1a74,74,0,0,1,.68,13.12A34.33,34.33,0,0,1,984,791.69c-2.86,4.65-6.24,8.88-8.81,13.75a41.15,41.15,0,0,0-3.27,8.31C971.74,814.38,971.59,815,971.47,815.62Z"/><path class="cls-16" d="M942,760.76v53.81c1,0,2.1,0,3.13,0,0-1.37-.05-2.77-.08-4.15-.07-6.14-.17-12.3-.24-18.44s-.2-12.51-.32-18.75c-.05-3.07-.12-6.14-.17-9.23,0-1.06,0-2.14,0-3.28C942.81,760.74,942,760.76,942,760.76Z"/><path class="cls-16" d="M942,696.73v2.46c160.23,0,190.78,42.66,190.78,42.66a48.78,48.78,0,0,0,13.69-15.66,19.43,19.43,0,0,0-3.18-23.43,67.34,67.34,0,0,0-7.68-6.33,67,67,0,0,1,4.92,27,5.69,5.69,0,0,1-.74,3.09c-1.39,2-4.25,1.14-6.35.14A333.12,333.12,0,0,0,942,696.73Z"/><path class="cls-16" d="M942,736.56v7.73c161.14,0,158.5,36.84,158.5,36.84s32.1-9.76,25.6-28.78c-1.27-3.78-4.11-7.93-9-12.43-.52-.48-1.08-.95-1.67-1.4a36.52,36.52,0,0,1,1.77,17.75c-.52,3.41-1.64,6.93-4.14,9.12-4.28,3.73-10.56,2.09-15.77.19-25.58-9.34-50.59-21-77-27.09A192.76,192.76,0,0,0,942,736.56Z"/><path class="cls-16" d="M952.83,500.91c24.6,9.78,47.61,24.36,65.81,44.62a143.17,143.17,0,0,1,30.71,54.67,25.09,25.09,0,0,1,2.93.56c19.83,5.11,38.91,32.46,38.91,32.46l12,3.43c-20.07-52.82-63.94-129.71-150.26-135.74Z"/><path class="cls-29" d="M1143.27,702.76a67.34,67.34,0,0,0-7.68-6.33,103.56,103.56,0,0,0-17.77-10.15s-3.94-21.38-14.68-49.63c-20.07-52.82-63.94-129.71-150.26-135.74l0-.37s4.2-3.34,3.42-12.44c-.44-5.15-2.27-7.22-5.33-8.06a4.82,4.82,0,0,0,0-6.48,7.67,7.67,0,0,0-3.86-2.23v0L942,365V500.54c3.71,0,7.33.13,10.9.37h0c-3.54-.24-7.16-.37-10.85-.37V611.31h0V365l-5.15,106.31v0a7.69,7.69,0,0,0-3.87,2.23,4.8,4.8,0,0,0,0,6.47c-3.06.86-4.88,2.92-5.34,8.08-.77,9.1,3.44,12.42,3.44,12.42l0,.37c-86.32,6-130.19,82.93-150.26,135.75-10.73,28.26-14.67,49.63-14.67,49.63a102.81,102.81,0,0,0-17.77,10.15,69.57,69.57,0,0,0-7.69,6.32,19.47,19.47,0,0,0-3.18,23.43,48.71,48.71,0,0,0,13.7,15.67s0,7.59,6.68,10.51c-6.51,19,25.6,28.77,25.6,28.77s1.14,12.09,10.29,11.43h0c-7.29,14.89,12.15,23.94,27.78,27.86,6.8,1.72,18.12,7.35,30,14.86,3.89,2.47,7.85,5.11,11.73,7.91,17.8,12.77,33.93,28.22,34.89,39.3h3.92c-4,0-7.32,3.56-7.32,7.92A8,8,0,0,0,897,896a7.07,7.07,0,0,0,5.17,2.33h-6.29a6.32,6.32,0,0,0-6,6.56,6.8,6.8,0,0,0,1.75,4.59,5.85,5.85,0,0,0,4.29,1.94h-3.11c-14.92,0-27,13.09-27,29.25a30.51,30.51,0,0,0,7.92,20.69,26,26,0,0,0,19.1,8.57h3.11a6.3,6.3,0,0,0-6,6.53,6.92,6.92,0,0,0,1.75,4.62,5.88,5.88,0,0,0,4.29,1.94l-24.31,46.38h-7.48l-7.33,7.45H839.89L827.66,1049H942V969.89h0V1049h114.31l-12.22-12.22h-16.85l-7.34-7.46h-7.48L988.09,983a5.82,5.82,0,0,0,4.28-1.93,6.89,6.89,0,0,0,1.76-4.63,6.29,6.29,0,0,0-6-6.53h3.11a26,26,0,0,0,19.1-8.57,30.44,30.44,0,0,0,7.92-20.69c0-16.16-12.1-29.25-27-29.25h-3.11a5.82,5.82,0,0,0,4.28-1.93,6.8,6.8,0,0,0,1.76-4.61,6.32,6.32,0,0,0-6-6.56h-6.28A7,7,0,0,0,987,896a8.09,8.09,0,0,0,2.15-5.56c0-4.36-3.28-7.91-7.31-7.91h3.91c1-11.08,17.1-26.53,34.9-39.3,3.88-2.81,7.85-5.45,11.73-7.91v0l0,0c11.9-7.51,23.22-13.14,30-14.86,15.62-3.92,35.06-13,27.78-27.86-1.69-3.48-4.83-7.3-9.86-11.43-.47-.39-1-.77-1.5-1.15.52.38,1,.76,1.51,1.15,5,4.13,8.16,7.94,9.85,11.43h0c9.15.66,10.3-11.43,10.3-11.43h0s32.1-9.76,25.6-28.78c6.63-2.91,6.68-10.5,6.68-10.5h0a48.78,48.78,0,0,0,13.69-15.66A19.43,19.43,0,0,0,1143.27,702.76Zm-66.71,75.77c-.39-.23-.79-.47-1.21-.7C1075.77,778.06,1076.17,778.3,1076.56,778.53Zm-28,28.25,4.41-4.69-4.4,4.69ZM942,736.57V667.66h0v93.1h0V736.57Zm24.48-70.29,4.23-.13Zm6.44-.19c3-.07,6.13-.12,9.43-.16C979,666,975.87,666,972.89,666.09Zm11.92-.17c1.68,0,3.4,0,5.14,0,2.13,0,4.31,0,6.53.05,2.61,0,5.28.09,8,.16,8.14.21,16.69.6,25.44,1.27q3.45.25,6.94.56-3.49-.3-6.94-.56c-8.75-.67-17.3-1.06-25.44-1.27-2.71-.07-5.38-.12-8-.16-2.22,0-4.4-.05-6.53-.05C988.21,665.9,986.49,665.91,984.81,665.92Zm106.87,11.18c-1.23-.33-2.48-.65-3.73-1C1089.2,676.45,1090.45,676.77,1091.68,677.1Zm-62.29-71.93c.32-.22.65-.43,1-.63C1030,604.74,1029.71,605,1029.39,605.17Zm1.17-.75c.3-.19.62-.37.94-.55C1031.18,604.05,1030.86,604.23,1030.56,604.42Zm-1.34.86-1,.66Zm-1.08.75-.94.7Zm-1,.78-.9.72Zm-1,.79c-.3.24-.59.48-.87.73C1025.53,608.08,1025.82,607.84,1026.12,607.6Zm-.93.78-.82.73Zm-.87.78-.77.73Zm-.81.76-.72.72Zm-.74.74q-.35.35-.66.69C1022.32,611.12,1022.54,610.9,1022.77,610.66Zm-.68.71-.61.66Zm-3,3.59h0a34.94,34.94,0,0,1,2.39-2.93A32.55,32.55,0,0,0,1019.08,615Zm-26-6.47a59.29,59.29,0,0,0-6.95-6.48,53.3,53.3,0,0,0-7.09-4.73,53.3,53.3,0,0,1,7.09,4.73,59.29,59.29,0,0,1,6.95,6.48,69.39,69.39,0,0,1,4.47,5.42A69.39,69.39,0,0,0,993,608.49Zm-36-17.6q1.9.12,4,.39a53.5,53.5,0,0,1,6.45,1.31,53.5,53.5,0,0,0-6.45-1.31Q958.95,591,957,590.89Zm12.66,2.36a49.05,49.05,0,0,1,4.6,1.72A49.05,49.05,0,0,0,969.7,593.25Zm147.35,146.67c-.49-.46-1-.91-1.59-1.34C1116,739,1116.56,739.46,1117.05,739.92Zm-96.63,86.23-.19-.09.19.09ZM945.29,714.2h0Zm1.26,0h0Zm2.77,0h0Zm-1.57,0h0Zm3.31,0h0Zm1.82,0h0Zm4,0-1.65,0Zm2.25,0-1.71,0Zm4.9.09-2,0Zm-2.44,0-1.92,0Zm7.78.16-2.08,0Zm2.81.07-2.21-.05Zm2.9.09-2.22-.07Zm40.84,2-2.78-.19Zm-3.68-.25-2.76-.19Zm-3.63-.24-2.74-.17Zm-10.72-.62-2.6-.13Zm3.51.19-2.64-.15Zm-7-.37-2.56-.12Zm-10-.43-2.41-.09Zm3.23.13-2.43-.1Zm3.38.15-2.49-.11Zm-9.82-.4-2.33-.08Zm-25,46-4.54-.05h-1Zm25.61.77-4.36-.19Zm-6.16-.26,1.42.06Zm-6.09-.21-1.74,0Zm-2.38-.07c-2-.06-3.85-.1-5.64-.14C963.34,761,965.22,761,967.19,761.05Zm-8.09-.19,2.4,0Zm1,17.56-.64,11.09.63-11.1Zm11.2,15.78,2.22-14.65h0l-2.23,14.65-2.85-.15Zm19-32.16h0c7.62.44,15.63,1,23.64,1.84l-5.67-.53c-.36,0-.73-.08-1.09-.1l-3.47-.29c-3-.23-6-.45-9-.64C993.25,762.22,991.77,762.12,990.32,762Zm23,21.64-1.76,4.67,1.76-4.67Zm15.41-18.08-1.55-.21c1.69.22,3.37.45,5,.7Zm7.41,1.08c-1.28-.2-2.57-.41-3.88-.59ZM1026,765.24l-4-.48c-2.28-.27-4.54-.52-6.81-.76C1018.85,764.37,1022.46,764.78,1026,765.24Zm-24.5,17.32h0l-4.28,13.23,1.57.23-1.57-.23Zm34.18,3.68h0l-7.51,12.42h0Zm5.14-18.76c-.64-.12-1.27-.24-1.9-.33l-.47-.08c5.32.88,10.44,1.9,15.21,3-1.64-.39-3.31-.77-5-1.13-1-.24-2.08-.45-3.15-.65-.32-.08-.67-.14-1-.2C1043.3,767.91,1042.09,767.69,1040.86,767.48Zm17.86,3.95c-1.39-.39-2.82-.77-4.29-1.13C1055.89,770.66,1057.32,771,1058.72,771.43Zm-100.2-10.58-2.13,0Zm-7.14,53.81.61,0-1.08,0Zm13,.49,2.42.14,1.49.11c-1.44-.1-2.92-.19-4.42-.27Zm-2.89-.14-1.16-.06Zm10,.61h0l.31,0h.15l-1.47-.11Zm3.4.28c.47,0,.94.09,1.4.14l-3.38-.3Zm3,.29c1.83.18,3.59.37,5.29.59.49.05,1,.12,1.47.19-2.48-.32-5.09-.62-7.83-.88Zm17,2.37a.22.22,0,0,0,.11,0l.56.11-1.07-.2Zm10.8,2.38.12,0-.54-.14Zm11.16-104.18,2.81.21Zm-41-2.08,2.28.07Zm26.49,1.14,2.68.15Zm21,1.45-2.8-.23Zm3.73.31-2.77-.23Zm3.76.34-2.8-.25Zm3.72.36-2.77-.27Zm3.76.38-2.75-.28Zm3.74.41-2.79-.31Zm7.42.88-2.76-.34Zm3.66.47-2.74-.35Zm3.64.51-2.7-.38Zm7.17,1.09-2.72-.43Zm3.5.58-2.67-.45Zm3.45.61-2.62-.47Zm6.73,1.31L1075,724Zm-3.33-.67-2.62-.49Zm6.58,1.38c-.87-.2-1.75-.39-2.63-.57C1079.1,724.84,1080,725,1080.85,725.23Zm3.17.73-2.61-.61Zm6.1,1.56-2.67-.71Zm-3-.8-2.59-.64Zm-26.75-5.26-2.72-.4Zm-14.62-2-2.78-.33Zm-79.22-5.06-1.93,0Zm-11.65-.19-1.64,0Zm-10.57,0h0Zm-1.77,0h0Zm80.21,113.09.34.18a3.18,3.18,0,0,1,.44.26c-.61-.34-1.27-.69-2-1Zm4.45,2.74.2.15-.31-.22Zm1.12.84.1.09-.33-.26Zm3.14,3,.15.2c-.11-.14-.23-.3-.37-.46h0Zm-1.14-1.25-.12-.12.07.06Zm30.59-60.6-1.17-.35q3,.87,5.76,1.83-1.32-.46-2.7-.9Zm29.25-44.53a104.24,104.24,0,0,1,17.48,6.3A103.37,103.37,0,0,0,1090.15,727.53Zm23,9.38c-.35-.23-.69-.46-1.06-.69C1112.42,736.45,1112.76,736.68,1113.11,736.91Zm-1.76-1.1c-.41-.24-.81-.48-1.24-.71C1110.54,735.33,1110.94,735.57,1111.35,735.81Zm-1.85-1L1108,734Zm5.26,3.27c-.31-.22-.6-.45-.92-.67C1114.16,737.6,1114.45,737.83,1114.76,738.05Zm5.7,5.3-.1-.12Zm2.76,3.48c-.16-.23-.32-.47-.49-.7C1122.9,746.36,1123.06,746.6,1123.22,746.83Zm1.94,3.33c-.2-.43-.42-.85-.66-1.28C1124.74,749.31,1125,749.73,1125.16,750.16Zm-18.23-68.3c-2.41-.87-4.88-1.68-7.39-2.46C1102.05,680.18,1104.52,681,1106.93,681.86ZM1080.5,620.3c-.87-.93-1.77-1.86-2.72-2.81C1078.73,618.44,1079.63,619.37,1080.5,620.3Zm-5.65-5.63c-6.58-6.09-14.51-11.84-22.57-13.91l-.31-.07.31.07C1060.34,602.83,1068.27,608.58,1074.85,614.67ZM950.16,590.91c1.51-.1,3.2-.15,5-.1-1.81,0-3.5,0-5,.1-1,.07-1.94.16-2.78.26C948.22,591.07,949.16,591,950.16,590.91ZM942,898.28v13.1h0V814.57h0v83.71Zm89.88-63.82a2.56,2.56,0,0,1,.16.25A2.56,2.56,0,0,0,1031.86,834.46Zm21.4-23.2,3.68-4.27-3.68,4.27Zm12.31-37.69c1.46.51,2.85,1,4.18,1.59-.52-.22-1.06-.43-1.6-.64C1067.31,774.19,1066.45,773.88,1065.57,773.57Zm6.46,2.6c-.54-.27-1.11-.52-1.69-.76q2.37,1,4.43,2.1c-.61-.32-1.23-.64-1.89-1C1072.6,776.44,1072.32,776.28,1072,776.17Zm5.16,2.74c.41.26.81.53,1.2.8C1078,779.44,1077.6,779.17,1077.19,778.91Z"/></g></g></g></svg>