<svg xmlns="http://www.w3.org/2000/svg" xmlns:xlink="http://www.w3.org/1999/xlink" viewBox="0 0 1920 1080"><defs><style>.cls-1{isolation:isolate;}.cls-2{fill:#d7f0f7;}.cls-10,.cls-11,.cls-12,.cls-13,.cls-14,.cls-15,.cls-3,.cls-4,.cls-5,.cls-6,.cls-7,.cls-8,.cls-9{opacity:0.7;}.cls-3{fill:url(#linear-gradient);}.cls-4{fill:url(#linear-gradient-2);}.cls-5{fill:url(#linear-gradient-3);}.cls-6{fill:url(#linear-gradient-4);}.cls-7{fill:url(#linear-gradient-5);}.cls-8{fill:url(#linear-gradient-6);}.cls-9{fill:url(#linear-gradient-7);}.cls-10{fill:url(#linear-gradient-8);}.cls-11{fill:url(#linear-gradient-9);}.cls-12{fill:url(#linear-gradient-10);}.cls-13{fill:url(#linear-gradient-11);}.cls-14{fill:url(#linear-gradient-12);}.cls-15{fill:url(#linear-gradient-13);}.cls-16,.cls-21,.cls-22{fill:#a6dff2;}.cls-17{fill:#fff;}.cls-18{fill:none;}.cls-19{fill:#589fe0;}.cls-20{fill:#1a79db;}.cls-21,.cls-24,.cls-25,.cls-26,.cls-27{mix-blend-mode:multiply;}.cls-21{opacity:0.6;}.cls-22,.cls-28,.cls-29{mix-blend-mode:soft-light;opacity:0.5;}.cls-23{fill:#cba872;}.cls-24{fill:url(#linear-gradient-14);}.cls-25{fill:url(#linear-gradient-15);}.cls-26{fill:url(#linear-gradient-16);}.cls-27{fill:url(#linear-gradient-17);}.cls-28{fill:url(#linear-gradient-18);}.cls-29{fill:url(#linear-gradient-19);}</style><linearGradient id="linear-gradient" x1="1341.57" y1="-16216.88" x2="1341.57" y2="-16109.57" gradientTransform="matrix(1, 0, 0, -1, 0, -15302)" gradientUnits="userSpaceOnUse"><stop offset="0.52" stop-color="#f6e8cc" stop-opacity="0"/><stop offset="0.82" stop-color="#fff"/></linearGradient><linearGradient id="linear-gradient-2" x1="1611.72" y1="-16180.77" x2="1611.72" y2="-16073.46" xlink:href="#linear-gradient"/><linearGradient id="linear-gradient-3" x1="712.87" y1="-16208.2" x2="712.87" y2="-16046.03" xlink:href="#linear-gradient"/><linearGradient id="linear-gradient-4" x1="1615.5" y1="-16301.87" x2="1615.5" y2="-16066.18" gradientTransform="matrix(1, 0, 0, -1, 0, -15302)" gradientUnits="userSpaceOnUse"><stop offset="0.19" stop-color="#fff" stop-opacity="0"/><stop offset="0.82" stop-color="#fff"/></linearGradient><linearGradient id="linear-gradient-5" x1="970.45" y1="-16281.07" x2="970.45" y2="-16045.38" xlink:href="#linear-gradient-4"/><linearGradient id="linear-gradient-6" x1="5810.39" y1="-16248.77" x2="5810.39" y2="-16013.08" gradientTransform="translate(6115.67 -15302) rotate(180)" xlink:href="#linear-gradient-4"/><linearGradient id="linear-gradient-7" x1="863.19" y1="-15683.53" x2="863.19" y2="-15718.5" gradientTransform="matrix(1, 0, 0, -1, 0, -15302)" gradientUnits="userSpaceOnUse"><stop offset="0" stop-color="#fff"/><stop offset="0.09" stop-color="#fff" stop-opacity="0.97"/><stop offset="0.22" stop-color="#fff" stop-opacity="0.89"/><stop offset="0.38" stop-color="#fff" stop-opacity="0.75"/><stop offset="0.56" stop-color="#fff" stop-opacity="0.57"/><stop offset="0.76" stop-color="#fff" stop-opacity="0.33"/><stop offset="0.97" stop-color="#fff" stop-opacity="0.04"/><stop offset="1" stop-color="#fff" stop-opacity="0"/></linearGradient><linearGradient id="linear-gradient-8" x1="267.4" y1="-15491.77" x2="267.4" y2="-15512.38" xlink:href="#linear-gradient-7"/><linearGradient id="linear-gradient-9" x1="1769.7" y1="-15459.42" x2="1769.7" y2="-15490.47" xlink:href="#linear-gradient-7"/><linearGradient id="linear-gradient-10" x1="355.53" y1="607.57" x2="355.53" y2="699.44" gradientTransform="matrix(-1, 0, 0, 1, 1922, 0)" gradientUnits="userSpaceOnUse"><stop offset="0" stop-color="#fff"/><stop offset="0.18" stop-color="#fff" stop-opacity="0.99"/><stop offset="0.32" stop-color="#fff" stop-opacity="0.95"/><stop offset="0.43" stop-color="#fff" stop-opacity="0.89"/><stop offset="0.54" stop-color="#fff" stop-opacity="0.8"/><stop offset="0.64" stop-color="#fff" stop-opacity="0.69"/><stop offset="0.74" stop-color="#fff" stop-opacity="0.55"/><stop offset="0.83" stop-color="#fff" stop-opacity="0.38"/><stop offset="0.92" stop-color="#fff" stop-opacity="0.2"/><stop offset="1" stop-color="#fff" stop-opacity="0"/></linearGradient><linearGradient id="linear-gradient-11" x1="1505.53" y1="609.52" x2="1505.53" y2="701.39" gradientTransform="translate(764)" xlink:href="#linear-gradient-10"/><linearGradient id="linear-gradient-12" x1="93.93" y1="450.84" x2="93.93" y2="501.05" gradientTransform="translate(100.19)" xlink:href="#linear-gradient-10"/><linearGradient id="linear-gradient-13" x1="902.16" y1="450.72" x2="902.16" y2="500.93" gradientTransform="matrix(-1, 0, 0, 1, 758.04, 0)" xlink:href="#linear-gradient-10"/><linearGradient id="linear-gradient-14" x1="1272.34" y1="897.76" x2="1210.8" y2="831.12" gradientUnits="userSpaceOnUse"><stop offset="0" stop-color="#fff" stop-opacity="0"/><stop offset="0.12" stop-color="#faf7f5" stop-opacity="0.05"/><stop offset="0.3" stop-color="#eedfd9" stop-opacity="0.17"/><stop offset="0.52" stop-color="#d9b9ac" stop-opacity="0.38"/><stop offset="0.76" stop-color="#bd836d" stop-opacity="0.66"/><stop offset="1" stop-color="#9b4422"/></linearGradient><linearGradient id="linear-gradient-15" x1="1140.91" y1="865.86" x2="1209.32" y2="865.86" xlink:href="#linear-gradient-14"/><linearGradient id="linear-gradient-16" x1="1173.49" y1="857.88" x2="1326.8" y2="826.93" xlink:href="#linear-gradient-14"/><linearGradient id="linear-gradient-17" x1="1347.96" y1="907.75" x2="1251.83" y2="766.82" xlink:href="#linear-gradient-14"/><linearGradient id="linear-gradient-18" x1="1137" y1="915.04" x2="1413" y2="915.04" gradientUnits="userSpaceOnUse"><stop offset="0" stop-color="#ffc44e"/><stop offset="1" stop-color="#af3f84"/></linearGradient><linearGradient id="linear-gradient-19" x1="1097.64" y1="591.51" x2="760.65" y2="1051.63" xlink:href="#linear-gradient-18"/></defs><g class="cls-1"><g id="Layer_1" data-name="Layer 1"><g id="sky"><polyline id="sky-2" data-name="sky" class="cls-2" points="0.57 116.2 0.57 0 1920 0 1920 1075.6 0.57 1075.6 0.57 116.2"/></g><g id="clouds"><g id="cloud10"><path class="cls-3" d="M1433.81,858a10.73,10.73,0,0,0,.5-3.26c0-7.14-7-12.93-15.66-12.93a17.43,17.43,0,0,0-2.3.14c-1.78-11.2-13-19.92-26.91-20.48-4.47-8.21-14.46-13.93-26.07-13.93-15.77,0-28.57,10.56-28.57,23.6,0,.32,0,.63,0,1a27.62,27.62,0,0,0-4.21-.32c-12.17,0-22.14,7.77-23,17.64h-.11l.07,10.74c-.28,0-.56-.07-.85-.07a11.9,11.9,0,0,0-1.34.08c-1-6.49-7.57-11.55-15.61-11.88-2.59-4.76-8.39-8.08-15.12-8.08-9.15,0-16.58,6.13-16.58,13.69,0,.19,0,.37,0,.55a16.43,16.43,0,0,0-2.45-.18c-7.06,0-12.84,4.51-13.36,10.23h-.06l.25,38h65.4l.08,12.38h133V864.47C1441,861.09,1437.81,858.31,1433.81,858Z"/></g><g id="clooud9"><path class="cls-4" d="M1704,821.91a11.05,11.05,0,0,0,.5-3.26c0-7.14-7-12.93-15.66-12.93a19.49,19.49,0,0,0-2.31.14c-1.77-11.19-13-19.92-26.91-20.48-4.47-8.21-14.46-13.92-26.07-13.92-15.77,0-28.57,10.56-28.57,23.6,0,.31,0,.63,0,.94a27.85,27.85,0,0,0-4.22-.32c-12.17,0-22.14,7.78-23,17.64h-.11l.07,10.75a7.93,7.93,0,0,0-.84-.07,10,10,0,0,0-1.35.08c-1-6.5-7.56-11.56-15.61-11.89-2.59-4.76-8.39-8.07-15.12-8.07-9.15,0-16.57,6.13-16.57,13.69,0,.18,0,.37,0,.55a16.32,16.32,0,0,0-2.45-.19c-7.06,0-12.84,4.52-13.36,10.23h-.06l.26,38H1578l.08,12.38h133V828.35C1711.1,825,1708,822.2,1704,821.91Z"/></g><path class="cls-5" d="M802.94,820.28a16.57,16.57,0,0,0,.75-4.92c0-10.8-10.59-19.55-23.66-19.55a28.69,28.69,0,0,0-3.49.21c-2.68-16.92-19.71-30.1-40.66-30.94C729.12,752.67,714,744,696.48,744c-23.84,0-43.17,16-43.17,35.66,0,.48,0,.95,0,1.43a41.6,41.6,0,0,0-6.37-.49c-18.39,0-33.46,11.76-34.8,26.66l-.17,0,.68,98.89H813.73V830C813.73,824.9,809,820.71,802.94,820.28Z"/><g id="cloud8"><path class="cls-6" d="M1904.3,875a23.65,23.65,0,0,0,1.1-7.15c0-15.69-15.39-28.4-34.39-28.4a42.23,42.23,0,0,0-5.07.3c-3.9-24.58-28.65-43.74-59.1-45-9.82-18-31.76-30.59-57.25-30.59-34.66,0-62.74,23.21-62.74,51.83,0,.7,0,1.39.05,2.08a61.28,61.28,0,0,0-9.27-.7c-26.73,0-48.62,17.07-50.57,38.74l-.25,0,0,2.29a46,46,0,0,0-23.43-6.24,49.57,49.57,0,0,0-7.38.56c0-.55,0-1.1,0-1.65,0-22.78-22.36-41.25-49.94-41.25-20.29,0-37.75,10-45.57,24.34-24.23,1-43.93,16.23-47,35.79a35.78,35.78,0,0,0-4-.24c-11.26,0-20.92,5.62-25.12,13.65-1.95-11.57-13.63-20.56-28-21.14-4.65-8.55-15.06-14.5-27.15-14.5-16.43,0-29.75,11-29.75,24.58,0,.33,0,.66,0,1a30.06,30.06,0,0,0-4.4-.33c-12.67,0-23,8.1-24,18.37l-.12,0,.48,68.15h99v37.9h217.29v2.44H1920V889.14C1920,881.72,1913.1,875.62,1904.3,875Z"/></g><g id="cloud7"><path class="cls-7" d="M1259.25,854.2a23.69,23.69,0,0,0,1.1-7.15c0-15.69-15.39-28.41-34.39-28.41a40.25,40.25,0,0,0-5.07.31c-3.9-24.59-28.65-43.75-59.1-45-9.82-18-31.76-30.59-57.25-30.59-34.66,0-62.74,23.21-62.74,51.84,0,.69,0,1.38,0,2.07a61.28,61.28,0,0,0-9.27-.7c-26.73,0-48.62,17.08-50.57,38.74l-.25,0,0,2.28a46,46,0,0,0-23.43-6.23A49.58,49.58,0,0,0,951,832c0-.55,0-1.09,0-1.65,0-22.78-22.35-41.25-49.93-41.25-20.29,0-37.75,10-45.57,24.35-24.24,1-43.93,16.22-47,35.79a33.58,33.58,0,0,0-4-.25c-11.26,0-20.93,5.62-25.12,13.66-2-11.57-13.63-20.56-28-21.14-4.65-8.56-15.06-14.51-27.15-14.51-16.43,0-29.75,11-29.75,24.58,0,.33,0,.66,0,1a28.74,28.74,0,0,0-4.4-.33c-12.67,0-23,8.09-24,18.37h-.12l.48,68.16h99v37.9H982.74v2.43H1275V868.35C1275,860.92,1268.05,854.83,1259.25,854.2Z"/></g><g id="cloud6"><path class="cls-8" d="M16.47,821.89a24,24,0,0,1-1.09-7.15c0-15.69,15.39-28.4,34.39-28.4a42.35,42.35,0,0,1,5.07.3c3.9-24.58,28.64-43.74,59.1-45,9.82-18,31.76-30.59,57.25-30.59,34.65,0,62.74,23.21,62.74,51.83,0,.7,0,1.39-.05,2.08a61.18,61.18,0,0,1,9.27-.7c26.73,0,48.62,17.07,50.57,38.74l.25,0,0,2.29a46,46,0,0,1,23.43-6.24,49.68,49.68,0,0,1,7.38.56c0-.55-.05-1.1-.05-1.65,0-22.78,22.36-41.25,49.94-41.25,20.29,0,37.75,10,45.56,24.34,24.24,1,43.94,16.23,47,35.79a35.6,35.6,0,0,1,4-.24c11.27,0,20.93,5.62,25.13,13.65,1.95-11.57,13.63-20.56,28-21.14,4.66-8.55,15.06-14.5,27.15-14.5,16.44,0,29.76,11,29.76,24.58,0,.33,0,.66,0,1a30,30,0,0,1,4.39-.33c12.68,0,23.06,8.1,24,18.37l.11,0-.47,68.15h-99v37.9H293l0,2.44H.78V836C.78,828.62,7.68,822.52,16.47,821.89Z"/></g><g id="cloud3"><path class="cls-9" d="M961.28,409.08s.16-27.55-24.62-27.55-23.79,22.68-23.79,22.68-3.7-12.94-19.51-11.46c-18.11,1.7-16.78,16.33-16.78,16.33s-3.78-11.49-21.92-8.17a16.47,16.47,0,0,0-13.16,12.25s-6.19-14.82-19.77-15.3c-18.93-.69-27.17,16.32-27.17,16.32l-63,6.12,263.21-4.08Z"/></g><g id="cloud1"><path class="cls-10" d="M325.23,206s.09-16.24-14.52-16.24-14,13.37-14,13.37-2.19-7.63-11.5-6.75c-10.68,1-9.9,9.62-9.9,9.62s-2.22-6.78-12.91-4.82a9.72,9.72,0,0,0-7.77,7.22s-3.65-8.73-11.65-9C231.8,199,227,209,227,209l-37.13,3.61L345,210.22Z"/></g><g id="cloud2"><path class="cls-11" d="M1856.8,181.87s.14-24.45-21.86-24.45-21.12,20.13-21.12,20.13-3.29-11.49-17.33-10.17c-16.08,1.51-14.9,14.49-14.9,14.49s-3.36-10.2-19.46-7.25a14.63,14.63,0,0,0-11.69,10.88s-5.5-13.16-17.55-13.59c-16.81-.61-24.12,14.49-24.12,14.49l-55.93,5.44,233.72-3.63Z"/></g><g id="cloud5"><path class="cls-12" d="M1918,597.64s-1.27-2.88-1.28-2.89c-12.24-33-89.87-10.44-110.83,4.39-15.36,10.87-32,26.88-51.27,21.89-6.77-1.75-12.14-5.93-18-9.25-22.35-12.62-54.52-11.84-75.92,1.85-13.39,8.56-24.48,22.11-41.38,22.77-9.37.37-18.29-3.55-27.66-3.85-22.24-.72-37.3,17.68-56,27.66-20.77,11.08-39.13,7.55-61.53,4.59-19.87-2.64-40.83-.29-60.92,1.41-28.12,2.38-58.28,11.16-86.37,11.19C1321.55,677.4,1215,692,1215,692s83.69,11.64,127.75,8,22.26-3.92,62.37,0,85.21,13.83,103,12.37-9.27.29,55.38.15,69.18,8,133,7.5,70.13-14.93,109.25-20,112.25,2,112.25,2V597.64Z"/><path class="cls-13" d="M1918,599.59s1.27-2.88,1.28-2.89c12.24-33,89.87-10.44,110.83,4.39,15.36,10.87,32,26.88,51.27,21.89,6.77-1.75,12.14-5.93,18-9.25,22.35-12.62,54.52-11.84,75.92,1.85,13.39,8.56,24.48,22.11,41.38,22.78,9.37.36,18.29-3.56,27.66-3.86,22.24-.72,37.3,17.68,56,27.66,20.77,11.08,39.13,7.56,61.53,4.59,19.87-2.64,40.83-.29,60.92,1.41,28.12,2.38,58.28,11.16,86.37,11.19,5.29,0,111.89,14.56,111.89,14.56s-83.69,11.63-127.75,8-22.26-3.92-62.37,0-85.21,13.83-103,12.37,9.27.29-55.38.15-69.18,8-133,7.5-70.13-14.93-109.25-20-112.25,2-112.25,2V599.59Z"/></g><g id="cloud4"><path class="cls-14" d="M2,445.42s.7-1.57.7-1.58c6.69-18,49.12-5.71,60.57,2.4,8.4,5.94,17.47,14.69,28,12,3.7-1,6.64-3.24,9.84-5.05,12.21-6.9,29.79-6.47,41.49,1,7.32,4.68,13.38,12.08,22.62,12.44,5.12.2,10-1.94,15.12-2.1,12.15-.4,20.38,9.66,30.6,15.11,11.35,6.06,21.38,4.13,33.62,2.51,10.87-1.44,22.32-.16,33.3.77,15.37,1.3,31.85,6.1,47.2,6.12,2.89,0,61.15,7.95,61.15,7.95s-45.74,6.36-69.81,4.38-12.17-2.15-34.09,0S235.76,508.9,226,508.1s5.07.16-30.26.08-37.81,4.35-72.7,4.1-38.32-8.16-59.7-10.94S2,502.41,2,502.41v-57Z"/><path class="cls-15" d="M48,445.29l-.7-1.57c-6.69-18.05-49.12-5.71-60.57,2.39-8.4,5.94-17.47,14.7-28,12-3.7-1-6.64-3.25-9.84-5.06-12.21-6.9-29.79-6.47-41.49,1-7.32,4.68-13.38,12.09-22.62,12.45-5.12.2-10-1.94-15.12-2.11-12.15-.39-20.38,9.67-30.6,15.12-11.35,6.05-21.38,4.13-33.62,2.51-10.87-1.44-22.32-.16-33.3.77-15.37,1.3-31.85,6.1-47.2,6.11-2.89,0-61.15,8-61.15,8s45.74,6.36,69.81,4.37,12.17-2.14,34.09,0,46.57,7.56,56.32,6.77-5.07.16,30.26.08,37.81,4.35,72.7,4.09,38.32-8.15,59.7-10.94S48,502.28,48,502.28v-57Z"/></g></g><g id="buildings"><path id="buildings-2" data-name="buildings" class="cls-16" d="M.56,917.16,15,918.53v20.58l1.36-1.83,6-5.89,1.53-.63,1.86-7L26.9,931l3.64-.06v8.41l7.54,9.48v12.35l7,5.37v19.54H57.74l9.67,3.09V962H87.58v8.8h5.25v9.6h26.78v64.81h16.1v4.8h22.72v9.44h7.12v-58.14h25.93v4h26.61v6.85H230V994.66l15.08,7.42v-7.42l19.15,8v-29l13.06,10h35.59V934.84H320v-13H367.7v14.63h6.78v23.31h7.91v49.68H391V971.57H586v31.73H691.11s15-9.34,29.06-9.62c0,0,15.42,19,11.43,37.21h20.15l7.76-13.16h7.13V968.49h34v2.22h-5.8v5.1h7.41v49h11V993.63h3.78V980.52h5.18v-3.39h6.43v-2.08h5.73v2.08h4.41V938.36h5.88v-66.5h10V750.32h4v-30h1.68v-30h1.12L863,651l1,39.24h2V701.9h3v59.25h3.47V789.7h5.14v24.06h3.91v80.17h3.85V959h6.72v42.58h18V954.35h17.2V901.43h7.14V889.69h47.84v12h9.86v77.4h32.45V940.34l7.83-5.28v-7.74h19.87v10.94h11.75V989s14.54,10.38,14.54,23.39h18.19v-6.22h22.94v-8.3h4.75v-8.12H1145v8.4h4v14.05h3.92V991.37H1157v-5.94h11.47V970.81H1195v14.24h151.77L1510,1043.34V945.43l16.79-19v-6.22h2.1v6.22L1548,945.72v94.6h19.37V962.41H1620v77.25l18.67,4.39v-8.21h22v-8.35h39V1033h6.92V1025h8.4l7.76-5.24h14.69V1024h15.31v8.77h15.11v-20.8h18v23.63h24.75V1023h22.87v10.33h25.81v-9.77h12.17v-9.48H1920v61.55H.56Z"/></g><path class="cls-17" d="M435.76,1054.13c-2.59,14-13.8,21-14.51,21.47Z"/><line class="cls-18" x1="421.26" y1="1075.57" x2="421.22" y2="1075.6"/><rect class="cls-19" x="0.56" y="1058.31" width="1919.44" height="22.29"/><polygon class="cls-20" points="243.56 1080.6 302.73 1058.31 870.5 1058.31 920.86 1080.6 243.56 1080.6"/><polygon class="cls-16" points="734.61 676.62 734.61 709.72 724.37 709.72 716.22 709.72 704.35 709.72 696.19 709.72 684.35 709.72 675.1 709.72 663.23 709.72 654 709.72 654 676.62 665.24 676.62 677.15 676.62 677.15 676.64 699.64 676.64 699.64 676.62 706.82 676.62 734.61 676.62"/><path class="cls-16" d="M699.64,1037.44h16.57V780.62a8.29,8.29,0,1,0-16.57,0Zm24.73,6.32H654v-334h9.23v25.16H675.1V709.72h9.25v25.16h11.84V709.72h8.16v25.16h11.86V709.72h8.16Zm-61.74-6.32h22.82V783.73a11.41,11.41,0,0,0-22.82,0Z"/><path class="cls-16" d="M716.21,780.62v256.82H699.64V780.62a8.29,8.29,0,1,1,16.57,0Z"/><rect class="cls-16" x="704.35" y="709.72" width="11.86" height="25.16"/><polygon class="cls-16" points="714.68 498.82 714.68 528.94 706.82 528.94 706.82 528.91 654 528.91 654 498.82 700 498.82 714.68 498.82"/><path class="cls-16" d="M706.81,528.94V676.62h-7.17V614a11.25,11.25,0,0,0-22.49,0v62.6H665.24V614A11.22,11.22,0,0,0,654,602.78V548h4.62v-19h8.25v19h11.6v-19h9.93v19H700v-19Z"/><rect class="cls-16" x="688.4" y="528.94" width="11.6" height="19.02"/><polygon class="cls-16" points="700 488.03 700 498.82 654 498.82 654 488.03 688.4 488.03 700 488.03"/><rect class="cls-16" x="677.15" y="676.62" width="22.48" height="0.02"/><path class="cls-16" d="M699.64,614v62.6H677.15V614a11.25,11.25,0,0,1,22.49,0Z"/><circle class="cls-16" cx="654.01" cy="375.68" r="5.58"/><rect class="cls-16" x="684.35" y="709.72" width="11.84" height="25.16"/><rect class="cls-16" x="654" y="481.24" width="34.4" height="6.79"/><polygon class="cls-16" points="688.4 419.91 688.4 427.95 681.82 427.95 654 427.95 654 419.91 688.4 419.91"/><path class="cls-16" d="M685.45,783.73v253.71H662.63V783.73a11.41,11.41,0,0,1,22.82,0Z"/><path class="cls-16" d="M684.35,419.89H654V375.68S684.35,379.51,684.35,419.89Z"/><rect class="cls-16" x="666.87" y="528.94" width="11.6" height="19.02"/><rect class="cls-16" x="663.23" y="709.72" width="11.86" height="25.16"/><path class="cls-16" d="M672.68,437.59v33.87a3.52,3.52,0,0,1-7,0V437.59a3.52,3.52,0,1,1,7,0Z"/><polygon class="cls-16" points="654 528.91 706.82 528.91 706.82 528.94 700 528.94 688.4 528.94 678.47 528.94 666.87 528.94 658.62 528.94 654 528.94 654 528.91"/><rect class="cls-16" x="654" y="528.94" width="4.62" height="19.02"/><path class="cls-16" d="M654,602.78A11.22,11.22,0,0,1,665.24,614v62.6H654Z"/><path class="cls-16" d="M669.17,475a3.5,3.5,0,0,0,3.51-3.49V437.59a3.52,3.52,0,1,0-7,0v33.87A3.51,3.51,0,0,0,669.17,475ZM654,428h27.82v53.27H654V475a3.53,3.53,0,0,0,3.52-3.52V437.59a3.53,3.53,0,0,0-3.52-3.52Z"/><path class="cls-16" d="M654,1043.76H583.6v-334h8.16v25.16h11.87V709.72h8.15v25.16h11.87V709.72h9.23v25.16h11.86V709.72H654Zm-62.24-6.32h16.58V780.62a8.29,8.29,0,1,0-16.58,0Zm30.76,0h22.82V783.73a11.41,11.41,0,0,0-22.82,0Z"/><polygon class="cls-16" points="654 676.62 654 709.72 644.74 709.72 632.88 709.72 623.65 709.72 611.78 709.72 603.63 709.72 591.76 709.72 583.61 709.72 573.39 709.72 573.39 676.62 601.18 676.62 608.34 676.62 608.34 676.64 630.82 676.64 630.82 676.62 642.76 676.62 654 676.62"/><polygon class="cls-16" points="617.71 676.62 617.71 709.72 612.62 709.72 606.1 709.72 601.02 709.72 594.5 709.72 590.01 709.72 583.49 709.72 579.01 709.72 573.39 709.72 573.39 676.62 588.67 676.62 592.61 676.62 592.61 676.64 604.97 676.64 604.97 676.62 611.53 676.62 617.71 676.62"/><path class="cls-16" d="M653.52,375.81c-3.09.91-20,7.39-20,44.08h-9.91C623.64,382.54,649.62,376.46,653.52,375.81Z"/><path class="cls-16" d="M654.48,375.81c3.09.91,20,7.39,20,44.08h9.91C684.36,382.54,658.38,376.46,654.48,375.81Z"/><path class="cls-16" d="M654,375.69v44.2H633.55c0-36.69,16.88-43.17,20-44.08a2.07,2.07,0,0,0,.26-.06Z"/><path class="cls-16" d="M650.48,437.59a3.52,3.52,0,1,1,7,0v33.84a3.52,3.52,0,1,1-7,0Z"/><path class="cls-16" d="M642.76,614A11.22,11.22,0,0,1,654,602.78v73.84H642.76Z"/><rect class="cls-16" x="649.36" y="528.94" width="4.62" height="19.02"/><polygon class="cls-16" points="653.98 498.82 653.98 528.91 601.18 528.91 601.18 528.94 593.29 528.94 593.29 498.82 607.98 498.82 653.98 498.82"/><polygon class="cls-16" points="617.71 498.82 617.71 528.91 596.47 528.91 596.47 528.94 593.29 528.94 593.29 498.82 599.2 498.82 617.71 498.82"/><polygon class="cls-16" points="653.98 488.03 653.98 498.82 607.98 498.82 607.98 488.03 619.58 488.03 653.98 488.03"/><rect class="cls-16" x="619.58" y="481.24" width="34.4" height="6.79"/><polygon class="cls-16" points="653.98 419.91 653.98 427.95 626.18 427.95 619.58 427.95 619.58 419.91 653.98 419.91"/><path class="cls-16" d="M645.34,783.73v253.71H622.52V783.73a11.41,11.41,0,0,1,22.82,0Z"/><rect class="cls-16" x="632.88" y="709.72" width="11.86" height="25.16"/><path class="cls-16" d="M642.33,437.59v33.87a3.52,3.52,0,0,1-7,0V437.59a3.52,3.52,0,0,1,7,0Z"/><rect class="cls-16" x="629.51" y="528.94" width="11.6" height="19.02"/><path class="cls-16" d="M654,481.22H626.18V428H654v6.12a3.53,3.53,0,0,0-3.52,3.52v33.84A3.53,3.53,0,0,0,654,475Zm-15.19-47.15a3.53,3.53,0,0,0-3.52,3.52v33.87a3.52,3.52,0,0,0,7,0V437.59A3.53,3.53,0,0,0,638.81,434.07Z"/><rect class="cls-16" x="608.34" y="676.62" width="22.48" height="0.02"/><path class="cls-16" d="M630.82,614v62.6H608.34V614a11.24,11.24,0,0,1,22.48,0Z"/><rect class="cls-16" x="611.78" y="709.72" width="11.86" height="25.16"/><rect class="cls-16" x="607.98" y="528.94" width="11.6" height="19.02"/><path class="cls-16" d="M608.34,780.62v256.82H591.76V780.62a8.29,8.29,0,1,1,16.58,0Z"/><polygon class="cls-16" points="601.18 528.91 653.98 528.91 653.98 528.94 649.36 528.94 641.11 528.94 629.51 528.94 619.58 528.94 607.98 528.94 601.18 528.94 601.18 528.91"/><path class="cls-16" d="M608,528.94v19h11.6v-19h9.93v19h11.6v-19h8.25v19H654v-19h0v73.87A11.22,11.22,0,0,0,642.76,614v62.6H630.82V614a11.24,11.24,0,0,0-22.48,0v62.6h-7.15V528.94Z"/><rect class="cls-16" x="591.76" y="709.72" width="11.86" height="25.16"/><rect class="cls-16" x="570" y="1043.77" width="168" height="14.33"/><rect class="cls-16" x="626.18" y="427.95" width="55.64" height="2.48"/><rect class="cls-21" x="601.19" y="528.94" width="105.63" height="6.03"/><rect class="cls-21" x="583.24" y="710.14" width="141.13" height="7.08"/><rect class="cls-21" x="583.91" y="709.72" width="34.89" height="333.39"/><rect class="cls-21" x="601.19" y="528.94" width="37.4" height="147.68"/><rect class="cls-21" x="626.18" y="427.95" width="20" height="53.27"/><rect class="cls-16" x="652.87" y="343.98" width="2.27" height="27.79"/><path class="cls-22" d="M579,709.72h-5.62v-33.1h27.8V528.94h-7.9V498.82H608V488h11.6v-6.79H654v47.67h0V481.24h34.4V488H700v10.79h14.68v30.12h-7.87V676.62h27.8v33.1H724.37v334H583.6V717.22h-.36v-7.08h.36v-.42H579Zm75-289.83h30.35c0-1.25,0-2.46-.09-3.64,0-.12,0-.22,0-.34-.06-1-.13-2-.23-3,0-.28-.06-.54-.09-.81-.09-.8-.18-1.59-.29-2.36,0-.32-.11-.64-.16-1-.12-.68-.23-1.36-.37-2-.07-.34-.14-.67-.22-1-.13-.61-.28-1.21-.43-1.8l-.27-1c-.16-.56-.32-1.1-.49-1.63l-.33-1c-.17-.51-.36-1-.54-1.49-.13-.32-.25-.63-.37-.94-.2-.47-.4-.92-.6-1.37-.14-.3-.27-.6-.41-.89s-.42-.85-.64-1.26l-.45-.85c-.22-.39-.45-.77-.68-1.16l-.48-.78c-.23-.37-.47-.71-.71-1.06l-.51-.75c-.23-.32-.47-.63-.71-.94a38.79,38.79,0,0,0-2.8-3.21l-.32-.33c-.33-.33-.68-.65-1-1l-.3-.29c-.36-.32-.72-.62-1.08-.92a2.43,2.43,0,0,0-.25-.2c-.38-.31-.76-.61-1.15-.9l-.15-.11c-.42-.31-.83-.6-1.25-.88h0a35.81,35.81,0,0,0-7.56-3.88,5.43,5.43,0,0,0,.22-1.46,5.58,5.58,0,0,0-4.45-5.46V344h-2.27v26.24a5.58,5.58,0,0,0-4.45,5.46,5.52,5.52,0,0,0,.23,1.48c-8.72,3.19-25,13.15-25,42.73H654Zm-84,623.88v14.33H738v-14.33Zm56.18-613.34v50.79h55.64V428h6.58v-8H654v8h0v-8h-34.4v8h6.6Z"/><path class="cls-19" d="M1273.31,894.73v168.64h-29.77V909c0-14.1,1.18-32.12-4.31-42.3s-34.08-20.37-34.08-20.37-28.59,10.18-34.07,20.37c-1.93,3.55-3,8.07-3.66,13-1.15,9.26-.65,20.09-.65,29.26v154.33H1137V894.73a70.39,70.39,0,0,1,4.77-25.84c3.22-8.18,8.52-17,17.16-22.13,19.2-11.36,46.22-22.72,46.22-22.72s27,11.36,46.23,22.72c8.64,5.11,13.94,14,17.16,22.13A70.39,70.39,0,0,1,1273.31,894.73Z"/><path class="cls-19" d="M1281.63,894.73v168.64h-29.76V909c0-14.1,1.17-32.12-4.32-42.3s-34.07-20.37-34.07-20.37-28.59,10.18-34.08,20.37a37.8,37.8,0,0,0-3.65,13c-1.16,9.26-.66,20.09-.66,29.26v154.33h-29.77V894.73a70.6,70.6,0,0,1,4.77-25.84c3.22-8.18,8.53-17,17.17-22.13,19.19-11.36,46.22-22.72,46.22-22.72s27,11.36,46.22,22.72c8.64,5.11,13.94,14,17.16,22.13A70.39,70.39,0,0,1,1281.63,894.73Z"/><path class="cls-2" d="M1255.2,1060V909c0-2,0-4.19,0-6.37.15-13.16.33-28.06-4.76-37.51-5.93-11-32.85-20.84-35.9-21.92l-1.11-.4-1.12.4c-3,1.08-30,10.92-35.89,21.92-2,3.61-3.27,8.25-4,14.2-.92,7.39-.82,15.46-.73,23.27,0,2.19,0,4.34,0,6.41v151h-23.11V894.73a66.85,66.85,0,0,1,4.54-24.62c3.8-9.66,9.11-16.55,15.76-20.48,16.41-9.72,38.94-19.57,44.53-22,5.59,2.4,28.11,12.25,44.52,22,6.66,3.93,12,10.82,15.77,20.48a66.85,66.85,0,0,1,4.53,24.62V1060Z"/><path class="cls-20" d="M1251.87,909v154.33H1241.5V919.64c0-13.12,1.06-29.9-3.93-39.38s-31-19-31-19-25.19,9.16-30.78,18.49a37.8,37.8,0,0,1,3.65-13c5.49-10.19,34.08-20.37,34.08-20.37s28.59,10.18,34.07,20.37S1251.87,894.94,1251.87,909Z"/><path class="cls-16" d="M1167.49,914.33v29.38h-14.34V914.33a7.17,7.17,0,0,1,14.34,0Z"/><rect class="cls-16" x="1153.15" y="947.13" width="14.34" height="39.87"/><path class="cls-16" d="M1153.15,990.43h14.34V1027a7.17,7.17,0,0,1-14.34,0Z"/><path class="cls-16" d="M1274.14,914.33v29.38H1259.8V914.33a7.17,7.17,0,0,1,14.34,0Z"/><rect class="cls-16" x="1259.8" y="947.13" width="14.34" height="39.87"/><path class="cls-16" d="M1259.8,990.43h14.34V1027a7.17,7.17,0,1,1-14.34,0Z"/><polygon class="cls-23" points="1205.15 824.04 1213.48 824.04 1209.32 825.83 1205.15 824.04"/><path class="cls-24" d="M1237.57,880.26c3.1,5.89,3.86,14.59,4,23.49l2.09-1.37c4.85-3.07,9.81-6,14.71-9,5.53-3.37,11.11-6.68,16.75-9.87,1.71-1,3.43-1.92,5.16-2.87a67.37,67.37,0,0,0-3.42-11.79c-3.22-8.18-8.52-17-17.16-22.13-19.2-11.36-46.22-22.72-46.22-22.72h-3.15c-.06,1.17-.1,2.33-.17,3.5-.63,10.92-1.52,21.83-2.46,32.73,0,.47-.08.94-.13,1.41C1212.47,863.56,1233.17,871.9,1237.57,880.26Z"/><path class="cls-25" d="M1208.1,841.86q.7-8.91,1.22-17.82h-4.17s-27,11.36-46.22,22.72c-8.64,5.11-13.94,14-17.16,22.13-.31.77-.58,1.56-.86,2.34.81.76,1.63,1.51,2.43,2.28,8.48,8.11,16.48,16.7,24.23,25.51,2.53,2.87,5,5.76,7.51,8.66,0-8.88-.43-19.09.67-27.9,5.38-9,28.91-17.8,30.66-18.45C1207,854.84,1207.58,848.35,1208.1,841.86Zm-31.43,32.55c.26-1.14.56-2.24.9-3.29C1177.23,872.17,1176.93,873.27,1176.67,874.41Zm1.69-5.44a22.9,22.9,0,0,1,1-2.23c0-.08.1-.16.15-.25,0,.09-.11.17-.15.25A22.9,22.9,0,0,0,1178.36,869Z"/><path class="cls-23" d="M1191.15,856.65c.95-.56,1.93-1.11,2.91-1.64C1193.08,855.54,1192.1,856.09,1191.15,856.65Z"/><path class="cls-19" d="M1337.68,870v193.39h-34.14v-177c0-16.17,1.35-36.83-4.94-48.51s-39.08-23.35-39.08-23.35-32.79,11.67-39.08,23.35c-2.2,4.08-3.46,9.26-4.19,15-1.32,10.62-.75,23-.75,33.55v177h-34.13V870a80.85,80.85,0,0,1,5.46-29.63c3.7-9.38,9.78-19.51,19.69-25.37,22-13,53-26.06,53-26.06s31,13,53,26.06c9.9,5.86,16,16,19.68,25.37A80.86,80.86,0,0,1,1337.68,870Z"/><path class="cls-19" d="M1347.22,870v193.39h-34.13v-177c0-16.17,1.34-36.83-4.95-48.51s-39.07-23.35-39.07-23.35-32.79,11.67-39.08,23.35c-2.21,4.08-3.47,9.26-4.19,15-1.33,10.62-.76,23-.76,33.55v177h-34.13V870a80.86,80.86,0,0,1,5.47-29.63c3.69-9.38,9.77-19.51,19.68-25.37,22-13,53-26.06,53-26.06s31,13,53,26.06c9.91,5.86,16,16,19.68,25.37A80.66,80.66,0,0,1,1347.22,870Z"/><path class="cls-2" d="M1316.91,1059.55V886.39c0-2.35,0-4.8.06-7.31.17-15.08.37-32.18-5.46-43-6.79-12.61-37.67-23.89-41.16-25.14l-1.28-.46-1.28.46c-3.5,1.25-34.37,12.53-41.16,25.14-2.24,4.14-3.75,9.47-4.62,16.29-1.06,8.47-1,17.73-.84,26.68,0,2.52.06,5,.06,7.35v173.16h-26.5V870a76.7,76.7,0,0,1,5.2-28.23c4.36-11.07,10.45-19,18.08-23.49,18.82-11.14,44.65-22.44,51.06-25.19,6.4,2.75,32.24,14,51.06,25.19,7.63,4.51,13.71,12.42,18.07,23.49a76.7,76.7,0,0,1,5.2,28.23v189.57Z"/><path class="cls-20" d="M1313.09,886.39v177H1301.2V898.55c0-15,1.22-34.29-4.51-45.16s-35.59-21.76-35.59-21.76-28.89,10.51-35.3,21.21c.72-5.7,2-10.88,4.19-15,6.29-11.68,39.08-23.35,39.08-23.35s32.78,11.67,39.07,23.35S1313.09,870.22,1313.09,886.39Z"/><path class="cls-16" d="M1216.33,892.46v33.69h-16.45V892.46a8.23,8.23,0,0,1,16.45,0Z"/><rect class="cls-16" x="1199.88" y="930.07" width="16.45" height="45.72"/><path class="cls-16" d="M1199.88,979.73h16.45v41.88a8.23,8.23,0,0,1-16.45,0Z"/><path class="cls-16" d="M1338.63,892.46v33.69h-16.44V892.46a8.22,8.22,0,1,1,16.44,0Z"/><rect class="cls-16" x="1322.19" y="930.07" width="16.45" height="45.72"/><path class="cls-16" d="M1322.19,979.73h16.44v41.88a8.22,8.22,0,1,1-16.44,0Z"/><polygon class="cls-23" points="1259.52 788.92 1269.07 788.92 1264.29 790.98 1259.52 788.92"/><path class="cls-26" d="M1264.11,825.92c3.25-11.56,8.71-22.42,15-32.62-6.06-2.72-10-4.38-10-4.38h-9.55s-31,13-53,26.06c-9.91,5.86-16,16-19.69,25.37a80.33,80.33,0,0,0-5.42,27.81c1.18.93,2.36,1.87,3.55,2.79,2.94,2.28,5.91,4.52,8.86,6.78,2.63,2,5.2,4.14,7.89,6.07,5.37,3.86,11.24,7,16.77,10.57a79.53,79.53,0,0,1,6.56,4.7V886.39c0-10.52-.57-22.93.76-33.55.18-1.42.39-2.82.65-4.17-.26,1.35-.47,2.75-.65,4.17,6.41-10.7,35.3-21.21,35.3-21.21l1.5.57C1263,830.09,1263.52,828,1264.11,825.92Z"/><path class="cls-27" d="M1341.75,840.35c-3.69-9.38-9.77-19.51-19.68-25.37-13.78-8.16-31.07-16.31-42.08-21.27a156.73,156.73,0,0,0-9.59,17.71,102.35,102.35,0,0,0-7.12,21.05c7,2.73,28.62,11.82,33.41,20.92,5.73,10.87,4.51,30.11,4.51,45.16v2c4.13-2.85,8.2-5.81,12.28-8.74,3.6-2.58,7.21-5.16,10.87-7.65s7.47-4.8,11.23-7.18,7.73-4.78,11.64-7.09A80.61,80.61,0,0,0,1341.75,840.35Z"/><path class="cls-23" d="M1264.29,791l0,0,0,0,0,0Z"/><polygon class="cls-23" points="1318.2 766.71 1328.52 766.71 1323.36 768.93 1318.2 766.71"/><path class="cls-19" d="M1402.68,854.34v209h-36.89V872.07c0-17.48,1.45-39.81-5.35-52.43s-42.24-25.25-42.24-25.25S1282.76,807,1276,819.64c-2.38,4.4-3.74,10-4.53,16.17-1.43,11.47-.81,24.89-.81,36.26v191.3h-36.9v-209a87.42,87.42,0,0,1,5.91-32c4-10.13,10.57-21.09,21.28-27.42,23.79-14.09,57.29-28.17,57.29-28.17s33.5,14.08,57.3,28.17c10.71,6.33,17.28,17.29,21.27,27.42A87.42,87.42,0,0,1,1402.68,854.34Z"/><path class="cls-19" d="M1413,854.34v209h-36.9V872.07c0-17.48,1.46-39.81-5.34-52.43s-42.24-25.25-42.24-25.25-35.44,12.62-42.24,25.25c-2.38,4.4-3.74,10-4.53,16.17-1.43,11.47-.81,24.89-.81,36.26v191.3H1244v-209a87.42,87.42,0,0,1,5.91-32c4-10.13,10.57-21.09,21.28-27.42,23.79-14.09,57.29-28.17,57.29-28.17s33.5,14.08,57.29,28.17c10.71,6.33,17.29,17.29,21.28,27.42A87.42,87.42,0,0,1,1413,854.34Z"/><path class="cls-2" d="M1380.23,1059.24V872.07c0-2.54,0-5.19.06-7.9.2-16.3.41-34.78-5.9-46.49-7.34-13.63-40.7-25.83-44.49-27.18l-1.38-.49-1.38.49c-3.78,1.35-37.15,13.55-44.49,27.18-2.42,4.47-4.05,10.23-5,17.61-1.15,9.16-1,19.16-.92,28.83,0,2.73.07,5.39.07,8v187.17h-28.64V854.34a82.92,82.92,0,0,1,5.62-30.53c4.72-12,11.29-20.5,19.54-25.38,20.34-12,48.26-24.26,55.19-27.23,6.93,3,34.85,15.19,55.19,27.23,8.25,4.88,14.82,13.42,19.54,25.38a82.92,82.92,0,0,1,5.62,30.53v204.9Z"/><path class="cls-20" d="M1376.1,872.07v191.3h-12.85V885.22c0-16.27,1.32-37.07-4.87-48.83s-38.47-23.51-38.47-23.51-31.23,11.36-38.16,22.93c.79-6.16,2.15-11.77,4.53-16.17,6.8-12.63,42.24-25.25,42.24-25.25S1364,807,1370.76,819.64,1376.1,854.59,1376.1,872.07Z"/><path class="cls-16" d="M1271.52,878.63v36.42h-17.78V878.63a8.89,8.89,0,0,1,17.78,0Z"/><rect class="cls-16" x="1253.74" y="919.29" width="17.78" height="49.42"/><path class="cls-16" d="M1253.74,973h17.78v45.27a8.89,8.89,0,0,1-17.78,0Z"/><path class="cls-16" d="M1403.71,878.63v36.42h-17.77V878.63a8.89,8.89,0,0,1,17.77,0Z"/><rect class="cls-16" x="1385.94" y="919.29" width="17.78" height="49.42"/><path class="cls-16" d="M1385.94,973h17.77v45.27a8.89,8.89,0,0,1-17.77,0Z"/><path class="cls-28" d="M1407.09,822.3c-4-10.13-10.57-21.09-21.28-27.42-23.79-14.09-57.29-28.17-57.29-28.17H1318.2s-25.47,10.71-47.77,22.79l-1.16-.49,0,0-.16-.06h-9.55s-31,13-53,26.06A42.88,42.88,0,0,0,1192,829.87c-9.5,4.36-22.47,10.62-33.07,16.89-8.64,5.11-13.94,14-17.16,22.13a70.39,70.39,0,0,0-4.77,25.84v168.64h38.09V909c0-.44,0-.91,0-1.36h0c0-4-.1-8.38-.09-12.73,0-.21,0-.41,0-.61,0-.94,0-1.87,0-2.8,0-.33,0-.66,0-1,0-.85,0-1.7.08-2.54,0-.38,0-.77,0-1.15,0-.85.1-1.69.16-2.53,0-.35,0-.71.07-1.06.1-1.18.21-2.33.36-3.47.17-.28.36-.57.57-.86.06-.09.14-.18.22-.28s.29-.38.45-.57l.29-.33c.16-.18.31-.35.48-.52s.23-.24.35-.35.33-.34.51-.5l.38-.35.55-.49.42-.35.59-.49.45-.34.36-.27v189.29H1225v-177c0-5.23-.14-10.94-.12-16.66l.47.26.4.24.86.5.42.25.82.51.41.26.83.54.36.23c.32.21.62.43.93.64l.22.15,1.11.81.12.1c.31.23.61.47.9.7l.31.26c.22.18.44.36.64.55v187.64h47.91V894.73a74.82,74.82,0,0,0-.69-10.15V872.07c0-9.76-.45-21,.33-31.27l.32.18,1.07.6.39.22,1.16.69.26.15q1.42.86,2.76,1.74l.34.23,1,.66.4.29.86.62.39.29.86.68.3.24c.38.31.75.62,1.1.94h0c.34.31.67.61,1,.92l.29.29.63.65.3.34c.18.2.36.41.52.61l.28.35.47.64.21.31c.2.31.39.63.56.95,5.73,10.87,4.51,30.11,4.51,45.16v164.82h46V869.86h0a84.92,84.92,0,0,0-1.35-15c0-.07,0-.15,0-.22-.21-1.16-.45-2.32-.71-3.46-.07-.28-.15-.55-.22-.83-.23-1-.46-1.89-.72-2.83-.14-.48-.3-1-.45-1.44-.22-.72-.43-1.45-.67-2.16-.4-1.19-.83-2.38-1.3-3.55-3.69-9.38-9.77-19.51-19.68-25.37l-2.4-1.41-.64-.36.88-.33s32.28,11.75,38.47,23.51,4.87,32.56,4.87,48.83v178.15H1413v-209A87.42,87.42,0,0,0,1407.09,822.3Zm-228.25,45.58Zm.55-1.13h0Zm144-97.82.06,0-.06,0-.06,0ZM1177.57,871.12c-.34,1-.64,2.15-.9,3.29C1176.93,873.27,1177.23,872.17,1177.57,871.12Z"/><polygon class="cls-16" points="910.12 1033.65 910.12 1039.48 838 1039.48 844.2 1033.65 910.12 1033.65"/><polygon class="cls-16" points="910.12 1039.48 910.12 1049.04 813.4 1049.04 823.74 1039.48 910.12 1039.48"/><polygon class="cls-16" points="910.12 997.37 910.12 1033.65 850.53 1033.65 871.1 997.37 910.12 997.37"/><polygon class="cls-16" points="901.68 997.37 881.11 1033.65 850.53 1033.65 871.1 997.37 901.68 997.37"/><path class="cls-16" d="M910.12,987.13v10.24h-39a5.1,5.1,0,0,1-3.63-1.52,5.17,5.17,0,0,1-1.48-3.61,5.11,5.11,0,0,1,5.11-5.11Z"/><path class="cls-16" d="M910.12,941.37v45.76H868.47a22.88,22.88,0,0,1,0-45.76Z"/><path class="cls-16" d="M910.12,941.36v45.77h-32c-4.85,0-9.23-2.57-12.41-6.7a26.75,26.75,0,0,1-5.14-16.18c0-12.64,7.86-22.89,17.55-22.89h32Z"/><path class="cls-16" d="M910.12,941.36v45.77H882c-4.25,0-8.1-2.57-10.9-6.7a29.28,29.28,0,0,1-4.52-16.18c0-12.64,6.91-22.89,15.42-22.89h28.1Z"/><path class="cls-16" d="M910.12,941.36v45.77H896c-2.14,0-4.08-2.57-5.49-6.7a52.61,52.61,0,0,1-2.27-16.18c0-12.64,3.48-22.89,7.76-22.89h14.14Z"/><path class="cls-16" d="M910.12,941.36v45.77H899.28c-1.65,0-3.13-2.57-4.21-6.7a67.2,67.2,0,0,1-1.75-16.18c0-12.64,2.67-22.89,6-22.89h10.84Z"/><path class="cls-16" d="M910.12,931.13v10.24h-39a5.12,5.12,0,0,1,0-10.24Z"/><path class="cls-16" d="M910.12,918.77v12.36h-33.7a6.16,6.16,0,0,1-4.37-1.82,6,6,0,0,1-1.82-4.35,6.19,6.19,0,0,1,6.19-6.19Z"/><path class="cls-16" d="M910.12,875.68v43.09h-37c-.81-8.66-14.46-20.75-29.51-30.74v0S847.38,875.68,910.12,875.68Z"/><path class="cls-16" d="M910.12,865.64v10c-62.74,0-66.53,12.33-66.53,12.33v0c-3.29-2.19-6.64-4.26-9.93-6.19a4,4,0,0,1,.36-.56c.06-.09.14-.2.23-.31a11,11,0,0,1,.8-.86l.26-.26.61-.53c.23-.2.47-.4.73-.6l.43-.32c.14-.11.29-.21.45-.32.47-.32,1-.66,1.57-1a6.21,6.21,0,0,1,.6-.35c1-.6,2.25-1.21,3.64-1.84l.4-.18.47-.2c.6-.26,1.21-.51,1.87-.75s1.36-.52,2.1-.77l.13,0,1-.32c.77-.26,1.56-.51,2.41-.75s1.69-.49,2.61-.74c.63-.18,1.29-.33,2-.5l.9-.22c.49-.12,1-.23,1.52-.33l.41-.09c.77-.17,1.56-.34,2.37-.49l2.16-.42,1.68-.3a.2.2,0,0,0,.1,0c.61-.11,1.22-.2,1.85-.29,1-.17,2-.31,3-.46l.35,0c.42-.07.83-.13,1.26-.17l1.3-.17,2.13-.26c1.37-.15,2.8-.31,4.26-.44l.22,0c.41,0,.83-.08,1.24-.11l3.26-.27.87-.06c1.29-.1,2.6-.19,4-.26l2-.11c2.06-.11,4.21-.2,6.42-.26.26,0,.54,0,.82,0l2.43-.06,1.28,0c.75,0,1.52,0,2.28,0,1,0,2,0,3.08,0C908.34,865.64,909.23,865.64,910.12,865.64Z"/><path class="cls-16" d="M908.13,823.53c-1.26,0-3.11,0-5.4,0l-4.07,0c-.62,0-1.26,0-1.9,0-3.92.06-8.54.16-13.62.32l-2.94.11-6.33.26-3.25.15c-.41,0-.82.07-1.24.08a.44.44,0,0,1-.16,0l-3.74.21c-2,.12-4.07.26-6.15.4l-1.47.11-2.94.22-.91.08c-1.92.15-3.81.32-5.73.49l-.09,0q-2.91.27-5.81.59l-.74.08c-.73.08-1.47.15-2.2.24l-.9.11c-.6.06-1.23.15-1.82.23l-3,.38c-2.48.34-4.89.69-7.27,1.09-1,.15-2.05.34-3,.5-.31.07-.61.11-.92.17-1,.17-1.9.36-2.81.54l-1.15.23c-.78.15-1.55.32-2.31.49-1.82.4-3.58.81-5.28,1.25l-.41.13-1,.27c-2.17.6-4.24,1.24-6.15,1.93-1.15.4-2.25.82-3.29,1.28-.24.1-.47.22-.72.31a31.08,31.08,0,0,0-6.27,3.58c-4.24,3.23-6.92,6.21-8.34,8.94-6.17,11.64,10.28,18.72,23.5,21.79,5.75,1.34,15.33,5.75,25.42,11.62a4,4,0,0,1,.36-.56c.06-.09.14-.2.23-.31a11,11,0,0,1,.8-.86l.26-.26a5.4,5.4,0,0,1,.61-.53c.23-.2.47-.4.73-.6l.43-.32c.14-.11.29-.21.45-.32a17.88,17.88,0,0,1,1.57-1,6.21,6.21,0,0,1,.6-.35c.55-.32,1.15-.66,1.79-1s1.19-.57,1.85-.86l.4-.18.47-.2c.6-.26,1.21-.51,1.87-.75s1.36-.52,2.1-.77l.13,0a9.63,9.63,0,0,1,1-.32c.77-.26,1.56-.51,2.41-.75s1.69-.51,2.61-.74c.63-.18,1.29-.33,2-.5l.9-.22c.49-.12,1-.23,1.52-.33l.41-.09c.77-.17,1.56-.34,2.37-.49l2.16-.42,1.68-.3a.2.2,0,0,0,.1,0c.61-.11,1.22-.2,1.85-.29,1-.17,2-.32,3-.46l.35,0c.42-.07.83-.13,1.26-.17l1.3-.17,2.13-.26c1.37-.15,2.8-.31,4.26-.44l.22,0c.41,0,.83-.08,1.24-.11s.84-.09,1.27-.12c.64,0,1.3-.11,2-.15l.87-.06c1.29-.1,2.6-.19,4-.26l2-.11c2.06-.11,4.21-.2,6.42-.26.26,0,.54,0,.82,0q1.19,0,2.43-.06l1.28,0c.75,0,1.52,0,2.28,0,1,0,2,0,3.08,0,.87,0,1.76,0,2.65,0V823.56S909.41,823.53,908.13,823.53Zm-77.34,20,6.35,9.72-7.22,1.87-5.35-8.48ZM816,863.05l-8.62-9.22,3.51-3.25,9.09,9Zm38.14-10.84-4.36-10.73,10-.87L863.34,851Zm31.19-2.5-1.88-11.46,11.35-.89.75,11.85Z"/><path class="cls-16" d="M910.12,810.66v12.9h-7.39l-4.07,0c-.62,0-1.24,0-1.9,0-3.92.06-8.54.16-13.62.32l-2.94.11-6.33.26-3.25.17c-.41,0-.81,0-1.24.06a.44.44,0,0,1-.16,0l-3.74.21q-3,.18-6.15.4l-1.47.11-2.94.22-.91.08c-1.9.15-3.81.32-5.73.49l-.09,0q-2.91.27-5.81.59l-.74.08c-.73.08-1.47.15-2.2.24l-.9.11c-.6.06-1.23.15-1.82.23l-3,.38c-2.48.34-4.89.69-7.27,1.09-1,.15-2.05.32-3,.5-.31.07-.61.11-.92.17-1,.17-1.88.36-2.81.54l-1.15.23c-.78.15-1.55.32-2.31.49-1.82.4-3.58.81-5.28,1.25l-.41.13c-2.56.67-5,1.4-7.18,2.2-1.15.4-2.25.82-3.29,1.28-.24.1-.49.2-.72.31a31.08,31.08,0,0,0-6.27,3.58c-4.24,3.23-6.92,6.21-8.34,8.94h0c-7.74.52-8.7-8.94-8.7-8.94S773.77,810.66,910.12,810.66Z"/><path class="cls-16" d="M910.12,787.14v23.52c-136.35,0-134.1,28.83-134.1,28.83s-27.18-7.64-21.67-22.51c1.07-3,3.47-6.21,7.64-9.73.29-.24.59-.49.91-.73.16-.13.32-.23.49-.36.4-.29.81-.56,1.24-.84l1.33-.81c.46-.27.95-.53,1.44-.78s1-.52,1.53-.76,1.32-.63,2-.91c.45-.2.89-.38,1.33-.55l1.82-.7c.75-.29,1.55-.57,2.34-.83q2.53-.84,5.31-1.62,2.36-.66,4.87-1.27c1.51-.35,3.06-.7,4.65-1,16.42-3.5,36.71-5.65,55.85-6.93l2.86-.18c1.39-.1,2.8-.19,4.18-.27l4.24-.24,2.74-.14,5.38-.24,1,0,2.56-.11,10-.35,3.75-.09c2.64-.08,5.13-.12,7.45-.17,1.58,0,3.07-.06,4.47-.07C904.62,787.1,910.12,787.14,910.12,787.14Z"/><path class="cls-16" d="M910.12,775.39v11.75s-5.5,0-14.39.07l-4.47.07c-2.32.05-4.81.09-7.45.17l-3.75.09-10,.35-2.56.11-1,0-5.38.24-2.74.14-4.24.24c-1.38.08-2.79.17-4.18.27l-2.86.18c-19.14,1.28-39.43,3.43-55.85,6.93-1.59.34-3.14.69-4.65,1q-2.52.61-4.87,1.27-2.78.78-5.31,1.62c-.79.26-1.59.54-2.34.83s-1.24.46-1.82.7-.9.35-1.33.55c-.7.28-1.38.58-2,.91s-1,.49-1.53.76-1,.51-1.44.78-.9.52-1.33.81-.84.55-1.24.84c-.17.13-.33.23-.49.36-.32.24-.62.49-.91.73-4.17,3.52-6.57,6.76-7.64,9.73-5.62-2.28-5.65-8.21-5.65-8.21S774.55,775.39,910.12,775.39Z"/><path class="cls-16" d="M910.12,750.73v24.66c-135.57,0-161.42,33.38-161.42,33.38a39.28,39.28,0,0,1-11.59-12.26,14.37,14.37,0,0,1,2.69-18.33,57.48,57.48,0,0,1,6.5-4.94,90,90,0,0,1,15-8,148.56,148.56,0,0,1,19-6.39c2.72-.72,5.49-1.41,8.34-2a320.55,320.55,0,0,1,47-6.35c9.87-.7,19.45-1,28.28-1.12,1.88,0,3.73,0,5.52,0C893.15,749.31,910.12,750.73,910.12,750.73Z"/><path class="cls-16" d="M910.12,712.21v38.52s-17-1.43-40.59-1.37C869.53,749.36,870.27,712.21,910.12,712.21Z"/><path class="cls-16" d="M910.12,620V691.7a46.72,46.72,0,0,0-47,17l-18.24.82-.23-.29c-.08-.09-.19-.23-.29-.37-.43-.49-1.07-1.2-2-2.06l-.5-.49a31.11,31.11,0,0,0-14.58-8,24.26,24.26,0,0,0-5.66-.49c-.27,0-.53,0-.79,0a7.65,7.65,0,0,0-.81.08c-.27,0-.53.06-.81.09l-1.22.18c-.41.08-.83.16-1.26.26-16.78,4-32.92,25.39-32.92,25.39l-10.12,2.68c17-41.32,54.11-101.47,127.14-106.18h.05C904,620.12,907,620,910.12,620Z"/><path class="cls-16" d="M910.12,603.56V620c-3.13,0-6.17.11-9.18.29h-.05l0-.29s-3.56-2.6-2.9-9.72c.38-4,1.92-5.64,4.51-6.32A36.45,36.45,0,0,1,910.12,603.56Z"/><path class="cls-16" d="M910.12,596.81v6.75a36.45,36.45,0,0,0-7.64.41,3.55,3.55,0,0,1,0-5.06,6.72,6.72,0,0,1,3.27-1.74A14.2,14.2,0,0,1,910.12,596.81Z"/><path class="cls-16" d="M910.12,514v82.81a14.2,14.2,0,0,0-4.37.36v0Z"/><polygon class="cls-16" points="894.77 837.36 895.51 849.21 885.29 849.71 883.41 838.25 894.77 837.36"/><path class="cls-16" d="M910.12,712.21c-39.85,0-40.59,37.15-40.59,37.15-1.8,0-3.65,0-5.53,0v0c0-47.15,46.12-42.7,46.12-42.7Z"/><polygon class="cls-16" points="859.72 840.61 863.34 850.95 854.11 852.21 849.75 841.48 859.72 840.61"/><polygon class="cls-16" points="830.79 843.48 837.15 853.21 829.93 855.07 824.57 846.59 830.79 843.48"/><path class="cls-16" d="M910.12,691.7v15S864,702.21,864,749.37v0c-8.83.09-18.41.42-28.28,1.12v0c1.16-15.91-6.81-32.91-21.68-34.11a25,25,0,0,0-11.46,1.9c-22.14,8.68-22.2,40.61-22.2,40.61a148.56,148.56,0,0,0-19,6.39,235.17,235.17,0,0,1,12.41-38.81l10.12-2.68s16.14-21.39,32.92-25.39c.43-.1.85-.18,1.26-.26l1.22-.18c.28,0,.54-.08.81-.09a7.65,7.65,0,0,1,.81-.08c.26,0,.52,0,.79,0a22.75,22.75,0,0,1,5.66.49,31.11,31.11,0,0,1,14.58,8l.5.49c.88.86,1.52,1.57,2,2.06.1.14.21.26.29.37l.23.29,18.24-.82A46.72,46.72,0,0,1,910.12,691.7Z"/><path class="cls-16" d="M814,716.39c14.87,1.2,22.84,18.2,21.68,34.11v0a322.41,322.41,0,0,0-47,6.35C786.75,731.74,811.76,717.63,814,716.39Z"/><polygon class="cls-16" points="819.95 859.56 815.96 863.05 807.35 853.83 810.85 850.58 819.95 859.56"/><path class="cls-16" d="M814,716.39c-2.28,1.24-27.29,15.35-25.33,40.48-2.83.63-5.6,1.31-8.34,2,0,0,.07-31.94,22.2-40.61A25.18,25.18,0,0,1,814,716.39Z"/><circle class="cls-16" cx="829.41" cy="785.9" r="3.34"/><circle class="cls-16" cx="817.45" cy="787.29" r="3.34"/><circle class="cls-16" cx="805.58" cy="789.13" r="3.34"/><path class="cls-16" d="M796.69,791.56a2.77,2.77,0,1,1-2.77-2.77A2.77,2.77,0,0,1,796.69,791.56Z"/><path class="cls-16" d="M785.11,794.56a2.39,2.39,0,1,1-2.39-2.39A2.39,2.39,0,0,1,785.11,794.56Z"/><path class="cls-16" d="M774.84,798.29a2.39,2.39,0,1,1-2.39-2.39A2.39,2.39,0,0,1,774.84,798.29Z"/><circle class="cls-16" cx="762.98" cy="803.01" r="2.39"/><circle class="cls-16" cx="754.77" cy="809.3" r="2.39"/><circle class="cls-16" cx="783.83" cy="838.69" r="3.57"/><path class="cls-16" d="M796.2,832.53a3.57,3.57,0,1,1-3.57-3.57A3.57,3.57,0,0,1,796.2,832.53Z"/><path class="cls-16" d="M806.37,828.49a3.57,3.57,0,1,1-3.57-3.57A3.57,3.57,0,0,1,806.37,828.49Z"/><path class="cls-16" d="M816.94,825.43a3.57,3.57,0,1,1-3.57-3.57A3.57,3.57,0,0,1,816.94,825.43Z"/><path class="cls-16" d="M828.63,822.79a3.58,3.58,0,1,1-3.58-3.57A3.57,3.57,0,0,1,828.63,822.79Z"/><circle class="cls-16" cx="837.06" cy="820.81" r="3.57"/><path class="cls-16" d="M852.18,819.14a3.58,3.58,0,1,1-3.57-3.57A3.57,3.57,0,0,1,852.18,819.14Z"/><path class="cls-16" d="M865.37,818.46a3.57,3.57,0,1,1-3.57-3.57A3.57,3.57,0,0,1,865.37,818.46Z"/><path class="cls-16" d="M879.9,817.6a3.57,3.57,0,1,1-3.57-3.57A3.57,3.57,0,0,1,879.9,817.6Z"/><circle class="cls-16" cx="889.91" cy="817.13" r="3.57"/><circle class="cls-16" cx="902.98" cy="816.75" r="3.57"/><circle class="cls-16" cx="840.48" cy="784.51" r="3.34"/><circle class="cls-16" cx="851.62" cy="783.93" r="3.34"/><circle class="cls-16" cx="862.57" cy="783.28" r="3.34"/><path class="cls-16" d="M877.18,782.35a3.34,3.34,0,1,1-3.33-3.34A3.33,3.33,0,0,1,877.18,782.35Z"/><circle class="cls-16" cx="885.15" cy="781.96" r="3.34"/><circle class="cls-16" cx="895.48" cy="781.63" r="3.34"/><path class="cls-16" d="M908.14,781.63a3.34,3.34,0,1,1-3.34-3.34A3.33,3.33,0,0,1,908.14,781.63Z"/><path class="cls-16" d="M877.06,879.51c6.8,10.86,8.65,24.07,9,36.88l-8.55-.74a1.85,1.85,0,0,1-.8-.19,1.93,1.93,0,0,1-.67-1.09,51,51,0,0,0-15.82-22.79c-1.05-.86-5-2.82-5-4.34,0-1.87,4.35-2.89,5.85-3.47A76.15,76.15,0,0,1,877.06,879.51Z"/><path class="cls-16" d="M884,881.21a103.82,103.82,0,0,1,4.78,33.48q8.55-.23,17.11.12c-.31-11.86-.08-24.48-2.08-36.19C901.83,878.59,884.35,882.44,884,881.21Z"/><path class="cls-16" d="M843.75,874.7c-.81.35-1.58.71-2.26,1a23.62,23.62,0,0,0-4.59-6.5c-6.48-6.6-15.58-10-21.35-17.44a28.72,28.72,0,0,1-5.49-11.57,26.39,26.39,0,0,1-.55-7.84q.71-.21,1.44-.39a33.61,33.61,0,0,0,1.89,10.41,28.12,28.12,0,0,0,7.36,11.21c3.44,3.21,7.47,5.63,11.32,8.28C836,865,841.35,869.36,843.75,874.7Z"/><path class="cls-16" d="M859.08,870c-1,.2-1.93.41-2.84.64a29.42,29.42,0,0,0-3.14-6.27c-4.24-6.46-10.16-11.8-13.31-18.93a37.67,37.67,0,0,1-2.79-11.2,56.89,56.89,0,0,1-.31-6c0-.31,0-.6,0-.91.6-.08,1.22-.16,1.82-.22,0,.68.06,1.36.13,2,.18,2.3.37,4.58.76,6.83a33,33,0,0,0,4,11.15,76.72,76.72,0,0,0,6.85,9.17C853.53,860.32,857.24,864.9,859.08,870Z"/><path class="cls-16" d="M885.17,866.47l-2.88.2c0-.22-.1-.47-.16-.7a26.58,26.58,0,0,0-2.47-6.08c-3.37-6-8.56-11.07-10.67-17.79a27.52,27.52,0,0,1-.93-11.34,51.86,51.86,0,0,1,1.16-6.21l1.4-.08a54.36,54.36,0,0,0-.58,10.26,25.48,25.48,0,0,0,4.53,13c2.42,3.65,5.28,7,7.45,10.76a30.79,30.79,0,0,1,2.77,6.5C884.94,865.5,885.06,866,885.17,866.47Z"/><path class="cls-16" d="M910.12,823.56v42.08c-.89,0-1.78,0-2.65,0,0-1.07,0-2.17.06-3.25.06-4.8.15-9.62.21-14.42s.16-9.78.27-14.67c0-2.4.1-4.8.14-7.22,0-.83,0-1.67,0-2.56C909.42,823.54,910.12,823.56,910.12,823.56Z"/><path class="cls-16" d="M910.12,773.47v1.92c-135.57,0-161.42,33.38-161.42,33.38a39.28,39.28,0,0,1-11.59-12.26,14.37,14.37,0,0,1,2.69-18.33,57.48,57.48,0,0,1,6.5-4.94,48.8,48.8,0,0,0-4.16,21.14,4.24,4.24,0,0,0,.63,2.42c1.17,1.56,3.59.9,5.37.11A302.46,302.46,0,0,1,910.12,773.47Z"/><path class="cls-16" d="M910.12,804.63v6c-136.35,0-134.1,28.83-134.1,28.83s-27.18-7.64-21.67-22.51c1.07-3,3.47-6.21,7.64-9.73.29-.24.59-.49.91-.73.16-.13.32-.23.49-.36a26.41,26.41,0,0,0-1.5,13.88c.45,2.66,1.4,5.42,3.51,7.13,3.61,2.93,8.93,1.64,13.34.16,21.64-7.3,42.81-16.39,65.15-21.2A176.3,176.3,0,0,1,910.12,804.63Z"/><path class="cls-16" d="M900.94,620.3c-20.81,7.65-40.29,19.05-55.69,34.9a110.33,110.33,0,0,0-26,42.77l-1.22.18c-.41.08-.83.16-1.26.26-16.78,4-32.92,25.39-32.92,25.39l-10.12,2.68c17-41.32,54.11-101.47,127.14-106.18Z"/><polygon class="cls-16" points="910.12 1039.47 982.24 1039.47 976.04 1033.64 963.5 1033.64 910.12 1033.64 910.12 1039.47"/><polygon class="cls-16" points="910.12 1039.47 910.12 1049.03 1006.84 1049.03 996.5 1039.47 982.24 1039.47 910.12 1039.47"/><polygon class="cls-16" points="910.12 997.37 910.12 1033.64 969.71 1033.64 949.14 997.37 910.12 997.37"/><path class="cls-16" d="M910.12,987.13v10.24h39a5.11,5.11,0,0,0,3.62-1.51,5.18,5.18,0,0,0,1.49-3.62,5.11,5.11,0,0,0-5.11-5.11Z"/><path class="cls-16" d="M910.12,941.36v45.77h41.65a22.89,22.89,0,0,0,0-45.77H910.12Z"/><path class="cls-16" d="M910.12,941.36v45.77h32c4.84,0,9.23-2.57,12.4-6.7a26.69,26.69,0,0,0,5.15-16.18c0-12.64-7.86-22.89-17.55-22.89h-32Z"/><path class="cls-16" d="M910.12,941.36v45.77h28.09c4.26,0,8.11-2.57,10.9-6.7a29.28,29.28,0,0,0,4.52-16.18c0-12.64-6.9-22.89-15.42-22.89H910.12Z"/><path class="cls-16" d="M910.12,941.36v45.77h14.14c2.14,0,4.08-2.57,5.48-6.7A52.29,52.29,0,0,0,932,964.25c0-12.64-3.48-22.89-7.76-22.89H910.12Z"/><path class="cls-16" d="M910.12,941.36v45.77H921c1.65,0,3.13-2.57,4.21-6.7a67.25,67.25,0,0,0,1.74-16.18c0-12.64-2.66-22.89-5.95-22.89H910.12Z"/><path class="cls-16" d="M910.12,931.12v10.24h39a5.12,5.12,0,0,0,0-10.24h-39Z"/><path class="cls-16" d="M910.12,918.77v12.35h33.7a6.18,6.18,0,0,0,4.37-1.82A6,6,0,0,0,950,925a6.19,6.19,0,0,0-6.19-6.19Z"/><path class="cls-16" d="M910.12,875.67v43.1h37c.81-8.67,14.46-20.75,29.53-30.74v0S972.85,875.67,910.12,875.67Z"/><path class="cls-16" d="M910.12,865.64v10c62.73,0,66.54,12.34,66.54,12.34v0c3.29-2.2,6.64-4.27,9.93-6.19C986.59,881.84,978.93,865.64,910.12,865.64Z"/><path class="cls-16" d="M1035.49,848.43c-1.42-2.73-4.08-5.71-8.34-8.94a30.8,30.8,0,0,0-6.27-3.58c-.24-.09-.47-.21-.72-.31-1-.46-2.14-.88-3.29-1.28q-2.16-.78-4.53-1.47l-1.6-.46-1.46-.4c-2.78-.73-5.77-1.39-8.89-2-.87-.19-1.76-.35-2.66-.51-.28-.06-.57-.1-.86-.15l-3.09-.52-1.6-.26-1.43-.23c-1.4-.2-2.81-.41-4.25-.6l-3-.38c-.61-.08-1.22-.17-1.82-.23l-3.84-.43c-1.94-.21-3.87-.41-5.81-.59l-.1,0c-1.91-.17-3.82-.34-5.73-.49l-.92-.08-2.94-.22q-3.86-.28-7.62-.51l-3.73-.21a2.3,2.3,0,0,0-.36,0c-.12,0-.23,0-.35,0l-.7,0-3.25-.15-6.33-.26-2.92-.11c-7.53-.24-14.05-.35-18.79-.38-2.68,0-4.79,0-6.21,0s-2,0-2,0v42.08c.88,0,1.77,0,2.64,0,1,0,2.07,0,3.08,0,.75,0,1.5,0,2.23,0,.45,0,.89,0,1.33,0q1.2,0,2.34.06c.3,0,.6,0,.89,0,2.22.06,4.36.15,6.44.26l2,.11c1.35.07,2.67.16,4,.26.34,0,.66,0,1,.07l1.9.14c.43,0,.86.08,1.27.12s.83.06,1.24.11c1.54.14,3,.29,4.47.46l2.12.26,1.3.17c.43,0,.85.1,1.26.17l.35,0c1.06.14,2.07.29,3,.46.62.09,1.23.18,1.85.29a.15.15,0,0,0,.09,0l1.68.3,2.16.42c.81.15,1.61.32,2.37.49l.41.09c.52.1,1,.21,1.52.33l.9.22c.67.17,1.33.32,2,.5.92.23,1.79.48,2.62.74.41.1.82.23,1.22.36s.8.25,1.18.39.75.24,1.1.36c.73.25,1.42.51,2.08.77s1.26.49,1.84.73l.5.22.4.18.78.34,1.07.52c.17.08.32.17.48.26.46.23.9.47,1.31.72s.55.32.81.49.6.35.88.53l.94.66c.29.22.55.41.8.63l.35.29c.19.14.35.29.51.43.32.3.59.56.82.82l.19.2a6.11,6.11,0,0,1,.65.89s0,.06,0,.08a.46.46,0,0,1,.06.1c10.07-5.87,19.65-10.28,25.4-11.62C1025.21,867.15,1041.66,860.07,1035.49,848.43ZM935,849.71l-10.22-.5.73-11.85,11.37.89Zm54.49-6.23,6.22,3.11-5.35,8.48-7.22-1.87ZM956.89,851l3.63-10.34,10,.87-4.37,10.73Zm47.39,12.1-4-3.5,9.1-9,3.49,3.25Z"/><path class="cls-16" d="M910.12,810.67v12.89s94.67-1.14,117,15.93c4.24,3.23,6.91,6.21,8.34,8.94h0c7.74.51,8.71-8.94,8.71-8.94S1046.46,810.67,910.12,810.67Z"/><path class="cls-16" d="M910.12,787.14v23.53c136.34,0,134.11,28.82,134.11,28.82s27.16-7.64,21.66-22.51c-1.08-3-3.48-6.21-7.63-9.73-.44-.37-.91-.74-1.41-1.09C1028.94,786.05,910.12,787.14,910.12,787.14Z"/><path class="cls-16" d="M910.12,775.39v11.75s123.1-1.13,148.14,20.11c4.15,3.52,6.55,6.77,7.63,9.73,5.61-2.28,5.65-8.22,5.65-8.22S1045.7,775.39,910.12,775.39Z"/><path class="cls-16" d="M910.12,750.73v24.66c135.58,0,161.42,33.37,161.42,33.37a39.36,39.36,0,0,0,11.59-12.24,14.36,14.36,0,0,0-2.69-18.33,56.39,56.39,0,0,0-6.5-5,89.28,89.28,0,0,0-15-7.94,146.54,146.54,0,0,0-19-6.4c-2.73-.72-5.5-1.4-8.33-2a322.41,322.41,0,0,0-47-6.35c-9.87-.7-19.45-1-28.28-1.11-1.89,0-3.73,0-5.53,0C927.08,749.3,910.12,750.73,910.12,750.73Z"/><path class="cls-16" d="M910.12,712.21v38.52s17-1.43,40.59-1.37C950.71,749.36,950,712.21,910.12,712.21Z"/><path class="cls-16" d="M910.12,620V691.7a46.7,46.7,0,0,1,47,17l18.25.83S985.55,695.9,1001,698a21.25,21.25,0,0,1,2.48.44c16.78,4,32.92,25.38,32.92,25.38l10.11,2.69c-17-41.32-54.1-101.46-127.13-106.18h-.05C916.3,620.12,913.24,620,910.12,620Z"/><path class="cls-16" d="M910.12,603.57V620c3.14,0,6.21.11,9.23.29l0-.29s3.56-2.6,2.89-9.72c-.37-4-1.92-5.65-4.51-6.31A35.68,35.68,0,0,0,910.12,603.57Z"/><path class="cls-16" d="M910.12,596.82v6.75a35.68,35.68,0,0,1,7.63.41,3.56,3.56,0,0,0,0-5.07,6.64,6.64,0,0,0-3.27-1.74A13.62,13.62,0,0,0,910.12,596.82Z"/><path class="cls-16" d="M914.48,597.15,910.12,514v82.82a13.62,13.62,0,0,1,4.36.35Z"/><polygon class="cls-16" points="925.47 837.36 924.73 849.21 934.95 849.71 936.83 838.25 925.47 837.36"/><path class="cls-16" d="M910.12,712.21c39.85,0,40.59,37.15,40.59,37.15,1.8,0,3.64,0,5.53,0v0c0-47.15-46.12-42.7-46.12-42.7Z"/><polygon class="cls-16" points="960.52 840.61 956.9 850.95 966.13 852.21 970.49 841.48 960.52 840.61"/><polygon class="cls-16" points="989.44 843.48 983.09 853.21 990.31 855.07 995.67 846.59 989.44 843.48"/><path class="cls-16" d="M956.24,749.41c8.83.1,18.41.41,28.28,1.11v0c-1.16-15.91,6.81-32.91,21.68-34.11a25.14,25.14,0,0,1,11.46,1.9c22.14,8.67,22.2,40.61,22.2,40.61a146.54,146.54,0,0,1,19,6.4,233.14,233.14,0,0,0-12.42-38.82l-10.11-2.69s-16.14-21.39-32.92-25.38-28.1,11.11-28.1,11.11l-18.25-.83a46.7,46.7,0,0,0-47-17v15s46.12-4.45,46.12,42.7Z"/><path class="cls-16" d="M1006.2,716.39c-14.87,1.2-22.84,18.2-21.68,34.11v0a322.41,322.41,0,0,1,47,6.35C1033.49,731.74,1008.48,717.63,1006.2,716.39Z"/><polygon class="cls-16" points="1000.28 859.56 1004.28 863.05 1012.88 853.83 1009.39 850.58 1000.28 859.56"/><path class="cls-16" d="M1006.2,716.39c2.28,1.24,27.29,15.35,25.33,40.48,2.83.63,5.6,1.31,8.33,2,0,0-.06-31.94-22.2-40.61A25.14,25.14,0,0,0,1006.2,716.39Z"/><circle class="cls-16" cx="990.83" cy="785.9" r="3.34"/><circle class="cls-16" cx="1002.79" cy="787.29" r="3.34"/><circle class="cls-16" cx="1014.66" cy="789.13" r="3.34"/><path class="cls-16" d="M1023.55,791.56a2.77,2.77,0,1,0,2.76-2.77A2.77,2.77,0,0,0,1023.55,791.56Z"/><circle class="cls-16" cx="1037.52" cy="794.56" r="2.39"/><path class="cls-16" d="M1045.4,798.29a2.39,2.39,0,1,0,2.39-2.39A2.39,2.39,0,0,0,1045.4,798.29Z"/><circle class="cls-16" cx="1057.25" cy="803.01" r="2.39"/><path class="cls-16" d="M1063.08,809.3a2.39,2.39,0,1,0,2.39-2.39A2.39,2.39,0,0,0,1063.08,809.3Z"/><path class="cls-16" d="M1032.83,838.69a3.58,3.58,0,1,0,3.58-3.57A3.57,3.57,0,0,0,1032.83,838.69Z"/><path class="cls-16" d="M1024,832.53a3.57,3.57,0,1,0,3.57-3.57A3.57,3.57,0,0,0,1024,832.53Z"/><path class="cls-16" d="M1013.87,828.49a3.57,3.57,0,1,0,3.57-3.57A3.57,3.57,0,0,0,1013.87,828.49Z"/><path class="cls-16" d="M1003.29,825.43a3.58,3.58,0,1,0,3.58-3.57A3.57,3.57,0,0,0,1003.29,825.43Z"/><path class="cls-16" d="M991.61,822.79a3.57,3.57,0,1,0,3.57-3.57A3.57,3.57,0,0,0,991.61,822.79Z"/><path class="cls-16" d="M979.6,820.81a3.58,3.58,0,1,0,3.58-3.57A3.57,3.57,0,0,0,979.6,820.81Z"/><path class="cls-16" d="M968.06,819.14a3.57,3.57,0,1,0,3.57-3.57A3.57,3.57,0,0,0,968.06,819.14Z"/><path class="cls-16" d="M954.87,818.46a3.57,3.57,0,1,0,3.57-3.57A3.57,3.57,0,0,0,954.87,818.46Z"/><circle class="cls-16" cx="943.91" cy="817.6" r="3.57"/><path class="cls-16" d="M926.76,817.13a3.57,3.57,0,1,0,3.57-3.57A3.57,3.57,0,0,0,926.76,817.13Z"/><path class="cls-16" d="M913.68,816.75a3.58,3.58,0,1,0,3.58-3.58A3.57,3.57,0,0,0,913.68,816.75Z"/><circle class="cls-16" cx="979.75" cy="784.51" r="3.34"/><circle class="cls-16" cx="968.62" cy="783.93" r="3.34"/><circle class="cls-16" cx="957.66" cy="783.28" r="3.34"/><circle class="cls-16" cx="946.39" cy="782.35" r="3.34"/><circle class="cls-16" cx="935.09" cy="781.96" r="3.34"/><circle class="cls-16" cx="924.76" cy="781.63" r="3.34"/><circle class="cls-16" cx="915.44" cy="781.63" r="3.34"/><path class="cls-16" d="M943.18,879.51c-6.8,10.86-8.66,24.07-9,36.88l8.55-.74a1.85,1.85,0,0,0,.8-.19,1.93,1.93,0,0,0,.67-1.09A51.09,51.09,0,0,1,960,891.58c1.06-.86,5-2.82,5-4.34,0-1.87-4.35-2.89-5.85-3.47A76.32,76.32,0,0,0,943.18,879.51Z"/><path class="cls-16" d="M936.27,881.21a104.09,104.09,0,0,0-4.77,33.48q-8.55-.23-17.11.12c.31-11.86.08-24.48,2.07-36.19C918.41,878.59,935.89,882.44,936.27,881.21Z"/><path class="cls-16" d="M976.49,874.7c.81.35,1.57.71,2.26,1a23.21,23.21,0,0,1,4.59-6.5c6.47-6.6,15.58-10,21.35-17.44a28.7,28.7,0,0,0,5.48-11.57,26.4,26.4,0,0,0,.56-7.84c-.47-.14-1-.27-1.45-.39a33.31,33.31,0,0,1-1.88,10.41,28.12,28.12,0,0,1-7.36,11.21c-3.44,3.21-7.47,5.63-11.32,8.28C984.23,865,978.89,869.36,976.49,874.7Z"/><path class="cls-16" d="M961.16,870c1,.2,1.92.41,2.83.64a30,30,0,0,1,3.15-6.27c4.24-6.46,10.16-11.8,13.3-18.93a37.38,37.38,0,0,0,2.8-11.2,59.72,59.72,0,0,0,.31-6c0-.31,0-.6,0-.91-.6-.08-1.23-.16-1.83-.22,0,.68-.06,1.36-.12,2-.19,2.3-.37,4.58-.76,6.83a32.75,32.75,0,0,1-4,11.15,75.59,75.59,0,0,1-6.84,9.17C966.7,860.32,963,864.9,961.16,870Z"/><path class="cls-16" d="M935.07,866.47l2.88.2c0-.22.1-.47.16-.7a27,27,0,0,1,2.46-6.08c3.38-6,8.57-11.07,10.68-17.79a27.69,27.69,0,0,0,.93-11.34,51.86,51.86,0,0,0-1.16-6.21l-1.4-.08a53.53,53.53,0,0,1,.57,10.26,25.3,25.3,0,0,1-4.53,13c-2.42,3.65-5.27,7-7.44,10.76a30.82,30.82,0,0,0-2.78,6.5C935.3,865.5,935.17,866,935.07,866.47Z"/><path class="cls-16" d="M910.12,823.56v42.08c.89,0,1.78,0,2.65,0,0-1.07,0-2.17-.07-3.25-.06-4.8-.14-9.62-.2-14.42s-.17-9.78-.27-14.67c0-2.4-.1-4.8-.15-7.22,0-.83,0-1.67,0-2.56C910.82,823.54,910.12,823.56,910.12,823.56Z"/><path class="cls-16" d="M910.12,773.47v1.92c135.58,0,161.42,33.37,161.42,33.37a39.36,39.36,0,0,0,11.59-12.24,14.36,14.36,0,0,0-2.69-18.33,56.39,56.39,0,0,0-6.5-5,48.81,48.81,0,0,1,4.16,21.15,4.32,4.32,0,0,1-.62,2.42c-1.18,1.55-3.6.89-5.38.1A302.46,302.46,0,0,0,910.12,773.47Z"/><path class="cls-16" d="M910.12,804.63v6c136.34,0,134.11,28.82,134.11,28.82s27.16-7.64,21.66-22.51c-1.08-3-3.48-6.21-7.63-9.73-.44-.37-.91-.74-1.41-1.09a26.51,26.51,0,0,1,1.49,13.88c-.44,2.67-1.39,5.42-3.5,7.14-3.62,2.92-8.94,1.63-13.34.14-21.64-7.3-42.81-16.38-65.15-21.18A175.9,175.9,0,0,0,910.12,804.63Z"/><path class="cls-16" d="M919.3,620.3c20.82,7.66,40.29,19.06,55.68,34.91A110,110,0,0,1,1001,698a21.25,21.25,0,0,1,2.48.44c16.78,4,32.92,25.38,32.92,25.38l10.11,2.69c-17-41.32-54.1-101.46-127.13-106.18Z"/><path class="cls-29" d="M1080.44,778.19a56.39,56.39,0,0,0-6.5-5,89.28,89.28,0,0,0-15-7.94,233.14,233.14,0,0,0-12.42-38.82c-17-41.32-54.1-101.46-127.13-106.18l0-.29s3.56-2.6,2.89-9.72c-.37-4-1.92-5.65-4.51-6.31a3.56,3.56,0,0,0,0-5.07,6.64,6.64,0,0,0-3.27-1.74v0L910.12,514V620c3.14,0,6.2.11,9.22.29h0c-3-.18-6.06-.29-9.18-.29v86.65h0V514l-4.37,83.15v0a6.72,6.72,0,0,0-3.27,1.74,3.55,3.55,0,0,0,0,5.06c-2.59.68-4.13,2.28-4.51,6.32-.66,7.12,2.9,9.72,2.9,9.72l0,.29c-73,4.71-110.15,64.86-127.14,106.18a235.17,235.17,0,0,0-12.41,38.81,90,90,0,0,0-15,8,57.48,57.48,0,0,0-6.5,4.94,14.37,14.37,0,0,0-2.69,18.33,39.28,39.28,0,0,0,11.59,12.26s0,5.93,5.65,8.21C748.84,831.85,776,839.49,776,839.49s1,9.46,8.7,8.94h0c-6.17,11.64,10.28,18.72,23.5,21.79,5.75,1.34,15.33,5.75,25.42,11.62,3.29,1.93,6.64,4,9.93,6.19,15,10,28.7,22.08,29.51,30.74h3.32a6.19,6.19,0,0,0-6.19,6.19,6,6,0,0,0,1.82,4.35,6.16,6.16,0,0,0,4.37,1.82H871.1a5.12,5.12,0,0,0,0,10.24h-2.63a22.88,22.88,0,0,0,0,45.76h2.63a5.11,5.11,0,0,0-5.11,5.11,5.17,5.17,0,0,0,1.48,3.61,5.1,5.1,0,0,0,3.63,1.52l-20.57,36.28H844.2l-6.2,5.83H823.74L813.4,1049h96.72V987.13h0V1049h96.72l-10.34-9.56H982.24l-6.2-5.83H969.7l-20.56-36.27a5.11,5.11,0,0,0,3.62-1.51,5.18,5.18,0,0,0,1.49-3.62,5.11,5.11,0,0,0-5.11-5.11h2.63a22.89,22.89,0,0,0,0-45.77h-2.63a5.12,5.12,0,0,0,0-10.24h-5.32a6.18,6.18,0,0,0,4.37-1.82A6,6,0,0,0,950,925a6.19,6.19,0,0,0-6.19-6.19h3.31c.81-8.67,14.46-20.75,29.53-30.74,3.29-2.2,6.64-4.27,9.93-6.19l0,0,0,0c10.07-5.87,19.65-10.28,25.4-11.62,13.22-3.07,29.67-10.15,23.5-21.79-1.42-2.73-4.08-5.71-8.34-8.94-.4-.31-.82-.61-1.27-.9.45.29.88.59,1.28.9,4.24,3.23,6.91,6.21,8.34,8.94h0c7.74.51,8.71-8.94,8.71-8.94h0s27.16-7.64,21.66-22.51c5.61-2.28,5.65-8.21,5.65-8.22h0a39.36,39.36,0,0,0,11.59-12.24A14.36,14.36,0,0,0,1080.44,778.19ZM1024,837.45l-1-.54Zm-23.7,22.1,3.72-3.67-3.72,3.67Zm-90.17-54.92v-53.9h0v72.83h0V804.63Zm20.71-55,3.57-.1Zm5.44-.14q3.79-.09,8-.13Q940.07,749.43,936.27,749.51Zm10.09-.14h4.35c1.8,0,3.64,0,5.53,0,2.2,0,4.46.06,6.75.12,6.89.16,14.13.47,21.53,1,2,.14,3.9.28,5.87.44-2-.16-3.92-.3-5.87-.44-7.4-.52-14.64-.83-21.53-1-2.29-.06-4.55-.1-6.75-.12-1.89,0-3.73,0-5.53,0Zm90.43,8.75-3.16-.76Zm-52.71-56.27.83-.49Zm1-.58.79-.43Zm-1.14.67-.8.52Zm-.91.59-.79.55Zm-.88.61-.76.56Zm-.83.61-.73.57Zm-.78.62-.69.57Zm-.74.61-.65.56Zm-.68.59-.61.56Zm-.63.58c-.2.18-.38.36-.56.54C978.1,706.51,978.28,706.33,978.48,706.15Zm-.58.56q-.27.25-.51.51Q977.63,707,977.9,706.71Zm-2.55,2.81h0a25.67,25.67,0,0,1,2-2.3A25.67,25.67,0,0,0,975.35,709.52Zm-22-5.07a49.89,49.89,0,0,0-5.89-5.06,45.31,45.31,0,0,0-6-3.71,45.31,45.31,0,0,1,6,3.71,49.89,49.89,0,0,1,5.89,5.06,56.43,56.43,0,0,1,3.77,4.24A56.43,56.43,0,0,0,953.33,704.45Zm-30.47-13.76q1.62.09,3.36.3a48.77,48.77,0,0,1,5.45,1,48.77,48.77,0,0,0-5.45-1Q924.48,690.78,922.86,690.69Zm10.71,1.84c1.28.38,2.59.82,3.9,1.35C936.16,693.35,934.85,692.91,933.57,692.53Zm124.68,114.72c-.41-.35-.87-.71-1.34-1C1057.38,806.55,1057.83,806.9,1058.25,807.25ZM976.49,874.7l-.16-.07.16.07Zm-63.57-87.57h0Zm1.06,0h0Zm2.35,0h0Zm-1.33,0h0Zm2.8,0h0Zm1.54,0h0Zm3.38,0h0Zm1.9,0-1.45,0Zm4.15.06-1.67,0Zm-2.07,0-1.62,0Zm6.58.12-1.75,0Zm2.38.06-1.87,0Zm2.46.06-1.88,0Zm34.56,1.6-2.36-.16Zm-3.12-.2-2.34-.15Zm-3.07-.19-2.32-.14Zm-9.07-.49-2.2-.1Zm3,.15-2.23-.11Zm-5.92-.28-2.16-.1Zm-8.46-.34-2-.07Zm2.74.1-2.06-.08Zm2.86.12-2.11-.09Zm-8.31-.31-2-.06Zm-21.14,36-3.84,0h-.82Zm21.67.6-3.69-.14Zm-5.21-.2,1.2,0Zm-5.15-.16-1.48-.05Zm-2-.06-4.77-.11Zm-6.84-.14,2,0Zm.86,13.72-.54,8.68.53-8.68ZM935,849.71l1.88-11.46h0L935,849.71l-2.41-.12ZM951,824.56h0c6.45.35,13.23.82,20,1.44l-4.79-.41-.92-.08-2.94-.22q-3.86-.28-7.62-.51Zm19.47,16.92L969,845.13l1.49-3.65Zm13-14.14-1.31-.16q2.14.26,4.26.54Zm6.27.85c-1.09-.16-2.17-.32-3.28-.46C987.62,827.87,988.71,828,989.8,828.19Zm-8.56-1.13-3.37-.38c-1.93-.21-3.84-.41-5.77-.59C975.16,826.38,978.22,826.7,981.24,827.06Zm-20.72,13.55h0L956.9,851l1.32.18-1.33-.18Zm28.92,2.87h0l-6.35,9.71h0Zm4.34-14.67-1.6-.26-.4-.06c4.5.69,8.83,1.49,12.87,2.39-1.39-.31-2.8-.61-4.26-.89-.87-.19-1.76-.35-2.66-.51-.28-.06-.57-.1-.86-.15Zm15.11,3.09c-1.17-.31-2.38-.6-3.63-.88C1006.5,831.3,1007.71,831.59,1008.89,831.9Zm-84.77-8.27-1.81,0Zm-6,42.09h.52l-.91,0Zm11,.38,2,.11,1.26.08c-1.22-.08-2.46-.15-3.74-.21Zm-2.44-.11-1,0Zm8.44.48h0l.27,0h.12l-1.24-.09Zm2.88.21,1.18.11-2.85-.23Zm2.51.23c1.54.14,3,.29,4.47.46.42,0,.83.1,1.24.15-2.1-.25-4.3-.48-6.62-.69Zm14.4,1.85a.15.15,0,0,0,.09,0l.47.08-.9-.15Zm9.13,1.87.11,0-.46-.12Zm9.45-81.49,2.37.16Zm-34.7-1.63,1.92.06Zm22.41.89,2.27.12Zm17.8,1.14c-.79-.07-1.59-.12-2.38-.18C977.36,789.42,978.16,789.47,979,789.54Zm3.15.24-2.34-.18Zm3.18.27-2.36-.2Zm3.15.28-2.34-.21Zm3.18.3-2.33-.22Zm3.17.31-2.36-.23Zm6.27.69-2.34-.26Zm3.1.37-2.32-.27Zm3.08.4-2.29-.29Zm6.06.85-2.29-.33Zm3,.45-2.26-.34Zm2.92.48-2.22-.36Zm5.69,1-2.23-.41Zm-2.82-.52c-.73-.14-1.47-.26-2.21-.39C1020.58,794.43,1021.32,794.55,1022.05,794.69Zm5.57,1.07-2.23-.44Zm2.68.57-2.21-.47Zm5.16,1.22-2.26-.55Zm-2.54-.62-2.2-.5Zm-22.63-4.12-2.31-.31Zm-12.37-1.53-2.35-.25Zm-67-4-1.64,0Zm-9.86-.15h0Zm-8.95,0h0Zm-1.49,0h0Zm67.87,88.46.28.14.38.2-1.67-.81Zm3.76,2.14.16.12-.25-.17Zm.94.66.09.07-.28-.2Zm2.67,2.37.12.16c-.09-.12-.2-.24-.32-.37h0Zm-1-1-.1-.09.06,0Zm25.88-47.4-1-.27q2.55.68,4.88,1.43c-.75-.24-1.51-.47-2.29-.7Zm24.75-34.83a92.63,92.63,0,0,1,14.79,4.93A92.63,92.63,0,0,0,1035.49,797.56Zm19.43,7.34-.9-.54Zm-1.5-.86-1-.56Zm-1.56-.81-1.24-.59Zm4.45,2.56-.78-.52Zm4.83,4.14-.09-.09Zm2.33,2.73c-.14-.18-.27-.37-.42-.55C1063.2,812.29,1063.33,812.48,1063.47,812.66Zm1.65,2.6c-.18-.33-.36-.66-.57-1C1064.76,814.6,1064.94,814.93,1065.12,815.26Zm-15.43-53.42c-2-.68-4.14-1.31-6.25-1.93C1045.55,760.53,1047.65,761.16,1049.69,761.84Zm-22.37-48.15c-.73-.72-1.5-1.46-2.29-2.19C1025.82,712.23,1026.59,713,1027.32,713.69Zm-4.78-4.4c-5.56-4.77-12.27-9.26-19.09-10.88l-.27-.06.27.06C1010.27,700,1017,704.52,1022.54,709.29ZM917,690.7c1.28-.08,2.71-.12,4.25-.08-1.54,0-3,0-4.25.08-.85,0-1.64.13-2.35.21C915.4,690.83,916.19,690.75,917,690.7Zm-6.92,240.42v10.24h0V865.64h0v65.48Zm76-49.92.14.19Zm18.11-18.15,3.11-3.33-3.11,3.33Zm10.41-29.48c1.24.4,2.42.82,3.54,1.25-.45-.17-.89-.34-1.36-.5C1016.16,834.06,1015.44,833.81,1014.69,833.57Zm5.47,2c-.46-.2-.94-.4-1.43-.59,1.33.52,2.58,1.07,3.74,1.65q-.76-.39-1.59-.75C1020.64,835.82,1020.41,835.7,1020.16,835.6Zm4.36,2.15,1,.62Z"/></g></g></svg>