<?xml version="1.0" encoding="utf-8"?>
<!-- Generator: Adobe Illustrator 26.0.1, SVG Export Plug-In . SVG Version: 6.00 Build 0)  -->
<svg version="1.1" id="Layer_1" xmlns="http://www.w3.org/2000/svg" xmlns:xlink="http://www.w3.org/1999/xlink" x="0px" y="0px"
	 viewBox="0 0 1920 1080" style="enable-background:new 0 0 1920 1080;" xml:space="preserve">
<style type="text/css">
	.st0{fill:#D7F0F7;}
	.st1{opacity:0.7;fill:url(#XMLID_00000008150011768162753430000005200408454856764033_);}
	.st2{opacity:0.7;fill:url(#XMLID_00000019640615290611849220000010290063135017931142_);}
	.st3{opacity:0.7;fill:url(#XMLID_00000131343207693464617570000005569728699511957430_);}
	.st4{opacity:0.7;fill:url(#XMLID_00000016035768351435594080000012662474908061436580_);}
	.st5{opacity:0.7;fill:url(#XMLID_00000101104006741575269840000008823728300180891033_);}
	.st6{opacity:0.7;fill:url(#XMLID_00000068666938928710411640000007967723977555982002_);}
	.st7{opacity:0.7;fill:url(#XMLID_00000154405960186941695460000004983507339109348792_);}
	.st8{opacity:0.7;fill:url(#XMLID_00000057118593548107808330000011837318762516778396_);}
	.st9{opacity:0.7;fill:url(#XMLID_00000011748209986069345570000008696531371445437101_);}
	.st10{opacity:0.7;fill:url(#XMLID_00000108283357431316468550000005119538499005861566_);}
	.st11{opacity:0.7;fill:url(#XMLID_00000032624554104336713540000010124651384471123081_);}
	.st12{opacity:0.7;fill:url(#XMLID_00000102542622080072739880000018419470429206486404_);}
	.st13{opacity:0.7;fill:url(#XMLID_00000100362990458042637800000017801924189469667237_);}
	.st14{fill:#A6DFF2;}
	.st15{fill:#FFFFFF;}
	.st16{fill:none;}
	.st17{fill:#1A79DB;}
	.st18{fill:none;stroke:#FFFFFF;stroke-width:3.4563;stroke-miterlimit:10;}
	.st19{fill:#0E4E90;}
	.st20{fill:#6E6E6F;}
	.st21{fill:#F0F3F4;}
	.st22{fill:#3EB5E1;}
	.st23{fill:none;stroke:#D7F0F7;stroke-width:3.2939;stroke-linecap:round;stroke-linejoin:round;stroke-miterlimit:10;}
	.st24{fill:#4D7888;}
	.st25{fill:#AAAAAD;}
	.st26{fill:none;stroke:#FFFFFF;stroke-width:3.2939;stroke-miterlimit:10;}
	.st27{fill:none;stroke:#FFFFFF;stroke-width:2.8771;stroke-miterlimit:10;}
	.st28{fill:none;stroke:#FFFFFF;stroke-width:3.0329;stroke-miterlimit:10;}
	.st29{fill:#589FE0;}
</style>
<g id="XMLID_43_">
	<g id="sky_00000152251048227518795590000014972530176501727627_">
		<polyline id="sky" class="st0" points="0.6,116.2 0.6,0 1920,0 1920,1075.6 0.6,1075.6 0.6,116.2 		"/>
	</g>
	<g id="clouds">
		<g id="cloud10">
			
				<linearGradient id="XMLID_00000126309562850483771100000009528943525577220784_" gradientUnits="userSpaceOnUse" x1="1341.5748" y1="-16216.8809" x2="1341.5748" y2="-16109.5732" gradientTransform="matrix(1 0 0 -1 0 -15302)">
				<stop  offset="0.5161" style="stop-color:#F6E8CC;stop-opacity:0"/>
				<stop  offset="0.8172" style="stop-color:#FFFFFF"/>
			</linearGradient>
			<path id="XMLID_156_" style="opacity:0.7;fill:url(#XMLID_00000126309562850483771100000009528943525577220784_);" d="
				M1433.8,858c0.3-1,0.5-2.1,0.5-3.3c0-7.1-7-12.9-15.7-12.9c-0.8,0-1.6,0-2.3,0.1c-1.8-11.2-13-19.9-26.9-20.5
				c-4.5-8.2-14.5-13.9-26.1-13.9c-15.8,0-28.6,10.6-28.6,23.6c0,0.3,0,0.6,0,0.9c-1.4-0.2-2.8-0.3-4.2-0.3
				c-12.2,0-22.1,7.8-23,17.6l-0.1,0l0.1,10.7c-0.3,0-0.6-0.1-0.8-0.1c-0.5,0-0.9,0-1.3,0.1c-1-6.5-7.6-11.6-15.6-11.9
				c-2.6-4.8-8.4-8.1-15.1-8.1c-9.2,0-16.6,6.1-16.6,13.7c0,0.2,0,0.4,0,0.5c-0.8-0.1-1.6-0.2-2.5-0.2c-7.1,0-12.8,4.5-13.4,10.2
				l-0.1,0l0.3,38h65.4l0.1,12.4h133v-50.4C1441,861.1,1437.8,858.3,1433.8,858z"/>
		</g>
		<g id="clooud9">
			
				<linearGradient id="XMLID_00000142134770882847417390000012823906346350697661_" gradientUnits="userSpaceOnUse" x1="1611.7178" y1="-16180.7656" x2="1611.7178" y2="-16073.458" gradientTransform="matrix(1 0 0 -1 0 -15302)">
				<stop  offset="0.5161" style="stop-color:#F6E8CC;stop-opacity:0"/>
				<stop  offset="0.8172" style="stop-color:#FFFFFF"/>
			</linearGradient>
			<path id="XMLID_155_" style="opacity:0.7;fill:url(#XMLID_00000142134770882847417390000012823906346350697661_);" d="
				M1704,821.9c0.3-1,0.5-2.1,0.5-3.3c0-7.1-7-12.9-15.7-12.9c-0.8,0-1.6,0-2.3,0.1c-1.8-11.2-13-19.9-26.9-20.5
				c-4.5-8.2-14.5-13.9-26.1-13.9c-15.8,0-28.6,10.6-28.6,23.6c0,0.3,0,0.6,0,0.9c-1.4-0.2-2.8-0.3-4.2-0.3
				c-12.2,0-22.1,7.8-23,17.6l-0.1,0l0.1,10.7c-0.3,0-0.6-0.1-0.8-0.1c-0.5,0-0.9,0-1.3,0.1c-1-6.5-7.6-11.6-15.6-11.9
				c-2.6-4.8-8.4-8.1-15.1-8.1c-9.1,0-16.6,6.1-16.6,13.7c0,0.2,0,0.4,0,0.5c-0.8-0.1-1.6-0.2-2.5-0.2c-7.1,0-12.8,4.5-13.4,10.2
				l-0.1,0l0.3,38h65.4l0.1,12.4h133v-50.4C1711.1,825,1708,822.2,1704,821.9z"/>
		</g>
		
			<linearGradient id="XMLID_00000057139360256259413530000011214120577546605969_" gradientUnits="userSpaceOnUse" x1="712.869" y1="-16208.1982" x2="712.869" y2="-16046.0264" gradientTransform="matrix(1 0 0 -1 0 -15302)">
			<stop  offset="0.5161" style="stop-color:#F6E8CC;stop-opacity:0"/>
			<stop  offset="0.8172" style="stop-color:#FFFFFF"/>
		</linearGradient>
		<path id="XMLID_154_" style="opacity:0.7;fill:url(#XMLID_00000057139360256259413530000011214120577546605969_);" d="
			M802.9,820.3c0.5-1.6,0.8-3.2,0.8-4.9c0-10.8-10.6-19.5-23.7-19.5c-1.2,0-2.3,0.1-3.5,0.2c-2.7-16.9-19.7-30.1-40.7-30.9
			c-6.8-12.4-21.9-21.1-39.4-21.1c-23.8,0-43.2,16-43.2,35.7c0,0.5,0,1,0,1.4c-2.1-0.3-4.2-0.5-6.4-0.5c-18.4,0-33.5,11.8-34.8,26.7
			l-0.2,0l0.7,98.9h201.1V830C813.7,824.9,809,820.7,802.9,820.3z"/>
		<g id="cloud8">
			
				<linearGradient id="XMLID_00000095338578817290360470000003693381836183591569_" gradientUnits="userSpaceOnUse" x1="1615.4962" y1="-16301.8672" x2="1615.4962" y2="-16066.1797" gradientTransform="matrix(1 0 0 -1 0 -15302)">
				<stop  offset="0.1863" style="stop-color:#FFFFFF;stop-opacity:0"/>
				<stop  offset="0.8172" style="stop-color:#FFFFFF"/>
			</linearGradient>
			<path id="XMLID_518_" style="opacity:0.7;fill:url(#XMLID_00000095338578817290360470000003693381836183591569_);" d="
				M1904.3,875c0.7-2.3,1.1-4.7,1.1-7.1c0-15.7-15.4-28.4-34.4-28.4c-1.7,0-3.4,0.1-5.1,0.3c-3.9-24.6-28.6-43.7-59.1-45
				c-9.8-18-31.8-30.6-57.3-30.6c-34.7,0-62.7,23.2-62.7,51.8c0,0.7,0,1.4,0.1,2.1c-3-0.5-6.1-0.7-9.3-0.7
				c-26.7,0-48.6,17.1-50.6,38.7l-0.2,0l0,2.3c-6.6-3.9-14.7-6.2-23.4-6.2c-2.5,0-5,0.2-7.4,0.6c0-0.5,0-1.1,0-1.6
				c0-22.8-22.4-41.3-49.9-41.3c-20.3,0-37.7,10-45.6,24.3c-24.2,1-43.9,16.2-47,35.8c-1.3-0.2-2.7-0.2-4-0.2
				c-11.3,0-20.9,5.6-25.1,13.7c-1.9-11.6-13.6-20.6-28-21.1c-4.7-8.6-15.1-14.5-27.2-14.5c-16.4,0-29.8,11-29.8,24.6
				c0,0.3,0,0.7,0,1c-1.4-0.2-2.9-0.3-4.4-0.3c-12.7,0-23.1,8.1-24,18.4l-0.1,0l0.5,68.2h99v37.9h217.3l0,2.4H1920V889.1
				C1920,881.7,1913.1,875.6,1904.3,875z"/>
		</g>
		<g id="cloud7">
			
				<linearGradient id="XMLID_00000083790848837225917750000002526559700858119861_" gradientUnits="userSpaceOnUse" x1="970.4457" y1="-16281.0713" x2="970.4457" y2="-16045.3838" gradientTransform="matrix(1 0 0 -1 0 -15302)">
				<stop  offset="0.1863" style="stop-color:#FFFFFF;stop-opacity:0"/>
				<stop  offset="0.8172" style="stop-color:#FFFFFF"/>
			</linearGradient>
			<path id="XMLID_516_" style="opacity:0.7;fill:url(#XMLID_00000083790848837225917750000002526559700858119861_);" d="
				M1259.3,854.2c0.7-2.3,1.1-4.7,1.1-7.1c0-15.7-15.4-28.4-34.4-28.4c-1.7,0-3.4,0.1-5.1,0.3c-3.9-24.6-28.6-43.7-59.1-45
				c-9.8-18-31.8-30.6-57.3-30.6c-34.7,0-62.7,23.2-62.7,51.8c0,0.7,0,1.4,0.1,2.1c-3-0.5-6.1-0.7-9.3-0.7
				c-26.7,0-48.6,17.1-50.6,38.7l-0.2,0l0,2.3c-6.6-3.9-14.7-6.2-23.4-6.2c-2.5,0-5,0.2-7.4,0.6c0-0.5,0-1.1,0-1.6
				c0-22.8-22.4-41.3-49.9-41.3c-20.3,0-37.7,10-45.6,24.3c-24.2,1-43.9,16.2-47,35.8c-1.3-0.2-2.7-0.2-4-0.2
				c-11.3,0-20.9,5.6-25.1,13.7c-1.9-11.6-13.6-20.6-28-21.1c-4.7-8.6-15.1-14.5-27.2-14.5c-16.4,0-29.8,11-29.8,24.6
				c0,0.3,0,0.7,0,1c-1.4-0.2-2.9-0.3-4.4-0.3c-12.7,0-23.1,8.1-24,18.4l-0.1,0l0.5,68.2h99v37.9h217.3l0,2.4h292.2V868.3
				C1274.9,860.9,1268,854.8,1259.3,854.2z"/>
		</g>
		<g id="cloud6">
			
				<linearGradient id="XMLID_00000051372657800620040690000001219640700607144366_" gradientUnits="userSpaceOnUse" x1="5810.3896" y1="-16248.7676" x2="5810.3896" y2="-16013.0801" gradientTransform="matrix(-1 0 0 -1 6115.6704 -15302)">
				<stop  offset="0.1863" style="stop-color:#FFFFFF;stop-opacity:0"/>
				<stop  offset="0.8172" style="stop-color:#FFFFFF"/>
			</linearGradient>
			<path id="XMLID_113_" style="opacity:0.7;fill:url(#XMLID_00000051372657800620040690000001219640700607144366_);" d="
				M16.5,821.9c-0.7-2.3-1.1-4.7-1.1-7.1c0-15.7,15.4-28.4,34.4-28.4c1.7,0,3.4,0.1,5.1,0.3c3.9-24.6,28.6-43.7,59.1-45
				c9.8-18,31.8-30.6,57.3-30.6c34.7,0,62.7,23.2,62.7,51.8c0,0.7,0,1.4-0.1,2.1c3-0.5,6.1-0.7,9.3-0.7c26.7,0,48.6,17.1,50.6,38.7
				l0.2,0l0,2.3c6.6-3.9,14.7-6.2,23.4-6.2c2.5,0,5,0.2,7.4,0.6c0-0.5,0-1.1,0-1.6c0-22.8,22.4-41.3,49.9-41.3
				c20.3,0,37.7,10,45.6,24.3c24.2,1,43.9,16.2,47,35.8c1.3-0.2,2.7-0.2,4-0.2c11.3,0,20.9,5.6,25.1,13.7
				c1.9-11.6,13.6-20.6,28-21.1c4.7-8.6,15.1-14.5,27.2-14.5c16.4,0,29.8,11,29.8,24.6c0,0.3,0,0.7,0,1c1.4-0.2,2.9-0.3,4.4-0.3
				c12.7,0,23.1,8.1,24,18.4l0.1,0l-0.5,68.2h-99v37.9H293l0,2.4H0.8V836C0.8,828.6,7.7,822.5,16.5,821.9z"/>
		</g>
		<g id="cloud3">
			
				<linearGradient id="XMLID_00000160887000585443916110000004016315525404035744_" gradientUnits="userSpaceOnUse" x1="863.1896" y1="-15683.5322" x2="863.1896" y2="-15718.501" gradientTransform="matrix(1 0 0 -1 0 -15302)">
				<stop  offset="0" style="stop-color:#FFFFFF"/>
				<stop  offset="1" style="stop-color:#FFFFFF;stop-opacity:0"/>
			</linearGradient>
			<path id="XMLID_173_" style="opacity:0.7;fill:url(#XMLID_00000160887000585443916110000004016315525404035744_);" d="
				M961.3,409.1c0,0,0.2-27.5-24.6-27.5c-24.8,0-23.8,22.7-23.8,22.7s-3.7-12.9-19.5-11.5c-18.1,1.7-16.8,16.3-16.8,16.3
				s-3.8-11.5-21.9-8.2c-11.1,2-13.2,12.2-13.2,12.2s-6.2-14.8-19.8-15.3c-18.9-0.7-27.2,16.3-27.2,16.3l-63,6.1l263.2-4.1
				L961.3,409.1z"/>
		</g>
		<g id="cloud1">
			
				<linearGradient id="XMLID_00000120545234286444303450000004914982339917591970_" gradientUnits="userSpaceOnUse" x1="267.4009" y1="-15491.7695" x2="267.4009" y2="-15512.3838" gradientTransform="matrix(1 0 0 -1 0 -15302)">
				<stop  offset="0" style="stop-color:#FFFFFF"/>
				<stop  offset="1" style="stop-color:#FFFFFF;stop-opacity:0"/>
			</linearGradient>
			<path id="XMLID_32_" style="opacity:0.7;fill:url(#XMLID_00000120545234286444303450000004914982339917591970_);" d="M325.2,206
				c0,0,0.1-16.2-14.5-16.2s-14,13.4-14,13.4s-2.2-7.6-11.5-6.8c-10.7,1-9.9,9.6-9.9,9.6s-2.2-6.8-12.9-4.8
				c-6.6,1.2-7.8,7.2-7.8,7.2s-3.6-8.7-11.6-9c-11.2-0.4-16,9.6-16,9.6l-37.1,3.6l155.2-2.4L325.2,206z"/>
		</g>
		<g id="cloud2">
			
				<linearGradient id="XMLID_00000068663929266241779200000006689081141585516946_" gradientUnits="userSpaceOnUse" x1="1769.7015" y1="-15459.416" x2="1769.7015" y2="-15490.4658" gradientTransform="matrix(1 0 0 -1 0 -15302)">
				<stop  offset="0" style="stop-color:#FFFFFF"/>
				<stop  offset="1" style="stop-color:#FFFFFF;stop-opacity:0"/>
			</linearGradient>
			<path id="XMLID_176_" style="opacity:0.7;fill:url(#XMLID_00000068663929266241779200000006689081141585516946_);" d="
				M1856.8,181.9c0,0,0.1-24.5-21.9-24.5c-22,0-21.1,20.1-21.1,20.1s-3.3-11.5-17.3-10.2c-16.1,1.5-14.9,14.5-14.9,14.5
				s-3.4-10.2-19.5-7.2c-9.9,1.8-11.7,10.9-11.7,10.9s-5.5-13.2-17.5-13.6c-16.8-0.6-24.1,14.5-24.1,14.5l-55.9,5.4l233.7-3.6
				L1856.8,181.9z"/>
		</g>
		<g id="cloud5">
			
				<linearGradient id="XMLID_00000100366484607389657340000010925788361547369628_" gradientUnits="userSpaceOnUse" x1="355.5262" y1="607.5657" x2="355.5262" y2="699.4357" gradientTransform="matrix(-1 0 0 1 1922 0)">
				<stop  offset="0" style="stop-color:#FFFFFF"/>
				<stop  offset="0.8867" style="stop-color:#FFFFFF;stop-opacity:0.1133"/>
				<stop  offset="1" style="stop-color:#FFFFFF;stop-opacity:0"/>
			</linearGradient>
			<path id="XMLID_30_" style="opacity:0.7;fill:url(#XMLID_00000100366484607389657340000010925788361547369628_);" d="M1918,597.6
				c0,0-1.3-2.9-1.3-2.9c-12.2-33-89.9-10.4-110.8,4.4c-15.4,10.9-32,26.9-51.3,21.9c-6.8-1.8-12.1-5.9-18-9.2
				c-22.3-12.6-54.5-11.8-75.9,1.8c-13.4,8.6-24.5,22.1-41.4,22.8c-9.4,0.4-18.3-3.6-27.7-3.9c-22.2-0.7-37.3,17.7-56,27.7
				c-20.8,11.1-39.1,7.6-61.5,4.6c-19.9-2.6-40.8-0.3-60.9,1.4c-28.1,2.4-58.3,11.2-86.4,11.2c-5.3,0-111.9,14.6-111.9,14.6
				s83.7,11.6,127.7,8c44.1-3.6,22.3-3.9,62.4,0c40.1,3.9,85.2,13.8,103,12.4c17.8-1.5-9.3,0.3,55.4,0.1c64.7-0.1,69.2,8,133,7.5
				c63.8-0.5,70.1-14.9,109.3-20c39.1-5.1,112.2,2,112.2,2c0-19.6,0-39.1,0-58.7V597.6z"/>
			
				<linearGradient id="XMLID_00000132800017114351041460000015358237771602144680_" gradientUnits="userSpaceOnUse" x1="1505.5261" y1="609.5165" x2="1505.5261" y2="701.3865" gradientTransform="matrix(1 0 0 1 764 0)">
				<stop  offset="0" style="stop-color:#FFFFFF"/>
				<stop  offset="0.8867" style="stop-color:#FFFFFF;stop-opacity:0.1133"/>
				<stop  offset="1" style="stop-color:#FFFFFF;stop-opacity:0"/>
			</linearGradient>
			
				<path id="XMLID_00000125593567408217480110000014461174763678597011_" style="opacity:0.7;fill:url(#XMLID_00000132800017114351041460000015358237771602144680_);" d="
				M1918,599.6c0,0,1.3-2.9,1.3-2.9c12.2-33,89.9-10.4,110.8,4.4c15.4,10.9,32,26.9,51.3,21.9c6.8-1.8,12.1-5.9,18-9.2
				c22.3-12.6,54.5-11.8,75.9,1.8c13.4,8.6,24.5,22.1,41.4,22.8c9.4,0.4,18.3-3.6,27.7-3.9c22.2-0.7,37.3,17.7,56,27.7
				c20.8,11.1,39.1,7.6,61.5,4.6c19.9-2.6,40.8-0.3,60.9,1.4c28.1,2.4,58.3,11.2,86.4,11.2c5.3,0,111.9,14.6,111.9,14.6
				s-83.7,11.6-127.7,8c-44.1-3.6-22.3-3.9-62.4,0c-40.1,3.9-85.2,13.8-103,12.4c-17.8-1.5,9.3,0.3-55.4,0.1
				c-64.7-0.1-69.2,8-133,7.5c-63.8-0.5-70.1-14.9-109.3-20c-39.1-5.1-112.2,2-112.2,2c0-19.6,0-39.1,0-58.7V599.6z"/>
		</g>
		<g id="cloud4">
			
				<linearGradient id="XMLID_00000096764860457339561340000016580580731547184031_" gradientUnits="userSpaceOnUse" x1="93.9253" y1="450.8432" x2="93.9253" y2="501.0524" gradientTransform="matrix(1 0 0 1 100.1922 0)">
				<stop  offset="0" style="stop-color:#FFFFFF"/>
				<stop  offset="0.8867" style="stop-color:#FFFFFF;stop-opacity:0.1133"/>
				<stop  offset="1" style="stop-color:#FFFFFF;stop-opacity:0"/>
			</linearGradient>
			<path id="XMLID_33_" style="opacity:0.7;fill:url(#XMLID_00000096764860457339561340000016580580731547184031_);" d="M2,445.4
				c0,0,0.7-1.6,0.7-1.6c6.7-18,49.1-5.7,60.6,2.4c8.4,5.9,17.5,14.7,28,12c3.7-1,6.6-3.2,9.8-5.1c12.2-6.9,29.8-6.5,41.5,1
				c7.3,4.7,13.4,12.1,22.6,12.4c5.1,0.2,10-1.9,15.1-2.1c12.2-0.4,20.4,9.7,30.6,15.1c11.4,6.1,21.4,4.1,33.6,2.5
				c10.9-1.4,22.3-0.2,33.3,0.8c15.4,1.3,31.9,6.1,47.2,6.1c2.9,0,61.2,8,61.2,8s-45.7,6.4-69.8,4.4c-24.1-2-12.2-2.1-34.1,0
				c-21.9,2.1-46.6,7.6-56.3,6.8c-9.7-0.8,5.1,0.2-30.3,0.1c-35.3-0.1-37.8,4.3-72.7,4.1c-34.9-0.3-38.3-8.2-59.7-10.9
				C42,498.6,2,502.4,2,502.4c0-10.7,0-21.4,0-32.1V445.4z"/>
			
				<linearGradient id="XMLID_00000182529224498485966390000002444251730314200978_" gradientUnits="userSpaceOnUse" x1="902.1603" y1="450.7185" x2="902.1603" y2="500.9277" gradientTransform="matrix(-1 0 0 1 758.0428 0)">
				<stop  offset="0" style="stop-color:#FFFFFF"/>
				<stop  offset="0.8867" style="stop-color:#FFFFFF;stop-opacity:0.1133"/>
				<stop  offset="1" style="stop-color:#FFFFFF;stop-opacity:0"/>
			</linearGradient>
			
				<path id="XMLID_00000012443398937232517890000006230604863154959511_" style="opacity:0.7;fill:url(#XMLID_00000182529224498485966390000002444251730314200978_);" d="
				M48,445.3c0,0-0.7-1.6-0.7-1.6c-6.7-18-49.1-5.7-60.6,2.4c-8.4,5.9-17.5,14.7-28,12c-3.7-1-6.6-3.2-9.8-5.1
				c-12.2-6.9-29.8-6.5-41.5,1c-7.3,4.7-13.4,12.1-22.6,12.4c-5.1,0.2-10-1.9-15.1-2.1c-12.2-0.4-20.4,9.7-30.6,15.1
				c-11.4,6.1-21.4,4.1-33.6,2.5c-10.9-1.4-22.3-0.2-33.3,0.8c-15.4,1.3-31.9,6.1-47.2,6.1c-2.9,0-61.2,8-61.2,8s45.7,6.4,69.8,4.4
				c24.1-2,12.2-2.1,34.1,0c21.9,2.1,46.6,7.6,56.3,6.8c9.7-0.8-5.1,0.2,30.3,0.1c35.3-0.1,37.8,4.3,72.7,4.1
				c34.9-0.3,38.3-8.2,59.7-10.9C8,498.4,48,502.3,48,502.3c0-10.7,0-21.4,0-32.1V445.3z"/>
		</g>
	</g>
	<g id="buildings_00000152239421890474311990000003154351415687033227_">
		<path id="buildings" class="st14" d="M0.6,917.2l14.5,1.4v20.6l1.4-1.8l6-5.9l1.5-0.6l1.9-7l1.1,7.2l3.6-0.1v8.4l7.5,9.5v12.3
			l6.9,5.4v19.5h12.7l9.7,3.1V962h20.2v8.8h5.3v9.6h26.8v64.8h16.1v4.8h22.7v9.4h7.1v-58.1h25.9v4h26.6v6.9H230v-17.5l15.1,7.4v-7.4
			l19.2,8v-29l13.1,9.9h35.6v-48.7h7.2v-13h47.7v14.6h6.8v23.3h7.9v49.7h8.6v-37.9h41.6H586v31.7h105.1c0,0,15-9.3,29.1-9.6
			c0,0,15.4,19,11.4,37.2h20.1l7.8-13.2h7.1v-49.2h34v2.2h-5.8v5.1h7.4v49h11.1v-31.1h3.8v-13.1h5.2v-3.4h6.4v-2.1h5.7v2.1h4.4
			v-38.8h5.9v-66.5h10V750.3h4.1v-30h1.7v-30h1.1L863,651l1,39.2h2v11.7h3v59.2h3.5v28.6h5.1v24.1h3.9v80.2h3.8V959h6.7v42.6h18
			v-47.3h17.2v-52.9h7.1v-11.7h47.8v12h9.9v77.4h32.5v-38.8l7.8-5.3v-7.7h19.9v10.9h11.7V989c0,0,14.5,10.4,14.5,23.4h18.2v-6.2
			h22.9v-8.3h4.8v-8.1h20.4v8.4h4.1v14.1h3.9v-20.8h4.1v-5.9h11.5v-14.6h26.6V985h151.8l163.2,58.3v-97.9l16.8-19v-6.2h2.1v6.2
			l19.1,19.2v94.6h19.4v-77.9h52.6v77.3l18.7,4.4v-8.2h22v-8.3h39v5.5h6.9v-8.1h8.4l7.8-5.2h14.7v4.2h15.3v8.8h15.1v-20.8h18v23.6
			h24.8V1023h22.9v10.3h25.8v-9.8h12.2v-9.5h48.4v61.5H0.6V917.2z"/>
	</g>
	<path id="XMLID_3589_" class="st15" d="M435.8,1054.1c-2.6,14-13.8,21-14.5,21.5L435.8,1054.1z"/>
	<line id="XMLID_3588_" class="st16" x1="421.3" y1="1075.6" x2="421.2" y2="1075.6"/>
	<g id="bridge">
		<g id="XMLID_3021_">
			<g id="XMLID_10_">
				<g>
					<path id="XMLID_00000036231564439290889200000008972125719164083843_" class="st0" d="M1342.5,853.9v1.8h-23.2
						c1.6-0.6,3.1-1.2,4.6-1.8H1342.5z"/>
					<path id="XMLID_00000096776488990806729080000009059837364258624426_" class="st0" d="M1342.5,861v1.8h-40.2
						c1.4-0.6,2.8-1.2,4.2-1.8H1342.5z"/>
					<path id="XMLID_00000074421549542652074130000004951423362414457485_" class="st0" d="M1342.5,868.1v1.8h-55.7
						c1.3-0.6,2.5-1.2,3.8-1.8H1342.5z"/>
					<path id="XMLID_00000040555162977206241860000010449017634960929723_" class="st0" d="M1342.5,875.3v1.8h-69.9
						c1.2-0.6,2.4-1.2,3.5-1.8H1342.5z"/>
					<path id="XMLID_00000176753804415144795850000013995082333441516935_" class="st0" d="M1342.5,882.4v1.8h-83.2
						c1.1-0.6,2.2-1.2,3.3-1.8H1342.5z"/>
					<path id="XMLID_00000044146857510537892450000006583565308201916812_" class="st0" d="M1342.5,889.5v1.8H1247
						c1-0.6,2.1-1.2,3-1.8H1342.5z"/>
					<path id="XMLID_00000116227837392259784050000011330965375027471541_" class="st0" d="M1342.5,896.7v1.8h-107.1
						c1-0.6,1.9-1.2,2.9-1.8H1342.5z"/>
					<path id="XMLID_00000171682728257697463220000009494794937715554219_" class="st0" d="M1342.5,903.8v1.9h-118
						c0.9-0.6,1.8-1.3,2.8-1.9H1342.5z"/>
					<path id="XMLID_00000000925318072756737700000000037802495952818570_" class="st0" d="M1342.5,910.9v1.9h-128.4
						c0.9-0.6,1.7-1.3,2.6-1.9H1342.5z"/>
					<path id="XMLID_00000050641812997292836410000017938801930773591430_" class="st0" d="M1342.5,918v1.9h-138.2
						c0.8-0.6,1.7-1.3,2.5-1.9H1342.5z"/>
					<path id="XMLID_00000134948617987355458130000002255058667590771363_" class="st0" d="M1342.5,925.2v1.9H1195
						c0.8-0.6,1.6-1.3,2.4-1.9H1342.5z"/>
					<path id="XMLID_00000091708199790602033010000002828904248042891948_" class="st0" d="M1342.5,932.3v1.9h-156.3
						c0.8-0.6,1.5-1.3,2.3-1.9H1342.5z"/>
					<path id="XMLID_00000173155385277512348790000014023422995668723903_" class="st0" d="M1342.5,939.4v1.9h-164.7
						c0.7-0.6,1.4-1.3,2.1-1.9H1342.5z"/>
					<path id="XMLID_00000111192020038928261160000015835478514592700090_" class="st0" d="M1342.5,946.5v1.9h-172.6
						c0.7-0.6,1.4-1.2,2.1-1.9H1342.5z"/>
					<path id="XMLID_00000047765567909223189930000001206021240581522858_" class="st0" d="M1342.5,953.7v1.8h-180.2
						c0.6-0.6,1.3-1.2,1.9-1.8H1342.5z"/>
					<path id="XMLID_00000016041845571457493630000005441132442103381938_" class="st0" d="M1342.5,960.8v1.8H1155
						c0.6-0.6,1.2-1.2,1.8-1.8H1342.5z"/>
					<path id="XMLID_00000039098216496662553660000001309422368654489514_" class="st0" d="M1342.5,967.9v1.8H1148
						c0.6-0.6,1.2-1.2,1.8-1.8H1342.5z"/>
					<path id="XMLID_00000146495435480260932740000017469496211507841937_" class="st0" d="M1342.5,975.1v1.8h-201
						c0.5-0.6,1.1-1.2,1.7-1.8H1342.5z"/>
					<path id="XMLID_00000178195581247383971010000004962400397065000616_" class="st0" d="M1342.5,982.2v1.8h-207.3
						c0.5-0.6,1-1.2,1.6-1.8H1342.5z"/>
					<path id="XMLID_00000105387147140922705310000011501405811681135278_" class="st0" d="M1342.5,989.3v1.8h-213.3
						c0.5-0.6,1-1.2,1.5-1.8H1342.5z"/>
					<path id="XMLID_00000153665132482645343230000000392573765800781727_" class="st0" d="M1342.5,996.5v1.8h-219
						c0.5-0.6,1-1.2,1.4-1.8H1342.5z"/>
					<path id="XMLID_00000037685071920658857750000014212757935466943933_" class="st0" d="M1342.5,1003.6v1.8H1118
						c0.4-0.6,0.9-1.2,1.4-1.8H1342.5z"/>
					<path id="XMLID_00000131329487676482750200000012024883500524412048_" class="st0" d="M1342.5,1010.7v1.8h-229.7
						c0.4-0.6,0.8-1.2,1.3-1.8H1342.5z"/>
					<path id="XMLID_00000009559735629580482680000000814764139514436790_" class="st0" d="M1342.5,1017.9v1.8h-234.7
						c0.4-0.6,0.8-1.2,1.3-1.8H1342.5z"/>
					<path id="XMLID_00000106107856877522999680000013967963199995539376_" class="st0" d="M1342.5,1025v1.8H1103
						c0.4-0.6,0.8-1.2,1.2-1.8H1342.5z"/>
					<path id="XMLID_00000134967061309060231730000008736328669952477327_" class="st0" d="M1342.5,1032.1v1.8h-244
						c0.4-0.6,0.8-1.2,1.2-1.8H1342.5z"/>
					<path id="XMLID_00000125591011712678222740000015693443134434894015_" class="st0" d="M1342.5,1039.3v1.8h-248.3
						c0.3-0.6,0.7-1.2,1.1-1.8H1342.5z"/>
					<path id="XMLID_00000041290920504109143370000006324220839891226557_" class="st0" d="M1342.5,1046.4v1.9h-252.4
						c0.3-0.6,0.6-1.2,1-1.9H1342.5z"/>
					<path id="XMLID_00000106106672756059621740000004682083225620526505_" class="st0" d="M1342.5,1053.5v1.9h-256.3
						c0.3-0.6,0.6-1.2,1-1.9H1342.5z"/>
					<path id="XMLID_00000131363405347390040500000017422095291979746228_" class="st0" d="M1342.5,1060.6v1.9h-260
						c0.3-0.6,0.6-1.3,1-1.9H1342.5z"/>
				</g>
			</g>
			<g id="XMLID_11_">
				<g>
					<path id="XMLID_00000118382624961001656700000016955556443985343114_" class="st17" d="M1342.5,848.6v5.3h-18.6
						c5.5-2.1,10.4-3.9,14.6-5.3H1342.5z"/>
					<path id="XMLID_00000039115143384512208870000011271254219354462094_" class="st17" d="M1342.5,855.7v5.3h-36
						c4.5-1.9,8.8-3.7,12.9-5.3H1342.5z"/>
					<path id="XMLID_00000030466104732235624900000003458822417295210157_" class="st17" d="M1342.5,862.8v5.3h-51.9
						c4-1.9,7.9-3.7,11.7-5.3H1342.5z"/>
					<path id="XMLID_00000101066299664319725680000015357511451981373334_" class="st17" d="M1342.5,870v5.3h-66.4
						c3.7-1.9,7.2-3.6,10.7-5.3H1342.5z"/>
					<path id="XMLID_00000067922415442276382870000004299205449520177591_" class="st17" d="M1342.5,877.1v5.3h-79.9
						c3.3-1.9,6.7-3.6,9.9-5.3H1342.5z"/>
					<path id="XMLID_00000167391135208575892620000010175765183191145883_" class="st17" d="M1342.5,884.2v5.3H1250
						c3.1-1.8,6.2-3.6,9.3-5.3H1342.5z"/>
					<path id="XMLID_00000076574761153618178060000000252479396734143137_" class="st17" d="M1342.5,891.4v5.3h-104.2
						c3-1.8,5.9-3.6,8.7-5.3H1342.5z"/>
					<path id="XMLID_00000071554731243950122050000000025169774375893677_" class="st17" d="M1342.5,898.5v5.3h-115.3
						c2.7-1.8,5.5-3.6,8.2-5.3H1342.5z"/>
					<path id="XMLID_00000181072244866439583720000009136576069073236662_" class="st17" d="M1342.5,905.6v5.3h-125.8
						c2.6-1.8,5.2-3.6,7.7-5.3H1342.5z"/>
					<path id="XMLID_00000129919511646142788850000012786922948935213991_" class="st17" d="M1342.5,912.7v5.3h-135.7
						c2.4-1.8,4.9-3.6,7.3-5.3H1342.5z"/>
					<path id="XMLID_00000153679274456339783660000002539109881817736070_" class="st17" d="M1342.5,919.9v5.3h-145.1
						c2.3-1.8,4.6-3.5,6.9-5.3H1342.5z"/>
					<path id="XMLID_00000173864991678557246960000017761870655567455419_" class="st17" d="M1342.5,927v5.3h-154
						c2.2-1.8,4.3-3.6,6.5-5.3H1342.5z"/>
					<path id="XMLID_00000045592262715982579630000009624683243903345546_" class="st17" d="M1342.5,934.1v5.3h-162.5
						c2.1-1.8,4.2-3.5,6.3-5.3H1342.5z"/>
					<path id="XMLID_00000027564858288331790710000006374096453653662353_" class="st17" d="M1342.5,941.3v5.3h-170.6
						c1.9-1.8,4-3.5,5.9-5.3H1342.5z"/>
					<path id="XMLID_00000126285631933842212510000015691050879516586903_" class="st17" d="M1342.5,948.4v5.3h-178.3
						c1.9-1.8,3.8-3.5,5.7-5.3H1342.5z"/>
					<path id="XMLID_00000169541313973151979830000006801586196136098993_" class="st17" d="M1342.5,955.5v5.3h-185.6
						c1.8-1.8,3.6-3.6,5.4-5.3H1342.5z"/>
					<path id="XMLID_00000111886492946234334810000009214156836769185201_" class="st17" d="M1342.5,962.6v5.3h-192.6
						c1.7-1.8,3.4-3.6,5.2-5.3H1342.5z"/>
					<path id="XMLID_00000132074105268345161460000015613327449162087559_" class="st17" d="M1342.5,969.8v5.3h-199.3
						c1.6-1.8,3.2-3.5,4.9-5.3H1342.5z"/>
					<path id="XMLID_00000021828991317077773410000014933856987975795085_" class="st17" d="M1342.5,976.9v5.3h-205.7
						c1.6-1.8,3.2-3.5,4.8-5.3H1342.5z"/>
					<path id="XMLID_00000121977409036650894020000017786552949625626787_" class="st17" d="M1342.5,984v5.3h-211.8
						c1.4-1.8,3-3.5,4.5-5.3H1342.5z"/>
					<path id="XMLID_00000000915047225080995180000018111521739343992218_" class="st17" d="M1342.5,991.2v5.3h-217.6
						c1.4-1.8,2.9-3.5,4.3-5.3H1342.5z"/>
					<path id="XMLID_00000013903148437841557160000011166884546632123795_" class="st17" d="M1342.5,998.3v5.3h-223.1
						c1.3-1.8,2.7-3.5,4.1-5.3H1342.5z"/>
					<path id="XMLID_00000035532298771436014790000010237299832062843783_" class="st17" d="M1342.5,1005.4v5.3h-228.4
						c1.3-1.8,2.5-3.5,3.9-5.3H1342.5z"/>
					<path id="XMLID_00000165947439837775501210000016513534052018029449_" class="st17" d="M1342.5,1012.5v5.3H1109
						c1.2-1.8,2.4-3.6,3.7-5.3H1342.5z"/>
					<path id="XMLID_00000170985764405826479840000008406482449856730759_" class="st17" d="M1342.5,1019.7v5.3h-238.3
						c1.2-1.8,2.4-3.5,3.6-5.3H1342.5z"/>
					<path id="XMLID_00000114054558006420515580000017636538873586848172_" class="st17" d="M1342.5,1026.8v5.3h-242.8
						c1.1-1.8,2.2-3.5,3.4-5.3H1342.5z"/>
					<path id="XMLID_00000106112382442907681310000007569186188451314822_" class="st17" d="M1342.5,1033.9v5.3h-247.2
						c1-1.8,2.1-3.5,3.2-5.3H1342.5z"/>
					<path id="XMLID_00000053503403565900563450000001068840332496008377_" class="st17" d="M1342.5,1041.1v5.3h-251.4
						c1-1.8,2-3.5,3-5.3H1342.5z"/>
					<path id="XMLID_00000158732268378831012870000003095765001733320086_" class="st17" d="M1342.5,1048.2v5.3h-255.3
						c0.9-1.8,1.9-3.5,2.9-5.3H1342.5z"/>
					<path id="XMLID_00000117658651436340086180000006616291617822222474_" class="st17" d="M1342.5,1055.3v5.3h-259.1
						c0.9-1.8,1.8-3.5,2.8-5.3H1342.5z"/>
					<path id="XMLID_00000107574541230302639110000003668651133472273564_" class="st17" d="M1342.5,1062.5v5.3h-262.7
						c0.9-1.8,1.7-3.5,2.7-5.3H1342.5z"/>
				</g>
			</g>
		</g>
		<g id="XMLID_2809_">
			<g id="XMLID_12_">
				<path id="XMLID_3020_" class="st17" d="M1359.4,859.2H1346v-5.3h12.9C1359,855.4,1359.2,857.2,1359.4,859.2z"/>
				<path id="XMLID_3018_" class="st17" d="M1360.6,866.3H1346V861h13.7C1360,862.6,1360.2,864.4,1360.6,866.3z"/>
				<path id="XMLID_3016_" class="st17" d="M1362.1,873.4H1346v-5.3h14.9C1361.3,869.8,1361.6,871.6,1362.1,873.4z"/>
				<path id="XMLID_3014_" class="st17" d="M1363.9,880.5H1346v-5.3h16.5C1362.9,877,1363.4,878.7,1363.9,880.5z"/>
				<path id="XMLID_3012_" class="st17" d="M1366.1,887.7h-20v-5.3h18.4C1364.9,884.1,1365.4,885.9,1366.1,887.7z"/>
				<path id="XMLID_3010_" class="st17" d="M1368.5,894.8H1346v-5.3h20.6C1367.2,891.2,1367.8,893,1368.5,894.8z"/>
				<path id="XMLID_3008_" class="st17" d="M1371.4,901.9H1346v-5.3h23.2C1369.9,898.4,1370.6,900.1,1371.4,901.9z"/>
				<path id="XMLID_3006_" class="st17" d="M1374.5,909H1346v-5.3h26.1C1372.9,905.5,1373.7,907.2,1374.5,909z"/>
				<path id="XMLID_3004_" class="st17" d="M1378.1,916.2H1346v-5.3h29.4C1376.2,912.6,1377.1,914.4,1378.1,916.2z"/>
				<path id="XMLID_2991_" class="st17" d="M1382,923.3h-36V918h33C1380,919.8,1381,921.5,1382,923.3z"/>
				<path id="XMLID_2988_" class="st17" d="M1386.4,930.4H1346v-5.3h37.1C1384.1,926.9,1385.2,928.7,1386.4,930.4z"/>
				<path id="XMLID_2986_" class="st17" d="M1391.1,937.6H1346v-5.3h41.5C1388.7,934,1389.9,935.8,1391.1,937.6z"/>
				<path id="XMLID_2860_" class="st17" d="M1396.4,944.7H1346v-5.3h46.4C1393.7,941.2,1395,942.9,1396.4,944.7z"/>
				<path id="XMLID_2843_" class="st17" d="M1402.1,951.8H1346v-5.3h51.8C1399.2,948.3,1400.6,950.1,1402.1,951.8z"/>
				<path id="XMLID_2841_" class="st17" d="M1408.3,959H1346v-5.3h57.6C1405.1,955.4,1406.7,957.2,1408.3,959z"/>
				<path id="XMLID_2839_" class="st17" d="M1415.1,966.1H1346v-5.3h64C1411.6,962.5,1413.4,964.3,1415.1,966.1z"/>
				<path id="XMLID_2837_" class="st17" d="M1422.6,973.2H1346v-5.3h71C1418.8,969.7,1420.7,971.5,1422.6,973.2z"/>
				<path id="XMLID_2835_" class="st17" d="M1430.7,980.3H1346V975h78.6C1426.6,976.8,1428.6,978.6,1430.7,980.3z"/>
				<path id="XMLID_2833_" class="st17" d="M1439.7,987.5H1346v-5.3h86.9C1435.1,984,1437.4,985.7,1439.7,987.5z"/>
				<path id="XMLID_2831_" class="st17" d="M1449.5,994.6H1346v-5.3h96.1C1444.5,991.1,1447,992.9,1449.5,994.6z"/>
				<path id="XMLID_2829_" class="st17" d="M1460.3,1001.7H1346v-5.3h106.2C1454.8,998.2,1457.5,1000,1460.3,1001.7z"/>
				<path id="XMLID_2827_" class="st17" d="M1472.3,1008.9H1346v-5.3h117.3C1466.2,1005.4,1469.2,1007.1,1472.3,1008.9z"/>
				<path id="XMLID_2825_" class="st17" d="M1485.6,1016H1346v-5.3h129.6C1478.8,1012.5,1482.2,1014.2,1485.6,1016z"/>
				<path id="XMLID_2823_" class="st17" d="M1500.6,1023.1H1346v-5.3h143.3C1493,1019.6,1496.8,1021.4,1500.6,1023.1z"/>
				<path id="XMLID_2821_" class="st17" d="M1517.6,1030.3H1346v-5.3h158.8C1508.9,1026.8,1513.2,1028.5,1517.6,1030.3z"/>
				<path id="XMLID_2819_" class="st17" d="M1537.2,1037.4H1346v-5.3h176.4C1527.2,1033.9,1532.2,1035.7,1537.2,1037.4z"/>
				<path id="XMLID_2817_" class="st17" d="M1560.4,1044.5H1346v-5.3h196.8C1548.5,1041.1,1554.4,1042.8,1560.4,1044.5z"/>
				<path id="XMLID_2815_" class="st17" d="M1588.7,1051.6H1346v-5.3h221.1C1574,1048.2,1581.2,1050,1588.7,1051.6z"/>
				<path id="XMLID_2813_" class="st17" d="M1626,1058.8h-280v-5.3h251.3C1606.5,1055.4,1616.1,1057.2,1626,1058.8z"/>
				<path id="XMLID_2811_" class="st17" d="M1685.8,1065.9H1346v-5.3h292.2C1653.3,1062.8,1669.1,1064.5,1685.8,1065.9z"/>
			</g>
			<g id="XMLID_14_">
				<path id="XMLID_3019_" class="st0" d="M1359.7,861H1346v-1.8h13.4C1359.5,859.8,1359.6,860.3,1359.7,861z"/>
				<path id="XMLID_3017_" class="st0" d="M1361,868.1H1346v-1.8h14.6C1360.7,866.9,1360.8,867.5,1361,868.1z"/>
				<path id="XMLID_3015_" class="st0" d="M1362.5,875.2H1346v-1.8h16.1C1362.2,874,1362.4,874.6,1362.5,875.2z"/>
				<path id="XMLID_3013_" class="st0" d="M1364.4,882.4H1346v-1.8h17.9C1364.1,881.1,1364.2,881.7,1364.4,882.4z"/>
				<path id="XMLID_3011_" class="st0" d="M1366.7,889.5H1346v-1.8h20C1366.2,888.3,1366.4,888.9,1366.7,889.5z"/>
				<path id="XMLID_3009_" class="st0" d="M1369.2,896.6H1346v-1.8h22.5C1368.8,895.4,1369,896,1369.2,896.6z"/>
				<path id="XMLID_3007_" class="st0" d="M1372.1,903.8H1346v-1.8h25.4C1371.6,902.5,1371.9,903.1,1372.1,903.8z"/>
				<path id="XMLID_3005_" class="st0" d="M1375.4,910.9H1346V909h28.5C1374.8,909.6,1375.1,910.3,1375.4,910.9z"/>
				<path id="XMLID_3003_" class="st0" d="M1379.1,918h-33v-1.9h32.1C1378.4,916.8,1378.7,917.4,1379.1,918z"/>
				<path id="XMLID_2989_" class="st0" d="M1383.1,925.2H1346v-1.9h36C1382.4,923.9,1382.7,924.5,1383.1,925.2z"/>
				<path id="XMLID_2987_" class="st0" d="M1387.5,932.3H1346v-1.9h40.3C1386.7,931.1,1387.1,931.7,1387.5,932.3z"/>
				<path id="XMLID_2984_" class="st0" d="M1392.4,939.4H1346v-1.9h45.1C1391.5,938.2,1392,938.8,1392.4,939.4z"/>
				<path id="XMLID_2859_" class="st0" d="M1397.8,946.5H1346v-1.9h50.3C1396.8,945.3,1397.3,946,1397.8,946.5z"/>
				<path id="XMLID_2842_" class="st0" d="M1403.7,953.7H1346v-1.9h56.1C1402.6,952.5,1403.1,953.1,1403.7,953.7z"/>
				<path id="XMLID_2840_" class="st0" d="M1410,960.8h-64V959h62.3C1408.9,959.6,1409.4,960.2,1410,960.8z"/>
				<path id="XMLID_2838_" class="st0" d="M1417,967.9h-71v-1.8h69.1C1415.8,966.7,1416.4,967.3,1417,967.9z"/>
				<path id="XMLID_2836_" class="st0" d="M1424.6,975H1346v-1.8h76.6C1423.2,973.8,1423.9,974.4,1424.6,975z"/>
				<path id="XMLID_2834_" class="st0" d="M1432.9,982.2H1346v-1.8h84.7C1431.5,980.9,1432.2,981.5,1432.9,982.2z"/>
				<path id="XMLID_2832_" class="st0" d="M1442.1,989.3H1346v-1.8h93.7C1440.5,988.1,1441.3,988.7,1442.1,989.3z"/>
				<path id="XMLID_2830_" class="st0" d="M1452.2,996.4H1346v-1.8h103.5C1450.4,995.2,1451.3,995.8,1452.2,996.4z"/>
				<path id="XMLID_2828_" class="st0" d="M1463.3,1003.6H1346v-1.8h114.3C1461.3,1002.3,1462.3,1003,1463.3,1003.6z"/>
				<path id="XMLID_2826_" class="st0" d="M1475.6,1010.7H1346v-1.8h126.3C1473.4,1009.5,1474.5,1010.1,1475.6,1010.7z"/>
				<path id="XMLID_2824_" class="st0" d="M1489.3,1017.8H1346v-1.8h139.6C1486.8,1016.6,1488.1,1017.2,1489.3,1017.8z"/>
				<path id="XMLID_2822_" class="st0" d="M1504.8,1025H1346v-1.8h154.6C1502,1023.8,1503.4,1024.4,1504.8,1025z"/>
				<path id="XMLID_2820_" class="st0" d="M1522.4,1032.1H1346v-1.8h171.6C1519.2,1030.9,1520.8,1031.5,1522.4,1032.1z"/>
				<path id="XMLID_2818_" class="st0" d="M1542.8,1039.2H1346v-1.8h191.2C1539.1,1038,1540.9,1038.6,1542.8,1039.2z"/>
				<path id="XMLID_2816_" class="st0" d="M1567.1,1046.4H1346v-1.8h214.4C1562.6,1045.2,1564.8,1045.8,1567.1,1046.4z"/>
				<path id="XMLID_2814_" class="st0" d="M1597.3,1053.5H1346v-1.9h242.7C1591.5,1052.3,1594.4,1052.9,1597.3,1053.5z"/>
				<path id="XMLID_2812_" class="st0" d="M1638.2,1060.6H1346v-1.9h280C1630,1059.4,1634.1,1060,1638.2,1060.6z"/>
				<rect id="XMLID_2810_" x="1346" y="1065.9" class="st0" width="364.1" height="1.9"/>
			</g>
		</g>
		<path id="XMLID_2808_" class="st15" d="M1387.4,856.5h-24.1c0,0,4.5,157.4,264.8,203.1c-280.7-42.8-273-216.2-273-216.2l-1.8-22.1
			h44.3c0,0-14.6,224.6,331.5,233.3C1729,1054.5,1435.5,1081.1,1387.4,856.5z"/>
		<path id="XMLID_2805_" class="st14" d="M1174.4,1067.8c49.3-69,173.7-92.4,173.7-92.4s29.8,64.8,143.2,92.4H1174.4z"/>
		<path id="XMLID_2799_" class="st14" d="M1356.5,862.2C1356.5,862.2,1356.5,862.2,1356.5,862.2l-8.6,0.1v-16.8
			c4.6-1.4,7.1-2.1,7.1-2.1S1354.7,850.5,1356.5,862.2z"/>
		<rect id="XMLID_2804_" x="1338.4" y="831.9" class="st14" width="8.2" height="11.5"/>
		<path id="XMLID_17_" class="st18" d="M1079.8,1067.8c85.6-175.3,275.2-224.3,275.2-224.3s-9.2,205.6,355.1,224.3"/>
		<g id="XMLID_1414_">
			<g id="XMLID_15_">
				<path id="XMLID_2798_" class="st17" d="M1391.9,874.4H1366c-0.5-1.9-0.8-3.7-1.1-5.3h25.5
					C1390.9,870.9,1391.4,872.6,1391.9,874.4z"/>
				<path id="XMLID_2796_" class="st17" d="M1394.1,881.5h-26.1c-0.6-1.9-1-3.6-1.4-5.3h25.9C1393,878,1393.5,879.8,1394.1,881.5z"
					/>
				<path id="XMLID_2794_" class="st17" d="M1396.5,888.7h-26.4c-0.6-1.8-1.2-3.6-1.7-5.3h26.2
					C1395.2,885.1,1395.9,886.9,1396.5,888.7z"/>
				<path id="XMLID_2792_" class="st17" d="M1399.2,895.8h-26.4c-0.7-1.8-1.4-3.6-2-5.3h26.4C1397.8,892.3,1398.5,894,1399.2,895.8z
					"/>
				<path id="XMLID_2790_" class="st17" d="M1402.1,902.9h-26.4c-0.8-1.8-1.6-3.6-2.2-5.3h26.4
					C1400.6,899.4,1401.4,901.2,1402.1,902.9z"/>
				<path id="XMLID_2788_" class="st17" d="M1405.4,910H1379c-0.9-1.8-1.7-3.6-2.5-5.3h26.4C1403.7,906.5,1404.6,908.3,1405.4,910z"
					/>
				<path id="XMLID_2786_" class="st17" d="M1409,917.2h-26.2c-1-1.8-1.9-3.5-2.9-5.3h26.4C1407.1,913.7,1408,915.4,1409,917.2z"/>
				<path id="XMLID_2784_" class="st17" d="M1412.9,924.3h-26c-1.1-1.8-2.1-3.5-3.1-5.3h26.2
					C1410.9,920.8,1411.8,922.5,1412.9,924.3z"/>
				<path id="XMLID_2782_" class="st17" d="M1417.1,931.4h-25.7c-1.2-1.8-2.3-3.5-3.3-5.3h25.9
					C1414.9,927.9,1416,929.7,1417.1,931.4z"/>
				<path id="XMLID_2780_" class="st17" d="M1421.7,938.5h-25.4c-1.3-1.8-2.5-3.5-3.7-5.3h25.7
					C1419.4,935.1,1420.5,936.8,1421.7,938.5z"/>
				<path id="XMLID_2778_" class="st17" d="M1426.8,945.7h-25.1c-1.4-1.8-2.7-3.5-4-5.3h25.4
					C1424.2,942.2,1425.5,943.9,1426.8,945.7z"/>
				<path id="XMLID_2776_" class="st17" d="M1432.3,952.8h-24.8c-1.5-1.8-3-3.5-4.4-5.3h25C1429.5,949.3,1430.9,951.1,1432.3,952.8z
					"/>
				<path id="XMLID_2774_" class="st17" d="M1438.3,959.9H1414c-1.6-1.8-3.3-3.5-4.8-5.3h24.6
					C1435.3,956.4,1436.8,958.2,1438.3,959.9z"/>
				<path id="XMLID_2772_" class="st17" d="M1444.9,967.1H1421c-1.8-1.8-3.6-3.5-5.2-5.3h24.2
					C1441.6,963.6,1443.3,965.3,1444.9,967.1z"/>
				<path id="XMLID_2770_" class="st17" d="M1452.1,974.2h-23.5c-2-1.8-3.9-3.5-5.7-5.3h23.8
					C1448.5,970.7,1450.3,972.5,1452.1,974.2z"/>
				<path id="XMLID_2768_" class="st17" d="M1460.1,981.3H1437c-2.1-1.8-4.2-3.5-6.2-5.3h23.4C1456,977.8,1458.1,979.6,1460.1,981.3
					z"/>
				<path id="XMLID_2766_" class="st17" d="M1468.8,988.5H1446c-2.4-1.8-4.6-3.5-6.8-5.3h23C1464.4,985,1466.6,986.7,1468.8,988.5z"
					/>
				<path id="XMLID_2569_" class="st17" d="M1478.4,995.6H1456c-2.6-1.8-5.1-3.5-7.5-5.3h22.7C1473.5,992.1,1476,993.9,1478.4,995.6
					z"/>
				<path id="XMLID_2567_" class="st17" d="M1489.2,1002.7h-22.2c-2.8-1.8-5.6-3.5-8.2-5.3h22.4
					C1483.8,999.2,1486.4,1001,1489.2,1002.7z"/>
				<path id="XMLID_2565_" class="st17" d="M1501.2,1009.8h-22.1c-3.2-1.8-6.2-3.5-9.1-5.3h22.2
					C1495.1,1006.4,1498.1,1008.2,1501.2,1009.8z"/>
				<path id="XMLID_2563_" class="st17" d="M1514.9,1017h-22.4c-3.5-1.7-6.8-3.5-10.1-5.3h22.2
					C1508,1013.5,1511.4,1015.3,1514.9,1017z"/>
				<path id="XMLID_2500_" class="st17" d="M1530.5,1024.1h-23.1c-3.9-1.8-7.6-3.5-11.3-5.3h22.6
					C1522.5,1020.7,1526.5,1022.4,1530.5,1024.1z"/>
				<path id="XMLID_2355_" class="st17" d="M1548.9,1031.2h-24.6c-4.4-1.7-8.6-3.5-12.7-5.3h23.4
					C1539.6,1027.8,1544.2,1029.6,1548.9,1031.2z"/>
				<path id="XMLID_2353_" class="st17" d="M1571.3,1038.4h-27.7c-5-1.7-9.9-3.5-14.6-5.3h25.1
					C1559.9,1035,1565.6,1036.8,1571.3,1038.4z"/>
				<path id="XMLID_2346_" class="st17" d="M1600.5,1045.5h-34.2c-5.9-1.7-11.6-3.5-17.2-5.3h28.8
					C1585.6,1042.2,1593.1,1044,1600.5,1045.5z"/>
				<path id="XMLID_1416_" class="st17" d="M1646.4,1052.6h-52.7c-7.2-1.7-14.2-3.5-20.9-5.3h37
					C1622.6,1049.7,1634.9,1051.4,1646.4,1052.6z"/>
			</g>
			<g id="XMLID_16_">
				<path id="XMLID_2797_" class="st0" d="M1392.4,876.2h-25.9c-0.2-0.6-0.3-1.2-0.5-1.8h25.9C1392.1,875,1392.2,875.6,1392.4,876.2
					z"/>
				<path id="XMLID_2795_" class="st0" d="M1394.7,883.3h-26.2c-0.2-0.6-0.4-1.2-0.5-1.8h26.1
					C1394.3,882.1,1394.4,882.7,1394.7,883.3z"/>
				<path id="XMLID_2793_" class="st0" d="M1397.2,890.5h-26.4c-0.2-0.6-0.4-1.2-0.6-1.8h26.4
					C1396.7,889.3,1396.9,889.9,1397.2,890.5z"/>
				<path id="XMLID_2791_" class="st0" d="M1399.9,897.6h-26.4c-0.3-0.6-0.5-1.2-0.7-1.8h26.4C1399.4,896.4,1399.7,897,1399.9,897.6
					z"/>
				<path id="XMLID_2789_" class="st0" d="M1403,904.7h-26.4c-0.3-0.6-0.6-1.2-0.8-1.8h26.4C1402.4,903.5,1402.7,904.1,1403,904.7z"
					/>
				<path id="XMLID_2787_" class="st0" d="M1406.3,911.9h-26.4c-0.3-0.6-0.6-1.2-0.9-1.8h26.4C1405.7,910.7,1406,911.3,1406.3,911.9
					z"/>
				<path id="XMLID_2785_" class="st0" d="M1410,919h-26.2c-0.3-0.6-0.7-1.2-1-1.8h26.2C1409.3,917.8,1409.6,918.4,1410,919z"/>
				<path id="XMLID_2783_" class="st0" d="M1413.9,926.1H1388c-0.4-0.6-0.8-1.2-1.1-1.9h26C1413.2,924.9,1413.5,925.5,1413.9,926.1z
					"/>
				<path id="XMLID_2781_" class="st0" d="M1418.3,933.3h-25.7c-0.4-0.6-0.8-1.2-1.3-1.9h25.7C1417.5,932,1417.8,932.6,1418.3,933.3
					z"/>
				<path id="XMLID_2779_" class="st0" d="M1423,940.4h-25.4c-0.5-0.6-0.9-1.2-1.3-1.9h25.4C1422.1,939.2,1422.5,939.8,1423,940.4z"
					/>
				<path id="XMLID_2777_" class="st0" d="M1428.2,947.5h-25c-0.5-0.6-1-1.2-1.5-1.9h25.1C1427.2,946.3,1427.7,946.9,1428.2,947.5z"
					/>
				<path id="XMLID_2775_" class="st0" d="M1433.8,954.7h-24.6c-0.6-0.6-1.1-1.2-1.6-1.9h24.8C1432.8,953.4,1433.3,954,1433.8,954.7
					z"/>
				<path id="XMLID_2773_" class="st0" d="M1440,961.8h-24.2c-0.6-0.6-1.2-1.2-1.8-1.9h24.3C1438.9,960.6,1439.4,961.2,1440,961.8z"
					/>
				<path id="XMLID_2771_" class="st0" d="M1446.7,968.9h-23.8c-0.6-0.6-1.3-1.2-1.9-1.9h23.9
					C1445.5,967.7,1446.1,968.3,1446.7,968.9z"/>
				<path id="XMLID_2769_" class="st0" d="M1454.1,976h-23.4c-0.7-0.6-1.4-1.2-2.1-1.8h23.5C1452.8,974.8,1453.5,975.4,1454.1,976z"
					/>
				<path id="XMLID_2767_" class="st0" d="M1462.2,983.1h-23c-0.8-0.6-1.5-1.2-2.2-1.8h23.1C1460.8,982,1461.5,982.5,1462.2,983.1z"
					/>
				<path id="XMLID_2765_" class="st0" d="M1471.2,990.3h-22.7c-0.8-0.6-1.6-1.2-2.4-1.8h22.7
					C1469.6,989.1,1470.4,989.7,1471.2,990.3z"/>
				<path id="XMLID_2568_" class="st0" d="M1481.1,997.4h-22.4c-1-0.6-1.9-1.2-2.7-1.8h22.4C1479.3,996.2,1480.2,996.8,1481.1,997.4
					z"/>
				<path id="XMLID_2566_" class="st0" d="M1492.2,1004.5h-22.2c-1-0.6-2-1.2-3-1.8h22.2C1490.2,1003.3,1491.1,1004,1492.2,1004.5z"
					/>
				<path id="XMLID_2564_" class="st0" d="M1504.5,1011.7h-22.2c-1.1-0.6-2.2-1.2-3.3-1.8h22.1
					C1502.3,1010.5,1503.4,1011.1,1504.5,1011.7z"/>
				<path id="XMLID_2501_" class="st0" d="M1518.6,1018.8h-22.6c-1.2-0.6-2.4-1.2-3.6-1.8h22.4
					C1516.1,1017.6,1517.3,1018.2,1518.6,1018.8z"/>
				<path id="XMLID_2356_" class="st0" d="M1534.9,1025.9h-23.4c-1.4-0.6-2.8-1.2-4.2-1.8h23.1
					C1532,1024.7,1533.4,1025.3,1534.9,1025.9z"/>
				<path id="XMLID_2354_" class="st0" d="M1554.2,1033.1H1529c-1.6-0.6-3.2-1.2-4.8-1.8h24.6
					C1550.7,1031.9,1552.4,1032.5,1554.2,1033.1z"/>
				<path id="XMLID_2347_" class="st0" d="M1578,1040.2h-28.8c-1.9-0.6-3.7-1.2-5.5-1.8h27.7C1573.6,1039,1575.8,1039.6,1578,1040.2
					z"/>
				<path id="XMLID_2344_" class="st0" d="M1609.8,1047.3h-37c-2.2-0.6-4.4-1.2-6.5-1.8h34.2
					C1603.7,1046.2,1606.8,1046.8,1609.8,1047.3z"/>
				<path id="XMLID_1415_" class="st0" d="M1667.8,1054.5h-66c-2.7-0.6-5.4-1.2-8.1-1.8h52.7
					C1653.9,1053.4,1661.1,1054,1667.8,1054.5z"/>
			</g>
		</g>
		<rect id="XMLID_2801_" x="1337.3" y="843.4" class="st19" width="10.6" height="224.3"/>
	</g>
	<g id="hotel">
		<rect id="XMLID_3585_" x="546.8" y="590.3" class="st19" width="7.4" height="470.1"/>
		<rect id="XMLID_3584_" x="551.9" y="585.2" class="st17" width="35.1" height="475.3"/>
		<g id="XMLID_3574_">
			<path id="XMLID_3581_" class="st15" d="M575.9,239v307.1h-5.4v-295C572.8,248.1,575,244,575.9,239z"/>
			<polygon id="XMLID_3578_" class="st14" points="570.5,397 570.5,546.1 558.8,546.1 560.8,399.7 			"/>
			<path id="XMLID_3575_" class="st15" d="M570.5,251.1V397l-9.8,2.7l1.9-141.1l0,0C563.1,258.4,567,255.9,570.5,251.1z"/>
		</g>
		<g id="XMLID_6_">
			<path id="XMLID_3568_" class="st14" d="M764.4,576.9H597.6v-12.8h158.3C758.4,567.9,761.3,572.2,764.4,576.9z"/>
			<path id="XMLID_3555_" class="st14" d="M785.8,613.8H597.6v-12.8h181.3C781.1,605,783.5,609.3,785.8,613.8z"/>
			<path id="XMLID_3542_" class="st14" d="M803.7,650.6H597.6v-12.8h200.3C799.8,642,801.7,646.2,803.7,650.6z"/>
			<path id="XMLID_3423_" class="st14" d="M818.4,687.5H597.6v-12.8h216.1C815.2,678.8,816.8,683.1,818.4,687.5z"/>
			<path id="XMLID_3410_" class="st14" d="M830.4,724.3H597.6v-12.8h229C827.9,715.7,829.1,720,830.4,724.3z"/>
			<path id="XMLID_3397_" class="st14" d="M839.9,761.2H597.6v-12.8h239.3C837.9,752.5,838.9,756.8,839.9,761.2z"/>
			<path id="XMLID_3384_" class="st14" d="M847,798H597.6v-12.8h247.3C845.6,789.4,846.3,793.7,847,798z"/>
			<path id="XMLID_3371_" class="st14" d="M851.8,834.8H597.6V822h252.8C850.9,826.3,851.4,830.5,851.8,834.8z"/>
			<path id="XMLID_3358_" class="st14" d="M854.5,871.7h-257v-12.8h256.3C854.1,863.1,854.4,867.4,854.5,871.7z"/>
			<path id="XMLID_3345_" class="st14" d="M855.1,895.7c0.1,4.2,0,8.5,0,12.8H597.6v-12.8H855.1z"/>
			<path id="XMLID_3332_" class="st14" d="M854.3,932.6c-0.2,4.3-0.4,8.5-0.7,12.8h-256v-12.8H854.3z"/>
			<path id="XMLID_3319_" class="st14" d="M851.5,969.4c-0.4,4.3-0.9,8.5-1.4,12.8H597.6v-12.8H851.5z"/>
			<path id="XMLID_3306_" class="st14" d="M846.8,1006.3c-0.7,4.3-1.4,8.5-2.1,12.8H597.6v-12.8H846.8z"/>
			<path id="XMLID_3293_" class="st14" d="M840,1043.1c-0.9,4.3-1.8,8.5-2.8,12.8H597.6v-12.8H840z"/>
		</g>
		<g id="XMLID_7_">
			<g>
				<g id="XMLID_00000057121684389769421950000004137560124916569774_">
					<path class="st0" d="M755.8,564.1H597.6v-6h154C752.9,559.9,754.3,561.9,755.8,564.1z"/>
				</g>
				<g id="XMLID_00000048496175539886002490000001664064742489240757_">
					<path class="st0" d="M768.2,582.9H597.6v-6h166.8C765.6,578.9,766.9,580.9,768.2,582.9z"/>
				</g>
				<g id="XMLID_00000052073147247510198860000016751817974668614041_">
					<path class="st0" d="M778.8,600.9H597.6v-6h177.8C776.5,596.9,777.7,598.9,778.8,600.9z"/>
				</g>
				<g id="XMLID_00000132802433696112629160000002577940356590103474_">
					<path class="st0" d="M789,619.8H597.6v-6h188.3C786.9,615.7,787.9,617.7,789,619.8z"/>
				</g>
				<g id="XMLID_00000039845398183196888300000005865487936173052860_">
					<path class="st0" d="M797.8,637.8H597.6v-6H795C795.9,633.8,796.9,635.8,797.8,637.8z"/>
				</g>
				<g id="XMLID_00000042698228550314021670000004994498181458825113_">
					<path class="st0" d="M806.2,656.6H597.6v-6h206.1C804.5,652.6,805.4,654.6,806.2,656.6z"/>
				</g>
				<g id="XMLID_00000053529020218282846080000002572309165548162469_">
					<path class="st0" d="M813.6,674.6H597.6v-6h213.7C812,670.6,812.8,672.6,813.6,674.6z"/>
				</g>
				<g id="XMLID_00000141453270571514855250000015777817634677290396_">
					<path class="st0" d="M820.5,693.5h-223v-6h220.9C819.1,689.4,819.8,691.4,820.5,693.5z"/>
				</g>
				<g id="XMLID_00000108278395235332844130000009475917008121901977_">
					<path class="st0" d="M826.5,711.5h-229v-6h227C825.3,707.5,825.9,709.5,826.5,711.5z"/>
				</g>
				<g id="XMLID_00000023279965844872823700000011844772574830025111_">
					<path class="st0" d="M832.1,730.3H597.6v-6h232.9C831,726.3,831.6,728.3,832.1,730.3z"/>
				</g>
				<g id="XMLID_00000026867616756134690240000001659489623930820533_">
					<path class="st0" d="M836.9,748.3H597.6v-6h237.8C835.9,744.3,836.4,746.3,836.9,748.3z"/>
				</g>
				<g id="XMLID_00000016782215059700772150000012214433667070906284_">
					<path class="st0" d="M841.2,767.2H597.6v-6h242.4C840.4,763.2,840.8,765.2,841.2,767.2z"/>
				</g>
				<g id="XMLID_00000106851730884874950840000006207566068929993361_">
					<path class="st0" d="M844.8,785.2H597.6v-6h246.1C844,781.2,844.4,783.2,844.8,785.2z"/>
				</g>
				<g id="XMLID_00000093872262480391331320000014639185880901096633_">
					<path class="st0" d="M847.9,804H597.6v-6H847C847.3,800,847.7,802,847.9,804z"/>
				</g>
				<g id="XMLID_00000123423528290191556230000008979825285055868037_">
					<path class="st0" d="M850.4,822H597.6v-6h252.1C849.9,818,850.2,820,850.4,822z"/>
				</g>
				<g id="XMLID_00000124144911703045834400000012829612588904915329_">
					<path class="st0" d="M852.4,840.8H597.6v-6h254.3C852.1,836.8,852.3,838.8,852.4,840.8z"/>
				</g>
				<g id="XMLID_00000064325730082919984700000016787624870624774833_">
					<path class="st0" d="M854.7,877.7H597.6v-6h257C854.6,873.7,854.7,875.7,854.7,877.7z"/>
				</g>
				<g id="XMLID_00000059998778584503708680000017939964498305021861_">
					<path class="st0" d="M855.1,895.7H597.6v-6h257.5C855.1,891.7,855.1,893.7,855.1,895.7z"/>
				</g>
				<g id="XMLID_00000039817344694660249970000000777934104092823693_">
					<path class="st0" d="M855.1,908.5c0,2-0.1,4-0.1,6H597.6v-6H855.1z"/>
				</g>
				<g id="XMLID_00000031203221390420264220000001950337856197562018_">
					<path class="st0" d="M854.6,926.6c-0.1,2-0.2,4-0.3,6H597.6v-6H854.6z"/>
				</g>
				<g id="XMLID_00000116199587594999893730000006605272368005527955_">
					<path class="st0" d="M853.6,945.4c-0.1,2-0.2,4-0.4,6H597.6v-6H853.6z"/>
				</g>
				<g id="XMLID_00000116939410498879991410000001365761077638274689_">
					<path class="st0" d="M852.1,963.4c-0.2,2-0.4,4-0.6,6h-254v-6H852.1z"/>
				</g>
				<g id="XMLID_00000134971565896233337420000006869480770823251864_">
					<path class="st0" d="M850.1,982.2c-0.2,2-0.5,4-0.8,6H597.6v-6H850.1z"/>
				</g>
				<g id="XMLID_00000021820638141114615870000002498003931384839567_">
					<path class="st0" d="M847.7,1000.3c-0.3,2-0.6,4-0.9,6H597.6v-6H847.7z"/>
				</g>
				<g id="XMLID_00000034090944260599430950000015431013695292648607_">
					<path class="st0" d="M844.7,1019.1c-0.3,2-0.7,4-1.1,6h-246v-6H844.7z"/>
				</g>
				<g id="XMLID_00000180342044390616663770000006007136077720731061_">
					<path class="st0" d="M841.3,1037.1c-0.4,2-0.8,4-1.2,6H597.6v-6H841.3z"/>
				</g>
				<g id="XMLID_00000142164487070381708190000011613103552178531987_">
					<path class="st0" d="M837.2,1055.9c-0.4,2-0.9,4-1.4,6H597.6v-6H837.2z"/>
				</g>
				<g id="XMLID_00000041296357222427537200000002182546406056325017_">
					<path class="st0" d="M853.8,858.9H597.6v-6h255.8C853.6,854.9,853.7,856.9,853.8,858.9z"/>
				</g>
			</g>
		</g>
		<g id="XMLID_8_">
			<path id="XMLID_3361_" class="st17" d="M853.4,852.9H597.6v-12h254.9C852.8,844.8,853.1,848.8,853.4,852.9z"/>
			<path id="XMLID_3571_" class="st17" d="M751.6,558.1h-154v-12h144.9C744.3,548.4,747.5,552.5,751.6,558.1z"/>
			<path id="XMLID_3558_" class="st17" d="M775.4,594.9H597.6v-12h170.6C770.5,586.7,772.9,590.7,775.4,594.9z"/>
			<path id="XMLID_3545_" class="st17" d="M795,631.8H597.6v-12H789C791,623.7,793,627.7,795,631.8z"/>
			<path id="XMLID_3426_" class="st17" d="M811.2,668.6H597.6v-12h208.7C807.9,660.5,809.6,664.5,811.2,668.6z"/>
			<path id="XMLID_3413_" class="st17" d="M824.6,705.5h-227v-12h223C821.9,697.4,823.3,701.4,824.6,705.5z"/>
			<path id="XMLID_3400_" class="st17" d="M835.3,742.3H597.6v-12h234.6C833.2,734.2,834.3,738.2,835.3,742.3z"/>
			<path id="XMLID_3387_" class="st17" d="M843.7,779.2H597.6v-12h243.7C842.1,771.1,842.9,775.1,843.7,779.2z"/>
			<path id="XMLID_3374_" class="st17" d="M849.7,816H597.6v-12h250.4C848.6,808,849.1,812,849.7,816z"/>
			<path id="XMLID_3348_" class="st17" d="M855.1,889.7H597.6v-12h257.2C854.9,881.7,855,885.7,855.1,889.7z"/>
			<path id="XMLID_3335_" class="st17" d="M855,914.5c-0.1,4-0.2,8-0.4,12h-257v-12H855z"/>
			<path id="XMLID_3322_" class="st17" d="M853.2,951.4c-0.3,4-0.6,8-1,12H597.6v-12H853.2z"/>
			<path id="XMLID_3309_" class="st17" d="M849.4,988.3c-0.5,4-1.1,8-1.7,12H597.6v-12H849.4z"/>
			<path id="XMLID_3296_" class="st17" d="M843.6,1025.1c-0.7,4-1.5,8-2.3,12H597.6v-12H843.6z"/>
			<path id="XMLID_3147_" class="st17" d="M835.9,1061.9c-0.9,4-1.9,8-2.9,12H597.6v-12H835.9z"/>
		</g>
		<rect id="XMLID_3145_" x="468.1" y="1060.4" class="st15" width="123.4" height="5.9"/>
		<rect id="XMLID_3142_" x="468.1" y="1066.3" class="st20" width="126.5" height="7.6"/>
		<rect id="XMLID_3141_" x="547.5" y="546.1" class="st17" width="19.9" height="16.2"/>
		<path id="XMLID_3140_" class="st15" d="M646.4,1073.9c0,0-21.1-19.2-21.1-46.7c0-27.5-28.4-625.9-28.4-625.9
			s316.2,250.1,203.2,672.6h24.4c118.7-466-257.1-712.2-257.1-712.2v607.5c0,25.7,4.1,51.3,13.1,75.8c3.8,10.3,8.4,20.5,14,28.9
			H646.4z"/>
		<path id="XMLID_3137_" class="st15" d="M688.4,546.1h-18.6c-22.1-53.4-52.9-97.8-71.8-122.2l-0.9-18.8
			C597.1,405.1,654.4,464,688.4,546.1z"/>
		<path id="XMLID_3134_" class="st14" d="M669.8,546.1H663c-19.5-47-45.7-87-64.5-112.6l-0.5-9.6
			C616.9,448.3,647.7,492.7,669.8,546.1z"/>
		<g id="XMLID_3123_">
			<path id="XMLID_3131_" class="st21" d="M813.9,545.2c0,1.9-16.5,0.4-36.8,0.4c-20.3,0-36.8,1.4-36.8-0.4c0-1.9,16.5-6.3,36.8-6.3
				C797.4,538.9,813.9,543.3,813.9,545.2z"/>
			<path id="XMLID_3128_" class="st22" d="M813.9,545.2c0,1.9-16.5,3.4-36.8,3.4c-20.3,0-36.8-1.5-36.8-3.4c0-1.9,16.5-3.4,36.8-3.4
				C797.4,541.8,813.9,543.3,813.9,545.2z"/>
			<path id="XMLID_3125_" class="st17" d="M759.3,548.1c0,0,2.8,10,10.3,19.4c1.1,1.3,3.4,1.5,4.7,0.3c3.6-3.3,10.3-10.3,14.5-19.7
				H759.3z"/>
			<polyline id="XMLID_3124_" class="st23" points="758.7,570 772.6,558.1 764.3,578.7 			"/>
		</g>
		<polygon id="XMLID_3120_" class="st24" points="573.1,563.3 573.1,563.3 572.7,563.3 		"/>
		<path id="XMLID_3117_" class="st24" d="M572.7,563.3l-5.8,0.4C568.8,563.5,570.7,563.4,572.7,563.3z"/>
		<g id="XMLID_3115_">
			<g>
				<path id="XMLID_00000075121369240225059620000005611805889806493332_" class="st0" d="M611.9,571.1c0,7.8-16.9,14.1-37.7,14.1
					h-22.3v5.1h-14.1c-20.1-0.3-30.5-3.6-30.5-4.8c0-0.9,1.3-1.3,1.3-1.3l29.3-9.3l0.1,0c-0.9-1.2-1.5-2.5-1.5-3.8
					c0-1,0.3-1.9,0.7-2.8l-28.6,9.6c0,0-2.8-0.2-2.8-1.9c0-1.7,5.1-3.1,5.1-3.1l39.2-12.7v0c6.5-2.1,14.9-3.3,24.1-3.3
					C595,557,611.9,563.3,611.9,571.1z"/>
			</g>
		</g>
		<path id="XMLID_3114_" class="st22" d="M606.5,569.6c0,3.5-12.8,6.4-28.6,6.4c-12.4,0-22.9-1.7-26.9-4.2h-3.5l-38.9,12.4V578
			l38.3-12.9l19.9-1.3c0.1,0,0.1,0,0.2,0l5.8-0.4h0.4c1.5-0.1,3.1-0.1,4.8-0.1C593.7,563.2,606.5,566.1,606.5,569.6z"/>
		<polygon id="XMLID_3111_" class="st25" points="600.1,581.3 567.5,607.4 567.5,585.2 		"/>
		<g id="XMLID_3103_">
			<path id="XMLID_3110_" class="st26" d="M809.3,755.8c0,0-126.6,87.7-188.5,160.7C620.8,916.5,752.4,837.8,809.3,755.8z"/>
			<line id="XMLID_3109_" class="st26" x1="766.2" y1="787.2" x2="776.4" y2="795.3"/>
			<line id="XMLID_3108_" class="st26" x1="743.7" y1="804.5" x2="757" y2="814.5"/>
			<line id="XMLID_3107_" class="st26" x1="722.6" y1="821.3" x2="736.7" y2="832.6"/>
			<line id="XMLID_3106_" class="st26" x1="700.4" y1="839.6" x2="714.4" y2="851"/>
			<line id="XMLID_3105_" class="st26" x1="679.6" y1="857.7" x2="691.9" y2="868.3"/>
			<line id="XMLID_3104_" class="st26" x1="659.3" y1="876.4" x2="669.4" y2="884.5"/>
		</g>
		<g id="XMLID_3095_">
			<path id="XMLID_3102_" class="st27" d="M747.8,591.7c0,0-93.9,90.6-134.5,160.8C613.3,752.6,713.1,669.2,747.8,591.7z"/>
			<line id="XMLID_3101_" class="st27" x1="716.1" y1="623.9" x2="726.4" y2="629.7"/>
			<line id="XMLID_3100_" class="st27" x1="699.7" y1="641.5" x2="712.9" y2="648.5"/>
			<line id="XMLID_3099_" class="st27" x1="684.5" y1="658.4" x2="698.6" y2="666.6"/>
			<line id="XMLID_3098_" class="st27" x1="668.5" y1="676.9" x2="682.5" y2="685.1"/>
			<line id="XMLID_3097_" class="st27" x1="653.7" y1="695" x2="666.2" y2="702.6"/>
			<line id="XMLID_3096_" class="st27" x1="639.5" y1="713.4" x2="649.7" y2="719.3"/>
		</g>
		<g id="XMLID_3087_">
			<path id="XMLID_3094_" class="st28" d="M824.6,919.2c0,0-130.3,64.9-199.1,124.1C625.5,1043.3,758.7,987.2,824.6,919.2z"/>
			<line id="XMLID_3093_" class="st28" x1="779.9" y1="942.7" x2="787.9" y2="951.3"/>
			<line id="XMLID_3092_" class="st28" x1="756.5" y1="955.8" x2="766.9" y2="966.4"/>
			<line id="XMLID_3091_" class="st28" x1="734.4" y1="968.6" x2="745.3" y2="980.6"/>
			<line id="XMLID_3090_" class="st28" x1="711.1" y1="982.7" x2="721.8" y2="994.7"/>
			<line id="XMLID_3089_" class="st28" x1="689" y1="996.7" x2="698.5" y2="1007.7"/>
			<line id="XMLID_3088_" class="st28" x1="667.4" y1="1011.3" x2="675.2" y2="1019.9"/>
		</g>
		<polygon id="XMLID_3086_" class="st15" points="620.8,916.5 824.6,905.6 824.6,919.2 620.8,931.3 		"/>
		<polygon id="XMLID_3085_" class="st15" points="609.2,752.8 812.9,741.9 812.9,755.5 609.2,767.6 		"/>
		<polygon id="XMLID_3084_" class="st15" points="594.4,587 754.7,578.4 754.7,591.9 594.4,601.8 		"/>
	</g>
	<g>
		<rect id="XMLID_1341_" x="0.6" y="1058.3" class="st29" width="1919.4" height="22.3"/>
		<polygon id="XMLID_1320_" class="st17" points="243.6,1080.6 302.7,1058.3 870.5,1058.3 920.9,1080.6 		"/>
	</g>
</g>
</svg>
